<svg width="18" height="18" viewBox="0 0 18 18" fill="none" xmlns="http://www.w3.org/2000/svg">
<path d="M8.72429 12.0665C8.20964 12.0665 7.79297 12.4954 7.79297 13.0101C7.79297 13.5125 8.19737 13.9537 8.72429 13.9537C9.2512 13.9537 9.66787 13.5126 9.66787 13.0101C9.66787 12.4954 9.23901 12.0665 8.72429 12.0665Z"/>
<path d="M8.88286 4.922C7.22851 4.922 6.46875 5.90233 6.46875 6.56407C6.46875 7.04202 6.87312 7.26259 7.20401 7.26259C7.86572 7.26259 7.59614 6.319 8.84609 6.319C9.45882 6.319 9.94901 6.58861 9.94901 7.1523C9.94901 7.81408 9.26276 8.19395 8.85836 8.53707C8.503 8.84342 8.03732 9.34587 8.03732 10.3998C8.03732 11.037 8.20884 11.2208 8.7113 11.2208C9.31177 11.2208 9.43429 10.9512 9.43429 10.7184C9.43429 10.0811 9.44659 9.7135 10.1206 9.18658C10.4514 8.92924 11.4931 8.09593 11.4931 6.944C11.4931 5.79208 10.4514 4.922 8.88286 4.922Z"/>
<path d="M9 0C4.02595 0 0 4.02528 0 9V17.2969C0 17.6852 0.314789 18 0.703125 18H9C13.974 18 18 13.9747 18 9C18 4.02595 13.9747 0 9 0ZM9 16.5938H1.40625V9C1.40625 4.80315 4.80259 1.40625 9 1.40625C13.1968 1.40625 16.5938 4.80259 16.5938 9C16.5938 13.1968 13.1974 16.5938 9 16.5938Z"/>
</svg>
