<svg width="20" height="21" viewBox="0 0 20 21" fill="none" xmlns="http://www.w3.org/2000/svg">
<path fill-rule="evenodd" clip-rule="evenodd" d="M8.95265 0.32918L0 9.25321L1.07626 9.25476C1.6728 9.25476 2.1489 9.74038 2.14889 10.3394C2.14889 10.3394 2.14866 20.1516 2.14764 20.1516C2.14764 20.1516 4.06336 20.1516 6.53425 20.1515C6.52837 20.1058 6.52534 20.0593 6.52534 20.012V14.572C6.52534 12.7948 7.96608 11.354 9.74331 11.354C11.5205 11.354 12.9613 12.7948 12.9613 14.572V20.012C12.9613 20.0593 12.9582 20.1058 12.9524 20.1514C15.4237 20.1514 17.3399 20.1515 17.3399 20.1518L17.3411 10.3395C17.3412 9.73705 17.8212 9.25476 18.4132 9.25476H19.4816L10.5364 0.32918C10.0975 -0.11006 9.39086 -0.109393 8.95265 0.32918Z"/>
</svg>
