<svg width="17" height="16" viewBox="0 0 17 16" fill="none" xmlns="http://www.w3.org/2000/svg">
<path d="M16.4777 4.60879C16.6246 4.79251 16.6797 5.01299 16.643 5.27021L15.9448 9.2755C15.9204 9.48379 15.8254 9.65521 15.6601 9.78994C15.4947 9.92467 15.308 9.99204 15.0997 9.99204H4.92118L4.71908 11.1312H14.4199C14.6527 11.1312 14.8546 11.2138 15.0262 11.3792C15.1977 11.5445 15.2834 11.7497 15.2834 11.9947C15.2834 12.2396 15.1977 12.4448 15.0262 12.6102C14.8546 12.7755 14.6527 12.8582 14.4199 12.8582H3.69021C3.43299 12.8582 3.21251 12.7541 3.02879 12.5459C2.85731 12.3377 2.78994 12.0988 2.82669 11.8294L3.28601 9.33071L2.58784 2.31225L0.60358 1.68757C0.370858 1.61408 0.202441 1.47319 0.0983284 1.265C-0.00578402 1.05675 -0.0272189 0.836302 0.0340237 0.60358C0.107515 0.370858 0.251435 0.202441 0.465784 0.0983284C0.680133 -0.00578402 0.897544 -0.0272189 1.11802 0.0340237L3.65346 0.842426C3.81269 0.89142 3.94436 0.983284 4.04848 1.11802C4.15259 1.25275 4.21689 1.40589 4.24139 1.57737L4.38837 2.9737L15.8897 4.25979C16.1469 4.29645 16.3429 4.41281 16.4777 4.60879ZM4.9947 13.3359C5.36216 13.3359 5.6745 13.4645 5.93172 13.7218C6.18893 13.9789 6.31754 14.2913 6.31754 14.6588C6.31754 15.0262 6.18893 15.3416 5.93172 15.605C5.6745 15.8683 5.36216 16 4.9947 16C4.62725 16 4.31491 15.8683 4.05769 15.605C3.80047 15.3417 3.67186 15.0262 3.67186 14.6588C3.67186 14.2913 3.80047 13.9789 4.05769 13.7218C4.31488 13.4645 4.62722 13.3359 4.9947 13.3359ZM12.8399 13.3359C13.2072 13.3359 13.5197 13.4645 13.7769 13.7218C14.034 13.9789 14.1627 14.2913 14.1627 14.6588C14.1627 15.0262 14.0341 15.3416 13.7769 15.605C13.5197 15.8683 13.2072 16 12.8399 16C12.4724 16 12.16 15.8683 11.9029 15.605C11.6456 15.3417 11.517 15.0262 11.517 14.6588C11.517 14.2913 11.6456 13.9789 11.9029 13.7218C12.1601 13.4645 12.4724 13.3359 12.8399 13.3359Z"/>
</svg>
