<svg width="100" height="100" viewBox="0 0 100 100" fill="none" xmlns="http://www.w3.org/2000/svg">
<path d="M49.9986 99.9972C77.612 99.9972 99.9972 77.612 99.9972 49.9986C99.9972 22.3851 77.612 0 49.9986 0C22.3851 0 0 22.3851 0 49.9986C0 77.612 22.3851 99.9972 49.9986 99.9972Z" fill="#1AC222"/>
<path d="M67.575 28.5583H32.422L35.7509 14.7767C36.3502 12.2467 38.4141 10.4491 40.8109 10.4491H59.1864C61.5168 10.4491 63.5806 12.2467 64.2465 14.7767L67.575 28.5583ZM37.0824 24.9631H62.9146L60.6508 15.6422C60.4512 14.7102 59.7853 14.1109 59.1195 14.1109H40.8106C40.1447 14.1109 39.5457 14.7102 39.2792 15.6422L37.0824 24.9631Z" fill="#886C60"/>
<path d="M90.7328 24.3295C90.7328 23.1977 89.8007 22.2656 88.6024 22.2656H11.5052C10.3734 22.2656 9.37476 23.1977 9.37476 24.3295V45.6344H90.733L90.7328 24.3295Z" fill="#886C60"/>
<path d="M9.96103 45.605V78.0951C9.96103 79.2269 10.8931 80.159 12.0249 80.159H87.9903C89.1221 80.159 90.0542 79.2269 90.0542 78.0951V45.605H9.96103Z" fill="#74594E"/>
<path d="M58.0409 40.4293H41.7973V50.5492H58.0409V40.4293Z" fill="#F1F3F7"/>
</svg>
