<svg width="27" height="44" viewBox="0 0 27 44" fill="none" xmlns="http://www.w3.org/2000/svg">
<path d="M24.1079 5.65488C23.0451 5.65488 22.1831 6.53199 22.1831 7.61454V16.1071C22.1831 16.4675 21.8948 16.7606 21.5414 16.7606C21.188 16.7606 20.8998 16.4675 20.8998 16.1071V3.69503C20.8998 2.61239 20.0374 1.73518 18.9747 1.73518C17.912 1.73518 17.0497 2.61248 17.0497 3.69503V14.8007C17.0497 15.161 16.7615 15.4539 16.4081 15.4539C16.0546 15.4539 15.7663 15.161 15.7663 14.8007V2.38856C15.7661 1.30592 14.9047 0.428711 13.8413 0.428711C12.7779 0.428711 11.9164 1.30601 11.9164 2.38856V14.8008C11.9164 15.1611 11.6286 15.454 11.2748 15.454C10.9206 15.454 10.8627 15.1611 10.8627 14.8008V5.00159C10.8627 3.91886 10.001 3.04175 8.93762 3.04175C7.8742 3.04175 7.01257 3.91895 7.01257 5.00159C7.01257 5.00159 7.03038 12.1978 7.03038 12.9343C7.03038 13.6708 7.26485 13.969 7.38081 14.1244C8.82814 16.0653 10.1941 17.8958 10.3869 18.1498C11.4816 19.5919 11.5833 18.9545 14.3085 19.6175C14.3104 19.6177 14.312 19.6184 14.3136 19.6186C14.3139 19.6189 14.3143 19.6189 14.3146 19.6191C14.315 19.6193 14.315 19.6193 14.315 19.6193C14.4888 19.6599 14.6588 19.7102 14.8255 19.7689C16.1708 20.2388 19.24 21.3955 19.24 21.3955C19.8197 21.6055 20.1314 22.2148 19.9376 22.7588C19.7384 23.2982 19.1118 23.5675 18.5273 23.359C18.5273 23.359 17.2911 22.9965 17.1672 22.9584C17.0433 22.92 16.7071 22.8548 17.0025 23.2439C17.2979 23.6329 20.9689 28.468 20.9689 28.468C21.2537 28.843 21.1859 29.3816 20.8176 29.6709C20.4496 29.961 19.9205 29.8919 19.636 29.517L17.0602 26.1247C16.9652 25.9999 16.8683 25.9141 16.7456 26.0103C16.6232 26.107 16.6005 26.2865 16.6953 26.4117L19.9581 30.7089C20.2427 31.0838 20.1752 31.622 19.8068 31.912C19.4386 32.2017 18.91 32.1327 18.6253 31.758L15.3621 27.4603C15.2675 27.3357 15.0909 27.3127 14.9683 27.409C14.8461 27.5052 14.8232 27.6854 14.9179 27.8101L17.8374 31.6552C18.1218 32.03 18.0539 32.569 17.686 32.8582C17.318 33.148 16.7889 33.0789 16.5045 32.7041L13.2415 28.4067C13.1469 28.2818 12.9701 28.2592 12.8479 28.3557C12.7255 28.4517 12.7024 28.6318 12.7974 28.7566L15.0296 31.6968C15.3144 32.0717 15.2464 32.61 14.8783 32.9001C14.5106 33.1892 13.9814 33.1209 13.6966 32.7461C13.6966 32.7461 9.61244 27.3664 9.06013 26.6389C9.04995 26.6257 9.03923 26.6114 9.02851 26.5966C7.19966 24.1587 8.2551 23.0128 7.03941 21.2814L6.88067 21.0657C6.51731 20.5844 5.92975 19.7836 5.25033 18.8497L4.41421 17.7131C3.64408 16.5048 2.14139 16.0996 1.04032 16.7919C-0.0569418 17.5 -0.329507 19.0445 0.430611 20.249C0.430611 20.249 4.39268 26.7077 6.17858 29.4713C6.39985 29.8143 6.6384 30.1474 6.89644 30.4687C6.89662 30.4689 6.89671 30.4691 6.89688 30.4693C6.89724 30.4699 6.89768 30.4702 6.89786 30.4706C6.90052 30.4739 6.90317 30.4772 6.90565 30.4804C9.04835 33.2826 10.4637 35.7626 10.4637 38.2071C10.4637 39.0384 10.4512 40.8975 10.4289 42.0298C10.4156 42.7067 10.2663 43.5081 11.4475 43.5081C12.6286 43.5081 20.5262 43.5081 21.3096 43.5081C22.3135 43.5081 22.2894 42.7421 22.2977 42.4058C22.3994 38.2537 22.3239 41.3562 22.3239 38.2071C22.3239 32.9785 25.9908 32.5699 26.0319 25.3749C26.0327 25.3328 26.0331 25.2919 26.0331 25.2532C26.0331 23.1529 26.0331 7.61472 26.0331 7.61472C26.0331 6.53199 25.1706 5.65488 24.1079 5.65488Z" fill="white" fill-opacity="0.4"/>
</svg>
