<svg width="100" height="99" viewBox="0 0 100 99" fill="none" xmlns="http://www.w3.org/2000/svg">
<path d="M47.8516 98.2422C74.2793 98.2422 95.7031 76.8183 95.7031 50.3906C95.7031 23.9629 74.2793 2.53906 47.8516 2.53906C21.4239 2.53906 0 23.9629 0 50.3906C0 76.8183 21.4239 98.2422 47.8516 98.2422Z" fill="#91E0E8"/>
<path d="M11.1328 30.3379H4.39512C1.57578 36.4375 0 43.2295 0 50.3904C0 51.2406 0.0230469 52.0859 0.0667969 52.9252H11.1328V30.3379Z" fill="#445EA0"/>
<path d="M81.1286 65.2832H76.9302V81.0787H81.1286C82.2028 81.0787 83.0817 80.1998 83.0817 79.1256V67.2363C83.0817 66.1621 82.2028 65.2832 81.1286 65.2832Z" fill="#293D7C"/>
<path d="M55.021 64.5486V81.8129L71.1798 91.4541V54.9072L55.021 64.5486Z" fill="#EEF6FF"/>
<path d="M77.125 94.544C77.125 95.0812 76.6855 95.5206 76.1484 95.5206H71.9609C71.4238 95.5206 70.9844 95.0812 70.9844 94.544V51.8179C70.9844 51.2808 71.4238 50.8413 71.9609 50.8413H76.1484C76.6855 50.8413 77.125 51.2808 77.125 51.8179V94.544Z" fill="#FE3745"/>
<path d="M74.3395 94.544V51.8179C74.3395 51.2808 74.779 50.8413 75.3161 50.8413H71.9614C71.4243 50.8413 70.9849 51.2808 70.9849 51.8179V94.5442C70.9849 95.0813 71.4243 95.5208 71.9614 95.5208H75.3161C74.779 95.5206 74.3395 95.0811 74.3395 94.544Z" fill="#B7092B"/>
<path d="M37.2893 65.9473H32.7617C32.2246 65.9473 31.7852 66.3867 31.7852 66.9238V79.4371C31.7852 79.9742 32.2246 80.4137 32.7617 80.4137H37.2893V65.9473Z" fill="#EEF6FF"/>
<path d="M34.6191 79.4371V66.9238C34.6191 66.3867 35.0586 65.9473 35.5957 65.9473H32.7617C32.2246 65.9473 31.7852 66.3867 31.7852 66.9238V79.4371C31.7852 79.9742 32.2246 80.4137 32.7617 80.4137H35.5957C35.0586 80.4137 34.6191 79.9742 34.6191 79.4371Z" fill="#D9EAFC"/>
<path d="M55.2161 81.9071C55.2161 82.4442 54.7767 82.8837 54.2396 82.8837H38.0698C37.5327 82.8837 37.0933 82.4442 37.0933 81.9071V64.4546C37.0933 63.9175 37.5327 63.478 38.0698 63.478H54.2396C54.7767 63.478 55.2161 63.9175 55.2161 64.4546V81.9071Z" fill="#FE3745"/>
<path d="M40.9688 81.9071V64.4546C40.9688 63.9175 41.4083 63.478 41.9454 63.478H38.0698C37.5327 63.478 37.0933 63.9175 37.0933 64.4546V81.9071C37.0933 82.4442 37.5327 82.8837 38.0698 82.8837H41.9454C41.4083 82.8837 40.9688 82.4442 40.9688 81.9071Z" fill="#B7092B"/>
<path d="M94.6345 15.7505C94.6345 15.2134 94.195 14.7739 93.6579 14.7739H67.0073C66.4702 14.7739 66.0308 15.2134 66.0308 15.7505V34.2966C66.0308 34.8337 66.4702 35.2731 67.0073 35.2731H75.052C75.5892 35.2731 76.2917 35.6251 76.6134 36.0554L79.7478 40.2483C80.0692 40.6786 80.5958 40.6786 80.9173 40.2483L84.0517 36.0554C84.3733 35.6251 85.0759 35.2731 85.613 35.2731H93.6577C94.1948 35.2731 94.6343 34.8337 94.6343 34.2966V15.7505H94.6345Z" fill="#52BBEF"/>
<path d="M69.9063 34.2966V15.7505C69.9063 15.2134 70.3458 14.7739 70.8829 14.7739H67.0073C66.4702 14.7739 66.0308 15.2134 66.0308 15.7505V34.2966C66.0308 34.8337 66.4702 35.2732 67.0073 35.2732H70.8829C70.3458 35.2732 69.9063 34.8337 69.9063 34.2966Z" fill="#1E99D6"/>
<path d="M88.7 22.0195H71.9648C71.1557 22.0195 70.5 21.3639 70.5 20.5547C70.5 19.7457 71.1557 19.0898 71.9648 19.0898H88.7C89.5092 19.0898 90.1648 19.7457 90.1648 20.5547C90.1648 21.3639 89.509 22.0195 88.7 22.0195Z" fill="white"/>
<path d="M88.7 26.561H71.9648C71.1557 26.561 70.5 25.9054 70.5 25.0962C70.5 24.287 71.1557 23.6313 71.9648 23.6313H88.7C89.5092 23.6313 90.1648 24.287 90.1648 25.0962C90.1648 25.9054 89.509 26.561 88.7 26.561Z" fill="white"/>
<path d="M80.3658 31.1022H71.9648C71.1557 31.1022 70.5 30.4465 70.5 29.6373C70.5 28.8281 71.1557 28.1725 71.9648 28.1725H80.3658C81.175 28.1725 81.8307 28.8281 81.8307 29.6373C81.8307 30.4465 81.1748 31.1022 80.3658 31.1022Z" fill="white"/>
<path d="M52.3454 21.7221C58.3435 21.7221 63.206 16.8596 63.206 10.8615C63.206 4.86341 58.3435 0.000976562 52.3454 0.000976562C46.3473 0.000976562 41.4849 4.86341 41.4849 10.8615C41.4849 16.8596 46.3473 21.7221 52.3454 21.7221Z" fill="#FE3745"/>
<path d="M45.3603 10.8605C45.3603 5.52422 49.2101 1.09004 54.2831 0.175781C53.6538 0.0623047 53.0071 0 52.3452 0C46.3472 0 41.4849 4.8625 41.4849 10.8605C41.4849 16.8586 46.3472 21.7209 52.3452 21.7209C53.0071 21.7209 53.6538 21.6586 54.2831 21.5451C49.2101 20.6311 45.3603 16.1969 45.3603 10.8605Z" fill="#B7092B"/>
<path d="M52.3254 16.8392C52.1492 16.8392 51.9834 16.77 51.8582 16.6442L46.7279 11.4708C46.1092 10.8468 45.7686 10.0163 45.7686 9.13232C45.7686 8.24873 46.1092 7.41807 46.7279 6.79424C47.3471 6.16943 48.1709 5.82568 49.0469 5.82568C49.9227 5.82568 50.7459 6.16943 51.3658 6.79424L52.3441 7.78076L53.3232 6.79424C53.9422 6.16943 54.7656 5.82568 55.6418 5.82568C56.5184 5.82568 57.3414 6.16943 57.9609 6.79424C58.5803 7.41846 58.9211 8.24912 58.9211 9.13232C58.9211 10.0155 58.5803 10.8456 57.9605 11.4708L52.7902 16.6458C52.666 16.7704 52.5008 16.8392 52.3254 16.8392Z" fill="white"/>
<path d="M15.0717 71.0793C14.9229 71.0793 14.783 71.0207 14.6773 70.9147L10.3469 66.5481C9.82461 66.0213 9.53711 65.3203 9.53711 64.5742C9.53711 63.8285 9.8248 63.1273 10.3469 62.6006C10.8695 62.0732 11.5646 61.7832 12.3041 61.7832C13.0434 61.7832 13.7383 62.0732 14.2615 62.6006L15.0873 63.4334L15.9137 62.6006C16.4361 62.0732 17.1311 61.7832 17.8709 61.7832C18.6107 61.7832 19.3055 62.0732 19.8283 62.6006C20.3512 63.1275 20.6389 63.8287 20.6389 64.5742C20.6389 65.3197 20.3512 66.0205 19.8281 66.5481L15.4639 70.9162C15.3594 71.0213 15.2197 71.0793 15.0717 71.0793Z" fill="#FE3745"/>
<path d="M12.5307 65.6364C12.0084 65.1097 11.7207 64.4087 11.7207 63.6624C11.7207 62.9622 11.9771 62.3034 12.4402 61.7894C12.3953 61.787 12.3506 61.7827 12.3051 61.7827C11.5656 61.7827 10.8703 62.0728 10.3479 62.6001C9.82559 63.1267 9.53809 63.8278 9.53809 64.5737C9.53809 65.3198 9.82578 66.0208 10.3479 66.5476L14.6783 70.9142C14.784 71.0202 14.9238 71.0788 15.0727 71.0788C15.2207 71.0788 15.3604 71.0208 15.465 70.9157L16.6201 69.7595L12.5307 65.6364Z" fill="#B7092B"/>
<path d="M36.3623 54.2458V51.5499C36.3623 50.0421 37.5889 48.8155 39.0967 48.8155H39.7287C39.8367 48.8155 39.924 48.7282 39.924 48.6202C39.924 48.5122 39.8367 48.4249 39.7287 48.4249C38.2209 48.4249 36.9943 47.1983 36.9943 45.6905V42.9946C36.9943 41.4868 38.2209 40.2603 39.7287 40.2603C39.8367 40.2603 39.924 40.173 39.924 40.065C39.924 39.9569 39.8367 39.8696 39.7287 39.8696C38.2209 39.8696 36.9943 38.6431 36.9943 37.1353V34.439C36.9943 32.9312 38.2209 31.7046 39.7287 31.7046C39.8367 31.7046 39.924 31.6173 39.924 31.5093C39.924 31.4013 39.8367 31.314 39.7287 31.314H38.5219C37.0141 31.314 35.7875 30.0874 35.7875 28.5796V25.8833C35.7875 24.5439 36.7562 23.4286 38.0295 23.1956V12.6997C38.0295 11.0884 36.7111 9.77002 35.0998 9.77002L30.543 9.77021C28.9316 9.77021 27.4354 11.0765 27.2176 12.673L25.382 26.1413C25.165 27.7317 24.0164 29.0335 22.8252 29.0431V54.4343H36.3717C36.3676 54.3718 36.3623 54.3097 36.3623 54.2458Z" fill="#FFE2B8"/>
<path d="M35.0993 9.77002L30.5425 9.77021C28.9312 9.77021 27.4349 11.0765 27.2171 12.6729L25.3815 26.1413C25.1645 27.7317 24.0159 29.0335 22.8247 29.0431V32.9198C24.9224 32.9196 26.662 32.9196 26.6866 32.9196C27.8825 32.9196 29.0392 31.6134 29.2569 30.0169L31.0925 16.5485C31.3103 14.9521 32.8065 13.6458 34.4179 13.6458L38.0288 13.6456V12.6997C38.029 11.0884 36.7106 9.77002 35.0993 9.77002Z" fill="#FFC987"/>
<path d="M39.0962 57.1754C37.4849 57.1754 36.1665 55.857 36.1665 54.2457V51.5498C36.1665 49.9385 37.4849 48.6201 39.0962 48.6201H54.9849C56.5962 48.6201 57.9146 49.9385 57.9146 51.5498V54.2457C57.9146 55.857 56.5962 57.1754 54.9849 57.1754H39.0962Z" fill="#FFE2B8"/>
<path d="M11.9141 57.6129C11.377 57.6129 10.9375 57.1734 10.9375 56.6363V26.627C10.9375 26.0898 11.377 25.6504 11.9141 25.6504H22.0434C22.5805 25.6504 23.0199 26.0898 23.0199 26.627V56.6361C23.0199 57.1732 22.5805 57.6127 22.0434 57.6127H11.9141V57.6129Z" fill="#293D7C"/>
<path d="M14.8131 56.6363V26.627C14.8131 26.0898 15.2525 25.6504 15.7896 25.6504H11.9141C11.377 25.6504 10.9375 26.0898 10.9375 26.627V56.6361C10.9375 57.1733 11.377 57.6127 11.9141 57.6127H15.7896C15.2525 57.6129 14.8131 57.1734 14.8131 56.6363Z" fill="#1A2B63"/>
<path d="M16.9777 33.0482C18.4217 33.0482 19.5922 31.8777 19.5922 30.4338C19.5922 28.9899 18.4217 27.8193 16.9777 27.8193C15.5338 27.8193 14.3633 28.9899 14.3633 30.4338C14.3633 31.8777 15.5338 33.0482 16.9777 33.0482Z" fill="#AEC1ED"/>
<path d="M38.521 31.5088C36.9097 31.5088 35.5913 30.1904 35.5913 28.5791V25.8828C35.5913 24.2715 36.9097 22.9531 38.521 22.9531H54.9843C56.5956 22.9531 57.914 24.2715 57.914 25.8828V28.5791C57.914 30.1904 56.5956 31.5088 54.9843 31.5088H38.521Z" fill="#FFE2B8"/>
<path d="M39.7279 40.0647C38.1166 40.0647 36.7982 38.7463 36.7982 37.135V34.4387C36.7982 32.8274 38.1166 31.509 39.7279 31.509H55.6976C57.3089 31.509 58.6273 32.8274 58.6273 34.4387V37.135C58.6273 38.7463 57.3089 40.0647 55.6976 40.0647H39.7279Z" fill="#FFE2B8"/>
<path d="M39.7279 48.6195C38.1166 48.6195 36.7982 47.3011 36.7982 45.6898V42.9939C36.7982 41.3826 38.1166 40.0642 39.7279 40.0642H55.6976C57.3089 40.0642 58.6273 41.3826 58.6273 42.9939V45.6898C58.6273 47.3011 57.3089 48.6195 55.6976 48.6195H39.7279Z" fill="#FFE2B8"/>
<path d="M42.1119 54.1587C40.5006 54.1587 39.1822 52.8403 39.1822 51.229V48.6194H39.0961C37.4847 48.6194 36.1664 49.9377 36.1664 51.5491V54.245C36.1664 55.8563 37.4847 57.1747 39.0961 57.1747H54.9847C56.5961 57.1747 57.9144 55.8563 57.9144 54.245V54.1588H42.1119V54.1587Z" fill="#FFC987"/>
<path d="M41.5368 28.4928C39.9255 28.4928 38.6071 27.1744 38.6071 25.5631V22.9531H38.521C36.9097 22.9531 35.5913 24.2715 35.5913 25.8828V28.5791C35.5913 30.1904 36.9097 31.5088 38.521 31.5088H54.9843C56.5956 31.5088 57.914 30.1904 57.914 28.5791V28.493H41.5368V28.4928Z" fill="#FFC987"/>
<path d="M42.7431 37.0484C41.1318 37.0484 39.8134 35.7301 39.8134 34.1187V31.5088H39.7273C38.116 31.5088 36.7976 32.8271 36.7976 34.4385V37.1348C36.7976 38.7461 38.116 40.0645 39.7273 40.0645H55.697C57.3084 40.0645 58.6267 38.7461 58.6267 37.1348V37.0486L42.7431 37.0484Z" fill="#FFC987"/>
<path d="M42.7431 45.6032C41.1318 45.6032 39.8134 44.2849 39.8134 42.6735V40.064H39.7273C38.116 40.064 36.7976 41.3823 36.7976 42.9937V45.6896C36.7976 47.3009 38.116 48.6192 39.7273 48.6192H55.697C57.3084 48.6192 58.6267 47.3009 58.6267 45.6896V45.6034H42.7431V45.6032Z" fill="#FFC987"/>
<path d="M23.8247 75.2236H6.35264C6.13897 75.2236 5.96436 75.399 5.96436 75.6137V86.8246C5.96436 87.0393 6.13897 87.2147 6.35264 87.2147H23.8247C24.0384 87.2147 24.213 87.0393 24.213 86.8246V75.6137C24.2132 75.399 24.0384 75.2236 23.8247 75.2236Z" fill="#FFAF10"/>
<path d="M9.84121 86.8248V78.2859L6.05937 75.3631C6.07695 75.3422 6.09648 75.3234 6.11797 75.3066C6.02598 75.3781 5.96582 75.4887 5.96582 75.6137V86.8246C5.96582 87.0393 6.14043 87.2146 6.3541 87.2146H10.2295C10.0158 87.2148 9.84121 87.0394 9.84121 86.8248Z" fill="#EF9614"/>
<path d="M23.8254 75.2236H6.35332C6.23516 75.2236 6.12988 75.2785 6.05859 75.3631L14.7816 82.1049C14.951 82.2357 15.2279 82.2357 15.3971 82.1049L24.1199 75.3631C24.0488 75.2785 23.9438 75.2236 23.8254 75.2236Z" fill="#FFD00D"/>
<path d="M99.6123 44.4634H82.1402C81.9266 44.4634 81.752 44.6388 81.752 44.8534V56.0644C81.752 56.279 81.9268 56.4544 82.1402 56.4544H99.6123C99.826 56.4544 100.001 56.279 100.001 56.0644V44.8534C100.001 44.639 99.8258 44.4634 99.6123 44.4634Z" fill="#FFAF10"/>
<path d="M85.6273 56.0645V47.5257L81.8455 44.6028C81.8631 44.5819 81.8826 44.5632 81.9041 44.5464C81.8121 44.6179 81.752 44.7284 81.752 44.8534V56.0644C81.752 56.279 81.9268 56.4544 82.1402 56.4544H86.0158C85.8022 56.4546 85.6273 56.279 85.6273 56.0645Z" fill="#EF9614"/>
<path d="M99.611 44.4634H82.139C82.0208 44.4634 81.9155 44.5183 81.8442 44.6028L90.5673 51.3446C90.7366 51.4755 91.0136 51.4755 91.1827 51.3446L99.9056 44.6028C99.8343 44.5185 99.7292 44.4634 99.611 44.4634Z" fill="#FFD00D"/>
</svg>
