<svg width="100" height="100" viewBox="0 0 100 100" fill="none" xmlns="http://www.w3.org/2000/svg">
<circle cx="50" cy="50" r="50" fill="#C4C4C4"/>
<path d="M50 100C77.6142 100 100 77.6142 100 50C100 22.3858 77.6142 0 50 0C22.3858 0 0 22.3858 0 50C0 77.6142 22.3858 100 50 100Z" fill="#84DBFF"/>
<path d="M61.6536 33.5433H38.3465C38.0315 33.5433 37.6378 33.3858 37.4803 33.1496C37.2441 32.9134 37.1654 32.5197 37.2441 32.2047L39.8426 21.2598C40 20.7874 40.3937 20.3937 40.9449 20.3937H59.0552C59.6063 20.3937 60 20.7874 60.1575 21.2598L62.7559 32.2047C62.8347 32.5197 62.7559 32.9134 62.5197 33.1496C62.3622 33.3858 61.9685 33.5433 61.6536 33.5433ZM39.7638 31.2598H60.2363L58.189 22.5984H41.8111L39.7638 31.2598Z" fill="#2B3B4E"/>
<path d="M75.4331 79.685H24.567C22.6772 79.685 21.1812 78.1889 21.1812 76.2992V46.2992C21.1812 44.4094 22.6772 42.9133 24.567 42.9133H75.4331C77.3229 42.9133 78.8189 44.4094 78.8189 46.2992V76.2992C78.8189 78.1102 77.3229 79.685 75.4331 79.685Z" fill="#2B3B4E"/>
<path d="M74.882 58.2677H25.1182C21.4174 58.2677 18.4253 55.2755 18.4253 51.5748V31.5748C18.4253 30 19.6851 28.7401 21.2599 28.7401H78.819C80.3938 28.7401 81.6536 30 81.6536 31.5748V51.5748C81.6536 55.2755 78.6615 58.2677 74.882 58.2677Z" fill="#324A5E"/>
<path d="M68.6614 65.1969H65.6693C65.0393 65.1969 64.5669 64.7244 64.5669 64.0945V60.5512C64.5669 59.9213 65.0393 59.4489 65.6693 59.4489H68.6614C69.2913 59.4489 69.7637 59.9213 69.7637 60.5512V64.0945C69.7637 64.7244 69.2913 65.1969 68.6614 65.1969Z" fill="#F9B54C"/>
<path d="M69.9213 61.7323H64.4095C63.7796 61.7323 63.3071 61.2599 63.3071 60.63V54.4882C63.3071 53.8583 63.7796 53.3859 64.4095 53.3859H69.9213C70.5512 53.3859 71.0237 53.8583 71.0237 54.4882V60.63C71.0237 61.2599 70.5512 61.7323 69.9213 61.7323Z" fill="#FFD05B"/>
<path d="M34.3308 65.1969H31.3387C30.7088 65.1969 30.2363 64.7244 30.2363 64.0945V60.5512C30.2363 59.9213 30.7088 59.4489 31.3387 59.4489H34.3308C34.9607 59.4489 35.4332 59.9213 35.4332 60.5512V64.0945C35.4332 64.7244 34.882 65.1969 34.3308 65.1969Z" fill="#F9B54C"/>
<path d="M35.5905 61.7323H30.0787C29.4488 61.7323 28.9763 61.2599 28.9763 60.63V54.4882C28.9763 53.8583 29.4488 53.3859 30.0787 53.3859H35.5905C36.2204 53.3859 36.6929 53.8583 36.6929 54.4882V60.63C36.6929 61.2599 36.1417 61.7323 35.5905 61.7323Z" fill="#FFD05B"/>
<path d="M69.2913 28.6614H65.0393V53.3858H69.2913V28.6614Z" fill="#F9B54C"/>
<path d="M34.9607 28.6614H30.7087V53.3858H34.9607V28.6614Z" fill="#F9B54C"/>
</svg>
