<svg width="150" height="208" viewBox="0 0 150 208" fill="none" xmlns="http://www.w3.org/2000/svg">
<g opacity="0.3">
<path d="M135.449 207.635H13.7277C6.17339 207.635 0 201.471 0 193.928V13.7072C0 6.16417 6.17339 0 13.7277 0H135.408C142.963 0 149.136 6.16417 149.136 13.7072V193.928C149.177 201.471 143.003 207.635 135.449 207.635ZM13.7277 8.11075C10.641 8.11075 8.12288 10.6251 8.12288 13.7072V193.928C8.12288 197.01 10.641 199.524 13.7277 199.524H135.408C138.495 199.524 141.013 197.01 141.013 193.928V13.7072C141.013 10.6251 138.495 8.11075 135.408 8.11075H13.7277Z" fill="#F18989"/>
<path d="M123.346 74.2945C123.102 74.2945 122.818 74.254 122.574 74.2134C122.331 74.1728 122.046 74.0917 121.803 73.9701C121.559 73.889 121.315 73.7268 121.112 73.6051C120.909 73.4429 120.665 73.2807 120.503 73.1184C119.731 72.3479 119.325 71.3341 119.325 70.2391C119.325 69.9552 119.366 69.7119 119.406 69.428C119.447 69.1847 119.528 68.9009 119.65 68.6575C119.731 68.4142 119.894 68.1709 120.016 67.9681C120.178 67.7248 120.34 67.522 120.503 67.3598C120.706 67.157 120.909 66.9948 121.112 66.8732C121.315 66.7109 121.559 66.5893 121.803 66.5082C122.046 66.4271 122.29 66.346 122.574 66.2649C123.102 66.1432 123.63 66.1432 124.158 66.2649C124.402 66.3054 124.686 66.3865 124.93 66.5082C125.174 66.5893 125.417 66.7515 125.62 66.8732C125.864 67.0354 126.067 67.1976 126.23 67.3598C126.433 67.5626 126.595 67.7653 126.717 67.9681C126.879 68.1709 127.001 68.4142 127.082 68.6575C127.164 68.9009 127.245 69.1442 127.326 69.428C127.367 69.6714 127.407 69.9552 127.407 70.2391C127.407 71.2935 126.961 72.3479 126.23 73.1184C126.026 73.3212 125.823 73.4834 125.62 73.6051C125.417 73.7673 125.174 73.889 124.93 73.9701C124.686 74.0512 124.442 74.1323 124.158 74.2134C123.874 74.254 123.63 74.2945 123.346 74.2945Z" fill="#F18989"/>
<path d="M106.532 74.2945H25.8308C23.597 74.2945 21.7693 72.4695 21.7693 70.2391C21.7693 68.0086 23.597 66.1837 25.8308 66.1837H106.532C108.765 66.1837 110.593 68.0086 110.593 70.2391C110.593 72.4695 108.765 74.2945 106.532 74.2945Z" fill="#F18989"/>
<path d="M123.549 56.7752H25.6277C23.3939 56.7752 21.5663 54.9503 21.5663 52.7198V21.8584C21.5663 19.628 23.3939 17.8031 25.6277 17.8031H123.549C125.783 17.8031 127.61 19.628 127.61 21.8584V52.7198C127.61 54.9503 125.783 56.7752 123.549 56.7752ZM29.6892 48.6645H119.488V25.9138H29.6892V48.6645Z" fill="#F18989"/>
<path d="M65.9984 131.8H25.7901C23.5563 131.8 21.7287 129.975 21.7287 127.744V87.5961C21.7287 85.3657 23.5563 83.5407 25.7901 83.5407H65.9984C68.2322 83.5407 70.0598 85.3657 70.0598 87.5961V127.744C70.0598 129.975 68.2728 131.8 65.9984 131.8ZM29.8922 123.689H61.9776V91.6515H29.8922V123.689Z" fill="#F18989"/>
<path d="M123.346 131.8H83.1376C80.9038 131.8 79.0762 129.975 79.0762 127.744V87.5961C79.0762 85.3657 80.9038 83.5407 83.1376 83.5407H123.346C125.58 83.5407 127.407 85.3657 127.407 87.5961V127.744C127.407 129.975 125.58 131.8 123.346 131.8ZM87.2397 123.689H119.325V91.6515H87.2397V123.689Z" fill="#F18989"/>
<path d="M65.9984 189.062H25.7901C23.5563 189.062 21.7287 187.237 21.7287 185.006V144.858C21.7287 142.628 23.5563 140.803 25.7901 140.803H65.9984C68.2322 140.803 70.0598 142.628 70.0598 144.858V185.006C70.0598 187.237 68.2728 189.062 65.9984 189.062ZM29.8922 180.951H61.9776V148.913H29.8922V180.951Z" fill="#F18989"/>
<path d="M123.346 189.062H83.1376C80.9038 189.062 79.0762 187.237 79.0762 185.006V144.858C79.0762 142.628 80.9038 140.803 83.1376 140.803H123.346C125.58 140.803 127.407 142.628 127.407 144.858V185.006C127.407 187.237 125.58 189.062 123.346 189.062ZM87.2397 180.951H119.325V148.913H87.2397V180.951Z" fill="#F18989"/>
<path d="M53.5297 103.615H49.9963V100.087C49.9963 97.8562 48.1686 96.0313 45.9348 96.0313C43.701 96.0313 41.8734 97.8562 41.8734 100.087V103.615H38.3399C36.1062 103.615 34.2785 105.44 34.2785 107.67C34.2785 109.901 36.1062 111.726 38.3399 111.726H41.8734V115.254C41.8734 117.484 43.701 119.309 45.9348 119.309C48.1686 119.309 49.9963 117.484 49.9963 115.254V111.726H53.5297C55.7635 111.726 57.5912 109.901 57.5912 107.67C57.5912 105.44 55.7635 103.615 53.5297 103.615Z" fill="#F18989"/>
<path d="M51.6615 164.932L54.1796 162.418C55.7635 160.836 55.7635 158.281 54.1796 156.7C52.5956 155.118 50.0369 155.118 48.453 156.7L45.9349 159.214L43.4168 156.7C41.8328 155.118 39.2741 155.118 37.6901 156.7C36.1062 158.281 36.1062 160.836 37.6901 162.418L40.2082 164.932L37.6901 167.446C36.1062 169.028 36.1062 171.583 37.6901 173.165C38.5024 173.976 39.5178 174.341 40.5738 174.341C41.6297 174.341 42.6451 173.935 43.4574 173.165L45.9755 170.65L48.4936 173.165C49.2652 173.976 50.3212 174.341 51.3772 174.341C52.4332 174.341 53.4485 173.935 54.2608 173.165C55.8448 171.583 55.8448 169.028 54.2608 167.446L51.6615 164.932Z" fill="#F18989"/>
<path d="M110.877 111.726H95.6469C93.4131 111.726 91.5854 109.901 91.5854 107.67C91.5854 105.44 93.4131 103.615 95.6469 103.615H110.877C113.111 103.615 114.939 105.44 114.939 107.67C114.939 109.901 113.111 111.726 110.877 111.726Z" fill="#F18989"/>
<path d="M110.877 162.418H95.6469C93.4131 162.418 91.5854 160.593 91.5854 158.362C91.5854 156.132 93.4131 154.307 95.6469 154.307H110.877C113.111 154.307 114.939 156.132 114.939 158.362C114.939 160.593 113.111 162.418 110.877 162.418Z" fill="#F18989"/>
<path d="M110.877 173.773H95.6469C93.4131 173.773 91.5854 171.948 91.5854 169.717C91.5854 167.487 93.4131 165.662 95.6469 165.662H110.877C113.111 165.662 114.939 167.487 114.939 169.717C114.939 171.948 113.111 173.773 110.877 173.773Z" fill="#F18989"/>
</g>
</svg>
