<svg width="211" height="211" viewBox="0 0 211 211" fill="none" xmlns="http://www.w3.org/2000/svg">
<g opacity="0.3">
<path d="M45.2496 204.183L39.068 195.46C37.7492 193.608 35.1942 193.155 33.3397 194.472C31.4852 195.789 31.0319 198.34 32.3506 200.192L38.5735 208.916C39.3565 210.027 40.634 210.644 41.9528 210.644C42.777 210.644 43.6012 210.397 44.343 209.903C46.1563 208.628 46.5684 206.035 45.2496 204.183Z" fill="#F6D982"/>
<path d="M92.807 205.706L86.0484 173.568C82.7516 157.931 73.6439 144.434 60.374 135.505L45.9502 125.835C40.1807 121.967 32.3918 122.79 27.5701 127.728V78.1427C27.5701 71.6411 23.1193 66.086 16.7729 64.6869C12.6518 63.7816 8.44824 64.7692 5.15137 67.4027C1.8957 70.0363 0 73.9455 0 78.1427V141.965C0 150.319 2.55508 158.343 7.41797 165.174L14.7535 175.502C15.5777 176.613 16.8141 177.231 18.1328 177.231C18.957 177.231 19.7812 176.984 20.523 176.49C22.3775 175.173 22.8309 172.622 21.5121 170.77L14.1766 160.442C10.2615 154.969 8.24219 148.591 8.24219 141.965V78.1427C8.24219 76.4556 8.98398 74.8919 10.3027 73.822C11.6215 72.7522 13.3111 72.3818 15.0008 72.7522C17.5559 73.3283 19.3691 75.5503 19.3691 78.1839V128.798C19.3691 135.958 22.0066 142.788 26.7871 148.097C26.9932 148.344 27.1992 148.591 27.4465 148.837C30.1664 151.718 33.3809 155.133 36.4305 158.343L40.6752 162.869L40.7164 162.911C44.343 166.779 47.0217 169.618 47.0629 169.659C48.6289 171.305 51.2252 171.387 52.8736 169.824C54.5221 168.26 54.6045 165.668 53.0385 164.022C52.9561 163.939 48.1344 158.796 42.6121 152.952L33.1748 142.912C33.1336 142.871 33.1336 142.871 33.0924 142.83C30.867 140.196 30.9082 136.328 33.216 133.736C35.2766 131.431 38.7383 130.979 41.3346 132.707L55.7584 142.377C67.215 150.072 75.1275 161.758 77.9711 175.296L84.7297 207.434C85.1418 209.368 86.8314 210.685 88.7684 210.685C89.0568 210.685 89.3453 210.644 89.6338 210.603C91.8592 210.15 93.2604 207.969 92.807 205.706Z" fill="#F6D982"/>
<path d="M30.5373 183.485C29.1774 181.592 26.6223 181.181 24.7678 182.498C22.9133 183.814 22.5012 186.407 23.82 188.217L23.8612 188.259C24.6854 189.37 25.9217 189.987 27.1993 189.987C28.0235 189.987 28.8477 189.74 29.5895 189.205C31.444 187.888 31.8561 185.337 30.5373 183.485Z" fill="#F6D982"/>
<path d="M205.849 67.4027C202.552 64.7692 198.348 63.7816 194.227 64.6869C187.881 66.086 183.43 71.6411 183.43 78.1427V127.728C178.608 122.79 170.819 121.967 165.05 125.835L150.626 135.505C137.356 144.393 128.248 157.931 124.952 173.568L118.193 205.706C117.74 207.928 119.141 210.109 121.366 210.562C121.655 210.603 121.943 210.644 122.232 210.644C124.127 210.644 125.858 209.327 126.27 207.393L133.029 175.255C135.872 161.758 143.744 150.072 155.242 142.336L169.665 132.666C172.221 130.937 175.723 131.39 177.784 133.694C180.092 136.328 180.133 140.155 177.908 142.788C177.866 142.83 177.866 142.83 177.825 142.871C177.825 142.871 158.044 163.898 157.962 163.98C156.396 165.626 156.478 168.26 158.126 169.782C159.775 171.346 162.412 171.264 163.937 169.618C163.978 169.577 180.834 151.677 183.554 148.796C183.76 148.549 184.007 148.302 184.213 148.056C188.993 142.747 191.631 135.916 191.631 128.757V78.1427C191.631 75.5092 193.403 73.2871 195.999 72.711C197.648 72.3407 199.337 72.7522 200.697 73.7809C202.016 74.8508 202.758 76.4145 202.758 78.1016V141.965C202.758 148.591 200.739 154.969 196.865 160.4L165.709 204.183C164.39 206.035 164.844 208.586 166.698 209.903C167.44 210.397 168.264 210.644 169.089 210.644C170.366 210.644 171.644 210.027 172.468 208.916L203.582 165.174C208.445 158.343 211 150.319 211 141.965V78.1427C211 73.9455 209.104 70.0363 205.849 67.4027Z" fill="#F6D982"/>
<path d="M157.714 78.8834L150.379 77.1551V75.8384C155.159 72.5053 158.25 66.9912 158.25 60.7365V51.231C158.25 41.0671 149.967 32.7961 139.788 32.7961C135.213 32.7961 131.051 34.4832 127.836 37.1991C124.251 28.4342 115.597 22.2207 105.541 22.2207C95.4445 22.2207 86.8314 28.4342 83.2461 37.2402C80.0316 34.4832 75.8281 32.7961 71.2537 32.7961C61.0746 32.7961 52.7912 41.0671 52.7912 51.231V51.8483V60.7365C52.7912 66.9912 55.9232 72.5053 60.6625 75.8384V77.1551L53.3269 78.8834C44.5902 80.982 38.4498 88.7181 38.4498 97.6887V105.342C38.4498 107.606 40.3043 109.457 42.5709 109.457H61.5279C61.4867 109.951 61.4867 110.445 61.4867 110.98V125.794C61.4867 128.057 63.3412 129.909 65.6078 129.909H90.3756C92.6422 129.909 94.4967 128.057 94.4967 125.794C94.4967 123.531 92.6422 121.679 90.3756 121.679H86.1309V113.161C86.1309 110.898 84.2764 109.046 82.0098 109.046C79.7432 109.046 77.8887 110.898 77.8887 113.161V121.679H69.7289V110.98C69.7289 103.038 75.1275 96.2073 82.8752 94.3556L94.167 91.6397L101.75 108.84C102.409 110.322 103.893 111.309 105.541 111.309C107.19 111.309 108.673 110.363 109.333 108.84L116.874 91.6809L128.166 94.3556C135.914 96.2073 141.312 103.038 141.312 110.98V121.638H133.111V113.161C133.111 110.898 131.257 109.046 128.99 109.046C126.724 109.046 124.869 110.898 124.869 113.161V121.679H120.212C117.946 121.679 116.091 123.531 116.091 125.794C116.091 128.057 117.946 129.909 120.212 129.909H145.392C147.659 129.909 149.513 128.057 149.513 125.794V111.021C149.513 110.527 149.513 109.992 149.472 109.499H168.47C170.737 109.499 172.591 107.647 172.591 105.384V97.6887C172.55 88.677 166.451 80.9409 157.714 78.8834ZM139.829 41.026C145.227 41.026 149.678 45.2232 150.008 50.5315H144.28C139.458 50.5315 134.719 49.3793 130.474 47.1572C131.999 43.5361 135.625 41.026 139.829 41.026ZM129.608 60.1193C129.608 59.9135 129.608 59.7078 129.608 59.5021V55.8398C134.224 57.7326 139.211 58.7614 144.238 58.7614H150.008V60.7365C150.008 66.3329 145.433 70.9416 139.788 70.9416C134.142 70.9416 129.567 66.374 129.567 60.7365V60.1193H129.608ZM89.7162 46.2519C89.7162 37.5283 96.8045 30.4506 105.541 30.4506C113.413 30.4506 119.965 36.2115 121.16 43.7418L114.237 39.668C112.506 38.6393 110.28 39.0508 109.003 40.5733C105.624 44.606 100.637 46.9103 95.3621 46.9103H89.7162V46.2519ZM71.2537 41.026C75.4572 41.026 79.0426 43.5772 80.6086 47.1572C76.3639 49.3793 71.6246 50.5315 66.8029 50.5315H61.0746C61.4043 45.2232 65.8551 41.026 71.2537 41.026ZM61.0334 58.7614H66.8029C71.8307 58.7614 76.8172 57.7738 81.474 55.8398V60.6954C81.474 66.2917 76.8996 70.9004 71.2537 70.9004C65.6078 70.9004 61.0334 66.3329 61.0334 60.6954V58.7614ZM80.9383 86.3726C72.8197 88.3066 66.4732 93.9441 63.4236 101.269H46.7332V97.6887C46.7332 92.545 50.2361 88.1009 55.2639 86.8664L65.7727 84.3563C67.6271 83.9036 68.9459 82.2577 68.9459 80.3648V78.9657C69.6877 79.048 70.4707 79.1303 71.2537 79.1303C72.0367 79.1303 72.7785 79.0892 73.5615 78.9657V80.1591C73.5615 80.2002 73.5615 80.2825 73.5615 80.3237C73.5615 81.6816 74.2209 82.9984 75.4572 83.7802C75.9105 84.0682 76.4051 84.274 76.9408 84.3563L83.0813 85.8377L80.9383 86.3726ZM92.4361 79.9533C91.3647 79.5007 90.2932 79.1303 89.1393 78.8423L81.7625 77.0728V75.7972C83.0812 74.8508 84.2764 73.7809 85.3479 72.5464C87.2024 75.3857 89.5926 77.8135 92.4361 79.6241V79.9533ZM110.322 86.0023L105.5 96.9892L100.678 86.0023V83.0807C102.244 83.4099 103.893 83.5745 105.541 83.5745C107.19 83.5745 108.797 83.4099 110.322 83.0807V86.0023ZM105.541 75.3034C96.8045 75.3034 89.7162 68.2257 89.7162 59.5021V55.1402H95.3621C101.915 55.1402 108.096 52.7124 112.877 48.3917L121.366 53.3708V60.0781C121.037 68.5549 114.072 75.3034 105.541 75.3034ZM118.564 79.9945V79.7064C121.407 77.8547 123.839 75.4269 125.693 72.5876C126.724 73.822 127.919 74.8919 129.238 75.7972V77.0728L121.861 78.8423C120.748 79.1303 119.635 79.5007 118.564 79.9945ZM164.308 101.228H147.535C144.486 93.9441 138.139 88.2655 130.021 86.3315L127.96 85.8377L134.142 84.3563C134.636 84.274 135.172 84.0682 135.625 83.7802C136.862 82.9984 137.521 81.6816 137.521 80.3237C137.521 80.2825 137.521 80.2414 137.521 80.2414V78.9657C138.263 79.048 139.046 79.1303 139.829 79.1303C140.612 79.1303 141.395 79.0892 142.137 78.9657V80.3648C142.137 82.2577 143.455 83.9448 145.31 84.3563L155.819 86.8664C160.846 88.0597 164.349 92.5039 164.349 97.6887L164.308 101.228Z" fill="#F6D982"/>
<path d="M108.426 122.872C107.643 122.09 106.613 121.679 105.5 121.679C104.429 121.679 103.357 122.131 102.574 122.872C101.791 123.654 101.379 124.683 101.379 125.794C101.379 126.864 101.832 127.934 102.574 128.715C103.357 129.497 104.387 129.909 105.5 129.909C106.571 129.909 107.643 129.456 108.426 128.715C109.209 127.934 109.621 126.905 109.621 125.794C109.621 124.683 109.168 123.654 108.426 122.872Z" fill="#F6D982"/>
<path d="M105.5 0C103.233 0 101.379 1.85172 101.379 4.11494V10.2874C101.379 12.5506 103.233 14.4023 105.5 14.4023C107.767 14.4023 109.621 12.5506 109.621 10.2874V4.11494C109.621 1.85172 107.767 0 105.5 0Z" fill="#F6D982"/>
<path d="M90.3344 13.4147L86.0072 9.09402C84.4 7.4892 81.8037 7.4892 80.1965 9.09402C78.5893 10.6989 78.5893 13.2913 80.1965 14.8961L84.4824 19.2579C85.3066 20.0809 86.3369 20.4513 87.4084 20.4513C88.4799 20.4513 89.5102 20.0398 90.3344 19.2579C91.9416 17.6531 91.9416 15.0195 90.3344 13.4147Z" fill="#F6D982"/>
<path d="M130.721 9.21747C129.114 7.61264 126.518 7.61264 124.91 9.21747L120.624 13.497C119.017 15.1018 119.017 17.6942 120.624 19.2991C121.449 20.1221 122.479 20.4924 123.55 20.4924C124.622 20.4924 125.652 20.0809 126.476 19.2991L130.762 15.0195C132.328 13.4147 132.328 10.8223 130.721 9.21747Z" fill="#F6D982"/>
</g>
</svg>
