<svg width="189" height="189" viewBox="0 0 189 189" fill="none" xmlns="http://www.w3.org/2000/svg">
<g opacity="0.3">
<path d="M141.205 20.2301C123.957 20.2301 109.969 34.2171 109.969 51.4628C109.969 68.7086 123.957 82.7322 141.205 82.7322C158.453 82.6956 172.442 68.7452 172.442 51.4994C172.442 34.2171 158.453 20.2301 141.205 20.2301ZM141.205 74.9332C128.278 74.9332 117.769 64.4246 117.769 51.4994C117.769 38.5743 128.278 28.0657 141.205 28.0657C154.132 28.0657 164.642 38.5743 164.642 51.4994C164.642 64.4246 154.132 74.9332 141.205 74.9332Z" fill="#68C690"/>
<path d="M150.177 40.9174L137.323 53.7693L132.27 48.7164L126.74 54.2453L134.54 62.0444C135.273 62.7767 136.261 63.1794 137.287 63.1794C138.312 63.1794 139.301 62.7767 140.033 62.0444L155.67 46.4097L150.177 40.9174Z" fill="#68C690"/>
<path d="M133.368 102.248H78.6952V110.047H133.368V102.248Z" fill="#68C690"/>
<path d="M86.5319 47.5815H43.5405C28.4532 47.5815 16.2223 59.811 16.1856 74.9331H24.0222C24.0222 64.1682 32.7743 55.4172 43.5405 55.4172H86.4953C90.8164 55.4172 94.2953 58.9322 94.2953 63.2162C94.2953 67.5368 90.7798 71.0153 86.4953 71.0153H43.5405V78.8143H86.4953C95.1376 78.8143 102.132 71.8208 102.132 63.1796C102.132 54.5384 95.1376 47.5815 86.5319 47.5815Z" fill="#68C690"/>
<path d="M4.50388 63.2162C2.34332 63.2162 0.585571 64.9737 0.585571 67.134V71.0152H20.1039V63.2162H4.50388Z" fill="#68C690"/>
<path d="M180.278 113.965V168.631C180.278 175.112 175.042 180.348 168.56 180.348H74.8137C68.3321 180.348 63.0955 175.112 63.0955 168.631V74.8965H55.2955V168.631C55.2955 179.396 64.0476 188.147 74.8137 188.147H168.56C179.326 188.147 188.078 179.396 188.078 168.631V113.965H180.278Z" fill="#68C690"/>
<path d="M168.56 0.714157H90.4133C89.3879 0.714157 88.3992 1.11692 87.6668 1.84923L56.4302 33.082L61.9598 38.6109L92.0611 8.51319H168.56C175.041 8.51319 180.278 13.7492 180.278 20.23V74.8965H188.078V20.23C188.078 9.46519 179.326 0.714157 168.56 0.714157Z" fill="#68C690"/>
<path d="M93.1968 1.84929C91.6588 0.348068 89.2053 0.348068 87.6673 1.84929L56.4307 33.082C55.6983 33.8143 55.2955 34.803 55.2955 35.8282V51.4629H63.0955V37.4393L86.532 14.0055V28.0291C86.532 30.1894 84.7743 31.947 82.6137 31.947H74.8138V39.746H82.6137C89.0954 39.746 94.332 34.51 94.332 28.0291V4.59543C94.332 3.5702 93.9292 2.58159 93.1968 1.84929Z" fill="#68C690"/>
<path d="M24.0221 106.166H16.2221C16.2221 121.252 28.453 133.481 43.5769 133.518V125.719C32.7741 125.682 24.0221 116.931 24.0221 106.166Z" fill="#68C690"/>
<path d="M59.177 125.682H43.5404V133.481H59.177V125.682Z" fill="#68C690"/>
<path d="M0.585571 110.084V114.001C0.585571 116.162 2.34331 117.919 4.50387 117.919H20.1404V110.12H0.585571V110.084Z" fill="#68C690"/>
<path d="M184.673 86.1376C180.095 81.7804 172.881 81.7804 168.304 86.1376L114.107 140.328C112.569 141.866 112.569 144.319 114.107 145.857L124.946 156.695C125.678 157.427 126.667 157.83 127.693 157.83C128.718 157.83 129.707 157.427 130.439 156.695L184.636 102.505C189.214 97.9643 189.214 90.6412 184.673 86.1376ZM179.18 96.9757L127.729 148.383L122.419 143.074L173.87 91.6299C175.371 90.2019 177.715 90.2019 179.18 91.6299C180.645 93.1311 180.645 95.5111 179.18 96.9757Z" fill="#68C690"/>
<path d="M125.971 150.434L114.802 156.036L120.405 144.832L113.411 141.353L102.571 163.029C102.315 163.579 102.169 164.164 102.169 164.787C102.169 166.947 103.926 168.705 106.087 168.705C106.673 168.705 107.295 168.558 107.845 168.302L129.523 157.427L125.971 150.434Z" fill="#68C690"/>
<path d="M160.287 99.7029L154.767 105.213L165.622 116.055L171.142 110.545L160.287 99.7029Z" fill="#68C690"/>
<path d="M106.05 160.833H78.6952V168.632H106.05V160.833Z" fill="#68C690"/>
<path d="M102.132 141.316H78.6952V149.115H102.132V141.316Z" fill="#68C690"/>
<path d="M113.85 121.8H78.6952V129.599H113.85V121.8Z" fill="#68C690"/>
<path d="M164.641 160.833H129.487V168.632H164.641V160.833Z" fill="#68C690"/>
<path d="M164.641 141.316H149.005V149.115H164.641V141.316Z" fill="#68C690"/>
</g>
</svg>
