<svg width="18" height="24" viewBox="0 0 18 24" fill="none" xmlns="http://www.w3.org/2000/svg">
<path fill-rule="evenodd" clip-rule="evenodd" d="M16.1531 16.8562C14.731 14.4003 15.5605 13.0415 15.0016 8.49546C14.5007 4.42239 11.3815 3.2563 9.78387 2.92342V0H8.15829V2.92342C6.55843 3.2563 3.43924 4.42234 2.9395 8.49546C2.38052 13.0394 3.21005 14.4003 1.78796 16.8562C1.41007 17.5044 0.938268 18.0256 0.5 18.4274V19.3756H17.4399V18.4274C17.0028 18.0256 16.5288 17.5044 16.1531 16.8562Z"/>
<path fill-rule="evenodd" clip-rule="evenodd" d="M8.96999 23.9349C10.0672 23.9349 10.9567 23.0638 10.9567 21.9892C10.9567 20.9147 10.0672 20.0436 8.96999 20.0436C7.87278 20.0436 6.98332 20.9147 6.98332 21.9892C6.98332 23.0638 7.87278 23.9349 8.96999 23.9349Z"/>
</svg>
