<svg width="16" height="16" viewBox="0 0 16 16" fill="none" xmlns="http://www.w3.org/2000/svg">
<path fill-rule="evenodd" clip-rule="evenodd" d="M2.01712 7.71346L12.8264 12.3156L14.0519 2.04918L2.01712 7.71346ZM13.0819 13.0301C13.0393 13.0301 12.9971 13.0215 12.9576 13.005L1.17993 7.99047C1.07267 7.94478 1.00248 7.84386 1.00005 7.73195C0.997923 7.62004 1.06386 7.51681 1.1693 7.46707L14.2824 1.29587C14.3818 1.24902 14.5006 1.25741 14.5917 1.31843C14.6829 1.37915 14.7315 1.48239 14.719 1.58764L13.3836 12.7736C13.3727 12.865 13.3165 12.9466 13.2323 12.992C13.1858 13.0174 13.1338 13.0301 13.0819 13.0301Z" fill="#2D74DA"/>
<path d="M2.01712 7.71346L1.8042 7.26107L0.794435 7.73632L1.82126 8.1735L2.01712 7.71346ZM12.8264 12.3156L12.6306 12.7757L13.2439 13.0368L13.3229 12.3749L12.8264 12.3156ZM14.0519 2.04918L14.5483 2.10844L14.6553 1.21257L13.8389 1.59678L14.0519 2.04918ZM12.9576 13.005L12.7617 13.465L12.7651 13.4664L12.9576 13.005ZM1.17993 7.99047L0.983986 8.45047L0.984063 8.45051L1.17993 7.99047ZM1.00005 7.73195L0.500138 7.74145L0.500168 7.74281L1.00005 7.73195ZM1.1693 7.46707L0.956389 7.01466L0.955977 7.01486L1.1693 7.46707ZM14.2824 1.29587L14.4953 1.74828L14.4956 1.74813L14.2824 1.29587ZM14.5917 1.31843L14.3136 1.73394L14.3145 1.73455L14.5917 1.31843ZM14.719 1.58764L15.2155 1.64692L15.2156 1.64641L14.719 1.58764ZM13.3836 12.7736L13.8801 12.8331L13.8801 12.8329L13.3836 12.7736ZM13.2323 12.992L12.9949 12.5519L12.9922 12.5534L13.2323 12.992ZM1.82126 8.1735L12.6306 12.7757L13.0223 11.8556L2.21299 7.25342L1.82126 8.1735ZM13.3229 12.3749L14.5483 2.10844L13.5554 1.98992L12.3299 12.2564L13.3229 12.3749ZM13.8389 1.59678L1.8042 7.26107L2.23005 8.16586L14.2648 2.50158L13.8389 1.59678ZM13.0819 12.5301C13.1073 12.5301 13.1304 12.5353 13.1502 12.5435L12.7651 13.4664C12.8638 13.5076 12.9713 13.5301 13.0819 13.5301V12.5301ZM13.1535 12.5449L1.3758 7.53043L0.984063 8.45051L12.7617 13.465L13.1535 12.5449ZM1.37588 7.53046C1.43984 7.55771 1.49788 7.62641 1.49993 7.72109L0.500168 7.74281C0.507086 8.06131 0.705506 8.33185 0.983986 8.45047L1.37588 7.53046ZM1.49996 7.72245C1.50177 7.81768 1.44587 7.88944 1.38262 7.91928L0.955977 7.01486C0.681852 7.14417 0.494076 7.4224 0.50014 7.74145L1.49996 7.72245ZM1.3822 7.91947L14.4953 1.74828L14.0695 0.843465L0.956389 7.01466L1.3822 7.91947ZM14.4956 1.74813C14.4379 1.77536 14.37 1.77168 14.3136 1.73394L14.8699 0.902915C14.6311 0.74314 14.3257 0.722686 14.0692 0.843615L14.4956 1.74813ZM14.3145 1.73455C14.2547 1.69466 14.2121 1.61724 14.2225 1.52888L15.2156 1.64641C15.251 1.34754 15.1111 1.06364 14.8689 0.902306L14.3145 1.73455ZM14.2226 1.52837L12.8871 12.7144L13.8801 12.8329L15.2155 1.64692L14.2226 1.52837ZM12.8872 12.7142C12.8962 12.6384 12.9411 12.5809 12.9949 12.5519L13.4697 13.432C13.6918 13.3122 13.8491 13.0916 13.8801 12.8331L12.8872 12.7142ZM12.9922 12.5534C13.0217 12.5372 13.0527 12.5301 13.0819 12.5301V13.5301C13.215 13.5301 13.3499 13.4976 13.4724 13.4306L12.9922 12.5534Z" fill="#2D74DA"/>
<path fill-rule="evenodd" clip-rule="evenodd" d="M6.71384 14.8363C6.68619 14.8363 6.65824 14.8325 6.63059 14.8253C6.49902 14.7894 6.40908 14.6746 6.40999 14.5448L6.44797 9.91803C6.44858 9.84892 6.47532 9.78241 6.52302 9.73036L14.1844 1.3658C14.295 1.2455 14.487 1.23307 14.6134 1.33775C14.7398 1.443 14.7529 1.62547 14.6426 1.74577L7.05507 10.0296L7.0262 13.5046L8.70044 10.8931C8.78825 10.7566 8.97512 10.7135 9.11824 10.7968C9.26135 10.8798 9.30663 11.0582 9.21912 11.1941L6.97333 14.6977C6.91712 14.7854 6.81776 14.8363 6.71384 14.8363Z" fill="#2D74DA"/>
<path d="M6.71384 14.8363C6.68619 14.8363 6.65824 14.8325 6.63059 14.8253C6.49902 14.7894 6.40908 14.6746 6.40999 14.5448L6.44797 9.91803C6.44858 9.84892 6.47532 9.78241 6.52302 9.73036L14.1844 1.3658C14.295 1.2455 14.487 1.23307 14.6134 1.33775C14.7398 1.443 14.7529 1.62547 14.6426 1.74577L7.05507 10.0296L7.0262 13.5046L8.70044 10.8931C8.78825 10.7566 8.97512 10.7135 9.11824 10.7968C9.26135 10.8798 9.30663 11.0582 9.21912 11.1941L6.97333 14.6977C6.91712 14.7854 6.81776 14.8363 6.71384 14.8363" stroke="#2D74DA"/>
</svg>
