<svg width="18" height="18" viewBox="0 0 18 18" fill="none" xmlns="http://www.w3.org/2000/svg">
<path fill-rule="evenodd" clip-rule="evenodd" d="M17.9437 8.00066C17.9152 7.74763 17.6202 7.55749 17.3651 7.55749C16.5403 7.55749 15.8084 7.07321 15.5014 6.32425C15.1879 5.55714 15.3901 4.66252 16.0048 4.09867C16.1982 3.9218 16.2218 3.62571 16.0595 3.42003C15.6373 2.88398 15.1575 2.39977 14.6337 1.98011C14.4285 1.81549 14.1275 1.8384 13.9496 2.03537C13.4132 2.62948 12.4495 2.85029 11.7049 2.53961C10.93 2.21365 10.4414 1.42846 10.4892 0.585599C10.5049 0.320855 10.3114 0.0906684 10.0475 0.0599277C9.3752 -0.017828 8.69701 -0.020239 8.02271 0.0545699C7.76178 0.0833683 7.56829 0.30813 7.57706 0.569526C7.6064 1.40408 7.11186 2.17554 6.34466 2.48978C5.60894 2.79029 4.65208 2.57135 4.11668 1.98252C3.93973 1.78857 3.64364 1.76473 3.43749 1.9254C2.89808 2.3486 2.40749 2.83322 1.98146 3.36485C1.8153 3.57153 1.83974 3.8711 2.03517 4.04891C2.66159 4.61617 2.86385 5.51857 2.53842 6.29452C2.22773 7.0343 1.45953 7.51108 0.580082 7.51108C0.294703 7.50191 0.0914345 7.69345 0.0602243 7.9529C-0.0189398 8.62906 -0.0198775 9.31802 0.0563398 9.99967C0.0846031 10.2538 0.388601 10.4422 0.646521 10.4422C1.43026 10.4222 2.18272 10.9074 2.49837 11.6755C2.81302 12.4426 2.61075 13.3367 1.99512 13.901C1.80257 14.0779 1.77813 14.3735 1.94041 14.5792C2.3586 15.1119 2.83847 15.5965 3.36422 16.0197C3.57044 16.1858 3.87048 16.1624 4.04924 15.9654C4.58771 15.3698 5.55128 15.1494 6.29296 15.4607C7.0698 15.7857 7.55844 16.5708 7.51062 17.4141C7.49502 17.679 7.68945 17.9096 7.95232 17.9399C8.29624 17.98 8.64223 18 8.98916 18C9.31847 18 9.64785 17.9819 9.97717 17.9453C10.2382 17.9165 10.4315 17.6917 10.4228 17.4299C10.3925 16.5958 10.888 15.8243 11.6541 15.5106C12.3948 15.2081 13.3477 15.4295 13.8831 16.0177C14.0611 16.2113 14.3551 16.2347 14.5624 16.0745C15.1008 15.6523 15.5904 15.1681 16.0184 14.635C16.1845 14.4288 16.1611 14.1288 15.9646 13.951C15.3382 13.3837 15.135 12.4812 15.4604 11.7058C15.7663 10.9759 16.506 10.4858 17.3016 10.4858L17.4129 10.4886C17.671 10.5096 17.9084 10.3108 17.9397 10.0474C18.019 9.37066 18.0199 8.68231 17.9437 8.00066ZM9.0142 12.0212C7.35872 12.0212 6.01213 10.6747 6.01213 9.01921C6.01213 7.36384 7.35872 6.01721 9.0142 6.01721C10.6696 6.01721 12.0162 7.36384 12.0162 9.01921C12.0162 10.6747 10.6696 12.0212 9.0142 12.0212Z" fill="#2D74DA"/>
</svg>
