<svg width="18" height="18" viewBox="0 0 18 18" fill="none" xmlns="http://www.w3.org/2000/svg">
<path d="M8.8208 9.55879C8.88027 9.56099 8.93987 9.5625 9.00002 9.5625C9.05577 9.5625 9.11125 9.56126 9.1666 9.5592C10.4256 9.5864 11.6639 9.91956 12.758 10.5285C13.0974 10.7173 13.5256 10.5954 13.7144 10.256C13.9032 9.91667 13.7813 9.48848 13.4419 9.29965C12.9382 9.01936 12.4088 8.78838 11.8622 8.60875C13.0265 7.73589 13.7813 6.34502 13.7813 4.78125C13.7813 2.14481 11.6363 0 9.00002 0C6.36357 0 4.21877 2.14481 4.21877 4.78125C4.21877 6.34598 4.97435 7.73767 6.13986 8.6104C5.07213 8.96182 4.07018 9.50853 3.19319 10.2298C1.58548 11.5523 0.467623 13.3969 0.0456104 15.4238C-0.0866376 16.059 0.0718403 16.7113 0.480257 17.2137C0.886614 17.7134 1.48935 18 2.1337 18H7.62892C8.01715 18 8.33205 17.6852 8.33205 17.2969C8.33205 16.9085 8.01715 16.5938 7.62892 16.5938H2.1337C1.8335 16.5938 1.6525 16.4262 1.5712 16.3264C1.43099 16.1539 1.37674 15.9295 1.42233 15.7104C2.15251 12.2032 5.24764 9.64188 8.8208 9.55879ZM5.62502 4.78125C5.62502 2.9203 7.13893 1.40625 9.00002 1.40625C10.861 1.40625 12.375 2.9203 12.375 4.78125C12.375 6.58617 10.9509 8.06451 9.16742 8.15213C9.11153 8.15103 9.05577 8.15034 9.00002 8.15034C8.94509 8.15034 8.89029 8.15117 8.8355 8.15213C7.05063 8.06616 5.62502 6.58713 5.62502 4.78125ZM18 13.0721C18.0007 13.5417 17.8171 13.9831 17.4832 14.3152L16.1755 15.6157C16.0383 15.7522 15.8589 15.8203 15.6797 15.8203C15.4991 15.8203 15.3185 15.7511 15.1811 15.6129C14.9072 15.3376 14.9085 14.8925 15.1838 14.6187L16.0604 13.7469H12.0758C11.2908 13.7469 10.6524 14.3855 10.6524 15.1703C10.6524 15.9552 11.2831 16.5938 12.0586 16.5938C12.4468 16.5938 12.7617 16.9085 12.7617 17.2969C12.7617 17.6852 12.4468 18 12.0586 18C11.3023 18 10.5937 17.7047 10.0635 17.1685C9.53629 16.6354 9.24611 15.9258 9.24611 15.1703C9.24611 13.61 10.5154 12.3407 12.0758 12.3407H15.9958L15.1852 11.5391C14.9092 11.2659 14.9065 10.8207 15.1797 10.5447C15.4527 10.2686 15.8979 10.266 16.1741 10.5392L17.4798 11.8304C17.8146 12.1615 17.9993 12.6024 18 13.0721Z" fill="#2D74DA"/>
</svg>
