<svg width="215" height="229" viewBox="0 0 215 229" fill="none" xmlns="http://www.w3.org/2000/svg">
<g opacity="0.3">
<path d="M23.7501 209.669H16.1144C14.0145 209.669 12.2965 211.384 12.2965 213.481C12.2965 215.578 14.0145 217.293 16.1144 217.293H23.7501C25.8499 217.293 27.5679 215.578 27.5679 213.481C27.5679 211.384 25.8499 209.669 23.7501 209.669Z" fill="#6DA6F2"/>
<path d="M23.7501 198.232H16.1144C14.0145 198.232 12.2965 199.948 12.2965 202.045C12.2965 204.141 14.0145 205.857 16.1144 205.857H23.7501C25.8499 205.857 27.5679 204.141 27.5679 202.045C27.5679 199.948 25.8499 198.232 23.7501 198.232Z" fill="#6DA6F2"/>
<path d="M92.4716 209.669H84.8359C82.7361 209.669 81.0181 211.384 81.0181 213.481C81.0181 215.578 82.7361 217.293 84.8359 217.293H92.4716C94.5715 217.293 96.2895 215.578 96.2895 213.481C96.2895 211.384 94.5715 209.669 92.4716 209.669Z" fill="#6DA6F2"/>
<path d="M92.4716 198.232H84.8359C82.7361 198.232 81.0181 199.948 81.0181 202.045C81.0181 204.141 82.7361 205.857 84.8359 205.857H92.4716C94.5715 205.857 96.2895 204.141 96.2895 202.045C96.2895 199.948 94.5715 198.232 92.4716 198.232Z" fill="#6DA6F2"/>
<path d="M161.193 209.669H153.557C151.458 209.669 149.74 211.384 149.74 213.481C149.74 215.578 151.458 217.293 153.557 217.293H161.193C163.293 217.293 165.011 215.578 165.011 213.481C165.011 211.384 163.293 209.669 161.193 209.669Z" fill="#6DA6F2"/>
<path d="M161.193 198.232H153.557C151.458 198.232 149.74 199.948 149.74 202.045C149.74 204.141 151.458 205.857 153.557 205.857H161.193C163.293 205.857 165.011 204.141 165.011 202.045C165.011 199.948 163.293 198.232 161.193 198.232Z" fill="#6DA6F2"/>
<path d="M210.825 144.862H180.282V72.431C180.282 70.3343 178.564 68.6189 176.464 68.6189H145.922V3.81216C145.922 1.71547 144.204 0 142.104 0H73.3823C71.2825 0 69.5645 1.71547 69.5645 3.81216V68.6189H39.0216C36.9218 68.6189 35.2037 70.3343 35.2037 72.431V144.862H4.66088C2.56105 144.862 0.843018 146.578 0.843018 148.674V224.917C0.843018 227.014 2.56105 228.73 4.66088 228.73H210.825C212.925 228.73 214.643 227.014 214.643 224.917V148.674C214.643 146.578 212.925 144.862 210.825 144.862ZM172.647 152.486H180.282V167.735H172.647V152.486ZM172.647 144.862H111.561V76.2432H130.65V95.304C130.65 97.4007 132.368 99.1161 134.468 99.1161H149.739C151.839 99.1161 153.557 97.4007 153.557 95.304V76.2432H172.647V144.862ZM103.925 152.486H111.561V167.735H103.925V152.486ZM145.922 76.2432V91.4918H138.286V76.2432H145.922ZM111.561 7.62432V15.2486H103.925V7.62432H111.561ZM77.2002 7.62432H96.2895V19.0608C96.2895 21.1575 98.0075 22.873 100.107 22.873H115.379C117.479 22.873 119.197 21.1575 119.197 19.0608V7.62432H138.286V68.6189H77.2002V7.62432ZM77.2002 76.2432V91.4918H69.5645V76.2432H77.2002ZM42.8395 76.2432H61.9287V95.304C61.9287 97.4007 63.6468 99.1161 65.7466 99.1161H81.018C83.1179 99.1161 84.8359 97.4007 84.8359 95.304V76.2432H103.925V144.862H42.8395V76.2432ZM42.8395 152.486V167.735H35.2037V152.486H42.8395ZM8.47873 152.486H27.568V171.547C27.568 173.644 29.2861 175.359 31.3859 175.359H46.6573C48.7571 175.359 50.4752 173.644 50.4752 171.547V152.486H69.5645V221.105H8.47873V152.486ZM77.2002 152.486H96.2895V171.547C96.2895 173.644 98.0075 175.359 100.107 175.359H115.379C117.479 175.359 119.197 173.644 119.197 171.547V152.486H138.286V221.105H77.2002V152.486ZM207.007 221.105H145.922V152.486H165.011V171.547C165.011 173.644 166.729 175.359 168.829 175.359H184.1C186.2 175.359 187.918 173.644 187.918 171.547V152.486H207.007V221.105Z" fill="#6DA6F2"/>
<path d="M50.4752 141.05H58.1109C60.2108 141.05 61.9288 139.334 61.9288 137.238C61.9288 135.141 60.2108 133.426 58.1109 133.426H50.4752C48.3754 133.426 46.6573 135.141 46.6573 137.238C46.6573 139.334 48.3754 141.05 50.4752 141.05Z" fill="#6DA6F2"/>
<path d="M50.4752 129.613H58.1109C60.2108 129.613 61.9288 127.898 61.9288 125.801C61.9288 123.705 60.2108 121.989 58.1109 121.989H50.4752C48.3754 121.989 46.6573 123.705 46.6573 125.801C46.6573 127.898 48.3754 129.613 50.4752 129.613Z" fill="#6DA6F2"/>
<path d="M126.832 133.426H119.197C117.097 133.426 115.379 135.141 115.379 137.238C115.379 139.334 117.097 141.05 119.197 141.05H126.832C128.932 141.05 130.65 139.334 130.65 137.238C130.65 135.141 128.932 133.426 126.832 133.426Z" fill="#6DA6F2"/>
<path d="M126.832 121.989H119.197C117.097 121.989 115.379 123.705 115.379 125.801C115.379 127.898 117.097 129.613 119.197 129.613H126.832C128.932 129.613 130.65 127.898 130.65 125.801C130.65 123.705 128.932 121.989 126.832 121.989Z" fill="#6DA6F2"/>
<path d="M84.8359 53.3703H92.4716C94.5715 53.3703 96.2895 51.6548 96.2895 49.5581C96.2895 47.4614 94.5715 45.746 92.4716 45.746H84.8359C82.7361 45.746 81.0181 47.4614 81.0181 49.5581C81.0181 51.6548 82.7361 53.3703 84.8359 53.3703Z" fill="#6DA6F2"/>
<path d="M84.8359 64.8069H92.4716C94.5715 64.8069 96.2895 63.0914 96.2895 60.9947C96.2895 58.898 94.5715 57.1826 92.4716 57.1826H84.8359C82.7361 57.1826 81.0181 58.898 81.0181 60.9947C81.0181 63.0914 82.7361 64.8069 84.8359 64.8069Z" fill="#6DA6F2"/>
</g>
</svg>
