<svg width="313" height="250" viewBox="0 0 313 250" fill="none" xmlns="http://www.w3.org/2000/svg">
<g clip-path="url(#clip0)">
<path d="M130.05 249.198C143.014 249.198 153.522 246.537 153.522 243.255C153.522 239.973 143.014 237.312 130.05 237.312C117.087 237.312 106.579 239.973 106.579 243.255C106.579 246.537 117.087 249.198 130.05 249.198Z" fill="#F2F2F2"/>
<path d="M131.802 183.475C144.765 183.475 155.274 180.814 155.274 177.532C155.274 174.25 144.765 171.589 131.802 171.589C118.839 171.589 108.33 174.25 108.33 177.532C108.33 180.814 118.839 183.475 131.802 183.475Z" fill="#F2F2F2"/>
<path d="M23.9015 186.272C36.8647 186.272 47.3734 183.611 47.3734 180.328C47.3734 177.046 36.8647 174.385 23.9015 174.385C10.9384 174.385 0.429688 177.046 0.429688 180.328C0.429688 183.611 10.9384 186.272 23.9015 186.272Z" fill="#F2F2F2"/>
<path d="M142.529 2.01892H8.35449V7.08801H142.529V2.01892Z" fill="#F5F5F5"/>
<path d="M144.632 0.620605H5.90283V170.522H144.632V0.620605Z" fill="url(#paint0_linear)"/>
<path d="M142.529 7.08801H8.35449V167.726H142.529V7.08801Z" fill="white"/>
<path d="M11.1148 5.8645C11.792 5.8645 12.341 5.31669 12.341 4.64093C12.341 3.96517 11.792 3.41736 11.1148 3.41736C10.4376 3.41736 9.88867 3.96517 9.88867 4.64093C9.88867 5.31669 10.4376 5.8645 11.1148 5.8645Z" fill="#FF5252"/>
<path d="M14.4854 5.8645C15.1626 5.8645 15.7116 5.31669 15.7116 4.64093C15.7116 3.96517 15.1626 3.41736 14.4854 3.41736C13.8082 3.41736 13.2593 3.96517 13.2593 4.64093C13.2593 5.31669 13.8082 5.8645 14.4854 5.8645Z" fill="#FFFF00"/>
<path d="M17.8585 5.8645C18.5356 5.8645 19.0846 5.31669 19.0846 4.64093C19.0846 3.96517 18.5356 3.41736 17.8585 3.41736C17.1813 3.41736 16.6323 3.96517 16.6323 4.64093C16.6323 5.31669 17.1813 5.8645 17.8585 5.8645Z" fill="#69F0AE"/>
<g opacity="0.2">
<path opacity="0.2" d="M64.4066 13.2058H12.208V16.3521H64.4066V13.2058Z" fill="#2D74DA"/>
</g>
<path d="M101.541 26.1407H49.3428V29.2871H101.541V26.1407Z" fill="#F5F5F5"/>
<path opacity="0.5" d="M64.4066 127.522H12.208V130.669H64.4066V127.522Z" fill="#2D74DA"/>
<path d="M88.9299 127.173H71.4136V131.018H88.9299V127.173Z" fill="url(#paint1_linear)"/>
<path d="M88.9299 146.75H71.4136V150.596H88.9299V146.75Z" fill="url(#paint2_linear)"/>
<path d="M124.663 146.75H107.146V150.596H124.663V146.75Z" fill="url(#paint3_linear)"/>
<path d="M88.5791 127.522H72.1138V130.669H88.5791V127.522Z" fill="#2D74DA"/>
<path d="M88.5791 147.1H72.1138V150.246H88.5791V147.1Z" fill="#2D74DA"/>
<path d="M123.962 147.1H107.497V150.246H123.962V147.1Z" fill="#2D74DA"/>
<path d="M64.4066 137.311H12.208V140.457H64.4066V137.311Z" fill="#F5F5F5"/>
<path opacity="0.5" d="M124.312 137.311H72.1138V140.457H124.312V137.311Z" fill="#2D74DA"/>
<path d="M124.312 156.888H72.1138V160.034H124.312V156.888Z" fill="#F5F5F5"/>
<path opacity="0.5" d="M64.4066 147.1H12.208V150.246H64.4066V147.1Z" fill="#2D74DA"/>
<path d="M64.4066 156.888H12.208V160.034H64.4066V156.888Z" fill="#F5F5F5"/>
<path d="M78.7702 31.3848H49.3428V34.5311H78.7702V31.3848Z" fill="#F5F5F5"/>
<path d="M94.1849 31.3848H84.0254V34.5311H94.1849V31.3848Z" fill="#F5F5F5"/>
<path d="M78.7702 41.8723H49.3428V45.0186H78.7702V41.8723Z" fill="#F5F5F5"/>
<path d="M94.1849 41.8723H84.0254V45.0186H94.1849V41.8723Z" fill="#F5F5F5"/>
<path d="M101.541 36.6285H49.3428V39.7749H101.541V36.6285Z" fill="#F5F5F5"/>
<g opacity="0.2">
<path opacity="0.2" d="M137.975 13.2058H85.7769V16.3521H137.975V13.2058Z" fill="#2D74DA"/>
</g>
<path d="M121.51 25.7911H115.204V29.6367H121.51V25.7911Z" fill="url(#paint4_linear)"/>
<path d="M121.51 31.035H115.204V34.8805H121.51V31.035Z" fill="url(#paint5_linear)"/>
<path d="M121.51 36.2789H115.204V40.1244H121.51V36.2789Z" fill="url(#paint6_linear)"/>
<path d="M121.16 26.1407H115.555V29.2871H121.16V26.1407Z" fill="#FF5252"/>
<path d="M121.16 31.3848H115.555V34.5311H121.16V31.3848Z" fill="#FF9800"/>
<path d="M121.16 36.6285H115.555V39.7749H121.16V36.6285Z" fill="#69F0AE"/>
<path d="M121.51 41.5228H115.204V45.3683H121.51V41.5228Z" fill="url(#paint7_linear)"/>
<path d="M121.16 41.8723H115.555V45.0186H121.16V41.8723Z" fill="#2D74DA"/>
<path d="M139.727 64.2463H11.1572V116.685H139.727V64.2463Z" fill="url(#paint8_linear)"/>
<path opacity="0.5" d="M137.975 65.295H12.208V114.937H137.975V65.295Z" fill="#2D74DA"/>
<path opacity="0.5" d="M16.0616 69.1406H137.975V65.295H12.208V114.937H16.0616V69.1406Z" fill="white"/>
<path d="M140.894 60.9518L11.8066 72.675L16.6328 125.594L145.72 113.871L140.894 60.9518Z" fill="url(#paint9_linear)"/>
<path d="M139.276 62.4987L14.0269 73.8734L18.5355 123.311L143.785 111.936L139.276 62.4987Z" fill="white"/>
<path opacity="0.5" d="M23.3751 114.444L21.2031 86.907C21.2031 86.907 32.4136 75.0208 55.0446 83.8306C77.6757 92.6403 88.3466 86.421 92.0251 80.471C95.7035 74.5209 114.796 67.8857 120.983 77.8385C127.17 87.7914 134.59 76.601 134.59 76.601L137.098 104.103L23.3751 114.444Z" fill="#2D74DA"/>
<path d="M34.7729 80.9078L34.9621 82.9984" stroke="#2D74DA" stroke-width="1.13506" stroke-miterlimit="10"/>
<path d="M35.3301 87.0048L37.341 109.05" stroke="#2D74DA" stroke-width="1.13506" stroke-miterlimit="10" stroke-dasharray="13.06 13.06"/>
<path d="M37.5215 111.053L37.7142 113.14" stroke="#2D74DA" stroke-width="1.13506" stroke-miterlimit="10"/>
<path d="M56.314 84.3199L56.5066 86.407" stroke="#2D74DA" stroke-width="1.13506" stroke-miterlimit="10"/>
<path d="M56.9199 90.9552L58.3738 106.865" stroke="#2D74DA" stroke-width="1.13506" stroke-miterlimit="10" stroke-dasharray="14.82 14.82"/>
<path d="M58.5801 109.137L58.7693 111.228" stroke="#2D74DA" stroke-width="1.13506" stroke-miterlimit="10"/>
<path d="M78.2935 88.0535L78.5037 90.1405" stroke="#2D74DA" stroke-width="1.13506" stroke-miterlimit="10"/>
<path d="M78.8433 93.5493L80.0274 105.47" stroke="#2D74DA" stroke-width="1.13506" stroke-miterlimit="10" stroke-dasharray="11.11 11.11"/>
<path d="M80.1997 107.173L80.4064 109.263" stroke="#2D74DA" stroke-width="1.13506" stroke-miterlimit="10"/>
<path d="M98.0479 75.7271L98.237 77.8176" stroke="#2D74DA" stroke-width="1.13506" stroke-miterlimit="10"/>
<path d="M98.5938 81.7435L100.566 103.345" stroke="#2D74DA" stroke-width="1.13506" stroke-miterlimit="10" stroke-dasharray="12.8 12.8"/>
<path d="M100.746 105.306L100.938 107.396" stroke="#2D74DA" stroke-width="1.13506" stroke-miterlimit="10"/>
<path d="M112.307 72.8428L112.496 74.9298" stroke="#2D74DA" stroke-width="1.13506" stroke-miterlimit="10"/>
<path d="M112.874 79.083L114.958 101.922" stroke="#2D74DA" stroke-width="1.13506" stroke-miterlimit="10" stroke-dasharray="13.54 13.54"/>
<path d="M115.147 103.998L115.34 106.085" stroke="#2D74DA" stroke-width="1.13506" stroke-miterlimit="10"/>
<path d="M34.8647 82.5142C35.8281 82.4267 36.538 81.5764 36.4503 80.615C36.3626 79.6536 35.5106 78.9451 34.5472 79.0326C33.5837 79.1201 32.8738 79.9704 32.9615 80.9318C33.0492 81.8932 33.9012 82.6017 34.8647 82.5142Z" fill="#FF9800"/>
<path d="M56.3046 86.1849C57.268 86.0974 57.9779 85.2471 57.8903 84.2857C57.8026 83.3243 56.9505 82.6159 55.9871 82.7034C55.0237 82.7909 54.3138 83.6412 54.4014 84.6026C54.4891 85.564 55.3412 86.2724 56.3046 86.1849Z" fill="#FF5252"/>
<path d="M78.4477 89.7892C79.4111 89.7017 80.121 88.8514 80.0333 87.89C79.9456 86.9286 79.0936 86.2201 78.1302 86.3076C77.1667 86.3951 76.4568 87.2454 76.5445 88.2068C76.6322 89.1682 77.4843 89.8767 78.4477 89.7892Z" fill="#69F0AE"/>
<path d="M98.1426 78.1715C99.4913 78.049 100.485 76.8586 100.362 75.5127C100.24 74.1667 99.0468 73.1749 97.698 73.2974C96.3493 73.4199 95.3554 74.6103 95.4781 75.9562C95.6009 77.3022 96.7938 78.294 98.1426 78.1715Z" fill="url(#paint10_linear)"/>
<path d="M112.667 75.4497C114.016 75.3272 115.01 74.1368 114.887 72.7908C114.764 71.4449 113.571 70.4531 112.222 70.5756C110.874 70.6981 109.88 71.8885 110.003 73.2344C110.125 74.5804 111.318 75.5722 112.667 75.4497Z" fill="url(#paint11_linear)"/>
<path d="M98.078 77.475C99.0415 77.3875 99.7514 76.5372 99.6637 75.5758C99.576 74.6144 98.724 73.9059 97.7605 73.9934C96.7971 74.0809 96.0872 74.9312 96.1749 75.8926C96.2625 76.854 97.1146 77.5625 98.078 77.475Z" fill="#2D74DA"/>
<path d="M112.604 74.7534C113.568 74.6659 114.278 73.8156 114.19 72.8542C114.102 71.8928 113.25 71.1844 112.287 71.2719C111.323 71.3594 110.614 72.2097 110.701 73.1711C110.789 74.1325 111.641 74.8409 112.604 74.7534Z" fill="#2D74DA"/>
<path d="M134.805 79.0552C135.769 78.9677 136.478 78.1174 136.391 77.156C136.303 76.1946 135.451 75.4861 134.488 75.5736C133.524 75.6611 132.814 76.5114 132.902 77.4728C132.99 78.4342 133.842 79.1427 134.805 79.0552Z" fill="#69F0AE"/>
<g opacity="0.2">
<path opacity="0.2" d="M138.199 112.043L138.224 112.122C138.492 111.973 138.199 112.043 138.199 112.043Z" fill="url(#paint12_linear)"/>
</g>
<g opacity="0.2">
<path opacity="0.2" d="M135.298 170.767L141.001 169.848L140.216 166.352V166.303H140.195L136.153 147.774V134.263C136.152 134.091 136.143 133.92 136.125 133.749C142.164 125.757 138.577 113.217 138.227 112.123C138.164 112.155 138.069 112.196 137.936 112.249C137.892 111.76 137.799 111.276 137.659 110.805C137.659 110.805 135.907 109.693 134.951 111.123C134.117 112.371 134.737 113.133 134.909 113.312L134.79 113.35C135.058 113.771 135.246 114.238 135.343 114.728C135.288 114.607 135.225 114.49 135.154 114.378C134.934 114.339 134.804 114.305 134.804 114.305L134.762 114.266L134.643 114.305C135.249 115.189 135.462 116.752 135.434 118.604C135.225 118.315 134.991 118.045 134.734 117.797C133.626 116.741 132.166 116.133 130.635 116.091H130.344C130.185 116.091 130.027 116.101 129.868 116.122H129.749L129.549 116.15L129.321 116.192L129.157 116.227L128.873 116.304L128.768 116.336C128.649 116.374 128.533 116.413 128.417 116.458C128.033 116.644 127.631 116.79 127.216 116.891C127.16 116.891 127.104 116.891 127.044 116.909C126.576 116.942 126.111 116.809 125.73 116.535L125.604 116.437C125.557 116.396 125.511 116.353 125.468 116.308C125.42 116.429 125.4 116.559 125.408 116.689C125.434 116.997 125.582 117.282 125.818 117.482C125.884 117.54 125.957 117.589 126.035 117.629C126.15 117.689 126.277 117.725 126.407 117.734H126.54H126.508C126.428 117.772 126.347 117.807 126.263 117.839H126.245C126.154 117.87 126.067 117.898 125.972 117.923C125.513 118.039 125.033 118.046 124.571 117.944L124.42 117.909C124.347 117.888 124.27 117.867 124.2 117.842C124.223 117.895 124.248 117.946 124.277 117.996L124.305 118.042L124.368 118.14L124.406 118.188L124.476 118.276L124.518 118.321L124.606 118.409L124.641 118.44L124.771 118.549L124.816 118.58L124.911 118.646L124.974 118.685L125.058 118.734L125.128 118.769L125.215 118.807L125.289 118.839L125.387 118.874L125.51 118.909L125.601 118.933H125.688H125.769H125.86H126.21C126.391 118.917 126.568 118.874 126.736 118.804L126.414 118.937L126.252 118.993L126.088 119.052L125.923 119.101L125.755 119.15L125.59 119.192L125.415 119.234L125.254 119.265L125.068 119.297L124.914 119.321L124.714 119.346H124.571H124.343H124.224H123.874C124.067 119.402 124.247 119.497 124.403 119.625C124.503 119.698 124.613 119.756 124.729 119.8C124.78 119.815 124.833 119.827 124.886 119.835H124.932H125.044H125.517H125.671C125.99 119.867 126.3 119.966 126.578 120.125C126.726 120.22 126.857 120.338 126.967 120.475C126.918 120.555 126.869 120.632 126.827 120.716C126.785 120.8 126.753 120.856 126.718 120.929C126.648 121.074 126.586 121.222 126.533 121.373C126.333 121.916 126.231 122.49 126.231 123.069C126.231 123.177 126.231 123.282 126.231 123.387C126.231 123.415 126.231 123.446 126.231 123.474C126.231 123.558 126.241 123.642 126.259 123.726V123.792C126.273 123.895 126.292 123.996 126.315 124.097V124.156C126.334 124.24 126.355 124.323 126.379 124.404L126.4 124.478C126.458 124.675 126.53 124.869 126.613 125.058L126.638 125.114C126.677 125.2 126.718 125.284 126.76 125.366V125.39C126.812 125.483 126.865 125.575 126.922 125.666V125.687C126.973 125.771 127.028 125.853 127.086 125.932L127.107 125.96C127.233 126.133 127.37 126.298 127.517 126.453C127.899 126.854 128.345 127.188 128.838 127.442C128.821 127.517 128.808 127.593 128.799 127.669C128.795 127.749 128.795 127.828 128.799 127.907V129.753C128.694 129.809 128.591 129.868 128.491 129.931C124.101 127.942 117.564 113.85 117.564 113.85H117.407C118.044 113.375 117.407 111.305 117.407 111.305C117.032 111.082 116.614 110.944 116.181 110.899H115.83H115.767H115.722H115.659H115.617L115.546 110.92H115.511L115.406 110.959L115.308 111.004L115.273 111.022L115.207 111.06L115.161 111.274L115.098 111.315L115.06 111.347L115 111.396L114.961 111.431L114.902 111.487L114.867 111.525L114.807 111.595L114.779 111.63L114.692 111.749C113.735 113.179 114.692 113.976 114.692 113.976C114.63 114.527 114.601 115.082 114.604 115.636C114.534 125.935 125.58 133.917 126.144 134.315C125.895 134.958 123.842 140.657 126.168 147.771C126.176 147.788 126.185 147.805 126.196 147.82C123.548 150.256 121.582 153.339 120.493 156.765C119.404 160.191 119.231 163.841 119.989 167.355L120.034 167.568H120.136C120.125 167.616 120.112 167.662 120.097 167.708C120.07 167.792 120.036 167.874 119.996 167.953C119.926 168.087 119.84 168.213 119.74 168.327C119.631 168.453 119.505 168.579 119.372 168.708L119.232 168.841C118.675 169.372 118.111 169.89 118.531 170.099H124.56V167.474H124.665C124.665 167.474 124.623 167.394 124.56 167.236V167.208H124.539C124.224 166.397 123.488 163.887 124.665 160.021C126.098 155.249 131.672 152.865 131.672 152.865L131.774 153.214H131.753L136.125 167.547C136.125 167.603 136.125 167.659 136.107 167.719C136.087 167.854 136.056 167.987 136.013 168.117C135.979 168.218 135.939 168.316 135.893 168.411C135.624 168.967 135.158 169.62 134.955 170.11C134.925 170.177 134.901 170.246 134.881 170.316C134.857 170.395 134.849 170.479 134.856 170.561C134.862 170.613 134.883 170.663 134.916 170.704C134.949 170.746 134.992 170.777 135.042 170.795H135.123L135.291 170.767H135.298ZM133.609 129.959C133.499 129.899 133.383 129.842 133.259 129.788V128.054C133.258 127.921 133.245 127.789 133.22 127.659C133.598 127.479 133.951 127.253 134.271 126.984C134.061 128.054 133.826 129.078 133.613 129.959H133.609Z" fill="url(#paint13_linear)"/>
</g>
<path d="M114.594 115.5C114.594 115.5 113.543 114.619 114.594 113.032C115.645 111.445 117.596 112.682 117.596 112.682C117.596 112.682 118.297 114.972 117.596 115.5C116.895 116.028 114.594 115.5 114.594 115.5Z" fill="#CA7070"/>
<path d="M125.511 174.462H120.645C120.663 174.691 120.631 174.921 120.552 175.136C120.473 175.352 120.348 175.547 120.186 175.71C119.531 176.465 118.214 177.378 118.834 177.689H125.511V174.462Z" fill="#00695C"/>
<path opacity="0.2" d="M120.538 175.71C120.7 175.547 120.825 175.352 120.904 175.136C120.983 174.921 121.015 174.691 120.997 174.462H120.647C120.665 174.691 120.633 174.921 120.554 175.136C120.475 175.352 120.35 175.547 120.188 175.71C119.533 176.465 118.215 177.378 118.836 177.689H119.186C118.566 177.378 119.883 176.469 120.538 175.71Z" fill="white"/>
<path d="M142.838 173.462L138.284 174.2C138.409 174.741 138.336 175.309 138.077 175.801C137.579 176.85 136.462 178.157 137.134 178.44L143.728 177.392L142.838 173.462Z" fill="#00695C"/>
<path d="M140.616 113.35C140.616 113.35 145.825 129.75 137.088 138.828L134.565 136.902C134.565 136.902 139.729 119.003 136.839 114.801C141.94 113.105 140.616 113.35 140.616 113.35Z" fill="#00695C"/>
<path d="M137.015 114.798C137.015 114.798 135.964 113.917 137.015 112.329C138.066 110.742 140.017 111.98 140.017 111.98C140.017 111.98 140.718 114.27 140.017 114.798C139.317 115.325 137.015 114.798 137.015 114.798Z" fill="#CA7070"/>
<path opacity="0.2" d="M138.427 175.805C138.687 175.312 138.761 174.742 138.634 174.2L142.838 173.501V173.445L138.284 174.2C138.409 174.741 138.336 175.31 138.077 175.801C137.579 176.85 136.462 178.158 137.134 178.441L137.411 178.395C136.91 178.046 137.951 176.791 138.427 175.805Z" fill="white"/>
<path d="M135.161 131.095C135.161 129.732 134.054 128.627 132.689 128.627C131.324 128.627 130.218 129.732 130.218 131.095V133.469C130.218 134.832 131.324 135.937 132.689 135.937C134.054 135.937 135.161 134.832 135.161 133.469V131.095Z" fill="#CA7070"/>
<path opacity="0.2" d="M134.919 137.958C134.919 137.958 140.02 120.279 137.242 115.933C136.997 115.888 136.839 115.853 136.839 115.853L136.793 115.811L136.664 115.853C139.554 120.048 134.39 137.954 134.39 137.954L136.912 139.88L137.133 139.643L134.919 137.958Z" fill="white"/>
<path d="M132.779 131.183C135.801 131.183 138.251 128.738 138.251 125.722C138.251 122.706 135.801 120.261 132.779 120.261C129.757 120.261 127.307 122.706 127.307 125.722C127.307 128.738 129.757 131.183 132.779 131.183Z" fill="#CA7070"/>
<path opacity="0.2" d="M130.836 133.473V131.095C130.836 130.921 130.855 130.748 130.892 130.578C129.823 130.03 128.965 129.147 128.449 128.064C127.934 126.981 127.79 125.759 128.039 124.587C128.288 123.414 128.918 122.356 129.83 121.575C130.741 120.795 131.885 120.336 133.085 120.268H132.777C131.549 120.268 130.357 120.679 129.392 121.437C128.427 122.194 127.746 123.253 127.457 124.443C127.168 125.634 127.288 126.887 127.799 128C128.309 129.114 129.18 130.025 130.272 130.585C130.235 130.755 130.216 130.928 130.216 131.102V133.48C130.212 133.831 130.285 134.178 130.428 134.499C130.572 134.819 130.782 135.105 131.046 135.337C131.31 135.569 131.621 135.742 131.957 135.844C132.294 135.946 132.649 135.974 132.997 135.927C132.4 135.849 131.851 135.558 131.453 135.106C131.055 134.654 130.836 134.074 130.836 133.473Z" fill="white"/>
<path d="M138.339 152.938C138.339 152.938 127.784 154.126 127.395 152.938C124.659 144.569 127.395 137.965 127.395 137.965C127.395 136.517 127.971 135.128 128.997 134.104C130.024 133.079 131.416 132.504 132.867 132.504C134.318 132.504 135.71 133.079 136.736 134.104C137.762 135.128 138.339 136.517 138.339 137.965V152.938Z" fill="#00695C"/>
<path d="M138.339 152.938L143.107 174.784H138.339L133.396 158.577C133.396 158.577 127.216 161.219 125.629 166.505C124.042 171.791 125.629 174.784 125.629 174.784H120.507L120.455 174.546C119.612 170.653 119.809 166.608 121.027 162.816C122.244 159.024 124.439 155.617 127.391 152.938" fill="#263238"/>
<path opacity="0.2" d="M128.011 152.938C125.275 144.569 128.011 137.965 128.011 137.965C128.011 136.578 128.54 135.242 129.491 134.23C130.441 133.218 131.742 132.604 133.13 132.515C133.014 132.515 132.895 132.515 132.779 132.515C131.328 132.515 129.936 133.09 128.91 134.114C127.884 135.138 127.307 136.527 127.307 137.975C127.307 137.975 124.571 144.583 127.307 152.948C127.447 153.375 128.891 153.494 130.684 153.476C129.227 153.445 128.124 153.305 128.011 152.938Z" fill="white"/>
<path d="M127.307 137.874C127.307 137.874 113.185 128.009 114.597 115.5H117.775C117.775 115.5 125.363 131.899 130.225 133.473C135.088 135.046 127.307 137.874 127.307 137.874Z" fill="#00695C"/>
<g opacity="0.2">
<path opacity="0.2" d="M133.488 158.961L138.34 174.871H139.041L134.098 158.664C134.098 158.664 133.87 158.762 133.488 158.961Z" fill="white"/>
<path opacity="0.2" d="M128.1 153.025H127.399C124.447 155.704 122.252 159.111 121.035 162.903C119.817 166.696 119.62 170.741 120.463 174.633L120.515 174.871H121.216L121.163 174.633C120.321 170.741 120.518 166.696 121.735 162.903C122.953 159.111 125.147 155.704 128.1 153.025Z" fill="white"/>
</g>
<path opacity="0.2" d="M115.126 115.678H114.597C113.196 128.187 127.307 138.052 127.307 138.052L127.657 137.919C126.021 136.713 113.805 127.355 115.126 115.678Z" fill="white"/>
<path d="M128.414 123.282C128.72 123.985 128.934 124.724 129.052 125.481C129.402 127.012 130.194 128.54 131.557 129.326C132.312 129.735 133.151 129.963 134.009 129.994C135.312 130.075 136.724 129.823 137.646 128.9C138.219 128.275 138.604 127.5 138.756 126.666C139.032 125.434 138.994 124.152 138.646 122.938C138.297 121.724 137.65 120.616 136.763 119.716C135.852 118.838 134.711 118.235 133.471 117.976C132.232 117.717 130.944 117.812 129.756 118.251C129.332 118.458 128.887 118.62 128.428 118.734C128.078 118.79 127.718 118.761 127.381 118.649C127.044 118.537 126.738 118.345 126.491 118.09C126.434 118.274 126.422 118.468 126.454 118.658C126.487 118.847 126.564 119.026 126.679 119.18C126.794 119.334 126.944 119.459 127.117 119.544C127.289 119.629 127.479 119.673 127.672 119.671C127.267 119.865 126.828 119.977 126.379 120.001C125.931 120.025 125.482 119.96 125.058 119.81C125.298 120.315 125.721 120.71 126.24 120.917C126.76 121.124 127.339 121.127 127.861 120.926C126.869 121.366 125.793 121.586 124.708 121.569C124.936 121.569 125.381 121.988 125.657 122.072C126.005 122.127 126.357 122.152 126.708 122.146C127.068 122.168 127.415 122.285 127.715 122.484C128.015 122.684 128.256 122.959 128.414 123.282Z" fill="#263238"/>
<g opacity="0.2">
<path opacity="0.2" d="M127.685 119.664C127.279 119.86 126.839 119.973 126.389 119.996C126.958 120.025 127.525 119.911 128.039 119.664C127.867 119.665 127.698 119.63 127.541 119.562C127.383 119.495 127.242 119.395 127.125 119.27C127.009 119.144 126.92 118.996 126.863 118.835C126.807 118.673 126.785 118.502 126.799 118.332C126.693 118.258 126.594 118.175 126.504 118.083C126.447 118.267 126.435 118.461 126.468 118.651C126.5 118.84 126.577 119.019 126.692 119.173C126.807 119.327 126.957 119.452 127.13 119.537C127.302 119.622 127.492 119.666 127.685 119.664Z" fill="white"/>
<path opacity="0.2" d="M128.791 118.737C129.25 118.624 129.695 118.462 130.119 118.255C130.789 117.991 131.501 117.848 132.221 117.832C131.383 117.805 130.549 117.949 129.769 118.255C129.345 118.462 128.9 118.624 128.441 118.737C128.378 118.737 128.315 118.737 128.252 118.758C128.432 118.775 128.613 118.768 128.791 118.737Z" fill="white"/>
<path opacity="0.2" d="M125.993 122.076C125.716 121.996 125.271 121.58 125.043 121.573C126.129 121.589 127.204 121.37 128.196 120.929C127.974 121.021 127.736 121.071 127.495 121.076C126.602 121.419 125.65 121.588 124.693 121.573C124.921 121.573 125.366 121.992 125.642 122.076C125.883 122.134 126.131 122.155 126.378 122.136C126.247 122.132 126.118 122.112 125.993 122.076Z" fill="white"/>
<path opacity="0.2" d="M134.369 129.998C133.511 129.967 132.671 129.738 131.917 129.33C130.554 128.536 129.776 127.009 129.412 125.484C129.293 124.727 129.079 123.988 128.774 123.285C128.613 122.961 128.368 122.685 128.064 122.487C127.761 122.288 127.41 122.174 127.047 122.156C126.872 122.143 126.696 122.143 126.521 122.156H126.693C127.056 122.174 127.407 122.288 127.711 122.487C128.014 122.685 128.259 122.961 128.42 123.285C128.725 123.988 128.94 124.727 129.058 125.484C129.408 127.016 130.2 128.543 131.563 129.33C132.317 129.738 133.157 129.967 134.015 129.998C134.218 129.998 134.421 129.998 134.628 129.998H134.369Z" fill="white"/>
<path opacity="0.2" d="M127.275 121.062C126.904 121.035 126.546 120.917 126.233 120.717C125.92 120.518 125.661 120.243 125.481 119.919C125.342 119.889 125.205 119.851 125.071 119.804C125.267 120.212 125.583 120.551 125.977 120.775C126.37 121 126.823 121.1 127.275 121.062Z" fill="white"/>
</g>
<path opacity="0.2" d="M114.948 115.5C114.948 115.5 113.897 114.619 114.948 113.032C115.087 112.805 115.279 112.614 115.507 112.475C115.734 112.336 115.992 112.252 116.258 112.231C115.934 112.193 115.605 112.248 115.311 112.39C115.017 112.532 114.769 112.755 114.597 113.032C113.546 114.619 114.597 115.5 114.597 115.5C115.279 115.652 115.976 115.73 116.675 115.731C116.094 115.702 115.516 115.625 114.948 115.5Z" fill="white"/>
<g opacity="0.2">
<path opacity="0.2" d="M13.3804 115.583L13.4082 115.49C13.4082 115.49 13.0529 115.42 13.3804 115.583Z" fill="url(#paint14_linear)"/>
</g>
<g opacity="0.2">
<path opacity="0.2" d="M46.392 121.443C46.3582 121.332 46.3161 121.223 46.2659 121.118C46.2659 121.083 46.2308 121.055 46.2133 121.024C46.1816 120.961 46.1465 120.9 46.1082 120.842L46.0382 120.751C46.002 120.704 45.9634 120.658 45.9226 120.615L45.842 120.534C45.7999 120.496 45.7579 120.461 45.7159 120.429L45.6283 120.366L45.4882 120.282L45.4006 120.237L45.2429 120.171L45.1623 120.139C45.0876 120.113 45.0117 120.093 44.9346 120.076C44.4249 119.98 43.9004 119.994 43.3967 120.118C43.3967 120.118 41.9288 122.279 42.4929 123.055L42.3072 122.999C42.3072 122.999 31.4015 135.144 25.2498 137.398C25.0933 137.291 24.931 137.191 24.7629 137.098V134.825C24.768 134.73 24.768 134.634 24.7629 134.539C24.7523 134.448 24.7371 134.359 24.7173 134.27L24.7629 134.245L24.945 134.144L25.2078 133.983L25.3759 133.875C25.502 133.788 25.6188 133.697 25.7263 133.602L25.8629 133.483C25.947 133.413 26.0275 133.34 26.1046 133.263L26.2447 133.126C26.3428 133.026 26.4363 132.924 26.525 132.819L26.6231 132.7C26.7072 132.595 26.7877 132.488 26.8648 132.378L26.9629 132.232C27.033 132.124 27.0995 132.015 27.1626 131.903L27.2257 131.795C27.3027 131.651 27.3763 131.501 27.4394 131.347L27.4954 131.211C27.5444 131.087 27.59 130.962 27.632 130.837C27.632 130.791 27.6636 130.749 27.6741 130.704C27.7231 130.539 27.7687 130.375 27.8037 130.204C27.8037 130.169 27.8037 130.137 27.8212 130.102C27.8492 129.96 27.8714 129.816 27.8878 129.669C27.8878 129.62 27.8878 129.571 27.8878 129.522C27.8878 129.344 27.9158 129.173 27.9158 128.98C27.916 127.62 27.4485 126.301 26.5916 125.243C27.0575 124.516 27.3623 124.086 27.3623 124.086C27.082 123.894 26.8053 123.719 26.532 123.548L26.2658 123.39C26.0836 123.282 25.9154 123.174 25.7192 123.076L25.4145 122.915C25.2498 122.827 25.0887 122.744 24.9275 122.667L24.6157 122.523L24.1498 122.321L23.845 122.198C23.6909 122.139 23.5367 122.083 23.3861 122.03L23.0988 121.933C22.9412 121.884 22.7835 121.838 22.6294 121.796L22.3736 121.726C22.1985 121.684 22.0233 121.649 21.8516 121.614L21.666 121.576C21.4313 121.534 21.2 121.503 20.9653 121.482C19.5318 121.328 18.083 121.55 16.7614 122.125C16.8315 120.454 17.1117 119.076 17.7003 118.223L17.5566 118.174L17.5076 118.223C17.5076 118.223 17.3359 118.262 17.0662 118.311C16.9811 118.447 16.905 118.588 16.8385 118.734C16.9562 118.142 17.1831 117.578 17.5076 117.07L17.364 117.021C17.5707 116.808 18.3204 115.888 17.3149 114.381C16.1588 112.654 14.0429 113.997 14.0429 113.997C13.8751 114.567 13.7648 115.153 13.7136 115.745C13.5524 115.678 13.4368 115.629 13.3632 115.591C12.3496 119.161 11.7974 122.845 11.7202 126.554C7.90516 131.959 6.3287 139.937 6.02041 141.657L5.99588 141.793C5.97486 141.919 5.96436 141.985 5.96436 141.985L15.8821 142.216C15.8821 142.251 15.8821 142.282 15.8821 142.317V157.989L8.66187 173.228C8.66187 173.228 11.4084 173.316 15.5423 173.843L14.4002 181.992L14.0184 184.279H20.8918C21.6555 182.755 17.8369 181.992 17.8369 181.992H17.7528L19.2417 174.389C19.9003 174.498 20.5776 174.615 21.2736 174.738C22.294 174.935 23.3283 175.052 24.367 175.088C25.2269 175.118 26.0878 175.081 26.9419 174.976C27.4464 179.098 26.7842 181.559 26.6581 181.968H26.6196L26.2377 184.254H33.1111C33.7767 182.926 30.9601 182.174 30.2279 182.006L30.2595 181.783C30.613 179.212 30.7034 176.611 30.5292 174.022C31.4162 173.663 32.2431 173.171 32.9815 172.564L33.0761 172.48L33.1041 172.452L27.9859 158.119C28.9422 154.064 25.6142 149.805 27.3903 147.676C29.1665 145.547 28.091 142.831 27.8808 142.366C32.6872 140.269 42.4018 135.025 45.1273 125.935C45.3275 125.296 45.4901 124.646 45.6143 123.988C45.6143 123.988 46.9876 123.432 46.392 121.443Z" fill="url(#paint15_linear)"/>
</g>
<path d="M14.4702 118.244C14.4702 118.244 9.26087 134.644 17.998 143.723L20.5204 141.796C20.5204 141.796 15.3565 123.897 18.2467 119.695C13.146 118 14.4702 118.244 14.4702 118.244Z" fill="#FF5252"/>
<path d="M18.073 119.692C18.073 119.692 19.124 118.811 18.073 117.224C17.022 115.637 15.0707 116.874 15.0707 116.874C15.0707 116.874 14.37 119.164 15.0707 119.692C15.7713 120.22 18.073 119.692 18.073 119.692Z" fill="#F6B9AD"/>
<path d="M19.9256 138.363C19.9256 139.727 21.0321 140.832 22.3971 140.832C23.7621 140.832 24.8687 139.727 24.8687 138.363V135.99C24.8687 134.627 23.7621 133.522 22.3971 133.522C21.0321 133.522 19.9256 134.627 19.9256 135.99V138.363Z" fill="#F6B9AD"/>
<path opacity="0.2" d="M20.1671 142.852C20.1671 142.852 15.0663 125.173 17.8444 120.828C18.0896 120.782 18.2473 120.747 18.2473 120.747L18.2928 120.705L18.4224 120.747C15.5322 124.942 20.6961 142.849 20.6961 142.849L18.1737 144.775L17.953 144.537L20.1671 142.852Z" fill="white"/>
<path d="M22.3075 136.077C25.3297 136.077 27.7796 133.632 27.7796 130.616C27.7796 127.601 25.3297 125.156 22.3075 125.156C19.2854 125.156 16.8354 127.601 16.8354 130.616C16.8354 133.632 19.2854 136.077 22.3075 136.077Z" fill="#F6B9AD"/>
<path opacity="0.2" d="M24.252 138.367V135.99C24.2518 135.816 24.233 135.642 24.196 135.472C25.2646 134.925 26.1229 134.041 26.6385 132.958C27.1541 131.876 27.2983 130.654 27.0488 129.481C26.7994 128.308 26.1701 127.25 25.2582 126.47C24.3463 125.689 23.2024 125.23 22.0029 125.163H22.3112C23.5387 125.162 24.7306 125.574 25.6955 126.331C26.6604 127.088 27.3421 128.147 27.6312 129.337C27.9202 130.528 27.7998 131.781 27.2892 132.895C26.7786 134.009 25.9076 134.919 24.816 135.479C24.8531 135.649 24.8719 135.823 24.8721 135.997V138.374C24.8753 138.725 24.8028 139.072 24.6595 139.393C24.5162 139.713 24.3055 139.999 24.0416 140.232C23.7778 140.464 23.467 140.637 23.1303 140.738C22.7937 140.84 22.4391 140.868 22.0905 140.821C22.688 140.744 23.2369 140.452 23.6347 140C24.0325 139.549 24.2519 138.968 24.252 138.367Z" fill="white"/>
<path d="M16.7476 157.832C16.7476 157.832 27.3029 159.021 27.6918 157.832C28.9529 153.987 25.5898 149.83 27.2714 147.799C29.023 145.701 27.6918 142.859 27.6918 142.859C27.6918 141.411 27.1152 140.022 26.089 138.998C25.0628 137.974 23.6709 137.398 22.2197 137.398C20.7684 137.398 19.3765 137.974 18.3503 138.998C17.3241 140.022 16.7476 141.411 16.7476 142.859V157.832Z" fill="#FF5252"/>
<path opacity="0.2" d="M27.2853 147.799C29.037 145.701 27.7057 142.859 27.7057 142.859C27.7057 141.411 27.1292 140.022 26.103 138.998C25.0768 137.974 23.6849 137.398 22.2336 137.398C22.1145 137.398 21.9989 137.398 21.8833 137.416C23.2703 137.504 24.5717 138.116 25.5231 139.127C26.4744 140.138 27.0043 141.472 27.0051 142.859C27.0051 142.859 28.3363 145.701 26.5847 147.799C24.8891 149.83 28.2662 153.983 27.0051 157.832C26.886 158.199 25.7964 158.339 24.3496 158.36C26.1328 158.377 27.5691 158.259 27.7057 157.832C28.9809 153.98 25.5898 149.83 27.2853 147.799Z" fill="white"/>
<path d="M25.4527 157.482C29.3063 162.932 31.0123 171.169 29.9088 179.091L29.8773 179.328H26.5877C26.5877 179.328 27.6072 176.332 26.5877 171.05C25.9629 167.883 24.1859 165.059 21.5991 163.121L18.4251 179.328H15.3633L18.4251 157.482H25.4527Z" fill="#F6B9AD"/>
<path d="M44.0068 126.065C44.0068 126.065 45.2785 125.533 44.732 123.705C44.1855 121.877 41.9644 122.492 41.9644 122.492C41.9644 122.492 40.6157 124.474 41.1377 125.187C41.6597 125.9 44.0068 126.065 44.0068 126.065Z" fill="#F6B9AD"/>
<path d="M25.2813 143.74C25.2813 143.74 41.6801 138.437 44.0028 126.065L40.9654 125.135C40.9654 125.135 28.8967 138.58 23.7994 138.675C18.7022 138.769 25.2813 143.74 25.2813 143.74Z" fill="#FF5252"/>
<path opacity="0.2" d="M43.4456 126.079L43.9536 126.232C41.6309 138.604 25.2322 143.908 25.2322 143.908L24.9414 143.681C26.8787 143.009 41.2806 137.619 43.4456 126.079Z" fill="white"/>
<g opacity="0.2">
<path opacity="0.2" d="M20.8961 163.121L17.7222 179.328H18.4228L21.5057 163.597C21.3107 163.428 21.1073 163.269 20.8961 163.121Z" fill="white"/>
<path opacity="0.2" d="M25.4536 157.482H24.7529C28.6065 162.932 30.3126 171.169 29.2091 179.091L29.1776 179.328H29.8782L29.9097 179.091C31.0133 171.169 29.3142 162.932 25.4536 157.482Z" fill="white"/>
</g>
<path opacity="0.2" d="M43.6673 125.956C43.6673 125.956 44.939 125.425 44.3925 123.597C44.3261 123.338 44.1994 123.1 44.0228 122.9C43.8463 122.7 43.6248 122.545 43.3765 122.446C43.6979 122.505 43.9959 122.654 44.2354 122.876C44.4749 123.097 44.6461 123.383 44.7288 123.698C45.2753 125.523 44.0036 126.058 44.0036 126.058C43.3073 126.005 42.6189 125.876 41.9507 125.673C42.514 125.815 43.0882 125.91 43.6673 125.956Z" fill="white"/>
<path d="M16.7475 157.238L10.0913 171.221C13.9731 171.415 17.8364 171.882 21.6521 172.62C29.0089 174.018 32.5122 170.522 32.5122 170.522L27.7653 157.238H16.7475Z" fill="#263238"/>
<path d="M18.514 179.262C18.514 179.262 22.0173 179.961 21.3166 181.36H15.0107L15.3611 179.262H18.514Z" fill="#FF5252"/>
<path d="M29.7245 179.262C29.7245 179.262 33.2277 179.961 32.5271 181.36H26.2212L26.5715 179.262H29.7245Z" fill="#FF5252"/>
<path d="M27.2721 126.124C27.2721 126.124 18.8642 138.01 22.7178 142.904L7.65381 142.555C7.65381 142.555 11.8577 115.636 27.2721 126.124Z" fill="#FCCC63"/>
<path opacity="0.2" d="M27.2721 126.124C25.1001 124.645 23.1522 123.911 21.4041 123.74C22.8738 124.2 24.2626 124.887 25.5204 125.774C25.5204 125.774 17.1126 137.661 20.9662 142.555L7.70636 142.247C7.67133 142.446 7.65381 142.555 7.65381 142.555L22.7178 142.904C18.8642 138.01 27.2721 126.124 27.2721 126.124Z" fill="white"/>
<path opacity="0.2" d="M27.7824 157.238H26.7314L31.4783 170.522C31.4783 170.522 29.2152 172.777 24.5068 172.938C29.9264 173.113 32.5293 170.522 32.5293 170.522L27.7824 157.238Z" fill="white"/>
<path opacity="0.2" d="M18.5141 179.262H17.8135C17.8135 179.262 21.3167 179.961 20.6161 181.36H21.3167C22.0174 179.961 18.5141 179.262 18.5141 179.262Z" fill="white"/>
<path opacity="0.2" d="M29.7246 179.262H29.0239C29.0239 179.262 32.5272 179.961 31.8265 181.36H32.5272C33.2278 179.961 29.7246 179.262 29.7246 179.262Z" fill="white"/>
<path d="M309.985 59.24H175.811V64.3091H309.985V59.24Z" fill="#F5F5F5"/>
<path d="M312.57 57.6217H173.141V231.019H312.57V57.6217Z" fill="url(#paint16_linear)"/>
<path d="M309.985 64.3091H175.811V224.947H309.985V64.3091Z" fill="white"/>
<path d="M178.921 63.0854C179.598 63.0854 180.147 62.5376 180.147 61.8619C180.147 61.1861 179.598 60.6383 178.921 60.6383C178.244 60.6383 177.695 61.1861 177.695 61.8619C177.695 62.5376 178.244 63.0854 178.921 63.0854Z" fill="#FF5252"/>
<path d="M182.292 63.0854C182.969 63.0854 183.518 62.5376 183.518 61.8619C183.518 61.1861 182.969 60.6383 182.292 60.6383C181.614 60.6383 181.065 61.1861 181.065 61.8619C181.065 62.5376 181.614 63.0854 182.292 63.0854Z" fill="#FFFF00"/>
<path d="M185.665 63.0854C186.342 63.0854 186.891 62.5376 186.891 61.8619C186.891 61.1861 186.342 60.6383 185.665 60.6383C184.987 60.6383 184.438 61.1861 184.438 61.8619C184.438 62.5376 184.987 63.0854 185.665 63.0854Z" fill="#69F0AE"/>
<g opacity="0.2">
<path opacity="0.2" d="M301.928 71.4757H184.219V74.622H301.928V71.4757Z" fill="#2D74DA"/>
</g>
<path d="M234.315 85.1099H183.518V138.947H234.315V85.1099Z" fill="url(#paint17_linear)"/>
<path d="M233.264 86.8577H184.569V137.199H233.264V86.8577Z" fill="white"/>
<path d="M301.928 112.028H251.131V165.866H301.928V112.028Z" fill="url(#paint18_linear)"/>
<path d="M300.877 113.776H252.182V164.118H300.877V113.776Z" fill="white"/>
<path d="M304.03 178.451H184.569V215.508H304.03V178.451Z" fill="url(#paint19_linear)"/>
<path opacity="0.5" d="M301.928 180.898H187.021V214.11H301.928V180.898Z" fill="#2D74DA"/>
<path opacity="0.5" d="M189.824 184.045H301.928V180.898H187.021V214.11H189.824V184.045Z" fill="white"/>
<path d="M225.196 97.8875C221.873 94.0334 217.299 91.4676 212.272 90.6386C207.245 89.8097 202.087 90.7704 197.698 93.3527C193.309 95.9351 189.97 99.9748 188.264 104.765C186.558 109.556 186.594 114.792 188.365 119.559C190.137 124.326 193.531 128.32 197.955 130.842C202.378 133.365 207.549 134.255 212.564 133.358C217.579 132.46 222.118 129.832 225.388 125.933C228.657 122.034 230.449 117.113 230.451 112.028C230.457 106.838 228.592 101.819 225.196 97.8875ZM216.438 124.97C213.579 126.661 210.24 127.361 206.941 126.96C203.642 126.56 200.568 125.082 198.198 122.758C195.828 120.433 194.295 117.391 193.838 114.106C193.38 110.821 194.025 107.478 195.67 104.596C197.315 101.715 199.869 99.457 202.933 98.1747C205.998 96.8923 209.402 96.6572 212.615 97.5061C215.827 98.355 218.668 100.24 220.695 102.868C222.723 105.496 223.822 108.719 223.823 112.035C223.831 114.646 223.154 117.213 221.861 119.482C220.567 121.751 218.701 123.643 216.448 124.97H216.438Z" fill="url(#paint20_linear)"/>
<path d="M219.619 102.68L224.401 98.5725C222.463 96.321 220.061 94.5144 217.358 93.2768C214.655 92.0391 211.715 91.3997 208.741 91.4024V97.695C210.807 97.6944 212.849 98.1397 214.727 99.0001C216.604 99.8606 218.273 101.116 219.619 102.68Z" fill="#FF5252"/>
<path d="M208.741 126.358C206.696 126.359 204.675 125.922 202.814 125.075L200.211 130.812C203.242 132.184 206.561 132.805 209.884 132.623C213.208 132.44 216.438 131.459 219.3 129.763L216.077 124.348C213.859 125.668 211.324 126.363 208.741 126.358Z" fill="#69F0AE"/>
<path d="M229.41 112.025C229.416 107.084 227.637 102.307 224.4 98.5691L219.618 102.677C220.991 104.261 221.999 106.127 222.57 108.142C223.142 110.157 223.263 112.273 222.925 114.34C222.587 116.408 221.799 118.376 220.615 120.105C219.432 121.835 217.882 123.285 216.076 124.352L219.299 129.767C222.382 127.939 224.935 125.342 226.708 122.231C228.48 119.121 229.411 115.603 229.41 112.025Z" fill="#FF9800"/>
<path d="M194.378 112.025C194.378 108.224 195.891 104.578 198.585 101.89C201.279 99.2019 204.932 97.6918 208.741 97.6918V91.3992C204.018 91.3993 199.436 93.0141 195.761 95.9747C192.085 98.9353 189.536 103.063 188.539 107.671C187.541 112.278 188.156 117.088 190.28 121.298C192.403 125.509 195.908 128.867 200.211 130.812L202.814 125.075C200.3 123.939 198.167 122.104 196.671 119.789C195.175 117.475 194.379 114.779 194.378 112.025Z" fill="#2D74DA"/>
<path d="M295.972 121.118H258.838V127.41H295.972V121.118Z" fill="url(#paint21_linear)"/>
<path d="M295.622 121.467H259.188V127.061H295.622V121.467Z" fill="#2D74DA"/>
<path d="M285.813 130.906H259.188V136.5H285.813V130.906Z" fill="#FF5252"/>
<path d="M277.405 140.345H259.188V145.939H277.405V140.345Z" fill="#69F0AE"/>
<path d="M292.119 149.784H259.188V155.378H292.119V149.784Z" fill="#FF9800"/>
<path d="M236.767 147.337H184.569V150.483H236.767V147.337Z" fill="#F5F5F5"/>
<path d="M213.996 152.581H184.569V155.727H213.996V152.581Z" fill="#F5F5F5"/>
<path d="M229.41 152.581H219.251V155.727H229.41V152.581Z" fill="#F5F5F5"/>
<path d="M229.41 164.118H219.251V167.264H229.41V164.118Z" fill="#F5F5F5"/>
<path d="M213.996 163.069H184.569V166.215H213.996V163.069Z" fill="#F5F5F5"/>
<path d="M236.767 157.825H184.569V160.971H236.767V157.825Z" fill="#F5F5F5"/>
<path d="M302.629 85.4594H250.43V88.6057H302.629V85.4594Z" fill="#F5F5F5"/>
<path d="M279.858 90.7032H250.43V93.8496H279.858V90.7032Z" fill="#F5F5F5"/>
<path d="M295.272 90.7032H285.112V93.8496H295.272V90.7032Z" fill="#F5F5F5"/>
<path d="M295.272 102.24H285.112V105.386H295.272V102.24Z" fill="#F5F5F5"/>
<path d="M279.858 101.191H250.43V104.337H279.858V101.191Z" fill="#F5F5F5"/>
<path d="M302.629 95.9471H250.43V99.0935H302.629V95.9471Z" fill="#F5F5F5"/>
<path d="M266.896 245.223C269.024 245.223 270.749 243.502 270.749 241.378C270.749 239.254 269.024 237.532 266.896 237.532C264.767 237.532 263.042 239.254 263.042 241.378C263.042 243.502 264.767 245.223 266.896 245.223Z" fill="url(#paint22_linear)"/>
<path d="M266.895 244.175C268.443 244.175 269.698 242.922 269.698 241.378C269.698 239.833 268.443 238.581 266.895 238.581C265.348 238.581 264.093 239.833 264.093 241.378C264.093 242.922 265.348 244.175 266.895 244.175Z" fill="#FF5252"/>
<path d="M273.552 198.728H153.04V241.028H273.552V198.728Z" fill="url(#paint23_linear)"/>
<path d="M271.449 200.476H156.542V233.687H271.449V200.476Z" fill="white"/>
<path d="M160.396 227.394H266.895" stroke="#2D74DA" stroke-width="3.40517" stroke-miterlimit="10"/>
<path d="M177.211 207.118H161.447V226.345H177.211V207.118Z" fill="url(#paint24_linear)"/>
<path d="M176.336 207.992H162.323V225.821H176.336V207.992Z" fill="#2D74DA"/>
<path d="M264.093 220.752H250.08V226.345H264.093V220.752Z" fill="#69F0AE"/>
<path d="M237.818 213.41H223.805V225.996H237.818V213.41Z" fill="#FF9800"/>
<path d="M206.99 215.508H192.977V225.996H206.99V215.508Z" fill="#FF5252"/>
<path d="M271.449 233.687H156.542V238.581H271.449V233.687Z" fill="#FF5252"/>
<path d="M161.447 245.223C163.575 245.223 165.3 243.502 165.3 241.378C165.3 239.254 163.575 237.532 161.447 237.532C159.319 237.532 157.593 239.254 157.593 241.378C157.593 243.502 159.319 245.223 161.447 245.223Z" fill="url(#paint25_linear)"/>
<path d="M161.448 244.175C162.995 244.175 164.25 242.922 164.25 241.378C164.25 239.833 162.995 238.581 161.448 238.581C159.9 238.581 158.645 239.833 158.645 241.378C158.645 242.922 159.9 244.175 161.448 244.175Z" fill="#FF5252"/>
<path d="M156.542 201.874H153.74V238.581H156.542V201.874Z" fill="#FF5252"/>
<path opacity="0.2" d="M156.542 201.874H153.74V238.581H156.542V201.874Z" fill="black"/>
<path d="M156.728 205.775C156.728 205.737 156.728 205.702 156.728 205.663C156.728 205.625 156.728 205.548 156.728 205.492C156.728 205.436 156.728 205.419 156.707 205.384C156.686 205.349 156.682 205.279 156.664 205.23C156.647 205.181 156.643 205.164 156.629 205.129C156.615 205.094 156.587 205.031 156.566 204.982L156.524 204.894C156.496 204.845 156.465 204.797 156.433 204.751L156.388 204.685C156.342 204.622 156.293 204.561 156.241 204.503C155.961 204.206 155.63 203.962 155.263 203.783C155.55 203.475 155.764 203.107 155.89 202.706C155.927 202.599 155.955 202.489 155.974 202.377C155.974 202.342 155.974 202.307 155.974 202.276C155.984 202.209 155.99 202.141 155.992 202.073C155.992 202.035 155.992 202 155.992 201.961C155.992 201.923 155.992 201.846 155.992 201.79C155.992 201.734 155.992 201.717 155.971 201.682C155.95 201.647 155.946 201.577 155.929 201.528C155.911 201.479 155.908 201.461 155.894 201.426C155.88 201.391 155.852 201.329 155.831 201.28L155.789 201.192C155.761 201.143 155.729 201.094 155.698 201.049L155.652 200.982C155.606 200.919 155.557 200.859 155.505 200.801C155.155 200.435 154.731 200.149 154.261 199.962C154.261 199.962 152.037 200.783 151.89 201.685C150.257 202.035 140.742 204.01 134.209 203.853L134.16 203.723C134.16 202.669 133.872 201.634 133.327 200.73C132.782 199.826 132 199.088 131.066 198.595V196.399C131.071 196.306 131.071 196.213 131.066 196.12C131.057 196.03 131.043 195.942 131.024 195.854L131.066 195.829L131.245 195.732L131.504 195.574L131.669 195.466C131.79 195.382 131.907 195.293 132.019 195.2L132.152 195.085C132.233 195.015 132.31 194.945 132.387 194.872L132.523 194.739C132.619 194.641 132.71 194.541 132.797 194.438L132.891 194.319C132.973 194.217 133.051 194.112 133.126 194.005L133.221 193.861C133.288 193.756 133.354 193.649 133.417 193.54L133.476 193.435C133.553 193.295 133.624 193.148 133.687 193.001L133.739 192.868C133.788 192.75 133.833 192.633 133.872 192.519L133.914 192.389C133.963 192.229 134.005 192.068 134.04 191.904C134.04 191.872 134.04 191.837 134.058 191.806C134.084 191.666 134.105 191.525 134.121 191.383C134.121 191.334 134.121 191.288 134.121 191.239C134.121 191.065 134.149 190.89 134.149 190.711C134.149 189.718 133.892 188.741 133.403 187.876C133.778 187.785 134.005 187.712 133.977 187.677C133.834 187.485 133.69 187.303 133.539 187.128L133.396 186.964C133.291 186.845 133.189 186.733 133.084 186.614L132.916 186.443C132.811 186.338 132.706 186.24 132.601 186.146L132.436 185.999C132.303 185.887 132.17 185.779 132.037 185.674L131.949 185.604C131.788 185.485 131.627 185.373 131.462 185.254L131.28 185.142C131.175 185.076 131.066 185.013 130.958 184.957L130.74 184.845L130.439 184.702L130.218 184.604C130.113 184.559 130.005 184.52 129.896 184.482L129.696 184.408C129.535 184.356 129.374 184.307 129.213 184.265L128.964 184.209L128.694 184.153L128.425 184.111L128.176 184.083L127.899 184.059H127.661H127.384C127.232 184.059 127.081 184.066 126.929 184.08C123.345 184.373 120.206 187.495 120.206 192.47V196.574H125.811V198.441C124.804 198.905 123.95 199.647 123.352 200.579C122.754 201.511 122.435 202.595 122.434 203.702V219.612L117.677 241.423H117.614L116.678 245.587L123.39 246.671L123.681 246.716C124.382 246.415 123.208 245.007 122.679 243.919C122.625 243.806 122.578 243.689 122.539 243.57C122.465 243.35 122.421 243.122 122.406 242.892L127.563 226.01H127.538L127.661 225.615C127.661 225.615 134.226 228.411 135.915 234.036C137.284 238.581 136.433 241.539 136.062 242.497H136.037V242.552C135.964 242.734 135.911 242.836 135.911 242.836H136.037V245.922H143.135C143.793 245.59 142.396 244.622 141.699 243.825C141.47 243.572 141.311 243.265 141.236 242.933H141.355L141.411 242.682C142.304 238.546 142.099 234.25 140.817 230.217C139.535 226.185 137.221 222.556 134.103 219.689C134.116 219.671 134.127 219.651 134.135 219.63C134.805 217.584 135.218 215.463 135.365 213.316C140.791 213.833 148.011 213.463 153.41 209.289C153.925 208.9 154.418 208.482 154.885 208.037C155.351 208.002 156.167 207.744 156.619 206.429C156.655 206.322 156.683 206.212 156.703 206.1C156.703 206.066 156.703 206.031 156.703 205.999C156.716 205.925 156.724 205.85 156.728 205.775Z" fill="url(#paint26_linear)"/>
<path d="M128.295 211.935C128.295 211.935 144.726 217.147 153.827 208.439L151.897 205.919C151.897 205.919 134.24 209.845 130.033 206.967C125.826 204.09 128.295 211.935 128.295 211.935Z" fill="#2D74DA"/>
<path opacity="0.2" d="M153.365 208.111L153.688 208.53C144.579 217.242 128.156 212.026 128.156 212.026C128.156 212.026 128.114 211.893 128.051 211.677C130.009 212.261 144.873 216.249 153.365 208.111Z" fill="white"/>
<path d="M153.476 208.436C153.476 208.436 154.822 208.74 155.442 206.939C156.062 205.139 153.9 204.345 153.9 204.345C153.9 204.345 151.648 205.174 151.655 206.055C151.662 206.936 153.476 208.436 153.476 208.436Z" fill="#985454"/>
<path opacity="0.2" d="M153.263 208.152C153.263 208.152 154.608 208.457 155.228 206.656C155.324 206.408 155.36 206.14 155.333 205.875C155.305 205.61 155.215 205.356 155.071 205.132C155.298 205.366 155.454 205.66 155.52 205.98C155.586 206.299 155.559 206.631 155.442 206.936C154.822 208.74 153.477 208.432 153.477 208.432C152.942 207.984 152.458 207.479 152.033 206.925C152.408 207.368 152.82 207.778 153.263 208.152Z" fill="white"/>
<path d="M136.077 240.885H140.943C140.925 241.114 140.956 241.344 141.036 241.559C141.115 241.775 141.24 241.97 141.402 242.133C142.057 242.888 143.374 243.801 142.754 244.112H136.077V240.885Z" fill="#2D74DA"/>
<path opacity="0.2" d="M141.047 242.133C140.885 241.97 140.76 241.775 140.681 241.559C140.602 241.344 140.57 241.114 140.588 240.885H140.938C140.92 241.114 140.952 241.344 141.031 241.559C141.11 241.775 141.235 241.97 141.397 242.133C142.052 242.888 143.37 243.801 142.749 244.112H142.399C143.019 243.801 141.702 242.892 141.047 242.133Z" fill="white"/>
<path d="M118.746 239.885L123.3 240.629C123.174 241.171 123.247 241.739 123.507 242.231C124.004 243.279 125.122 244.587 124.449 244.87L117.856 243.821L118.746 239.885Z" fill="#2D74DA"/>
<path opacity="0.2" d="M123.16 242.227C122.9 241.735 122.827 241.167 122.953 240.626L118.731 239.927V239.871L123.286 240.615C123.16 241.157 123.233 241.725 123.492 242.216C123.99 243.265 125.107 244.573 124.435 244.856L124.158 244.81C124.676 244.468 123.636 243.213 123.16 242.227Z" fill="white"/>
<path d="M126.425 199.891C126.425 201.254 127.532 202.359 128.897 202.359C130.262 202.359 131.368 201.254 131.368 199.891V197.518C131.368 196.154 130.262 195.049 128.897 195.049C127.532 195.049 126.425 196.154 126.425 197.518V199.891Z" fill="#985454"/>
<path d="M128.807 197.605C131.829 197.605 134.279 195.16 134.279 192.144C134.279 189.128 131.829 186.684 128.807 186.684C125.784 186.684 123.334 189.128 123.334 192.144C123.334 195.16 125.784 197.605 128.807 197.605Z" fill="#985454"/>
<path opacity="0.2" d="M130.751 199.895V197.518C130.751 197.344 130.732 197.17 130.695 197C131.764 196.453 132.622 195.569 133.138 194.487C133.653 193.404 133.797 192.182 133.548 191.009C133.298 189.836 132.669 188.778 131.757 187.998C130.845 187.217 129.701 186.758 128.502 186.691H128.81C130.038 186.691 131.23 187.102 132.195 187.859C133.159 188.616 133.841 189.675 134.13 190.866C134.419 192.056 134.299 193.309 133.788 194.423C133.278 195.537 132.407 196.447 131.315 197.007C131.352 197.177 131.371 197.351 131.371 197.525V199.902C131.374 200.253 131.302 200.601 131.158 200.921C131.015 201.242 130.805 201.528 130.541 201.76C130.277 201.992 129.966 202.165 129.629 202.266C129.293 202.368 128.938 202.396 128.59 202.349C129.187 202.272 129.736 201.98 130.134 201.529C130.532 201.077 130.751 200.496 130.751 199.895Z" fill="white"/>
<path d="M123.247 219.36C123.247 219.36 133.802 220.549 134.191 219.36C136.927 210.991 134.191 204.387 134.191 204.387C134.191 202.939 133.615 201.55 132.589 200.526C131.562 199.502 130.17 198.927 128.719 198.927C127.268 198.927 125.876 199.502 124.85 200.526C123.824 201.55 123.247 202.939 123.247 204.387V219.36Z" fill="#2D74DA"/>
<path d="M123.246 219.36L118.479 241.206H123.246L128.19 224.999C128.19 224.999 134.369 227.642 135.956 232.928C137.543 238.214 135.956 241.206 135.956 241.206H141.085L141.138 240.969C141.98 237.076 141.783 233.031 140.565 229.239C139.348 225.446 137.153 222.04 134.201 219.36" fill="#263238"/>
<path opacity="0.2" d="M133.575 219.36C136.311 210.991 133.575 204.387 133.575 204.387C133.576 203 133.047 201.664 132.096 200.652C131.145 199.64 129.844 199.027 128.457 198.937C128.573 198.937 128.692 198.937 128.807 198.937C130.259 198.937 131.65 199.512 132.677 200.536C133.703 201.56 134.279 202.949 134.279 204.398C134.279 204.398 137.016 211.005 134.279 219.371C134.139 219.797 132.696 219.916 130.902 219.899C132.36 219.867 133.456 219.727 133.575 219.36Z" fill="white"/>
<g opacity="0.2">
<path opacity="0.2" d="M128.099 225.384L123.247 241.294H122.546L127.489 225.086C127.489 225.086 127.717 225.184 128.099 225.384Z" fill="white"/>
<path opacity="0.2" d="M133.487 219.448H134.187C137.14 222.127 139.334 225.533 140.552 229.326C141.769 233.118 141.966 237.163 141.124 241.056L141.071 241.294H140.371L140.423 241.056C141.266 237.163 141.069 233.118 139.851 229.326C138.634 225.533 136.439 222.127 133.487 219.448Z" fill="white"/>
</g>
<path d="M127.595 208.439C127.595 208.439 144.026 213.652 153.127 204.943L151.197 202.423C151.197 202.423 133.54 206.349 129.333 203.471C125.125 200.594 127.595 208.439 127.595 208.439Z" fill="#2D74DA"/>
<path opacity="0.2" d="M152.664 204.615L152.986 205.034C143.878 213.746 127.455 208.53 127.455 208.53C127.455 208.53 127.413 208.397 127.35 208.181C129.308 208.765 144.172 212.753 152.664 204.615Z" fill="white"/>
<path d="M152.776 204.94C152.776 204.94 154.122 205.244 154.742 203.443C155.362 201.643 153.2 200.849 153.2 200.849C153.2 200.849 150.948 201.678 150.955 202.559C150.962 203.44 152.776 204.94 152.776 204.94Z" fill="#985454"/>
<path opacity="0.2" d="M152.563 204.656C152.563 204.656 153.908 204.961 154.528 203.16C154.624 202.912 154.66 202.644 154.632 202.379C154.605 202.114 154.515 201.86 154.37 201.636C154.598 201.87 154.754 202.164 154.82 202.484C154.885 202.803 154.858 203.135 154.742 203.44C154.122 205.244 152.776 204.936 152.776 204.936C152.242 204.488 151.758 203.983 151.333 203.429C151.708 203.872 152.119 204.282 152.563 204.656Z" fill="white"/>
<path d="M129.217 190.334L128.867 197.675H121.16V193.777C121.16 185.95 129.452 182.978 134.122 189.268C134.237 189.439 129.217 190.334 129.217 190.334Z" fill="#263238"/>
<path opacity="0.2" d="M127.486 185.908C129.452 186.069 131.473 187.139 133.071 189.289C133.186 189.442 128.166 190.337 128.166 190.337L127.816 197.679H128.867L129.217 190.337C129.217 190.337 134.237 189.442 134.122 189.289C132.24 186.751 129.767 185.737 127.486 185.908Z" fill="white"/>
</g>
<defs>
<linearGradient id="paint0_linear" x1="75.2674" y1="170.522" x2="75.2674" y2="0.620605" gradientUnits="userSpaceOnUse">
<stop stop-color="#808080" stop-opacity="0.25"/>
<stop offset="0.54" stop-color="#808080" stop-opacity="0.12"/>
<stop offset="1" stop-color="#808080" stop-opacity="0.1"/>
</linearGradient>
<linearGradient id="paint1_linear" x1="4058.48" y1="1561.54" x2="4058.48" y2="1519.24" gradientUnits="userSpaceOnUse">
<stop stop-color="#808080" stop-opacity="0.25"/>
<stop offset="0.54" stop-color="#808080" stop-opacity="0.12"/>
<stop offset="1" stop-color="#808080" stop-opacity="0.1"/>
</linearGradient>
<linearGradient id="paint2_linear" x1="4058.48" y1="1796.48" x2="4058.48" y2="1754.18" gradientUnits="userSpaceOnUse">
<stop stop-color="#808080" stop-opacity="0.25"/>
<stop offset="0.54" stop-color="#808080" stop-opacity="0.12"/>
<stop offset="1" stop-color="#808080" stop-opacity="0.1"/>
</linearGradient>
<linearGradient id="paint3_linear" x1="5880.87" y1="1796.48" x2="5880.87" y2="1754.18" gradientUnits="userSpaceOnUse">
<stop stop-color="#808080" stop-opacity="0.25"/>
<stop offset="0.54" stop-color="#808080" stop-opacity="0.12"/>
<stop offset="1" stop-color="#808080" stop-opacity="0.1"/>
</linearGradient>
<linearGradient id="paint4_linear" x1="2237.88" y1="344.969" x2="2237.88" y2="302.668" gradientUnits="userSpaceOnUse">
<stop stop-color="#808080" stop-opacity="0.25"/>
<stop offset="0.54" stop-color="#808080" stop-opacity="0.12"/>
<stop offset="1" stop-color="#808080" stop-opacity="0.1"/>
</linearGradient>
<linearGradient id="paint5_linear" x1="2237.88" y1="407.895" x2="2237.88" y2="365.594" gradientUnits="userSpaceOnUse">
<stop stop-color="#808080" stop-opacity="0.25"/>
<stop offset="0.54" stop-color="#808080" stop-opacity="0.12"/>
<stop offset="1" stop-color="#808080" stop-opacity="0.1"/>
</linearGradient>
<linearGradient id="paint6_linear" x1="2237.88" y1="470.821" x2="2237.88" y2="428.521" gradientUnits="userSpaceOnUse">
<stop stop-color="#808080" stop-opacity="0.25"/>
<stop offset="0.54" stop-color="#808080" stop-opacity="0.12"/>
<stop offset="1" stop-color="#808080" stop-opacity="0.1"/>
</linearGradient>
<linearGradient id="paint7_linear" x1="2237.88" y1="533.748" x2="2237.88" y2="491.447" gradientUnits="userSpaceOnUse">
<stop stop-color="#808080" stop-opacity="0.25"/>
<stop offset="0.54" stop-color="#808080" stop-opacity="0.12"/>
<stop offset="1" stop-color="#808080" stop-opacity="0.1"/>
</linearGradient>
<linearGradient id="paint8_linear" x1="27540.5" y1="17473.9" x2="27540.5" y2="9608.11" gradientUnits="userSpaceOnUse">
<stop stop-color="#808080" stop-opacity="0.25"/>
<stop offset="0.54" stop-color="#808080" stop-opacity="0.12"/>
<stop offset="1" stop-color="#808080" stop-opacity="0.1"/>
</linearGradient>
<linearGradient id="paint9_linear" x1="51667.2" y1="18608.1" x2="50936.7" y2="10564.1" gradientUnits="userSpaceOnUse">
<stop stop-color="#808080" stop-opacity="0.25"/>
<stop offset="0.54" stop-color="#808080" stop-opacity="0.12"/>
<stop offset="1" stop-color="#808080" stop-opacity="0.1"/>
</linearGradient>
<linearGradient id="paint10_linear" x1="2397.68" y1="1441.71" x2="2391.49" y2="1373.47" gradientUnits="userSpaceOnUse">
<stop stop-color="#808080" stop-opacity="0.25"/>
<stop offset="0.54" stop-color="#808080" stop-opacity="0.12"/>
<stop offset="1" stop-color="#808080" stop-opacity="0.1"/>
</linearGradient>
<linearGradient id="paint11_linear" x1="2615.28" y1="1399.55" x2="2609.08" y2="1331.31" gradientUnits="userSpaceOnUse">
<stop stop-color="#808080" stop-opacity="0.25"/>
<stop offset="0.54" stop-color="#808080" stop-opacity="0.12"/>
<stop offset="1" stop-color="#808080" stop-opacity="0.1"/>
</linearGradient>
<linearGradient id="paint12_linear" x1="213.611" y1="151.761" x2="213.611" y2="151.736" gradientUnits="userSpaceOnUse">
<stop stop-color="#808080" stop-opacity="0.25"/>
<stop offset="0.54" stop-color="#808080" stop-opacity="0.12"/>
<stop offset="1" stop-color="#808080" stop-opacity="0.1"/>
</linearGradient>
<linearGradient id="paint13_linear" x1="13952.9" y1="35221.4" x2="13952.9" y2="24783.3" gradientUnits="userSpaceOnUse">
<stop stop-color="#808080" stop-opacity="0.25"/>
<stop offset="0.54" stop-color="#808080" stop-opacity="0.12"/>
<stop offset="1" stop-color="#808080" stop-opacity="0.1"/>
</linearGradient>
<linearGradient id="paint14_linear" x1="45.1014" y1="161.438" x2="45.1014" y2="161.404" gradientUnits="userSpaceOnUse">
<stop stop-color="#808080" stop-opacity="0.25"/>
<stop offset="0.54" stop-color="#808080" stop-opacity="0.12"/>
<stop offset="1" stop-color="#808080" stop-opacity="0.1"/>
</linearGradient>
<linearGradient id="paint15_linear" x1="9266.94" y1="43984.5" x2="9266.94" y2="29653.9" gradientUnits="userSpaceOnUse">
<stop stop-color="#808080" stop-opacity="0.25"/>
<stop offset="0.54" stop-color="#808080" stop-opacity="0.12"/>
<stop offset="1" stop-color="#808080" stop-opacity="0.1"/>
</linearGradient>
<linearGradient id="paint16_linear" x1="96658.6" y1="114335" x2="96658.6" y2="28330.1" gradientUnits="userSpaceOnUse">
<stop stop-color="#808080" stop-opacity="0.25"/>
<stop offset="0.54" stop-color="#808080" stop-opacity="0.12"/>
<stop offset="1" stop-color="#808080" stop-opacity="0.1"/>
</linearGradient>
<linearGradient id="paint17_linear" x1="30414" y1="21387.4" x2="30414" y2="13096.5" gradientUnits="userSpaceOnUse">
<stop stop-color="#808080" stop-opacity="0.25"/>
<stop offset="0.54" stop-color="#808080" stop-opacity="0.12"/>
<stop offset="1" stop-color="#808080" stop-opacity="0.1"/>
</linearGradient>
<linearGradient id="paint18_linear" x1="40285.5" y1="25559.8" x2="40285.5" y2="17268.9" gradientUnits="userSpaceOnUse">
<stop stop-color="#808080" stop-opacity="0.25"/>
<stop offset="0.54" stop-color="#808080" stop-opacity="0.12"/>
<stop offset="1" stop-color="#808080" stop-opacity="0.1"/>
</linearGradient>
<linearGradient id="paint19_linear" x1="83343.9" y1="22956.5" x2="83343.9" y2="19028.5" gradientUnits="userSpaceOnUse">
<stop stop-color="#808080" stop-opacity="0.25"/>
<stop offset="0.54" stop-color="#808080" stop-opacity="0.12"/>
<stop offset="1" stop-color="#808080" stop-opacity="0.1"/>
</linearGradient>
<linearGradient id="paint20_linear" x1="32729.1" y1="20687.9" x2="32729.1" y2="15312.5" gradientUnits="userSpaceOnUse">
<stop stop-color="#808080" stop-opacity="0.25"/>
<stop offset="0.54" stop-color="#808080" stop-opacity="0.12"/>
<stop offset="1" stop-color="#808080" stop-opacity="0.1"/>
</linearGradient>
<linearGradient id="paint21_linear" x1="29618.2" y1="2403.35" x2="29618.2" y2="2290.08" gradientUnits="userSpaceOnUse">
<stop stop-color="#808080" stop-opacity="0.25"/>
<stop offset="0.54" stop-color="#808080" stop-opacity="0.12"/>
<stop offset="1" stop-color="#808080" stop-opacity="0.1"/>
</linearGradient>
<linearGradient id="paint22_linear" x1="6125.28" y1="5618.79" x2="6125.28" y2="5449.59" gradientUnits="userSpaceOnUse">
<stop stop-color="#808080" stop-opacity="0.25"/>
<stop offset="0.54" stop-color="#808080" stop-opacity="0.12"/>
<stop offset="1" stop-color="#808080" stop-opacity="0.1"/>
</linearGradient>
<linearGradient id="paint23_linear" x1="73378.7" y1="29288" x2="73378.7" y2="24169.7" gradientUnits="userSpaceOnUse">
<stop stop-color="#808080" stop-opacity="0.25"/>
<stop offset="0.54" stop-color="#808080" stop-opacity="0.12"/>
<stop offset="1" stop-color="#808080" stop-opacity="0.1"/>
</linearGradient>
<linearGradient id="paint24_linear" x1="7761.89" y1="12622" x2="7761.89" y2="11564.5" gradientUnits="userSpaceOnUse">
<stop stop-color="#808080" stop-opacity="0.25"/>
<stop offset="0.54" stop-color="#808080" stop-opacity="0.12"/>
<stop offset="1" stop-color="#808080" stop-opacity="0.1"/>
</linearGradient>
<linearGradient id="paint25_linear" x1="3699.94" y1="5618.79" x2="3699.94" y2="5449.59" gradientUnits="userSpaceOnUse">
<stop stop-color="#808080" stop-opacity="0.25"/>
<stop offset="0.54" stop-color="#808080" stop-opacity="0.12"/>
<stop offset="1" stop-color="#808080" stop-opacity="0.1"/>
</linearGradient>
<linearGradient id="paint26_linear" x1="19594.7" y1="44595" x2="24172.3" y2="44595" gradientUnits="userSpaceOnUse">
<stop stop-color="#808080" stop-opacity="0.25"/>
<stop offset="0.54" stop-color="#808080" stop-opacity="0.12"/>
<stop offset="1" stop-color="#808080" stop-opacity="0.1"/>
</linearGradient>
<clipPath id="clip0">
<rect width="312.141" height="248.577" fill="white" transform="translate(0.429688 0.620605)"/>
</clipPath>
</defs>
</svg>
