<svg width="312" height="236" viewBox="0 0 312 236" fill="none" xmlns="http://www.w3.org/2000/svg">
<g clip-path="url(#clip0)">
<path opacity="0.1" d="M293.338 128.099C282.369 143.117 285.989 164.553 292.329 181.631C294.453 187.348 296.865 193.395 295.764 199.615C294.419 207.219 288.099 212.917 281.529 216.02C269.551 221.675 255.403 220.772 244.689 213.646C235.444 207.496 228.935 197.275 219.51 191.419C203.737 181.62 183.259 185.998 165.704 193.479C153.284 198.771 139.679 205.587 127.575 200.7C119.058 197.261 113.323 188.508 110.306 179.152C108.849 174.634 107.829 169.731 104.926 166.194C103.201 164.092 100.92 162.627 98.575 161.403C77.1728 150.22 49.6433 157.209 28.8939 144.733C14.8854 136.307 6.16653 119.955 2.54394 102.765C-1.07866 85.5754 -0.182117 67.4294 1.26076 49.5936C2.28618 36.9185 3.90836 23.3739 11.5458 13.4133C19.6231 2.8824 33.1609 -1.30257 45.267 0.346818C57.3732 1.99621 68.227 8.70558 77.7219 16.7149C89.5983 26.7063 100.525 39.25 115.296 43.0436C125.356 45.6267 136.045 43.7984 146.504 42.9905C163.986 41.643 181.407 43.1946 198.722 44.9474C215.297 46.6247 231.986 48.4978 247.684 53.9966C258.793 57.8881 267.599 65.2432 278.057 70.2697C284.874 73.5461 292.374 74.3065 298.79 78.539C306.708 83.7527 313.863 92.9893 311.54 104.074C309.347 114.61 299.165 120.129 293.338 128.099Z" fill="#2D74DA"/>
<g opacity="0.5">
<path opacity="0.5" d="M239.542 196.595C239.542 196.595 240.467 169.266 255.285 153.823C261.504 147.343 265.589 139.113 266.671 130.206C267.176 125.979 267.293 121.715 267.018 117.467" stroke="#535461" stroke-width="2" stroke-miterlimit="10"/>
<path opacity="0.5" d="M276.301 107.685C275.287 110.738 266.809 117.749 266.809 117.749C266.809 117.749 264.212 107.067 265.226 104.017C265.467 103.292 265.849 102.621 266.351 102.042C266.852 101.464 267.462 100.99 268.147 100.647C268.831 100.304 269.577 100.099 270.341 100.044C271.106 99.9885 271.873 100.084 272.6 100.325C273.327 100.565 274 100.946 274.58 101.446C275.159 101.946 275.634 102.555 275.978 103.239C276.322 103.922 276.527 104.666 276.583 105.428C276.638 106.191 276.543 106.957 276.301 107.682V107.685Z" fill="#2D74DA"/>
<path opacity="0.5" d="M279.834 127.618C277.313 129.631 266.386 130.922 266.386 130.922C266.386 130.922 270.028 120.548 272.55 118.538C273.143 118.023 273.834 117.633 274.582 117.391C275.33 117.149 276.12 117.061 276.903 117.131C277.686 117.201 278.446 117.429 279.139 117.8C279.832 118.171 280.442 118.678 280.934 119.291C281.425 119.903 281.787 120.608 281.998 121.364C282.21 122.12 282.266 122.91 282.163 123.688C282.06 124.466 281.801 125.215 281.401 125.89C281.001 126.566 280.468 127.153 279.834 127.618Z" fill="#2D74DA"/>
<path opacity="0.5" d="M269.838 156.367C266.65 156.837 256.555 152.454 256.555 152.454C256.555 152.454 264.943 145.331 268.132 144.861C268.89 144.749 269.662 144.787 270.405 144.974C271.149 145.16 271.848 145.49 272.463 145.946C273.078 146.401 273.597 146.974 273.991 147.63C274.384 148.285 274.644 149.012 274.756 149.769C274.868 150.525 274.83 151.296 274.644 152.037C274.457 152.779 274.126 153.476 273.669 154.09C273.213 154.704 272.639 155.222 271.982 155.615C271.324 156.007 270.596 156.267 269.838 156.379V156.367Z" fill="#2D74DA"/>
<path opacity="0.5" d="M257.361 176.423C254.299 177.424 243.604 174.796 243.604 174.796C243.604 174.796 250.668 166.361 253.73 165.361C255.2 164.879 256.802 164.999 258.183 165.696C259.564 166.392 260.611 167.608 261.094 169.075C261.577 170.542 261.456 172.14 260.758 173.518C260.06 174.896 258.842 175.941 257.372 176.423H257.361Z" fill="#2D74DA"/>
<path opacity="0.5" d="M254.559 127.665C256.047 130.517 265.545 136.1 265.545 136.1C265.545 136.1 266.408 125.144 264.92 122.289C264.567 121.611 264.083 121.009 263.496 120.518C262.909 120.027 262.231 119.655 261.501 119.425C260.77 119.195 260.001 119.111 259.238 119.178C258.475 119.244 257.733 119.46 257.053 119.813C256.373 120.165 255.77 120.648 255.278 121.234C254.785 121.819 254.413 122.496 254.182 123.225C253.952 123.954 253.868 124.721 253.934 125.482C254.001 126.244 254.217 126.985 254.571 127.663L254.559 127.665Z" fill="#2D74DA"/>
<path opacity="0.5" d="M240.269 151.302C242.544 153.58 253.269 156.074 253.269 156.074C253.269 156.074 250.806 145.361 248.534 143.083C247.442 141.989 245.96 141.373 244.413 141.37C242.866 141.367 241.381 141.978 240.285 143.067C239.189 144.157 238.571 145.636 238.568 147.18C238.565 148.724 239.177 150.205 240.269 151.299V151.302Z" fill="#2D74DA"/>
<path opacity="0.5" d="M229.538 176.179C231.392 178.807 241.543 183.076 241.543 183.076C241.543 183.076 240.932 172.103 239.075 169.473C238.645 168.821 238.088 168.261 237.437 167.828C236.787 167.395 236.055 167.097 235.287 166.952C234.518 166.807 233.728 166.817 232.964 166.983C232.199 167.148 231.476 167.465 230.837 167.915C230.198 168.366 229.656 168.939 229.244 169.603C228.831 170.266 228.557 171.005 228.437 171.776C228.317 172.548 228.353 173.335 228.544 174.092C228.735 174.849 229.077 175.56 229.549 176.182L229.538 176.179Z" fill="#2D74DA"/>
<path opacity="0.5" d="M242.798 185.285C242.798 185.285 234.393 173.085 235.867 161.606C236.516 156.795 235.584 151.904 233.211 147.667C232.068 145.665 230.744 143.771 229.255 142.009" stroke="#535461" stroke-width="2" stroke-miterlimit="10"/>
<path opacity="0.5" d="M230.143 134.768C230.683 136.423 229.254 142.199 229.254 142.199C229.254 142.199 224.679 138.38 224.139 136.728C223.878 135.934 223.945 135.069 224.324 134.323C224.703 133.578 225.364 133.014 226.16 132.754C226.956 132.495 227.823 132.561 228.57 132.94C229.317 133.318 229.882 133.977 230.143 134.771V134.768Z" fill="#2D74DA"/>
<path opacity="0.5" d="M238.107 142.314C237.662 143.991 233.314 148.07 233.314 148.07C233.314 148.07 231.554 142.383 232 140.701C232.214 139.892 232.741 139.202 233.466 138.782C234.19 138.362 235.052 138.246 235.862 138.46C236.672 138.674 237.363 139.2 237.784 139.923C238.205 140.645 238.322 141.505 238.107 142.314Z" fill="#2D74DA"/>
<path opacity="0.5" d="M243.022 158.042C241.787 159.27 235.973 160.597 235.973 160.597C235.973 160.597 237.329 154.802 238.568 153.575C238.862 153.283 239.211 153.052 239.595 152.895C239.979 152.737 240.39 152.657 240.805 152.658C241.22 152.66 241.63 152.743 242.013 152.902C242.396 153.062 242.744 153.295 243.036 153.589C243.329 153.883 243.56 154.231 243.718 154.614C243.876 154.997 243.956 155.407 243.955 155.821C243.953 156.235 243.87 156.645 243.71 157.027C243.55 157.409 243.317 157.756 243.022 158.048V158.042Z" fill="#2D74DA"/>
<path opacity="0.5" d="M244.057 170.782C243.045 172.199 237.529 174.483 237.529 174.483C237.529 174.483 237.885 168.542 238.896 167.125C239.136 166.788 239.441 166.501 239.792 166.281C240.144 166.061 240.535 165.912 240.944 165.843C241.353 165.774 241.771 165.786 242.176 165.878C242.58 165.971 242.962 166.142 243.3 166.381C243.638 166.621 243.926 166.925 244.146 167.275C244.367 167.626 244.516 168.017 244.585 168.425C244.654 168.833 244.642 169.25 244.55 169.654C244.457 170.057 244.286 170.439 244.046 170.776L244.057 170.782Z" fill="#2D74DA"/>
<path opacity="0.5" d="M227.118 150.441C228.684 151.207 234.615 150.592 234.615 150.592C234.615 150.592 231.458 145.543 229.892 144.78C229.139 144.413 228.272 144.359 227.48 144.63C226.687 144.901 226.036 145.476 225.668 146.226C225.3 146.977 225.246 147.843 225.518 148.633C225.79 149.423 226.366 150.074 227.118 150.441Z" fill="#2D74DA"/>
<path opacity="0.5" d="M228.516 165.327C230.241 165.59 235.716 163.233 235.716 163.233C235.716 163.233 231.188 159.359 229.465 159.107C228.637 158.981 227.793 159.189 227.118 159.685C226.444 160.18 225.994 160.923 225.868 161.749C225.742 162.575 225.95 163.418 226.447 164.091C226.943 164.764 227.687 165.213 228.516 165.338V165.327Z" fill="#2D74DA"/>
<path opacity="0.5" d="M231.86 179.604C233.516 180.163 239.313 178.765 239.313 178.765C239.313 178.765 235.508 174.183 233.852 173.632C233.057 173.369 232.19 173.431 231.441 173.806C230.692 174.18 230.123 174.837 229.858 175.63C229.594 176.423 229.657 177.289 230.032 178.036C230.408 178.783 231.065 179.351 231.86 179.615V179.604Z" fill="#2D74DA"/>
<path opacity="0.5" d="M230.143 134.768C230.683 136.423 229.254 142.199 229.254 142.199C229.254 142.199 224.679 138.38 224.139 136.728C223.878 135.934 223.945 135.069 224.324 134.323C224.703 133.578 225.364 133.014 226.16 132.754C226.956 132.495 227.823 132.561 228.57 132.94C229.317 133.318 229.882 133.977 230.143 134.771V134.768Z" fill="white"/>
<path opacity="0.5" d="M238.107 142.314C237.662 143.991 233.314 148.07 233.314 148.07C233.314 148.07 231.554 142.383 232 140.701C232.214 139.892 232.741 139.202 233.466 138.782C234.19 138.362 235.052 138.246 235.862 138.46C236.672 138.674 237.363 139.2 237.784 139.923C238.205 140.645 238.322 141.505 238.107 142.314Z" fill="white"/>
<path opacity="0.5" d="M243.022 158.042C241.787 159.27 235.973 160.597 235.973 160.597C235.973 160.597 237.329 154.802 238.568 153.575C238.862 153.283 239.211 153.052 239.595 152.895C239.979 152.737 240.39 152.657 240.805 152.658C241.22 152.66 241.63 152.743 242.013 152.902C242.396 153.062 242.744 153.295 243.036 153.589C243.329 153.883 243.56 154.231 243.718 154.614C243.876 154.997 243.956 155.407 243.955 155.821C243.953 156.235 243.87 156.645 243.71 157.027C243.55 157.409 243.317 157.756 243.022 158.048V158.042Z" fill="white"/>
<path opacity="0.5" d="M244.057 170.782C243.045 172.199 237.529 174.483 237.529 174.483C237.529 174.483 237.885 168.542 238.896 167.125C239.136 166.788 239.441 166.501 239.792 166.281C240.144 166.061 240.535 165.912 240.944 165.843C241.353 165.774 241.771 165.786 242.176 165.878C242.58 165.971 242.962 166.142 243.3 166.381C243.638 166.621 243.926 166.925 244.146 167.275C244.367 167.626 244.516 168.017 244.585 168.425C244.654 168.833 244.642 169.25 244.55 169.654C244.457 170.057 244.286 170.439 244.046 170.776L244.057 170.782Z" fill="white"/>
<path opacity="0.5" d="M227.118 150.441C228.684 151.207 234.615 150.592 234.615 150.592C234.615 150.592 231.458 145.543 229.892 144.78C229.139 144.413 228.272 144.359 227.48 144.63C226.687 144.901 226.036 145.476 225.668 146.226C225.3 146.977 225.246 147.843 225.518 148.633C225.79 149.423 226.366 150.074 227.118 150.441Z" fill="white"/>
<path opacity="0.5" d="M228.516 165.327C230.241 165.59 235.716 163.233 235.716 163.233C235.716 163.233 231.188 159.359 229.465 159.107C228.637 158.981 227.793 159.189 227.118 159.685C226.444 160.18 225.994 160.923 225.868 161.749C225.742 162.575 225.95 163.418 226.447 164.091C226.943 164.764 227.687 165.213 228.516 165.338V165.327Z" fill="white"/>
<path opacity="0.5" d="M231.86 179.604C233.516 180.163 239.313 178.765 239.313 178.765C239.313 178.765 235.508 174.183 233.852 173.632C233.057 173.369 232.19 173.431 231.441 173.806C230.692 174.18 230.123 174.837 229.858 175.63C229.594 176.423 229.657 177.289 230.032 178.036C230.408 178.783 231.065 179.351 231.86 179.615V179.604Z" fill="white"/>
<path opacity="0.5" d="M227.246 218.364H251.153L257.132 181.986H221.27L227.246 218.364Z" fill="#474059"/>
<path opacity="0.1" d="M225.845 181.986L231.429 215.98H251.545L251.153 218.364H227.246L221.27 181.986H225.845Z" fill="black"/>
</g>
<path d="M231.779 10.9839H56.3931V222.133H231.779V10.9839Z" fill="url(#paint0_linear)"/>
<path d="M229.538 13.6841H58.6348V219.438H229.538V13.6841Z" fill="white"/>
<path d="M193.956 36.8875H125.035V40.2421H193.956V36.8875Z" fill="#C0BCCF"/>
<path d="M193.956 47.5105H125.035V50.8652H193.956V47.5105Z" fill="#C0BCCF"/>
<path d="M177.427 58.1338H141.565V61.4885H177.427V58.1338Z" fill="#2D74DA"/>
<path opacity="0.5" d="M193.956 104.261H125.035V107.615H193.956V104.261Z" fill="#C0BCCF"/>
<path opacity="0.5" d="M193.956 114.884H125.035V118.238H193.956V114.884Z" fill="#C0BCCF"/>
<path opacity="0.5" d="M177.427 125.507H141.565V128.862H177.427V125.507Z" fill="#2D74DA"/>
<path opacity="0.5" d="M193.956 171.634H125.035V174.989H193.956V171.634Z" fill="#C0BCCF"/>
<path opacity="0.5" d="M193.956 182.257H125.035V185.612H193.956V182.257Z" fill="#C0BCCF"/>
<path opacity="0.5" d="M177.427 192.88H141.565V196.235H177.427V192.88Z" fill="#2D74DA"/>
<g opacity="0.5">
<path opacity="0.5" d="M100.768 122.972L99.3228 122.323C99.3448 122.104 99.3542 121.884 99.3508 121.663C99.3609 121.477 99.3609 121.29 99.3508 121.104C99.2079 119.634 98.2693 118.353 97.6053 117.009C96.9974 115.781 96.6114 114.456 96.4651 113.095C96.2886 111.417 96.4651 109.679 95.8487 108.102C95.3472 106.83 94.3554 105.768 93.2935 104.828C92.1016 103.712 90.709 102.831 89.189 102.231C87.6369 101.672 85.8522 101.53 84.3001 102.1C82.8992 102.614 81.8206 103.64 80.7783 104.638C80.0215 105.304 79.353 106.063 78.7891 106.897C78.1531 107.937 77.8814 109.133 77.6685 110.313C77.3339 112.202 77.1038 114.108 76.9792 116.022C76.87 117.618 76.6991 119.43 75.3318 120.408C74.665 120.886 73.7265 121.154 73.4211 121.878C73.3345 122.096 73.3 122.33 73.3202 122.563C73.3118 122.757 73.3259 122.951 73.3622 123.142C73.3818 123.254 73.4043 123.363 73.4323 123.475C73.0399 124.448 72.7105 125.445 72.4461 126.46C72.2416 127.215 72.0538 127.956 71.8857 128.675H72.3396H72.5806L75.1917 128.736H75.2282L78.0299 128.8H78.0439L80.6551 128.862H80.7195L81.4732 128.915H81.7197L92.1616 129.155H92.2177L92.9125 129.172H93.1563L95.2463 129.22L98.3282 129.29H98.3506L100.67 129.345H100.917H101.393L101.27 126.919C101.78 123.204 100.768 122.972 100.768 122.972ZM89.0378 122.675C89.0378 124.733 86.83 127.252 86.83 127.252L84.6083 124.232L84.6895 124.115L86.83 127.022C86.83 127.022 89.0378 124.506 89.0378 122.446C89.0892 122.341 89.1482 122.24 89.2143 122.144L89.2647 122.301C89.1799 122.42 89.104 122.545 89.0378 122.675ZM92.4334 130.749C92.4334 130.645 92.4334 130.539 92.4138 130.436C92.3942 130.332 92.397 130.24 92.383 130.139C92.369 130.039 92.3578 129.941 92.3438 129.84C92.3297 129.74 92.3101 129.642 92.2905 129.541C92.2709 129.441 92.2513 129.343 92.2289 129.242C92.2289 129.208 92.2149 129.178 92.2065 129.141C92.1757 129.01 92.142 128.879 92.1056 128.747C92.0692 128.616 92.0468 128.535 92.0132 128.431C92.0132 128.384 91.9851 128.336 91.9683 128.292C91.9515 128.247 91.9207 128.141 91.8955 128.065L91.845 127.92C91.8226 127.855 91.8002 127.788 91.775 127.724C91.733 127.607 91.6882 127.492 91.6433 127.375C91.5985 127.257 91.5509 127.143 91.5032 127.028C91.408 126.793 91.3043 126.561 91.2007 126.326C90.7944 125.42 90.3377 124.529 89.9175 123.645C89.6921 123.183 89.492 122.709 89.3179 122.225L89.2647 122.295C89.1798 122.415 89.1039 122.541 89.0378 122.672C89.0378 124.73 86.83 127.249 86.83 127.249L84.6083 124.23L82.6639 127.025C82.3837 127.165 82.1035 127.64 81.885 128.317C81.8234 128.498 81.7645 128.7 81.7085 128.909C81.6693 129.052 81.6329 129.189 81.5992 129.348C81.5796 129.424 81.5628 129.499 81.546 129.577L81.4956 129.815V129.851C81.4619 130.014 81.4283 130.181 81.3975 130.352C81.3667 130.522 81.3303 130.718 81.2995 130.911C81.277 131.032 81.2574 131.152 81.2406 131.272C81.2014 131.504 81.1678 131.738 81.1342 131.973C81.1145 132.11 81.0949 132.253 81.0781 132.379L81.0109 132.899C81.1538 133.326 81.3135 133.737 81.4788 134.168C81.5839 134.394 81.6457 134.638 81.6609 134.886C85.1075 135.803 88.7347 135.803 92.1813 134.886C92.1801 134.878 92.1801 134.869 92.1813 134.861C92.1296 134.627 92.107 134.388 92.114 134.148C92.1706 133.476 92.2642 132.808 92.3942 132.147C92.4356 131.82 92.4534 131.491 92.4474 131.163V131.045C92.439 130.939 92.4362 130.844 92.4334 130.752V130.749ZM92.4334 130.749C92.4334 130.645 92.4334 130.539 92.4138 130.436C92.3942 130.332 92.397 130.24 92.383 130.139C92.369 130.039 92.3578 129.941 92.3438 129.84C92.3297 129.74 92.3101 129.642 92.2905 129.541C92.2709 129.441 92.2513 129.343 92.2289 129.242C92.2289 129.208 92.2149 129.178 92.2065 129.141C92.1757 129.01 92.142 128.879 92.1056 128.747C92.0692 128.616 92.0468 128.535 92.0132 128.431C92.0132 128.384 91.9851 128.336 91.9683 128.292C91.9515 128.247 91.9207 128.141 91.8955 128.065L91.845 127.92C91.8226 127.855 91.8002 127.788 91.775 127.724C91.733 127.607 91.6882 127.492 91.6433 127.375C91.5985 127.257 91.5509 127.143 91.5032 127.028C91.408 126.793 91.3043 126.561 91.2007 126.326C90.7944 125.42 90.3377 124.529 89.9175 123.645C89.6921 123.183 89.492 122.709 89.3179 122.225L89.2647 122.295C89.1798 122.415 89.1039 122.541 89.0378 122.672C89.0378 124.73 86.83 127.249 86.83 127.249L84.6083 124.23L82.6639 127.025C82.3837 127.165 82.1035 127.64 81.885 128.317C81.8234 128.498 81.7645 128.7 81.7085 128.909C81.6693 129.052 81.6329 129.189 81.5992 129.348C81.5796 129.424 81.5628 129.499 81.546 129.577L81.4956 129.815V129.851C81.4619 130.014 81.4283 130.181 81.3975 130.352C81.3667 130.522 81.3303 130.718 81.2995 130.911C81.277 131.032 81.2574 131.152 81.2406 131.272C81.2014 131.504 81.1678 131.738 81.1342 131.973C81.1145 132.11 81.0949 132.253 81.0781 132.379L81.0109 132.899C81.1538 133.326 81.3135 133.737 81.4788 134.168C81.5839 134.394 81.6457 134.638 81.6609 134.886C85.1075 135.803 88.7347 135.803 92.1813 134.886C92.1801 134.878 92.1801 134.869 92.1813 134.861C92.1296 134.627 92.107 134.388 92.114 134.148C92.1706 133.476 92.2642 132.808 92.3942 132.147C92.4356 131.82 92.4534 131.491 92.4474 131.163V131.045C92.439 130.939 92.4362 130.844 92.4334 130.752V130.749ZM92.4334 130.749C92.4334 130.645 92.4334 130.539 92.4138 130.436C92.3942 130.332 92.397 130.24 92.383 130.139C92.369 130.039 92.3578 129.941 92.3438 129.84C92.3297 129.74 92.3101 129.642 92.2905 129.541C92.2709 129.441 92.2513 129.343 92.2289 129.242C92.2289 129.208 92.2149 129.178 92.2065 129.141C92.1757 129.01 92.142 128.879 92.1056 128.747C92.0692 128.616 92.0468 128.535 92.0132 128.431C92.0132 128.384 91.9851 128.336 91.9683 128.292C91.9515 128.247 91.9207 128.141 91.8955 128.065L91.845 127.92C91.8226 127.855 91.8002 127.788 91.775 127.724C91.733 127.607 91.6882 127.492 91.6433 127.375C91.5985 127.257 91.5509 127.143 91.5032 127.028C91.408 126.793 91.3043 126.561 91.2007 126.326C90.7944 125.42 90.3377 124.529 89.9175 123.645C89.6921 123.183 89.492 122.709 89.3179 122.225L89.2647 122.295C89.1798 122.415 89.1039 122.541 89.0378 122.672C89.0378 124.73 86.83 127.249 86.83 127.249L84.6083 124.23L82.6639 127.025C82.3837 127.165 82.1035 127.64 81.885 128.317C81.8234 128.498 81.7645 128.7 81.7085 128.909C81.6693 129.052 81.6329 129.189 81.5992 129.348C81.5796 129.424 81.5628 129.499 81.546 129.577L81.4956 129.815V129.851C81.4619 130.014 81.4283 130.181 81.3975 130.352C81.3667 130.522 81.3303 130.718 81.2995 130.911C81.277 131.032 81.2574 131.152 81.2406 131.272C81.2014 131.504 81.1678 131.738 81.1342 131.973C81.1145 132.11 81.0949 132.253 81.0781 132.379L81.0109 132.899C81.1538 133.326 81.3135 133.737 81.4788 134.168C81.5839 134.394 81.6457 134.638 81.6609 134.886C85.1075 135.803 88.7347 135.803 92.1813 134.886C92.1801 134.878 92.1801 134.869 92.1813 134.861C92.1296 134.627 92.107 134.388 92.114 134.148C92.1706 133.476 92.2642 132.808 92.3942 132.147C92.4356 131.82 92.4534 131.491 92.4474 131.163V131.045C92.439 130.939 92.4362 130.844 92.4334 130.752V130.749ZM92.4334 130.749C92.4334 130.645 92.4334 130.539 92.4138 130.436C92.3942 130.332 92.397 130.24 92.383 130.139C92.369 130.039 92.3578 129.941 92.3438 129.84C92.3297 129.74 92.3101 129.642 92.2905 129.541C92.2709 129.441 92.2513 129.343 92.2289 129.242C92.2289 129.208 92.2149 129.178 92.2065 129.141C92.1757 129.01 92.142 128.879 92.1056 128.747C92.0692 128.616 92.0468 128.535 92.0132 128.431C92.0132 128.384 91.9851 128.336 91.9683 128.292C91.9515 128.247 91.9207 128.141 91.8955 128.065L91.845 127.92C91.8226 127.855 91.8002 127.788 91.775 127.724C91.733 127.607 91.6882 127.492 91.6433 127.375C91.5985 127.257 91.5509 127.143 91.5032 127.028C91.408 126.793 91.3043 126.561 91.2007 126.326C90.7944 125.42 90.3377 124.529 89.9175 123.645C89.6921 123.183 89.492 122.709 89.3179 122.225L89.2647 122.295C89.1798 122.415 89.1039 122.541 89.0378 122.672C89.0378 124.73 86.83 127.249 86.83 127.249L84.6083 124.23L82.6639 127.025C82.3837 127.165 82.1035 127.64 81.885 128.317C81.8234 128.498 81.7645 128.7 81.7085 128.909C81.6693 129.052 81.6329 129.189 81.5992 129.348C81.5796 129.424 81.5628 129.499 81.546 129.577L81.4956 129.815V129.851C81.4619 130.014 81.4283 130.181 81.3975 130.352C81.3667 130.522 81.3303 130.718 81.2995 130.911C81.277 131.032 81.2574 131.152 81.2406 131.272C81.2014 131.504 81.1678 131.738 81.1342 131.973C81.1145 132.11 81.0949 132.253 81.0781 132.379L81.0109 132.899C81.1538 133.326 81.3135 133.737 81.4788 134.168C81.5839 134.394 81.6457 134.638 81.6609 134.886C85.1075 135.803 88.7347 135.803 92.1813 134.886C92.1801 134.878 92.1801 134.869 92.1813 134.861C92.1296 134.627 92.107 134.388 92.114 134.148C92.1706 133.476 92.2642 132.808 92.3942 132.147C92.4356 131.82 92.4534 131.491 92.4474 131.163V131.045C92.439 130.939 92.4362 130.844 92.4334 130.752V130.749Z" fill="url(#paint1_linear)"/>
<path opacity="0.5" d="M92.5348 111.25H79.647V119.916H92.5348V111.25Z" fill="#493545"/>
<path opacity="0.5" d="M94.674 120.808L89.2807 128.389L83.6437 127.9C83.6437 127.9 76.2893 128.386 81.1922 122.764C83.5485 120.061 84.3189 117.808 84.4842 116.2C84.6635 114.462 84.134 113.472 84.134 113.472L90.2613 112.74C89.9848 113.563 89.9499 114.449 90.1605 115.292C90.9281 118.468 94.674 120.808 94.674 120.808Z" fill="#C77485"/>
<path opacity="0.1" d="M90.1578 115.284C89.3587 115.888 88.4232 116.287 87.4335 116.446C86.4438 116.604 85.4302 116.518 84.4816 116.195C84.6609 114.456 84.1313 113.467 84.1313 113.467L90.2587 112.734C89.9827 113.557 89.9477 114.442 90.1578 115.284Z" fill="black"/>
<path opacity="0.5" d="M86.4628 116.279C89.8468 116.279 92.5901 113.542 92.5901 110.165C92.5901 106.788 89.8468 104.051 86.4628 104.051C83.0787 104.051 80.3354 106.788 80.3354 110.165C80.3354 113.542 83.0787 116.279 86.4628 116.279Z" fill="#C77485"/>
<path opacity="0.1" d="M94.4511 121.121L94.3082 120.562L94.1849 120.07L94.0028 119.343L93.9692 119.209L93.9412 119.097C93.9412 119.097 94.0869 118.658 93.1259 118.8L92.9466 118.831C92.7953 118.862 92.6188 118.904 92.4171 118.96L92.235 119.016L91.994 119.091C91.2312 119.339 90.5354 119.758 89.96 120.316C89.7017 120.562 89.4732 120.838 89.2792 121.138C89.2596 121.166 89.2455 121.191 89.2287 121.213C89.1624 121.317 89.1034 121.425 89.0522 121.537C89.0522 123.74 86.8445 126.43 86.8445 126.43L84.69 123.324L84.648 123.262L84.1353 122.519L83.9531 122.278L83.8915 122.194L82.7708 120.693L82.4907 120.318L82.3982 120.193L82.2609 120.011L81.9387 119.583L80.678 120.318L78.9969 121.297L78.0163 127.657V127.833L78.0472 128.359L78.2517 131.814V131.861L77.8931 133.293L77.9463 133.321C78.7925 133.776 79.673 134.165 80.5799 134.484L80.818 134.567C81.0982 134.66 81.3616 134.744 81.6361 134.825C81.6463 134.866 81.6538 134.908 81.6586 134.95C81.6586 134.911 81.6586 134.869 81.6586 134.83C85.0965 135.811 88.7409 135.811 92.1789 134.83L92.2434 134.811C92.4031 134.766 92.5656 134.718 92.7225 134.665L92.9774 134.584C93.6688 134.354 94.346 134.083 95.0058 133.774L95.2412 128.769L95.4093 125.16V124.954L94.4511 121.121Z" fill="black"/>
<path opacity="0.5" d="M92.4333 130.416C92.4333 130.305 92.4333 130.193 92.4137 130.081C92.3941 129.969 92.3969 129.871 92.3829 129.765C92.3688 129.659 92.3576 129.553 92.3436 129.446C92.3296 129.34 92.31 129.234 92.2904 129.128C92.2708 129.021 92.2512 128.915 92.2288 128.809C92.2288 128.773 92.2147 128.739 92.2063 128.703C92.1755 128.563 92.1419 128.423 92.1055 128.281C92.0691 128.138 92.0466 128.054 92.013 127.942C92.013 127.892 91.985 127.842 91.9682 127.794C91.9514 127.747 91.9206 127.632 91.8954 127.551L91.8449 127.394C91.8225 127.324 91.8001 127.255 91.7749 127.185C91.7329 127.059 91.688 126.936 91.6432 126.81C91.5984 126.684 91.5507 126.561 91.5031 126.438C91.4079 126.187 91.3042 125.938 91.2005 125.689C90.7943 124.722 90.3376 123.768 89.9174 122.824C89.6915 122.328 89.4914 121.822 89.3178 121.306L89.2646 121.381C89.1794 121.51 89.1035 121.644 89.0376 121.784C89.0376 123.984 86.8299 126.676 86.8299 126.676L84.6081 123.447L82.6638 126.43C82.3836 126.578 82.1034 127.087 81.8849 127.811C81.8232 128.007 81.7644 128.219 81.7084 128.445C81.6692 128.596 81.6327 128.756 81.5991 128.915C81.5795 128.996 81.5627 129.077 81.5459 129.161L81.4954 129.416V129.455C81.4618 129.628 81.4282 129.807 81.3974 129.989C81.3666 130.17 81.3301 130.38 81.2993 130.579C81.2769 130.707 81.2573 130.836 81.2405 130.964C81.2013 131.213 81.1677 131.465 81.134 131.714C81.1144 131.859 81.0948 131.993 81.078 132.147L81.0108 132.706C81.1536 133.164 81.3133 133.617 81.4786 134.062C81.5842 134.305 81.6459 134.566 81.6608 134.831C85.0987 135.811 88.7431 135.811 92.1811 134.831C92.1799 134.821 92.1799 134.812 92.1811 134.803C92.1294 134.552 92.1068 134.296 92.1139 134.039C92.1704 133.322 92.264 132.608 92.3941 131.901C92.4354 131.552 92.4532 131.201 92.4473 130.85V130.724C92.4389 130.618 92.4361 130.517 92.4333 130.416ZM92.4333 130.416C92.4333 130.305 92.4333 130.193 92.4137 130.081C92.3941 129.969 92.3969 129.871 92.3829 129.765C92.3688 129.659 92.3576 129.553 92.3436 129.446C92.3296 129.34 92.31 129.234 92.2904 129.128C92.2708 129.021 92.2512 128.915 92.2288 128.809C92.2288 128.773 92.2147 128.739 92.2063 128.703C92.1755 128.563 92.1419 128.423 92.1055 128.281C92.0691 128.138 92.0466 128.054 92.013 127.942C92.013 127.892 91.985 127.842 91.9682 127.794C91.9514 127.747 91.9206 127.632 91.8954 127.551L91.8449 127.394C91.8225 127.324 91.8001 127.255 91.7749 127.185C91.7329 127.059 91.688 126.936 91.6432 126.81C91.5984 126.684 91.5507 126.561 91.5031 126.438C91.4079 126.187 91.3042 125.938 91.2005 125.689C90.7943 124.722 90.3376 123.768 89.9174 122.824C89.6915 122.328 89.4914 121.822 89.3178 121.306L89.2646 121.381C89.1794 121.51 89.1035 121.644 89.0376 121.784C89.0376 123.984 86.8299 126.676 86.8299 126.676L84.6081 123.447L82.6638 126.43C82.3836 126.578 82.1034 127.087 81.8849 127.811C81.8232 128.007 81.7644 128.219 81.7084 128.445C81.6692 128.596 81.6327 128.756 81.5991 128.915C81.5795 128.996 81.5627 129.077 81.5459 129.161L81.4954 129.416V129.455C81.4618 129.628 81.4282 129.807 81.3974 129.989C81.3666 130.17 81.3301 130.38 81.2993 130.579C81.2769 130.707 81.2573 130.836 81.2405 130.964C81.2013 131.213 81.1677 131.465 81.134 131.714C81.1144 131.859 81.0948 131.993 81.078 132.147L81.0108 132.706C81.1536 133.164 81.3133 133.617 81.4786 134.062C81.5842 134.305 81.6459 134.566 81.6608 134.831C85.0987 135.811 88.7431 135.811 92.1811 134.831C92.1799 134.821 92.1799 134.812 92.1811 134.803C92.1294 134.552 92.1068 134.296 92.1139 134.039C92.1704 133.322 92.264 132.608 92.3941 131.901C92.4354 131.552 92.4532 131.201 92.4473 130.85V130.724C92.4389 130.618 92.4361 130.517 92.4333 130.416ZM92.4333 130.416C92.4333 130.305 92.4333 130.193 92.4137 130.081C92.3941 129.969 92.3969 129.871 92.3829 129.765C92.3688 129.659 92.3576 129.553 92.3436 129.446C92.3296 129.34 92.31 129.234 92.2904 129.128C92.2708 129.021 92.2512 128.915 92.2288 128.809C92.2288 128.773 92.2147 128.739 92.2063 128.703C92.1755 128.563 92.1419 128.423 92.1055 128.281C92.0691 128.138 92.0466 128.054 92.013 127.942C92.013 127.892 91.985 127.842 91.9682 127.794C91.9514 127.747 91.9206 127.632 91.8954 127.551L91.8449 127.394C91.8225 127.324 91.8001 127.255 91.7749 127.185C91.7329 127.059 91.688 126.936 91.6432 126.81C91.5984 126.684 91.5507 126.561 91.5031 126.438C91.4079 126.187 91.3042 125.938 91.2005 125.689C90.7943 124.722 90.3376 123.768 89.9174 122.824C89.6915 122.328 89.4914 121.822 89.3178 121.306L89.2646 121.381C89.1794 121.51 89.1035 121.644 89.0376 121.784C89.0376 123.984 86.8299 126.676 86.8299 126.676L84.6081 123.447L82.6638 126.43C82.3836 126.578 82.1034 127.087 81.8849 127.811C81.8232 128.007 81.7644 128.219 81.7084 128.445C81.6692 128.596 81.6327 128.756 81.5991 128.915C81.5795 128.996 81.5627 129.077 81.5459 129.161L81.4954 129.416V129.455C81.4618 129.628 81.4282 129.807 81.3974 129.989C81.3666 130.17 81.3301 130.38 81.2993 130.579C81.2769 130.707 81.2573 130.836 81.2405 130.964C81.2013 131.213 81.1677 131.465 81.134 131.714C81.1144 131.859 81.0948 131.993 81.078 132.147L81.0108 132.706C81.1536 133.164 81.3133 133.617 81.4786 134.062C81.5842 134.305 81.6459 134.566 81.6608 134.831C85.0987 135.811 88.7431 135.811 92.1811 134.831C92.1799 134.821 92.1799 134.812 92.1811 134.803C92.1294 134.552 92.1068 134.296 92.1139 134.039C92.1704 133.322 92.264 132.608 92.3941 131.901C92.4354 131.552 92.4532 131.201 92.4473 130.85V130.724C92.4389 130.618 92.4361 130.517 92.4333 130.416ZM95.4031 125.169L94.4029 121.185L94.232 120.503L94.1843 120.316L93.9406 119.343C93.9412 119.335 93.9412 119.326 93.9406 119.318C93.9464 119.275 93.9396 119.231 93.921 119.192C93.8846 119.119 93.7921 119.044 93.5764 119.024C93.4943 119.019 93.4119 119.019 93.3298 119.024C93.0864 119.048 92.8455 119.093 92.6098 119.159C92.4949 119.189 92.3716 119.223 92.24 119.265L91.999 119.34H91.9766C91.3313 119.552 90.7323 119.884 90.2115 120.319C89.8675 120.605 89.5657 120.938 89.315 121.308L89.2618 121.384C89.1766 121.512 89.1007 121.647 89.0348 121.786C89.0348 123.987 86.8271 126.679 86.8271 126.679L84.6053 123.45L84.4793 123.268L84.4568 123.237L84.1346 122.765L83.8909 122.441L83.8265 122.357L82.6778 120.828L82.3135 120.333V120.316L82.1875 120.145L81.9465 119.827L81.106 120.316L79.0047 121.538L78.0354 127.83V127.898L78.0634 128.356L78.2707 131.859V132.057L77.9541 133.318C78.8003 133.774 79.6808 134.162 80.5877 134.481L80.8258 134.565C81.106 134.657 81.3694 134.741 81.6439 134.822C81.6541 134.864 81.6616 134.906 81.6664 134.948C81.6664 134.909 81.6664 134.867 81.6664 134.828C85.1043 135.808 88.7487 135.808 92.1867 134.828L92.2512 134.808C92.4109 134.763 92.5734 134.716 92.7303 134.663L92.9852 134.582C93.6766 134.351 94.3538 134.08 95.0136 133.771L95.2462 128.773L95.4143 125.203L95.4031 125.169ZM81.6243 134.822C81.6345 134.864 81.642 134.906 81.6467 134.948C81.6467 134.909 81.6467 134.867 81.6467 134.828L81.6243 134.822ZM92.4333 130.416C92.4333 130.305 92.4333 130.193 92.4137 130.081C92.3941 129.969 92.3969 129.871 92.3829 129.765C92.3688 129.659 92.3576 129.553 92.3436 129.446C92.3296 129.34 92.31 129.234 92.2904 129.128C92.2708 129.021 92.2512 128.915 92.2288 128.809C92.2288 128.773 92.2147 128.739 92.2063 128.703C92.1755 128.563 92.1419 128.423 92.1055 128.281C92.0691 128.138 92.0466 128.054 92.013 127.942C92.013 127.892 91.985 127.842 91.9682 127.794C91.9514 127.747 91.9206 127.632 91.8954 127.551L91.8449 127.394C91.8225 127.324 91.8001 127.255 91.7749 127.185C91.7329 127.059 91.688 126.936 91.6432 126.81C91.5984 126.684 91.5507 126.561 91.5031 126.438C91.4079 126.187 91.3042 125.938 91.2005 125.689C90.7943 124.722 90.3376 123.768 89.9174 122.824C89.6915 122.328 89.4914 121.822 89.3178 121.306L89.2646 121.381C89.1794 121.51 89.1035 121.644 89.0376 121.784C89.0376 123.984 86.8299 126.676 86.8299 126.676L84.6081 123.447L82.6638 126.43C82.3836 126.578 82.1034 127.087 81.8849 127.811C81.8232 128.007 81.7644 128.219 81.7084 128.445C81.6692 128.596 81.6327 128.756 81.5991 128.915C81.5795 128.996 81.5627 129.077 81.5459 129.161L81.4954 129.416V129.455C81.4618 129.628 81.4282 129.807 81.3974 129.989C81.3666 130.17 81.3301 130.38 81.2993 130.579C81.2769 130.707 81.2573 130.836 81.2405 130.964C81.2013 131.213 81.1677 131.465 81.134 131.714C81.1144 131.859 81.0948 131.993 81.078 132.147L81.0108 132.706C81.1536 133.164 81.3133 133.617 81.4786 134.062C81.5842 134.305 81.6459 134.566 81.6608 134.831C85.0987 135.811 88.7431 135.811 92.1811 134.831C92.1799 134.821 92.1799 134.812 92.1811 134.803C92.1294 134.552 92.1068 134.296 92.1139 134.039C92.1704 133.322 92.264 132.608 92.3941 131.901C92.4354 131.552 92.4532 131.201 92.4473 130.85V130.724C92.4389 130.618 92.4361 130.517 92.4333 130.416ZM92.4333 130.416C92.4333 130.305 92.4333 130.193 92.4137 130.081C92.3941 129.969 92.3969 129.871 92.3829 129.765C92.3688 129.659 92.3576 129.553 92.3436 129.446C92.3296 129.34 92.31 129.234 92.2904 129.128C92.2708 129.021 92.2512 128.915 92.2288 128.809C92.2288 128.773 92.2147 128.739 92.2063 128.703C92.1755 128.563 92.1419 128.423 92.1055 128.281C92.0691 128.138 92.0466 128.054 92.013 127.942C92.013 127.892 91.985 127.842 91.9682 127.794C91.9514 127.747 91.9206 127.632 91.8954 127.551L91.8449 127.394C91.8225 127.324 91.8001 127.255 91.7749 127.185C91.7329 127.059 91.688 126.936 91.6432 126.81C91.5984 126.684 91.5507 126.561 91.5031 126.438C91.4079 126.187 91.3042 125.938 91.2005 125.689C90.7943 124.722 90.3376 123.768 89.9174 122.824C89.6915 122.328 89.4914 121.822 89.3178 121.306L89.2646 121.381C89.1794 121.51 89.1035 121.644 89.0376 121.784C89.0376 123.984 86.8299 126.676 86.8299 126.676L84.6081 123.447L82.6638 126.43C82.3836 126.578 82.1034 127.087 81.8849 127.811C81.8232 128.007 81.7644 128.219 81.7084 128.445C81.6692 128.596 81.6327 128.756 81.5991 128.915C81.5795 128.996 81.5627 129.077 81.5459 129.161L81.4954 129.416V129.455C81.4618 129.628 81.4282 129.807 81.3974 129.989C81.3666 130.17 81.3301 130.38 81.2993 130.579C81.2769 130.707 81.2573 130.836 81.2405 130.964C81.2013 131.213 81.1677 131.465 81.134 131.714C81.1144 131.859 81.0948 131.993 81.078 132.147L81.0108 132.706C81.1536 133.164 81.3133 133.617 81.4786 134.062C81.5842 134.305 81.6459 134.566 81.6608 134.831C85.0987 135.811 88.7431 135.811 92.1811 134.831C92.1799 134.821 92.1799 134.812 92.1811 134.803C92.1294 134.552 92.1068 134.296 92.1139 134.039C92.1704 133.322 92.264 132.608 92.3941 131.901C92.4354 131.552 92.4532 131.201 92.4473 130.85V130.724C92.4389 130.618 92.4361 130.517 92.4333 130.416ZM92.4333 130.416C92.4333 130.305 92.4333 130.193 92.4137 130.081C92.3941 129.969 92.3969 129.871 92.3829 129.765C92.3688 129.659 92.3576 129.553 92.3436 129.446C92.3296 129.34 92.31 129.234 92.2904 129.128C92.2708 129.021 92.2512 128.915 92.2288 128.809C92.2288 128.773 92.2147 128.739 92.2063 128.703C92.1755 128.563 92.1419 128.423 92.1055 128.281C92.0691 128.138 92.0466 128.054 92.013 127.942C92.013 127.892 91.985 127.842 91.9682 127.794C91.9514 127.747 91.9206 127.632 91.8954 127.551L91.8449 127.394C91.8225 127.324 91.8001 127.255 91.7749 127.185C91.7329 127.059 91.688 126.936 91.6432 126.81C91.5984 126.684 91.5507 126.561 91.5031 126.438C91.4079 126.187 91.3042 125.938 91.2005 125.689C90.7943 124.722 90.3376 123.768 89.9174 122.824C89.6915 122.328 89.4914 121.822 89.3178 121.306L89.2646 121.381C89.1794 121.51 89.1035 121.644 89.0376 121.784C89.0376 123.984 86.8299 126.676 86.8299 126.676L84.6081 123.447L82.6638 126.43C82.3836 126.578 82.1034 127.087 81.8849 127.811C81.8232 128.007 81.7644 128.219 81.7084 128.445C81.6692 128.596 81.6327 128.756 81.5991 128.915C81.5795 128.996 81.5627 129.077 81.5459 129.161L81.4954 129.416V129.455C81.4618 129.628 81.4282 129.807 81.3974 129.989C81.3666 130.17 81.3301 130.38 81.2993 130.579C81.2769 130.707 81.2573 130.836 81.2405 130.964C81.2013 131.213 81.1677 131.465 81.134 131.714C81.1144 131.859 81.0948 131.993 81.078 132.147L81.0108 132.706C81.1536 133.164 81.3133 133.617 81.4786 134.062C81.5842 134.305 81.6459 134.566 81.6608 134.831C85.0987 135.811 88.7431 135.811 92.1811 134.831C92.1799 134.821 92.1799 134.812 92.1811 134.803C92.1294 134.552 92.1068 134.296 92.1139 134.039C92.1704 133.322 92.264 132.608 92.3941 131.901C92.4354 131.552 92.4532 131.201 92.4473 130.85V130.724C92.4389 130.618 92.4361 130.517 92.4333 130.416ZM92.4333 130.416C92.4333 130.305 92.4333 130.193 92.4137 130.081C92.3941 129.969 92.3969 129.871 92.3829 129.765C92.3688 129.659 92.3576 129.553 92.3436 129.446C92.3296 129.34 92.31 129.234 92.2904 129.128C92.2708 129.021 92.2512 128.915 92.2288 128.809C92.2288 128.773 92.2147 128.739 92.2063 128.703C92.1755 128.563 92.1419 128.423 92.1055 128.281C92.0691 128.138 92.0466 128.054 92.013 127.942C92.013 127.892 91.985 127.842 91.9682 127.794C91.9514 127.747 91.9206 127.632 91.8954 127.551L91.8449 127.394C91.8225 127.324 91.8001 127.255 91.7749 127.185C91.7329 127.059 91.688 126.936 91.6432 126.81C91.5984 126.684 91.5507 126.561 91.5031 126.438C91.4079 126.187 91.3042 125.938 91.2005 125.689C90.7943 124.722 90.3376 123.768 89.9174 122.824C89.6915 122.328 89.4914 121.822 89.3178 121.306L89.2646 121.381C89.1794 121.51 89.1035 121.644 89.0376 121.784C89.0376 123.984 86.8299 126.676 86.8299 126.676L84.6081 123.447L82.6638 126.43C82.3836 126.578 82.1034 127.087 81.8849 127.811C81.8232 128.007 81.7644 128.219 81.7084 128.445C81.6692 128.596 81.6327 128.756 81.5991 128.915C81.5795 128.996 81.5627 129.077 81.5459 129.161L81.4954 129.416V129.455C81.4618 129.628 81.4282 129.807 81.3974 129.989C81.3666 130.17 81.3301 130.38 81.2993 130.579C81.2769 130.707 81.2573 130.836 81.2405 130.964C81.2013 131.213 81.1677 131.465 81.134 131.714C81.1144 131.859 81.0948 131.993 81.078 132.147L81.0108 132.706C81.1536 133.164 81.3133 133.617 81.4786 134.062C81.5842 134.305 81.6459 134.566 81.6608 134.831C85.0987 135.811 88.7431 135.811 92.1811 134.831C92.1799 134.821 92.1799 134.812 92.1811 134.803C92.1294 134.552 92.1068 134.296 92.1139 134.039C92.1704 133.322 92.264 132.608 92.3941 131.901C92.4354 131.552 92.4532 131.201 92.4473 130.85V130.724C92.4389 130.618 92.4361 130.517 92.4333 130.416ZM92.4333 130.416C92.4333 130.305 92.4333 130.193 92.4137 130.081C92.3941 129.969 92.3969 129.871 92.3829 129.765C92.3688 129.659 92.3576 129.553 92.3436 129.446C92.3296 129.34 92.31 129.234 92.2904 129.128C92.2708 129.021 92.2512 128.915 92.2288 128.809C92.2288 128.773 92.2147 128.739 92.2063 128.703C92.1755 128.563 92.1419 128.423 92.1055 128.281C92.0691 128.138 92.0466 128.054 92.013 127.942C92.013 127.892 91.985 127.842 91.9682 127.794C91.9514 127.747 91.9206 127.632 91.8954 127.551L91.8449 127.394C91.8225 127.324 91.8001 127.255 91.7749 127.185C91.7329 127.059 91.688 126.936 91.6432 126.81C91.5984 126.684 91.5507 126.561 91.5031 126.438C91.4079 126.187 91.3042 125.938 91.2005 125.689C90.7943 124.722 90.3376 123.768 89.9174 122.824C89.6915 122.328 89.4914 121.822 89.3178 121.306L89.2646 121.381C89.1794 121.51 89.1035 121.644 89.0376 121.784C89.0376 123.984 86.8299 126.676 86.8299 126.676L84.6081 123.447L82.6638 126.43C82.3836 126.578 82.1034 127.087 81.8849 127.811C81.8232 128.007 81.7644 128.219 81.7084 128.445C81.6692 128.596 81.6327 128.756 81.5991 128.915C81.5795 128.996 81.5627 129.077 81.5459 129.161L81.4954 129.416V129.455C81.4618 129.628 81.4282 129.807 81.3974 129.989C81.3666 130.17 81.3301 130.38 81.2993 130.579C81.2769 130.707 81.2573 130.836 81.2405 130.964C81.2013 131.213 81.1677 131.465 81.134 131.714C81.1144 131.859 81.0948 131.993 81.078 132.147L81.0108 132.706C81.1536 133.164 81.3133 133.617 81.4786 134.062C81.5842 134.305 81.6459 134.566 81.6608 134.831C85.0987 135.811 88.7431 135.811 92.1811 134.831C92.1799 134.821 92.1799 134.812 92.1811 134.803C92.1294 134.552 92.1068 134.296 92.1139 134.039C92.1704 133.322 92.264 132.608 92.3941 131.901C92.4354 131.552 92.4532 131.201 92.4473 130.85V130.724C92.4389 130.618 92.4361 130.517 92.4333 130.416ZM92.4333 130.416C92.4333 130.305 92.4333 130.193 92.4137 130.081C92.3941 129.969 92.3969 129.871 92.3829 129.765C92.3688 129.659 92.3576 129.553 92.3436 129.446C92.3296 129.34 92.31 129.234 92.2904 129.128C92.2708 129.021 92.2512 128.915 92.2288 128.809C92.2288 128.773 92.2147 128.739 92.2063 128.703C92.1755 128.563 92.1419 128.423 92.1055 128.281C92.0691 128.138 92.0466 128.054 92.013 127.942C92.013 127.892 91.985 127.842 91.9682 127.794C91.9514 127.747 91.9206 127.632 91.8954 127.551L91.8449 127.394C91.8225 127.324 91.8001 127.255 91.7749 127.185C91.7329 127.059 91.688 126.936 91.6432 126.81C91.5984 126.684 91.5507 126.561 91.5031 126.438C91.4079 126.187 91.3042 125.938 91.2005 125.689C90.7943 124.722 90.3376 123.768 89.9174 122.824C89.6915 122.328 89.4914 121.822 89.3178 121.306L89.2646 121.381C89.1794 121.51 89.1035 121.644 89.0376 121.784C89.0376 123.984 86.8299 126.676 86.8299 126.676L84.6081 123.447L82.6638 126.43C82.3836 126.578 82.1034 127.087 81.8849 127.811C81.8232 128.007 81.7644 128.219 81.7084 128.445C81.6692 128.596 81.6327 128.756 81.5991 128.915C81.5795 128.996 81.5627 129.077 81.5459 129.161L81.4954 129.416V129.455C81.4618 129.628 81.4282 129.807 81.3974 129.989C81.3666 130.17 81.3301 130.38 81.2993 130.579C81.2769 130.707 81.2573 130.836 81.2405 130.964C81.2013 131.213 81.1677 131.465 81.134 131.714C81.1144 131.859 81.0948 131.993 81.078 132.147L81.0108 132.706C81.1536 133.164 81.3133 133.617 81.4786 134.062C81.5842 134.305 81.6459 134.566 81.6608 134.831C85.0987 135.811 88.7431 135.811 92.1811 134.831C92.1799 134.821 92.1799 134.812 92.1811 134.803C92.1294 134.552 92.1068 134.296 92.1139 134.039C92.1704 133.322 92.264 132.608 92.3941 131.901C92.4354 131.552 92.4532 131.201 92.4473 130.85V130.724C92.4389 130.618 92.4361 130.517 92.4333 130.416ZM92.4333 130.416C92.4333 130.305 92.4333 130.193 92.4137 130.081C92.3941 129.969 92.3969 129.871 92.3829 129.765C92.3688 129.659 92.3576 129.553 92.3436 129.446C92.3296 129.34 92.31 129.234 92.2904 129.128C92.2708 129.021 92.2512 128.915 92.2288 128.809C92.2288 128.773 92.2147 128.739 92.2063 128.703C92.1755 128.563 92.1419 128.423 92.1055 128.281C92.0691 128.138 92.0466 128.054 92.013 127.942C92.013 127.892 91.985 127.842 91.9682 127.794C91.9514 127.747 91.9206 127.632 91.8954 127.551L91.8449 127.394C91.8225 127.324 91.8001 127.255 91.7749 127.185C91.7329 127.059 91.688 126.936 91.6432 126.81C91.5984 126.684 91.5507 126.561 91.5031 126.438C91.4079 126.187 91.3042 125.938 91.2005 125.689C90.7943 124.722 90.3376 123.768 89.9174 122.824C89.6915 122.328 89.4914 121.822 89.3178 121.306L89.2646 121.381C89.1794 121.51 89.1035 121.644 89.0376 121.784C89.0376 123.984 86.8299 126.676 86.8299 126.676L84.6081 123.447L82.6638 126.43C82.3836 126.578 82.1034 127.087 81.8849 127.811C81.8232 128.007 81.7644 128.219 81.7084 128.445C81.6692 128.596 81.6327 128.756 81.5991 128.915C81.5795 128.996 81.5627 129.077 81.5459 129.161L81.4954 129.416V129.455C81.4618 129.628 81.4282 129.807 81.3974 129.989C81.3666 130.17 81.3301 130.38 81.2993 130.579C81.2769 130.707 81.2573 130.836 81.2405 130.964C81.2013 131.213 81.1677 131.465 81.134 131.714C81.1144 131.859 81.0948 131.993 81.078 132.147L81.0108 132.706C81.1536 133.164 81.3133 133.617 81.4786 134.062C81.5842 134.305 81.6459 134.566 81.6608 134.831C85.0987 135.811 88.7431 135.811 92.1811 134.831C92.1799 134.821 92.1799 134.812 92.1811 134.803C92.1294 134.552 92.1068 134.296 92.1139 134.039C92.1704 133.322 92.264 132.608 92.3941 131.901C92.4354 131.552 92.4532 131.201 92.4473 130.85V130.724C92.4389 130.618 92.4361 130.517 92.4333 130.416ZM92.4333 130.416C92.4333 130.305 92.4333 130.193 92.4137 130.081C92.3941 129.969 92.3969 129.871 92.3829 129.765C92.3688 129.659 92.3576 129.553 92.3436 129.446C92.3296 129.34 92.31 129.234 92.2904 129.128C92.2708 129.021 92.2512 128.915 92.2288 128.809C92.2288 128.773 92.2147 128.739 92.2063 128.703C92.1755 128.563 92.1419 128.423 92.1055 128.281C92.0691 128.138 92.0466 128.054 92.013 127.942C92.013 127.892 91.985 127.842 91.9682 127.794C91.9514 127.747 91.9206 127.632 91.8954 127.551L91.8449 127.394C91.8225 127.324 91.8001 127.255 91.7749 127.185C91.7329 127.059 91.688 126.936 91.6432 126.81C91.5984 126.684 91.5507 126.561 91.5031 126.438C91.4079 126.187 91.3042 125.938 91.2005 125.689C90.7943 124.722 90.3376 123.768 89.9174 122.824C89.6915 122.328 89.4914 121.822 89.3178 121.306L89.2646 121.381C89.1794 121.51 89.1035 121.644 89.0376 121.784C89.0376 123.984 86.8299 126.676 86.8299 126.676L84.6081 123.447L82.6638 126.43C82.3836 126.578 82.1034 127.087 81.8849 127.811C81.8232 128.007 81.7644 128.219 81.7084 128.445C81.6692 128.596 81.6327 128.756 81.5991 128.915C81.5795 128.996 81.5627 129.077 81.5459 129.161L81.4954 129.416V129.455C81.4618 129.628 81.4282 129.807 81.3974 129.989C81.3666 130.17 81.3301 130.38 81.2993 130.579C81.2769 130.707 81.2573 130.836 81.2405 130.964C81.2013 131.213 81.1677 131.465 81.134 131.714C81.1144 131.859 81.0948 131.993 81.078 132.147L81.0108 132.706C81.1536 133.164 81.3133 133.617 81.4786 134.062C81.5842 134.305 81.6459 134.566 81.6608 134.831C85.0987 135.811 88.7431 135.811 92.1811 134.831C92.1799 134.821 92.1799 134.812 92.1811 134.803C92.1294 134.552 92.1068 134.296 92.1139 134.039C92.1704 133.322 92.264 132.608 92.3941 131.901C92.4354 131.552 92.4532 131.201 92.4473 130.85V130.724C92.4389 130.618 92.4361 130.517 92.4333 130.416Z" fill="white"/>
<path opacity="0.1" d="M84.6479 123.26L84.4602 123.234C84.1768 123.196 83.8961 123.14 83.6197 123.067L83.516 123.039C82.8324 122.846 82.0843 122.499 81.9162 121.89C81.8662 121.694 81.872 121.487 81.9331 121.294C82.0271 120.962 82.1548 120.639 82.3141 120.333V120.316C82.3351 120.273 82.3585 120.231 82.3841 120.19C82.6153 119.739 82.9649 119.359 83.3955 119.091L83.0593 119.144L80.2128 119.606L75.8001 120.316C75.8001 120.316 75.0157 120.159 73.9482 123.095C73.9482 123.131 73.923 123.164 73.9118 123.204C73.654 123.922 73.3823 124.819 73.1021 125.94C72.9088 126.718 72.7323 127.481 72.5698 128.222C72.5221 128.445 72.4745 128.666 72.4297 128.884C72.9348 129.478 73.4786 130.039 74.0575 130.562L74.1499 130.648C75.2837 131.673 76.5367 132.558 77.8818 133.284L77.935 133.312C78.7812 133.768 79.6618 134.157 80.5686 134.475L80.8068 134.559C80.8572 134.042 80.9132 133.469 80.9805 132.882C80.9805 132.823 80.9805 132.764 81.0029 132.706L81.0701 132.147C81.0869 132.004 81.1066 131.867 81.1262 131.713C81.1598 131.465 81.1934 131.213 81.2326 130.964C81.2494 130.836 81.2691 130.707 81.2915 130.578C81.3223 130.38 81.3559 130.181 81.3895 129.988C81.4231 129.796 81.454 129.628 81.4876 129.455V129.415L81.538 129.161C81.5548 129.077 81.5716 128.996 81.5913 128.915C81.6249 128.756 81.6613 128.596 81.7005 128.445C81.7565 128.219 81.8154 128.006 81.877 127.811C82.1012 127.087 82.3617 126.578 82.6559 126.43L84.6003 123.447L84.6815 123.321L84.7179 123.265L84.6479 123.26Z" fill="black"/>
<path opacity="0.1" d="M81.1093 103.459C80.8292 103.844 80.8516 104.376 80.7255 104.856C80.4257 105.95 79.2378 106.634 78.966 107.736C78.8063 108.379 78.9913 109.061 78.882 109.715C78.6831 110.92 77.5792 111.736 76.9628 112.79C76.6504 113.333 76.4651 113.94 76.421 114.564C76.3768 115.189 76.4749 115.815 76.7079 116.397C76.8521 116.69 76.9711 116.995 77.0637 117.308C77.1344 117.775 77.1048 118.251 76.9768 118.706C76.7667 119.701 76.551 120.797 77.0329 121.694C77.4391 122.452 78.2824 122.896 79.1313 123.036C79.9886 123.133 80.8557 123.093 81.7005 122.919C82.6279 122.776 83.5776 122.611 84.3845 122.136L81.3503 114.828C81.0449 114.09 80.7311 113.327 80.7339 112.527C80.7586 111.938 80.8866 111.357 81.1121 110.811C81.6996 109.23 82.5522 107.76 83.6337 106.464C84.0735 106.973 84.0399 107.747 84.4069 108.312C84.7313 108.729 85.1632 109.051 85.6565 109.243C87.0942 109.942 88.5713 110.559 90.0804 111.088C90.1751 111.1 90.2654 111.135 90.3432 111.19C90.4211 111.245 90.4842 111.318 90.5269 111.403C90.5696 111.488 90.5905 111.583 90.5879 111.678C90.5853 111.773 90.5591 111.866 90.5118 111.949L89.3687 116.657C89.1166 117.694 88.8953 118.893 89.5424 119.732C90.1896 120.57 91.6493 120.967 91.6577 122.049C91.6458 122.22 91.6458 122.392 91.6577 122.564C91.7334 123.07 92.3357 123.313 92.8485 123.338C93.6901 123.355 94.5103 123.072 95.1626 122.541C95.8149 122.01 96.2568 121.265 96.4094 120.439C96.6896 118.588 95.4624 116.883 94.9497 115.08C94.0868 112.047 95.2299 108.488 93.5349 105.824C92.162 103.663 89.6601 103.076 87.2843 102.807C85.6173 102.612 82.2833 101.913 81.1093 103.459Z" fill="black"/>
<path opacity="0.5" d="M81.1093 103.179C80.8292 103.565 80.8516 104.096 80.7255 104.577C80.4257 105.67 79.2378 106.355 78.966 107.456C78.8063 108.099 78.9913 108.781 78.882 109.436C78.6831 110.641 77.5792 111.457 76.9628 112.511C76.6504 113.054 76.4651 113.66 76.421 114.285C76.3768 114.909 76.4749 115.536 76.7079 116.117C76.8521 116.41 76.9711 116.715 77.0637 117.028C77.1344 117.495 77.1048 117.972 76.9768 118.426C76.7667 119.421 76.551 120.517 77.0329 121.415C77.4391 122.172 78.2824 122.617 79.1313 122.757C79.9886 122.853 80.8557 122.814 81.7005 122.639C82.6279 122.497 83.5776 122.332 84.3845 121.856L81.3503 114.549C81.0449 113.811 80.7311 113.048 80.7339 112.248C80.7586 111.658 80.8866 111.077 81.1121 110.531C81.6996 108.95 82.5522 107.48 83.6337 106.184C84.0735 106.693 84.0399 107.468 84.4069 108.032C84.7313 108.45 85.1632 108.772 85.6565 108.963C87.0942 109.663 88.5713 110.279 90.0804 110.808C90.1751 110.82 90.2654 110.855 90.3432 110.91C90.4211 110.965 90.4842 111.038 90.5269 111.124C90.5696 111.209 90.5905 111.303 90.5879 111.398C90.5853 111.494 90.5591 111.587 90.5118 111.669L89.3687 116.377C89.1166 117.414 88.8953 118.613 89.5424 119.452C90.1896 120.291 91.6493 120.688 91.6577 121.77C91.6458 121.941 91.6458 122.113 91.6577 122.284C91.7334 122.79 92.3357 123.033 92.8485 123.058C93.6901 123.075 94.5103 122.793 95.1626 122.262C95.8149 121.731 96.2568 120.986 96.4094 120.159C96.6896 118.309 95.4624 116.603 94.9497 114.8C94.0868 111.767 95.2299 108.208 93.5349 105.544C92.162 103.383 89.6601 102.796 87.2843 102.528C85.6173 102.332 82.2833 101.633 81.1093 103.179Z" fill="#493545"/>
</g>
<g opacity="0.5">
<path opacity="0.5" d="M79.3856 178.058C79.4108 178.995 78.772 179.794 78.2649 180.574C77.7578 181.354 77.3824 182.419 77.9035 183.199C78.0744 183.457 78.3322 183.655 78.4863 183.923C79.027 184.86 78.1277 185.936 77.7999 186.965C77.4216 188.153 77.8615 189.481 78.6572 190.445C79.4529 191.41 80.5511 192.061 81.6606 192.634C83.9933 193.875 86.4971 194.764 89.0907 195.273C90.4467 195.522 91.8924 195.634 93.1644 195.092C94.0469 194.688 94.7678 194 95.2114 193.138C95.6549 192.276 95.7954 191.29 95.6102 190.339C95.2881 188.869 94.2094 187.686 93.6491 186.297C93.5183 186.024 93.4548 185.724 93.4641 185.422C93.5118 184.893 93.918 184.48 94.2346 184.052C95.0286 182.887 95.3528 181.467 95.1424 180.074C94.9212 178.681 94.3867 177.356 93.579 176.199C93.2904 175.72 92.9095 175.301 92.4583 174.969C91.8476 174.558 91.0911 174.441 90.3627 174.337C87.32 173.912 84.1681 173.448 81.1003 173.292C80.1309 173.242 79.4192 173.432 78.9401 174.337C78.2089 175.688 79.3492 176.702 79.3856 178.058Z" fill="#444176"/>
<path opacity="0.5" d="M95.055 187.566L89.2807 195.76L83.6437 195.271C83.6437 195.271 83.4588 197.228 81.1922 190.136C79.9258 186.169 82.5006 187.547 83.0077 186.448C83.5148 185.35 84.4085 184.38 84.4842 183.569C84.6635 181.83 84.134 180.84 84.134 180.84L90.2613 180.108C89.9848 180.932 89.9498 181.817 90.1604 182.66C90.9281 185.842 95.055 187.566 95.055 187.566Z" fill="#C77485"/>
<path opacity="0.5" d="M86.3699 180.581C90.3929 180.581 93.6543 178.015 93.6543 174.85C93.6543 171.685 90.3929 169.119 86.3699 169.119C82.3468 169.119 79.0854 171.685 79.0854 174.85C79.0854 178.015 82.3468 180.581 86.3699 180.581Z" fill="#444176"/>
<path opacity="0.1" d="M90.1578 182.657C89.3587 183.261 88.4232 183.66 87.4335 183.819C86.4438 183.978 85.4302 183.892 84.4816 183.569C84.6609 181.83 84.1313 180.84 84.1313 180.84L90.2587 180.108C89.9827 180.931 89.9477 181.815 90.1578 182.657Z" fill="black"/>
<path opacity="0.5" d="M86.4628 183.653C89.8468 183.653 92.5901 180.916 92.5901 177.539C92.5901 174.163 89.8468 171.425 86.4628 171.425C83.0787 171.425 80.3354 174.163 80.3354 177.539C80.3354 180.916 83.0787 183.653 86.4628 183.653Z" fill="#C77485"/>
<path opacity="0.1" d="M94.4496 188.495L94.3068 187.936L94.1835 187.444L94.0014 186.717L93.9678 186.583L93.9397 186.471C93.9397 186.471 94.0854 186.032 93.1244 186.174L92.9451 186.205C92.7938 186.236 92.6173 186.278 92.4156 186.334L92.2335 186.39L91.9925 186.465C91.2297 186.713 90.5339 187.132 89.9585 187.69C89.7002 187.936 89.4717 188.212 89.2777 188.512C89.2581 188.54 89.2441 188.565 89.2273 188.587C89.1609 188.691 89.1019 188.799 89.0508 188.911C89.0508 191.114 86.843 193.804 86.843 193.804L84.6885 190.698L84.6465 190.636L84.1338 189.893L83.9517 189.652L83.89 189.568L82.7694 188.067L82.4892 187.692L82.3967 187.567L82.2594 187.385L81.9373 186.957L80.6765 187.692L78.9955 188.671L78.0149 195.031V195.207L78.0457 195.733L78.2502 199.188V199.235L77.8916 200.667L77.9448 200.695C78.791 201.15 79.6716 201.539 80.5784 201.858L80.8166 201.942C81.0967 202.034 81.3601 202.118 81.6347 202.199C81.6448 202.24 81.6523 202.282 81.6571 202.325C81.6571 202.285 81.6571 202.243 81.6571 202.204C85.0951 203.185 88.7395 203.185 92.1775 202.204L92.2419 202.185C92.4016 202.14 92.5641 202.092 92.721 202.039L92.9759 201.958C93.6673 201.728 94.3446 201.457 95.0044 201.148L95.2397 196.144L95.4078 192.534V192.328L94.4496 188.495Z" fill="black"/>
<path opacity="0.5" d="M92.4333 197.79C92.4333 197.678 92.4333 197.566 92.4137 197.454C92.3941 197.343 92.3969 197.245 92.3829 197.138C92.3688 197.032 92.3576 196.926 92.3436 196.82C92.3296 196.714 92.31 196.607 92.2904 196.501C92.2708 196.395 92.2512 196.289 92.2288 196.182C92.2288 196.146 92.2147 196.113 92.2063 196.076C92.1755 195.936 92.1419 195.797 92.1055 195.654C92.0691 195.511 92.0466 195.428 92.013 195.316C92.013 195.265 91.985 195.215 91.9682 195.168C91.9514 195.12 91.9206 195.005 91.8954 194.924L91.8449 194.768C91.8225 194.698 91.8001 194.628 91.7749 194.558C91.7329 194.432 91.688 194.309 91.6432 194.184C91.5984 194.058 91.5507 193.935 91.5031 193.812C91.4079 193.56 91.3042 193.311 91.2005 193.063C90.7943 192.095 90.3376 191.142 89.9174 190.197C89.6915 189.702 89.4914 189.195 89.3178 188.679L89.2646 188.755C89.1794 188.883 89.1035 189.018 89.0376 189.157C89.0376 191.357 86.8299 194.049 86.8299 194.049L84.6081 190.821L82.6638 193.803C82.3836 193.952 82.1034 194.46 81.8849 195.184C81.8232 195.38 81.7644 195.593 81.7084 195.819C81.6692 195.97 81.6327 196.129 81.5991 196.289C81.5795 196.37 81.5627 196.451 81.5459 196.535L81.4954 196.789V196.828C81.4618 197.002 81.4282 197.18 81.3974 197.362C81.3666 197.544 81.3301 197.754 81.2993 197.952C81.2769 198.081 81.2573 198.209 81.2405 198.338C81.2013 198.587 81.1677 198.838 81.134 199.087C81.1144 199.232 81.0948 199.367 81.078 199.52L81.0108 200.079C81.1536 200.538 81.3133 200.991 81.4786 201.435C81.5842 201.679 81.6459 201.939 81.6608 202.204C85.0987 203.184 88.7431 203.184 92.1811 202.204C92.1799 202.195 92.1799 202.185 92.1811 202.176C92.1294 201.925 92.1068 201.669 92.1139 201.413C92.1704 200.696 92.264 199.982 92.3941 199.274C92.4354 198.926 92.4532 198.574 92.4473 198.223V198.097C92.4389 197.991 92.4361 197.891 92.4333 197.79ZM92.4333 197.79C92.4333 197.678 92.4333 197.566 92.4137 197.454C92.3941 197.343 92.3969 197.245 92.3829 197.138C92.3688 197.032 92.3576 196.926 92.3436 196.82C92.3296 196.714 92.31 196.607 92.2904 196.501C92.2708 196.395 92.2512 196.289 92.2288 196.182C92.2288 196.146 92.2147 196.113 92.2063 196.076C92.1755 195.936 92.1419 195.797 92.1055 195.654C92.0691 195.511 92.0466 195.428 92.013 195.316C92.013 195.265 91.985 195.215 91.9682 195.168C91.9514 195.12 91.9206 195.005 91.8954 194.924L91.8449 194.768C91.8225 194.698 91.8001 194.628 91.7749 194.558C91.7329 194.432 91.688 194.309 91.6432 194.184C91.5984 194.058 91.5507 193.935 91.5031 193.812C91.4079 193.56 91.3042 193.311 91.2005 193.063C90.7943 192.095 90.3376 191.142 89.9174 190.197C89.6915 189.702 89.4914 189.195 89.3178 188.679L89.2646 188.755C89.1794 188.883 89.1035 189.018 89.0376 189.157C89.0376 191.357 86.8299 194.049 86.8299 194.049L84.6081 190.821L82.6638 193.803C82.3836 193.952 82.1034 194.46 81.8849 195.184C81.8232 195.38 81.7644 195.593 81.7084 195.819C81.6692 195.97 81.6327 196.129 81.5991 196.289C81.5795 196.37 81.5627 196.451 81.5459 196.535L81.4954 196.789V196.828C81.4618 197.002 81.4282 197.18 81.3974 197.362C81.3666 197.544 81.3301 197.754 81.2993 197.952C81.2769 198.081 81.2573 198.209 81.2405 198.338C81.2013 198.587 81.1677 198.838 81.134 199.087C81.1144 199.232 81.0948 199.367 81.078 199.52L81.0108 200.079C81.1536 200.538 81.3133 200.991 81.4786 201.435C81.5842 201.679 81.6459 201.939 81.6608 202.204C85.0987 203.184 88.7431 203.184 92.1811 202.204C92.1799 202.195 92.1799 202.185 92.1811 202.176C92.1294 201.925 92.1068 201.669 92.1139 201.413C92.1704 200.696 92.264 199.982 92.3941 199.274C92.4354 198.926 92.4532 198.574 92.4473 198.223V198.097C92.4389 197.991 92.4361 197.891 92.4333 197.79ZM92.4333 197.79C92.4333 197.678 92.4333 197.566 92.4137 197.454C92.3941 197.343 92.3969 197.245 92.3829 197.138C92.3688 197.032 92.3576 196.926 92.3436 196.82C92.3296 196.714 92.31 196.607 92.2904 196.501C92.2708 196.395 92.2512 196.289 92.2288 196.182C92.2288 196.146 92.2147 196.113 92.2063 196.076C92.1755 195.936 92.1419 195.797 92.1055 195.654C92.0691 195.511 92.0466 195.428 92.013 195.316C92.013 195.265 91.985 195.215 91.9682 195.168C91.9514 195.12 91.9206 195.005 91.8954 194.924L91.8449 194.768C91.8225 194.698 91.8001 194.628 91.7749 194.558C91.7329 194.432 91.688 194.309 91.6432 194.184C91.5984 194.058 91.5507 193.935 91.5031 193.812C91.4079 193.56 91.3042 193.311 91.2005 193.063C90.7943 192.095 90.3376 191.142 89.9174 190.197C89.6915 189.702 89.4914 189.195 89.3178 188.679L89.2646 188.755C89.1794 188.883 89.1035 189.018 89.0376 189.157C89.0376 191.357 86.8299 194.049 86.8299 194.049L84.6081 190.821L82.6638 193.803C82.3836 193.952 82.1034 194.46 81.8849 195.184C81.8232 195.38 81.7644 195.593 81.7084 195.819C81.6692 195.97 81.6327 196.129 81.5991 196.289C81.5795 196.37 81.5627 196.451 81.5459 196.535L81.4954 196.789V196.828C81.4618 197.002 81.4282 197.18 81.3974 197.362C81.3666 197.544 81.3301 197.754 81.2993 197.952C81.2769 198.081 81.2573 198.209 81.2405 198.338C81.2013 198.587 81.1677 198.838 81.134 199.087C81.1144 199.232 81.0948 199.367 81.078 199.52L81.0108 200.079C81.1536 200.538 81.3133 200.991 81.4786 201.435C81.5842 201.679 81.6459 201.939 81.6608 202.204C85.0987 203.184 88.7431 203.184 92.1811 202.204C92.1799 202.195 92.1799 202.185 92.1811 202.176C92.1294 201.925 92.1068 201.669 92.1139 201.413C92.1704 200.696 92.264 199.982 92.3941 199.274C92.4354 198.926 92.4532 198.574 92.4473 198.223V198.097C92.4389 197.991 92.4361 197.891 92.4333 197.79ZM95.4031 192.543L94.4029 188.559L94.232 187.877L94.1843 187.689L93.9406 186.717C93.9412 186.708 93.9412 186.7 93.9406 186.691C93.9464 186.648 93.9396 186.605 93.921 186.566C93.8846 186.493 93.7921 186.417 93.5764 186.398C93.4943 186.392 93.4119 186.392 93.3298 186.398C93.0864 186.422 92.8455 186.467 92.6098 186.532C92.4949 186.563 92.3716 186.596 92.24 186.638L91.999 186.714H91.9766C91.3313 186.925 90.7323 187.257 90.2115 187.692C89.8675 187.978 89.5657 188.312 89.315 188.682L89.2618 188.757C89.1766 188.886 89.1007 189.021 89.0348 189.16C89.0348 191.36 86.8271 194.052 86.8271 194.052L84.6053 190.823L84.4793 190.642L84.4568 190.611L84.1346 190.138L83.8909 189.814L83.8265 189.73L82.6778 188.201L82.3135 187.706V187.689L82.1875 187.519L81.9465 187.2L81.106 187.689L79.0047 188.911L78.0354 195.204V195.271L78.0634 195.73L78.2707 199.232V199.431L77.9541 200.692C78.8003 201.147 79.6808 201.536 80.5877 201.855L80.8258 201.939C81.106 202.031 81.3694 202.115 81.6439 202.196C81.6541 202.237 81.6616 202.279 81.6664 202.322C81.6664 202.282 81.6664 202.24 81.6664 202.201C85.1043 203.182 88.7487 203.182 92.1867 202.201L92.2512 202.182C92.4109 202.137 92.5734 202.089 92.7303 202.036L92.9852 201.955C93.6766 201.725 94.3538 201.454 95.0136 201.145L95.2462 196.146L95.4143 192.576L95.4031 192.543ZM81.6243 202.196C81.6345 202.237 81.642 202.279 81.6467 202.322C81.6467 202.282 81.6467 202.24 81.6467 202.201L81.6243 202.196ZM92.4333 197.79C92.4333 197.678 92.4333 197.566 92.4137 197.454C92.3941 197.343 92.3969 197.245 92.3829 197.138C92.3688 197.032 92.3576 196.926 92.3436 196.82C92.3296 196.714 92.31 196.607 92.2904 196.501C92.2708 196.395 92.2512 196.289 92.2288 196.182C92.2288 196.146 92.2147 196.113 92.2063 196.076C92.1755 195.936 92.1419 195.797 92.1055 195.654C92.0691 195.511 92.0466 195.428 92.013 195.316C92.013 195.265 91.985 195.215 91.9682 195.168C91.9514 195.12 91.9206 195.005 91.8954 194.924L91.8449 194.768C91.8225 194.698 91.8001 194.628 91.7749 194.558C91.7329 194.432 91.688 194.309 91.6432 194.184C91.5984 194.058 91.5507 193.935 91.5031 193.812C91.4079 193.56 91.3042 193.311 91.2005 193.063C90.7943 192.095 90.3376 191.142 89.9174 190.197C89.6915 189.702 89.4914 189.195 89.3178 188.679L89.2646 188.755C89.1794 188.883 89.1035 189.018 89.0376 189.157C89.0376 191.357 86.8299 194.049 86.8299 194.049L84.6081 190.821L82.6638 193.803C82.3836 193.952 82.1034 194.46 81.8849 195.184C81.8232 195.38 81.7644 195.593 81.7084 195.819C81.6692 195.97 81.6327 196.129 81.5991 196.289C81.5795 196.37 81.5627 196.451 81.5459 196.535L81.4954 196.789V196.828C81.4618 197.002 81.4282 197.18 81.3974 197.362C81.3666 197.544 81.3301 197.754 81.2993 197.952C81.2769 198.081 81.2573 198.209 81.2405 198.338C81.2013 198.587 81.1677 198.838 81.134 199.087C81.1144 199.232 81.0948 199.367 81.078 199.52L81.0108 200.079C81.1536 200.538 81.3133 200.991 81.4786 201.435C81.5842 201.679 81.6459 201.939 81.6608 202.204C85.0987 203.184 88.7431 203.184 92.1811 202.204C92.1799 202.195 92.1799 202.185 92.1811 202.176C92.1294 201.925 92.1068 201.669 92.1139 201.413C92.1704 200.696 92.264 199.982 92.3941 199.274C92.4354 198.926 92.4532 198.574 92.4473 198.223V198.097C92.4389 197.991 92.4361 197.891 92.4333 197.79ZM92.4333 197.79C92.4333 197.678 92.4333 197.566 92.4137 197.454C92.3941 197.343 92.3969 197.245 92.3829 197.138C92.3688 197.032 92.3576 196.926 92.3436 196.82C92.3296 196.714 92.31 196.607 92.2904 196.501C92.2708 196.395 92.2512 196.289 92.2288 196.182C92.2288 196.146 92.2147 196.113 92.2063 196.076C92.1755 195.936 92.1419 195.797 92.1055 195.654C92.0691 195.511 92.0466 195.428 92.013 195.316C92.013 195.265 91.985 195.215 91.9682 195.168C91.9514 195.12 91.9206 195.005 91.8954 194.924L91.8449 194.768C91.8225 194.698 91.8001 194.628 91.7749 194.558C91.7329 194.432 91.688 194.309 91.6432 194.184C91.5984 194.058 91.5507 193.935 91.5031 193.812C91.4079 193.56 91.3042 193.311 91.2005 193.063C90.7943 192.095 90.3376 191.142 89.9174 190.197C89.6915 189.702 89.4914 189.195 89.3178 188.679L89.2646 188.755C89.1794 188.883 89.1035 189.018 89.0376 189.157C89.0376 191.357 86.8299 194.049 86.8299 194.049L84.6081 190.821L82.6638 193.803C82.3836 193.952 82.1034 194.46 81.8849 195.184C81.8232 195.38 81.7644 195.593 81.7084 195.819C81.6692 195.97 81.6327 196.129 81.5991 196.289C81.5795 196.37 81.5627 196.451 81.5459 196.535L81.4954 196.789V196.828C81.4618 197.002 81.4282 197.18 81.3974 197.362C81.3666 197.544 81.3301 197.754 81.2993 197.952C81.2769 198.081 81.2573 198.209 81.2405 198.338C81.2013 198.587 81.1677 198.838 81.134 199.087C81.1144 199.232 81.0948 199.367 81.078 199.52L81.0108 200.079C81.1536 200.538 81.3133 200.991 81.4786 201.435C81.5842 201.679 81.6459 201.939 81.6608 202.204C85.0987 203.184 88.7431 203.184 92.1811 202.204C92.1799 202.195 92.1799 202.185 92.1811 202.176C92.1294 201.925 92.1068 201.669 92.1139 201.413C92.1704 200.696 92.264 199.982 92.3941 199.274C92.4354 198.926 92.4532 198.574 92.4473 198.223V198.097C92.4389 197.991 92.4361 197.891 92.4333 197.79ZM92.4333 197.79C92.4333 197.678 92.4333 197.566 92.4137 197.454C92.3941 197.343 92.3969 197.245 92.3829 197.138C92.3688 197.032 92.3576 196.926 92.3436 196.82C92.3296 196.714 92.31 196.607 92.2904 196.501C92.2708 196.395 92.2512 196.289 92.2288 196.182C92.2288 196.146 92.2147 196.113 92.2063 196.076C92.1755 195.936 92.1419 195.797 92.1055 195.654C92.0691 195.511 92.0466 195.428 92.013 195.316C92.013 195.265 91.985 195.215 91.9682 195.168C91.9514 195.12 91.9206 195.005 91.8954 194.924L91.8449 194.768C91.8225 194.698 91.8001 194.628 91.7749 194.558C91.7329 194.432 91.688 194.309 91.6432 194.184C91.5984 194.058 91.5507 193.935 91.5031 193.812C91.4079 193.56 91.3042 193.311 91.2005 193.063C90.7943 192.095 90.3376 191.142 89.9174 190.197C89.6915 189.702 89.4914 189.195 89.3178 188.679L89.2646 188.755C89.1794 188.883 89.1035 189.018 89.0376 189.157C89.0376 191.357 86.8299 194.049 86.8299 194.049L84.6081 190.821L82.6638 193.803C82.3836 193.952 82.1034 194.46 81.8849 195.184C81.8232 195.38 81.7644 195.593 81.7084 195.819C81.6692 195.97 81.6327 196.129 81.5991 196.289C81.5795 196.37 81.5627 196.451 81.5459 196.535L81.4954 196.789V196.828C81.4618 197.002 81.4282 197.18 81.3974 197.362C81.3666 197.544 81.3301 197.754 81.2993 197.952C81.2769 198.081 81.2573 198.209 81.2405 198.338C81.2013 198.587 81.1677 198.838 81.134 199.087C81.1144 199.232 81.0948 199.367 81.078 199.52L81.0108 200.079C81.1536 200.538 81.3133 200.991 81.4786 201.435C81.5842 201.679 81.6459 201.939 81.6608 202.204C85.0987 203.184 88.7431 203.184 92.1811 202.204C92.1799 202.195 92.1799 202.185 92.1811 202.176C92.1294 201.925 92.1068 201.669 92.1139 201.413C92.1704 200.696 92.264 199.982 92.3941 199.274C92.4354 198.926 92.4532 198.574 92.4473 198.223V198.097C92.4389 197.991 92.4361 197.891 92.4333 197.79ZM92.4333 197.79C92.4333 197.678 92.4333 197.566 92.4137 197.454C92.3941 197.343 92.3969 197.245 92.3829 197.138C92.3688 197.032 92.3576 196.926 92.3436 196.82C92.3296 196.714 92.31 196.607 92.2904 196.501C92.2708 196.395 92.2512 196.289 92.2288 196.182C92.2288 196.146 92.2147 196.113 92.2063 196.076C92.1755 195.936 92.1419 195.797 92.1055 195.654C92.0691 195.511 92.0466 195.428 92.013 195.316C92.013 195.265 91.985 195.215 91.9682 195.168C91.9514 195.12 91.9206 195.005 91.8954 194.924L91.8449 194.768C91.8225 194.698 91.8001 194.628 91.7749 194.558C91.7329 194.432 91.688 194.309 91.6432 194.184C91.5984 194.058 91.5507 193.935 91.5031 193.812C91.4079 193.56 91.3042 193.311 91.2005 193.063C90.7943 192.095 90.3376 191.142 89.9174 190.197C89.6915 189.702 89.4914 189.195 89.3178 188.679L89.2646 188.755C89.1794 188.883 89.1035 189.018 89.0376 189.157C89.0376 191.357 86.8299 194.049 86.8299 194.049L84.6081 190.821L82.6638 193.803C82.3836 193.952 82.1034 194.46 81.8849 195.184C81.8232 195.38 81.7644 195.593 81.7084 195.819C81.6692 195.97 81.6327 196.129 81.5991 196.289C81.5795 196.37 81.5627 196.451 81.5459 196.535L81.4954 196.789V196.828C81.4618 197.002 81.4282 197.18 81.3974 197.362C81.3666 197.544 81.3301 197.754 81.2993 197.952C81.2769 198.081 81.2573 198.209 81.2405 198.338C81.2013 198.587 81.1677 198.838 81.134 199.087C81.1144 199.232 81.0948 199.367 81.078 199.52L81.0108 200.079C81.1536 200.538 81.3133 200.991 81.4786 201.435C81.5842 201.679 81.6459 201.939 81.6608 202.204C85.0987 203.184 88.7431 203.184 92.1811 202.204C92.1799 202.195 92.1799 202.185 92.1811 202.176C92.1294 201.925 92.1068 201.669 92.1139 201.413C92.1704 200.696 92.264 199.982 92.3941 199.274C92.4354 198.926 92.4532 198.574 92.4473 198.223V198.097C92.4389 197.991 92.4361 197.891 92.4333 197.79ZM92.4333 197.79C92.4333 197.678 92.4333 197.566 92.4137 197.454C92.3941 197.343 92.3969 197.245 92.3829 197.138C92.3688 197.032 92.3576 196.926 92.3436 196.82C92.3296 196.714 92.31 196.607 92.2904 196.501C92.2708 196.395 92.2512 196.289 92.2288 196.182C92.2288 196.146 92.2147 196.113 92.2063 196.076C92.1755 195.936 92.1419 195.797 92.1055 195.654C92.0691 195.511 92.0466 195.428 92.013 195.316C92.013 195.265 91.985 195.215 91.9682 195.168C91.9514 195.12 91.9206 195.005 91.8954 194.924L91.8449 194.768C91.8225 194.698 91.8001 194.628 91.7749 194.558C91.7329 194.432 91.688 194.309 91.6432 194.184C91.5984 194.058 91.5507 193.935 91.5031 193.812C91.4079 193.56 91.3042 193.311 91.2005 193.063C90.7943 192.095 90.3376 191.142 89.9174 190.197C89.6915 189.702 89.4914 189.195 89.3178 188.679L89.2646 188.755C89.1794 188.883 89.1035 189.018 89.0376 189.157C89.0376 191.357 86.8299 194.049 86.8299 194.049L84.6081 190.821L82.6638 193.803C82.3836 193.952 82.1034 194.46 81.8849 195.184C81.8232 195.38 81.7644 195.593 81.7084 195.819C81.6692 195.97 81.6327 196.129 81.5991 196.289C81.5795 196.37 81.5627 196.451 81.5459 196.535L81.4954 196.789V196.828C81.4618 197.002 81.4282 197.18 81.3974 197.362C81.3666 197.544 81.3301 197.754 81.2993 197.952C81.2769 198.081 81.2573 198.209 81.2405 198.338C81.2013 198.587 81.1677 198.838 81.134 199.087C81.1144 199.232 81.0948 199.367 81.078 199.52L81.0108 200.079C81.1536 200.538 81.3133 200.991 81.4786 201.435C81.5842 201.679 81.6459 201.939 81.6608 202.204C85.0987 203.184 88.7431 203.184 92.1811 202.204C92.1799 202.195 92.1799 202.185 92.1811 202.176C92.1294 201.925 92.1068 201.669 92.1139 201.413C92.1704 200.696 92.264 199.982 92.3941 199.274C92.4354 198.926 92.4532 198.574 92.4473 198.223V198.097C92.4389 197.991 92.4361 197.891 92.4333 197.79ZM92.4333 197.79C92.4333 197.678 92.4333 197.566 92.4137 197.454C92.3941 197.343 92.3969 197.245 92.3829 197.138C92.3688 197.032 92.3576 196.926 92.3436 196.82C92.3296 196.714 92.31 196.607 92.2904 196.501C92.2708 196.395 92.2512 196.289 92.2288 196.182C92.2288 196.146 92.2147 196.113 92.2063 196.076C92.1755 195.936 92.1419 195.797 92.1055 195.654C92.0691 195.511 92.0466 195.428 92.013 195.316C92.013 195.265 91.985 195.215 91.9682 195.168C91.9514 195.12 91.9206 195.005 91.8954 194.924L91.8449 194.768C91.8225 194.698 91.8001 194.628 91.7749 194.558C91.7329 194.432 91.688 194.309 91.6432 194.184C91.5984 194.058 91.5507 193.935 91.5031 193.812C91.4079 193.56 91.3042 193.311 91.2005 193.063C90.7943 192.095 90.3376 191.142 89.9174 190.197C89.6915 189.702 89.4914 189.195 89.3178 188.679L89.2646 188.755C89.1794 188.883 89.1035 189.018 89.0376 189.157C89.0376 191.357 86.8299 194.049 86.8299 194.049L84.6081 190.821L82.6638 193.803C82.3836 193.952 82.1034 194.46 81.8849 195.184C81.8232 195.38 81.7644 195.593 81.7084 195.819C81.6692 195.97 81.6327 196.129 81.5991 196.289C81.5795 196.37 81.5627 196.451 81.5459 196.535L81.4954 196.789V196.828C81.4618 197.002 81.4282 197.18 81.3974 197.362C81.3666 197.544 81.3301 197.754 81.2993 197.952C81.2769 198.081 81.2573 198.209 81.2405 198.338C81.2013 198.587 81.1677 198.838 81.134 199.087C81.1144 199.232 81.0948 199.367 81.078 199.52L81.0108 200.079C81.1536 200.538 81.3133 200.991 81.4786 201.435C81.5842 201.679 81.6459 201.939 81.6608 202.204C85.0987 203.184 88.7431 203.184 92.1811 202.204C92.1799 202.195 92.1799 202.185 92.1811 202.176C92.1294 201.925 92.1068 201.669 92.1139 201.413C92.1704 200.696 92.264 199.982 92.3941 199.274C92.4354 198.926 92.4532 198.574 92.4473 198.223V198.097C92.4389 197.991 92.4361 197.891 92.4333 197.79ZM92.4333 197.79C92.4333 197.678 92.4333 197.566 92.4137 197.454C92.3941 197.343 92.3969 197.245 92.3829 197.138C92.3688 197.032 92.3576 196.926 92.3436 196.82C92.3296 196.714 92.31 196.607 92.2904 196.501C92.2708 196.395 92.2512 196.289 92.2288 196.182C92.2288 196.146 92.2147 196.113 92.2063 196.076C92.1755 195.936 92.1419 195.797 92.1055 195.654C92.0691 195.511 92.0466 195.428 92.013 195.316C92.013 195.265 91.985 195.215 91.9682 195.168C91.9514 195.12 91.9206 195.005 91.8954 194.924L91.8449 194.768C91.8225 194.698 91.8001 194.628 91.7749 194.558C91.7329 194.432 91.688 194.309 91.6432 194.184C91.5984 194.058 91.5507 193.935 91.5031 193.812C91.4079 193.56 91.3042 193.311 91.2005 193.063C90.7943 192.095 90.3376 191.142 89.9174 190.197C89.6915 189.702 89.4914 189.195 89.3178 188.679L89.2646 188.755C89.1794 188.883 89.1035 189.018 89.0376 189.157C89.0376 191.357 86.8299 194.049 86.8299 194.049L84.6081 190.821L82.6638 193.803C82.3836 193.952 82.1034 194.46 81.8849 195.184C81.8232 195.38 81.7644 195.593 81.7084 195.819C81.6692 195.97 81.6327 196.129 81.5991 196.289C81.5795 196.37 81.5627 196.451 81.5459 196.535L81.4954 196.789V196.828C81.4618 197.002 81.4282 197.18 81.3974 197.362C81.3666 197.544 81.3301 197.754 81.2993 197.952C81.2769 198.081 81.2573 198.209 81.2405 198.338C81.2013 198.587 81.1677 198.838 81.134 199.087C81.1144 199.232 81.0948 199.367 81.078 199.52L81.0108 200.079C81.1536 200.538 81.3133 200.991 81.4786 201.435C81.5842 201.679 81.6459 201.939 81.6608 202.204C85.0987 203.184 88.7431 203.184 92.1811 202.204C92.1799 202.195 92.1799 202.185 92.1811 202.176C92.1294 201.925 92.1068 201.669 92.1139 201.413C92.1704 200.696 92.264 199.982 92.3941 199.274C92.4354 198.926 92.4532 198.574 92.4473 198.223V198.097C92.4389 197.991 92.4361 197.891 92.4333 197.79ZM92.4333 197.79C92.4333 197.678 92.4333 197.566 92.4137 197.454C92.3941 197.343 92.3969 197.245 92.3829 197.138C92.3688 197.032 92.3576 196.926 92.3436 196.82C92.3296 196.714 92.31 196.607 92.2904 196.501C92.2708 196.395 92.2512 196.289 92.2288 196.182C92.2288 196.146 92.2147 196.113 92.2063 196.076C92.1755 195.936 92.1419 195.797 92.1055 195.654C92.0691 195.511 92.0466 195.428 92.013 195.316C92.013 195.265 91.985 195.215 91.9682 195.168C91.9514 195.12 91.9206 195.005 91.8954 194.924L91.8449 194.768C91.8225 194.698 91.8001 194.628 91.7749 194.558C91.7329 194.432 91.688 194.309 91.6432 194.184C91.5984 194.058 91.5507 193.935 91.5031 193.812C91.4079 193.56 91.3042 193.311 91.2005 193.063C90.7943 192.095 90.3376 191.142 89.9174 190.197C89.6915 189.702 89.4914 189.195 89.3178 188.679L89.2646 188.755C89.1794 188.883 89.1035 189.018 89.0376 189.157C89.0376 191.357 86.8299 194.049 86.8299 194.049L84.6081 190.821L82.6638 193.803C82.3836 193.952 82.1034 194.46 81.8849 195.184C81.8232 195.38 81.7644 195.593 81.7084 195.819C81.6692 195.97 81.6327 196.129 81.5991 196.289C81.5795 196.37 81.5627 196.451 81.5459 196.535L81.4954 196.789V196.828C81.4618 197.002 81.4282 197.18 81.3974 197.362C81.3666 197.544 81.3301 197.754 81.2993 197.952C81.2769 198.081 81.2573 198.209 81.2405 198.338C81.2013 198.587 81.1677 198.838 81.134 199.087C81.1144 199.232 81.0948 199.367 81.078 199.52L81.0108 200.079C81.1536 200.538 81.3133 200.991 81.4786 201.435C81.5842 201.679 81.6459 201.939 81.6608 202.204C85.0987 203.184 88.7431 203.184 92.1811 202.204C92.1799 202.195 92.1799 202.185 92.1811 202.176C92.1294 201.925 92.1068 201.669 92.1139 201.413C92.1704 200.696 92.264 199.982 92.3941 199.274C92.4354 198.926 92.4532 198.574 92.4473 198.223V198.097C92.4389 197.991 92.4361 197.891 92.4333 197.79Z" fill="#444176"/>
<path opacity="0.1" d="M84.6464 190.633L84.4587 190.608C84.1753 190.57 83.8946 190.514 83.6182 190.44L83.5146 190.412C82.8309 190.219 82.0829 189.873 81.9148 189.263C81.8647 189.067 81.8706 188.861 81.9316 188.668C82.0257 188.335 82.1533 188.013 82.3126 187.706V187.689C82.3337 187.646 82.3571 187.604 82.3827 187.564C82.6138 187.113 82.9634 186.733 83.3941 186.465L83.0579 186.518L80.2113 186.979L75.7987 187.689C75.7987 187.689 75.0142 187.533 73.9467 190.468C73.9467 190.504 73.9215 190.538 73.9103 190.577C73.6526 191.296 73.3808 192.193 73.1006 193.314C72.9073 194.091 72.7308 194.854 72.5683 195.595C72.5207 195.819 72.473 196.04 72.4282 196.258C72.9334 196.852 73.4771 197.412 74.056 197.935L74.1485 198.022C75.2823 199.046 76.5352 199.931 77.8803 200.658L77.9336 200.686C78.7798 201.141 79.6603 201.53 80.5672 201.849L80.8053 201.933C80.8557 201.416 80.9118 200.842 80.979 200.255C80.979 200.197 80.979 200.138 81.0014 200.079L81.0687 199.52C81.0855 199.378 81.1051 199.241 81.1247 199.087C81.1583 198.838 81.1919 198.586 81.2312 198.338C81.248 198.209 81.2676 198.08 81.29 197.952C81.3208 197.753 81.3544 197.555 81.3881 197.362C81.4217 197.169 81.4525 197.001 81.4861 196.828V196.789L81.5366 196.535C81.5534 196.451 81.5702 196.37 81.5898 196.288C81.6234 196.129 81.6598 195.97 81.699 195.819C81.7551 195.592 81.8139 195.38 81.8756 195.184C82.0997 194.46 82.3603 193.951 82.6544 193.803L84.5988 190.82L84.6801 190.695L84.7165 190.639L84.6464 190.633Z" fill="black"/>
<path opacity="0.1" d="M85.1146 175.749C85.9887 175.601 86.8684 175.282 87.7369 175.47C88.4654 175.621 89.0734 176.104 89.7402 176.44C90.3839 176.763 91.0881 176.949 91.8078 176.985C92.0703 177.019 92.3369 176.967 92.5671 176.837C92.9145 176.596 92.9649 176.104 92.9061 175.685C92.738 174.494 91.9927 173.471 91.2251 172.543C90.9187 172.146 90.5649 171.789 90.1716 171.478C89.1658 170.737 87.835 170.611 86.5883 170.667C85.165 170.731 83.7193 171.005 82.4838 171.718C81.6432 172.199 79.7157 173.714 80.3853 174.81C81.0885 175.956 84.0135 175.937 85.1146 175.749Z" fill="black"/>
<path opacity="0.5" d="M85.1146 175.47C85.9887 175.322 86.8684 175.003 87.7369 175.19C88.4654 175.341 89.0734 175.825 89.7402 176.16C90.3839 176.483 91.0881 176.669 91.8078 176.705C92.0703 176.74 92.3369 176.688 92.5671 176.557C92.9145 176.317 92.9649 175.825 92.9061 175.405C92.738 174.215 91.9927 173.191 91.2251 172.263C90.9187 171.867 90.5649 171.509 90.1716 171.198C89.1658 170.457 87.835 170.331 86.5883 170.387C85.165 170.452 83.7193 170.726 82.4838 171.439C81.6432 171.919 79.7157 173.435 80.3853 174.53C81.0885 175.677 84.0135 175.657 85.1146 175.47Z" fill="#444176"/>
</g>
<path d="M162.053 161.78H162.095C162.157 163.653 162.423 165.347 162.936 165.816C164.157 166.935 169.223 164.698 168.875 163.345C168.805 163.066 168.688 162.607 168.539 162.028C169.907 161.858 171.075 161.469 171.54 160.67L172.42 163.376L172.481 163.569H172.498H172.549C173.128 169.054 174.442 180.443 175.493 181.969C176.894 183.99 178.505 192.749 178.505 192.749L181.517 210.716C181.517 210.716 182.677 221.06 183.371 222.178C183.574 222.391 183.842 222.53 184.134 222.572C183.727 223.785 183.145 225.203 182.453 225.994C181.052 227.565 179.208 230.71 177.586 230.486C175.964 230.263 175.501 233.631 178.513 234.079C180.18 234.327 182.839 234.026 184.882 233.707C184.882 234.607 185.509 235.641 187.087 235.876C190.098 236.326 196.355 234.979 196.355 234.979C196.355 234.979 201.678 232.742 201.916 231.16C202.084 230.014 201.269 225.412 200.815 223C201.655 221.655 200.759 210.051 200.759 210.051L199.137 187.818C199.137 187.818 200.064 175.467 199.137 173.219C198.557 171.821 198.341 165.391 198.26 160.793L199.38 160.865C199.444 160.789 199.502 160.707 199.554 160.622L199.834 160.642C199.834 160.642 201.235 159.071 200.067 156.599C199.207 154.763 199.369 146.471 199.506 142.342L199.672 140.385C199.733 140.326 199.78 140.253 199.809 140.173C201.982 139.88 204.094 139.242 206.065 138.283C206.66 138.036 207.214 137.7 207.707 137.288C208.867 136.169 208.169 129.426 205.852 119.32C203.535 109.214 201.451 110.112 201.451 110.112C201.451 110.112 195.889 109.662 193.34 106.293C190.79 102.924 189.079 102.969 189.079 102.969C189.014 102.527 188.969 102.111 188.938 101.722C188.938 101.577 188.916 101.443 188.908 101.297C189.774 100.493 190.435 99.4932 190.835 98.3816C191.356 98.102 191.998 98.0097 192.497 97.6575C192.624 97.5653 192.739 97.4583 192.841 97.3388C193.341 96.8787 193.658 96.2546 193.735 95.5804C193.814 94.8442 193.779 94.1002 193.631 93.3747C193.455 92.3012 193.194 91.2025 192.567 90.3583C191.939 89.514 191.001 89.0052 190.096 88.5328C187.645 87.2487 185.188 85.9776 182.724 84.7196C182.243 84.4261 181.706 84.2357 181.147 84.1605C180.161 84.1046 179.275 84.7783 178.48 85.4185C178.162 85.6678 177.858 85.9337 177.569 86.2152C177.323 86.4327 177.099 86.6733 176.9 86.9337C175.969 88.1777 175.574 90.5204 175.983 92.0747C176.112 92.5668 176.39 92.7093 176.731 92.7038C176.224 93.7098 175.96 94.8204 175.961 95.9466C175.966 97.1796 176.283 98.3914 176.88 99.4706C177.478 100.55 178.338 101.461 179.382 102.122C179.382 102.279 179.382 102.432 179.396 102.581C179.407 103.154 179.389 103.728 179.34 104.3C179.34 104.3 173.176 107.624 172.484 109.195C171.792 110.766 169.24 111.89 169.24 111.89C169.24 111.89 164.373 114.361 164.373 123.12L161.824 135.47L161.361 159.051C161.361 159.051 161.681 158.772 162.202 158.375C162.185 158.531 162.171 158.693 162.157 158.858C162.088 159.759 162.064 160.664 162.087 161.567L162.053 161.78ZM193.18 222.81C193.085 223.17 192.945 223.648 192.768 224.207C192.69 223.743 192.611 223.285 192.533 222.849C192.735 222.829 192.95 222.818 193.18 222.81Z" fill="url(#paint2_linear)"/>
<path d="M184.764 219.914C184.764 219.914 183.87 223.923 182.522 225.48C181.175 227.037 179.41 230.157 177.852 229.933C176.294 229.71 175.843 233.05 178.746 233.495C181.648 233.939 187.658 232.606 187.658 232.606C187.658 232.606 192.791 230.369 193.012 228.821C193.233 227.272 191.673 219.246 191.673 219.246L184.764 219.914Z" fill="#53526B"/>
<path opacity="0.05" d="M184.764 219.914C184.764 219.914 183.87 223.923 182.522 225.48C181.175 227.037 179.41 230.157 177.852 229.933C176.294 229.71 175.843 233.05 178.746 233.495C181.648 233.939 187.658 232.606 187.658 232.606C187.658 232.606 192.791 230.369 193.012 228.821C193.233 227.272 191.673 219.246 191.673 219.246L184.764 219.914Z" fill="black"/>
<path d="M193.021 221.694C193.021 221.694 192.127 225.703 190.78 227.26C189.432 228.817 187.659 231.937 186.104 231.714C184.549 231.49 184.095 234.831 186.998 235.275C189.9 235.72 195.924 234.383 195.924 234.383C195.924 234.383 201.056 232.147 201.278 230.598C201.499 229.05 199.939 221.023 199.939 221.023L193.021 221.694Z" fill="#53526B"/>
<path d="M172.713 160.693C172.713 160.693 174.498 179.84 175.837 181.844C177.176 183.848 178.737 192.531 178.737 192.531L181.636 210.342C181.636 210.342 182.757 220.585 183.421 221.698C184.085 222.81 192.367 222.332 192.367 222.332L187.217 163.362L172.713 160.693Z" fill="#5F5D7E"/>
<path opacity="0.05" d="M172.713 160.693C172.713 160.693 174.498 179.84 175.837 181.844C177.176 183.848 178.737 192.531 178.737 192.531L181.636 210.342C181.636 210.342 182.757 220.585 183.421 221.698C184.085 222.81 192.367 222.332 192.367 222.332L187.217 163.362L172.713 160.693Z" fill="black"/>
<path d="M169.144 151.56L169.726 153.407L172.878 163.39L172.94 163.581H172.957C173.38 163.676 182.312 165.725 184.239 166.354C184.343 166.386 184.445 166.424 184.544 166.468C185.438 166.913 186.553 182.943 186.553 182.943C186.553 182.943 187.223 198.083 187.674 199.196C188.125 200.309 189.915 223.238 191.022 222.573C192.129 221.907 200.17 222.573 200.17 222.573C201.063 221.681 200.17 209.66 200.17 209.66L198.584 187.622C198.584 187.622 199.478 175.378 198.584 173.15C197.69 170.922 197.69 156.007 197.69 156.007L179.426 153.159L177.661 152.879L169.144 151.56Z" fill="#5F5D7E"/>
<path opacity="0.02" d="M169.726 153.41L172.878 163.393L172.954 163.589C173.377 163.684 182.309 165.733 184.236 166.362H184.429L179.44 153.161L179.297 152.781L177.674 152.884L169.726 153.41Z" fill="black"/>
<path opacity="0.1" d="M190.566 107.034C190.566 107.034 182.31 115.941 177.177 108.591L172.269 111.932L173.162 117.053L170.26 155.792C170.26 155.792 177.847 155.568 183.201 157.349C184.692 157.876 186.303 157.968 187.845 157.613C189.387 157.258 190.794 156.471 191.903 155.344L191.02 121.283L193.029 110.819L190.566 107.034Z" fill="black"/>
<path d="M190.566 106.366C190.566 106.366 182.31 115.273 177.177 107.923L172.269 111.264L173.162 116.385L170.26 155.124C170.26 155.124 177.847 154.9 183.201 156.681C184.692 157.208 186.303 157.3 187.845 156.945C189.387 156.59 190.794 155.803 191.903 154.676L191.02 120.615L193.029 110.151L190.566 106.366Z" fill="#53526B"/>
<path d="M174.083 146.029V147.433H173.634V146.499H171.996V147.433H171.544V146.032L174.083 146.029Z" fill="#E82127"/>
<path d="M173.683 145.577H171.951C171.838 145.549 171.734 145.492 171.651 145.41C171.568 145.328 171.509 145.225 171.48 145.113H174.15C174.122 145.225 174.063 145.328 173.98 145.41C173.897 145.492 173.793 145.549 173.68 145.577" fill="#E82127"/>
<path d="M189.338 145.13C189.309 145.241 189.25 145.343 189.167 145.424C189.085 145.505 188.983 145.563 188.87 145.591H188.142L188.106 145.605V147.439H187.657V145.605L187.615 145.591H186.887C186.775 145.562 186.673 145.504 186.591 145.423C186.509 145.342 186.449 145.241 186.419 145.13H189.338Z" fill="#E82127"/>
<path d="M173.383 152.454C173.383 152.454 173.383 158.243 172.044 160.692C170.705 163.141 162.896 161.811 162.896 161.811L164.457 153.572L173.383 152.454Z" fill="#D6DBE6"/>
<path d="M163.746 165.817C164.923 166.935 169.801 164.699 169.464 163.368C169.229 162.426 168.405 159.054 167.937 157.142L167.612 155.797C167.612 155.797 164.755 154.906 163.746 155.797C163.379 156.122 163.121 157.399 163.001 158.942C162.794 161.623 163.004 165.107 163.746 165.817Z" fill="#FDC2CC"/>
<path d="M174.489 110.372L182.298 116.382C182.298 116.382 193.899 115.714 191 110.148C189.737 107.7 188.975 105.026 188.758 102.282C188.664 101.269 188.664 100.25 188.758 99.2373C188.758 99.2373 178.047 89.4527 179.387 100.574C179.492 101.427 179.554 102.286 179.572 103.145C179.731 111.493 174.489 110.372 174.489 110.372Z" fill="#FDC2CC"/>
<path opacity="0.1" d="M179.41 100.577C179.516 101.43 179.578 102.289 179.595 103.148C180.797 103.943 182.208 104.365 183.649 104.362C185.647 104.362 187.118 102.422 188.446 101.133C188.297 99.285 188.779 99.2402 188.779 99.2402C188.779 99.2402 178.071 89.4446 179.41 100.577Z" fill="black"/>
<path d="M183.648 103.917C187.714 103.917 191.011 100.628 191.011 96.5701C191.011 92.5126 187.714 89.2234 183.648 89.2234C179.582 89.2234 176.285 92.5126 176.285 96.5701C176.285 100.628 179.582 103.917 183.648 103.917Z" fill="#FDC2CC"/>
<path opacity="0.1" d="M188.891 103.582C188.891 103.582 190.118 103.693 192.573 107.031C195.027 110.369 200.381 110.816 200.381 110.816C200.381 110.816 202.39 109.925 204.62 119.944C206.85 129.963 207.52 136.642 206.405 137.755C205.29 138.867 200.826 140.43 198.585 140.43C198.585 140.43 197.916 154.455 199.031 156.904C200.146 159.353 198.806 160.913 198.806 160.913L189.001 160.245C189.001 160.245 185.652 156.015 184.983 148.669C184.313 141.322 182.083 120.391 183.198 117.942C184.313 115.493 189.222 109.259 189.001 108.591C188.779 107.923 188.891 103.582 188.891 103.582Z" fill="black"/>
<path d="M188.915 103.515C188.915 103.515 190.565 103.47 193.02 106.811C195.474 110.151 200.825 110.596 200.825 110.596C200.825 110.596 202.834 109.704 205.064 119.723C207.294 129.743 207.964 136.421 206.849 137.534C205.734 138.647 201.271 140.207 199.04 140.207C199.04 140.207 198.371 154.232 199.486 156.681C200.601 159.13 199.262 160.69 199.262 160.69L189.456 160.022C189.456 160.022 186.108 155.792 185.438 148.445C184.769 141.098 182.533 120.171 183.648 117.733C184.763 115.295 189.672 109.05 189.45 108.382C189.229 107.714 188.915 103.515 188.915 103.515Z" fill="#D6DBE6"/>
<path opacity="0.1" d="M163.002 158.94C164.069 158.126 166.084 156.86 167.939 157.139L167.614 155.795C167.614 155.795 164.756 154.903 163.747 155.795C163.375 156.119 163.12 157.394 163.002 158.94Z" fill="black"/>
<path opacity="0.1" d="M179.532 104.918C179.532 104.918 173.842 108.591 173.172 110.151C172.503 111.711 170.048 112.824 170.048 112.824C170.048 112.824 165.364 115.273 165.364 123.956L162.91 136.2L174.066 151.786C174.066 151.786 175.405 136.2 176.075 132.415C176.744 128.63 177.635 121.512 177.635 121.512C177.635 121.512 180.983 117.283 180.535 116.17C180.087 115.058 179.532 104.918 179.532 104.918Z" fill="black"/>
<path d="M179.533 104.851C179.533 104.851 173.599 108.147 172.932 109.704C172.265 111.261 169.808 112.377 169.808 112.377C169.808 112.377 165.124 114.825 165.124 123.508L162.67 135.753L162.224 159.13C162.224 159.13 166.242 155.344 169.142 157.125C172.041 158.906 173.826 151.336 173.826 151.336C173.826 151.336 175.165 135.75 175.835 131.965C176.504 128.18 177.395 121.062 177.395 121.062C177.395 121.062 180.743 116.833 180.295 115.72C179.847 114.607 179.533 104.851 179.533 104.851Z" fill="#D6DBE6"/>
<path opacity="0.1" d="M177.186 87.6325C177.563 87.153 178 86.7228 178.486 86.3522C179.253 85.7148 180.102 85.0494 181.055 85.1053C181.594 85.1769 182.111 85.3618 182.573 85.6477C184.945 86.8945 187.311 88.1544 189.67 89.4273C190.541 89.897 191.441 90.3946 192.049 91.2388C192.657 92.0831 192.903 93.1678 193.074 94.2301C193.217 94.9497 193.251 95.6866 193.175 96.4162C193.105 97.1315 192.757 97.7911 192.205 98.2529C191.569 98.7142 190.698 98.717 190.166 99.3208C189.858 99.6703 189.723 100.159 189.505 100.584C189.286 101.009 188.908 101.423 188.476 101.348C188.045 101.272 187.784 100.816 187.723 100.355C187.695 99.8877 187.723 99.4186 187.804 98.9574C187.888 98.1187 187.782 97.2297 187.294 96.6063C186.958 96.1814 186.476 95.9242 186.151 95.4881C185.372 94.437 185.728 92.6925 184.873 91.7057C184.625 91.4477 184.313 91.2601 183.968 91.1619C183.624 91.0636 183.259 91.0584 182.912 91.1466C182.22 91.2919 181.587 91.6665 180.951 91.9852C180.092 92.4177 179.192 92.7642 178.264 93.0196C177.485 93.2321 176.583 93.7409 176.317 92.7065C175.911 91.1885 176.289 88.8654 177.186 87.6325Z" fill="black"/>
<path d="M177.409 87.4118C177.787 86.9323 178.223 86.5021 178.709 86.1315C179.477 85.4941 180.326 84.8287 181.278 84.8846C181.817 84.9562 182.335 85.1411 182.797 85.427C185.167 86.6738 187.136 85.4941 189.893 89.2066C190.482 90.0005 191.664 90.1739 192.272 91.0181C192.88 91.8624 193.127 92.9471 193.297 94.0094C193.44 94.729 193.474 95.4659 193.398 96.1955C193.329 96.9108 192.981 97.5704 192.429 98.0322C191.793 98.4935 190.922 98.4963 190.389 99.1001C190.081 99.4496 189.947 99.9388 189.728 100.364C189.51 100.789 189.131 101.202 188.7 101.127C188.268 101.051 188.008 100.596 187.946 100.134C187.919 99.667 187.946 99.1979 188.027 98.7367C188.111 97.898 188.005 97.009 187.518 96.3856C187.181 95.9607 186.699 95.7035 186.374 95.2674C185.596 94.2163 185.951 92.4718 185.097 91.485C184.849 91.227 184.536 91.0394 184.192 90.9412C183.847 90.8429 183.483 90.8377 183.136 90.9259C182.444 91.0712 181.81 91.4458 181.174 91.7645C180.315 92.197 179.415 92.5435 178.488 92.7989C177.709 93.0114 176.807 93.5202 176.54 92.4858C176.131 90.9678 176.512 88.6419 177.409 87.4118Z" fill="#865A61"/>
<path opacity="0.1" d="M197.519 121.392C197.519 121.392 200.495 128.962 198.262 132.079L193.353 130.961C193.353 130.961 197.816 132.297 197.147 129.625C196.477 126.952 197.519 121.392 197.519 121.392Z" fill="black"/>
<path opacity="0.1" d="M199.145 140.097C199.145 140.097 192.673 140.542 190.888 139.205C193.238 140.995 196.014 142.146 198.943 142.546L199.145 140.097Z" fill="black"/>
<path opacity="0.1" d="M171.265 125.84C171.265 125.84 167.917 136.083 168.141 137.64C168.365 139.197 168.811 156.343 168.811 156.343L169.48 156.119L169.256 137.417L171.265 125.84Z" fill="black"/>
<path d="M199.932 138.358L123.446 76.8559C123.001 76.4119 122.472 76.0598 121.891 75.82C121.309 75.5801 120.685 75.4572 120.056 75.4581H116.806C123.301 67.1535 126.376 56.6898 125.406 46.2006C124.435 35.7114 119.491 25.9865 111.583 19.0089C103.674 12.0313 93.3956 8.32639 82.8437 8.64963C72.2917 8.97287 62.2606 13.2999 54.7958 20.7484C47.3309 28.197 42.9944 38.2061 42.6704 48.735C42.3465 59.2639 46.0595 69.5196 53.0524 77.411C60.0453 85.3025 69.7915 90.2353 80.3037 91.2038C90.8159 92.1723 101.302 89.1035 109.625 82.6231V85.8632C109.624 86.4913 109.748 87.1133 109.988 87.6938C110.228 88.2742 110.581 88.8017 111.026 89.2458L187.512 150.748C187.955 151.194 188.482 151.547 189.062 151.789C189.643 152.03 190.265 152.154 190.894 152.154C191.523 152.154 192.145 152.03 192.726 151.789C193.306 151.547 193.833 151.194 194.276 150.748L199.913 145.129C200.812 144.232 201.319 143.017 201.323 141.748C201.327 140.479 200.827 139.261 199.932 138.358ZM84.0906 75.4581C79.0403 75.4581 74.1035 73.9638 69.9043 71.1641C65.7051 68.3645 62.4323 64.3852 60.4996 59.7296C58.567 55.0739 58.0613 49.951 59.0466 45.0086C60.0318 40.0661 62.4638 35.5263 66.0349 31.963C69.6059 28.3997 74.1558 25.9731 79.109 24.99C84.0623 24.0069 89.1965 24.5114 93.8623 26.4399C98.5282 28.3683 102.516 31.634 105.322 35.8239C108.128 40.0139 109.625 44.94 109.625 49.9792C109.628 53.3262 108.969 56.6408 107.687 59.7335C106.405 62.8262 104.524 65.6363 102.152 68.0032C99.7809 70.3701 96.965 72.2473 93.8658 73.5274C90.7666 74.8076 87.4449 75.4655 84.0906 75.4637V75.4581Z" fill="url(#paint3_linear)"/>
<path d="M200.492 137.799L124.006 76.2968C123.561 75.8528 123.032 75.5008 122.451 75.2609C121.869 75.0211 121.245 74.8981 120.616 74.899H117.366C123.861 66.5944 126.936 56.1307 125.966 45.6415C124.995 35.1523 120.051 25.4274 112.143 18.4498C104.234 11.4722 93.9557 7.76731 83.4037 8.09055C72.8518 8.41379 62.8207 12.7408 55.3558 20.1894C47.8909 27.6379 43.5544 37.6471 43.2305 48.1759C42.9065 58.7048 46.6196 68.9605 53.6125 76.852C60.6054 84.7434 70.3515 89.6763 80.8637 90.6448C91.3759 91.6133 101.863 88.5444 110.185 82.0641V85.3041C110.184 85.9322 110.308 86.5542 110.548 87.1347C110.788 87.7151 111.141 88.2426 111.586 88.6868L188.073 150.189C188.515 150.635 189.042 150.988 189.623 151.23C190.203 151.471 190.825 151.595 191.454 151.595C192.083 151.595 192.706 151.471 193.286 151.23C193.866 150.988 194.393 150.635 194.836 150.189L200.473 144.57C201.372 143.673 201.879 142.458 201.883 141.189C201.887 139.92 201.387 138.701 200.492 137.799ZM84.6507 74.899C79.6004 74.899 74.6635 73.4047 70.4644 70.605C66.2652 67.8054 62.9924 63.8261 61.0597 59.1705C59.127 54.5148 58.6214 49.3919 59.6066 44.4495C60.5919 39.5071 63.0238 34.9672 66.5949 31.4039C70.166 27.8406 74.7159 25.414 79.6691 24.4309C84.6223 23.4478 89.7565 23.9523 94.4224 25.8808C99.0882 27.8092 103.076 31.0749 105.882 35.2649C108.688 39.4548 110.185 44.3809 110.185 49.4202C110.188 52.7671 109.529 56.0817 108.247 59.1744C106.965 62.2671 105.084 65.0772 102.713 67.4441C100.341 69.811 97.525 71.6882 94.4258 72.9683C91.3266 74.2485 88.0049 74.9064 84.6507 74.9046V74.899Z" fill="#2D74DA"/>
<path d="M194.804 132.192C194.804 132.192 183.639 119.416 185.208 128.183C186.329 134.417 190.562 137.758 192.571 138.426C194.58 139.094 194.804 132.192 194.804 132.192Z" fill="#FDC2CC"/>
<path d="M197.483 120.391C197.483 120.391 197.708 128.63 198.823 129.742C199.938 130.855 198.153 132.191 198.153 132.191L193.69 131.073C193.69 131.073 194.811 138.42 190.121 137.531C190.121 137.531 193.244 140.424 196.368 140.871C199.492 141.319 199.268 140.203 199.268 140.203L203.953 134.637L197.483 120.391Z" fill="#D6DBE6"/>
<path d="M198.72 140.324L203.247 139.331L202.642 137.248L199.84 136.13L196.198 137.807L198.72 140.324Z" fill="#D6DBE6"/>
<path d="M87.4443 59.9788L93.4707 55.341C93.4707 55.341 89.4335 56.2048 89.5484 49.7666C89.547 49.7452 89.547 49.7237 89.5484 49.7023C89.5484 49.1208 89.6044 48.4834 89.6884 47.7817C90.7223 39.191 82.4573 46.7502 82.4573 46.7502C82.5284 47.5108 82.5284 48.2764 82.4573 49.037C82.4573 49.0565 82.4573 49.0789 82.4573 49.0985C82.2938 51.2155 81.709 53.2788 80.737 55.1676C78.4929 59.4616 87.4443 59.9788 87.4443 59.9788Z" fill="#FDC2CC"/>
<path opacity="0.1" d="M83.2282 47.8432C84.2508 48.8357 84.8756 50.6388 86.4137 50.6388C87.5266 50.6413 88.6154 50.3154 89.5432 49.7023C89.5432 49.1208 89.5993 48.4834 89.6833 47.7817C90.7171 39.191 82.4521 46.7502 82.4521 46.7502C82.4521 46.7502 83.3375 46.4455 83.2282 47.8432Z" fill="black"/>
<path d="M86.4123 50.3593C89.5503 50.3593 92.0942 47.8211 92.0942 44.6899C92.0942 41.5588 89.5503 39.0205 86.4123 39.0205C83.2743 39.0205 80.7305 41.5588 80.7305 44.6899C80.7305 47.8211 83.2743 50.3593 86.4123 50.3593Z" fill="#FDC2CC"/>
<path opacity="0.1" d="M91.862 37.4298C91.5362 37.0189 91.1596 36.6507 90.7413 36.3339C90.0857 35.7888 89.3573 35.2157 88.542 35.266C88.0807 35.3273 87.6376 35.4855 87.242 35.7301C85.2108 36.798 83.5269 35.7888 81.1651 38.9646C80.6608 39.6439 79.6494 39.8032 79.1283 40.5161C78.6072 41.229 78.397 42.1655 78.2485 43.0769C78.1258 43.6933 78.0965 44.3247 78.1617 44.9499C78.224 45.5635 78.5259 46.1279 79.0022 46.521C79.5457 46.9152 80.2938 46.918 80.7505 47.4352C80.9801 47.772 81.1682 48.1353 81.3108 48.517C81.4957 48.8805 81.8207 49.2243 82.1905 49.1712C82.5604 49.1181 82.7817 48.7183 82.8349 48.3325C82.8581 47.9333 82.8346 47.5327 82.7649 47.1388C82.6948 46.4315 82.7845 45.66 83.202 45.126C83.4821 44.7598 83.9024 44.5417 84.1797 44.1699C84.8466 43.2725 84.544 41.7657 85.2752 40.9327C85.4891 40.7135 85.7573 40.5549 86.0526 40.4729C86.3479 40.3909 86.6597 40.3884 86.9562 40.4658C87.5452 40.6335 88.1101 40.8759 88.6373 41.1871C89.3728 41.5575 90.1433 41.8544 90.9374 42.0732C91.6042 42.255 92.3775 42.6911 92.6045 41.7937C92.9603 40.4742 92.6269 38.4837 91.862 37.4298Z" fill="black"/>
<path d="M91.862 37.1503C91.5362 36.7393 91.1596 36.3711 90.7413 36.0544C90.0857 35.5093 89.3573 34.9362 88.542 34.9865C88.0807 35.0477 87.6376 35.2059 87.242 35.4506C85.2108 36.5185 83.5269 35.5093 81.1651 38.685C80.6608 39.3644 79.6494 39.5237 79.1283 40.2366C78.6072 40.9494 78.397 41.886 78.2485 42.7973C78.1258 43.4138 78.0965 44.0452 78.1617 44.6704C78.224 45.284 78.5259 45.8484 79.0022 46.2415C79.5457 46.6356 80.2938 46.6384 80.7505 47.1556C80.9801 47.4925 81.1682 47.8557 81.3108 48.2375C81.4957 48.6009 81.8207 48.9448 82.1905 48.8917C82.5604 48.8386 82.7817 48.4388 82.8349 48.053C82.8581 47.6537 82.8346 47.2531 82.7649 46.8593C82.6948 46.152 82.7845 45.3804 83.202 44.8465C83.4821 44.4803 83.9024 44.2622 84.1797 43.8904C84.8466 42.993 84.544 41.4862 85.2752 40.6531C85.4891 40.434 85.7573 40.2754 86.0526 40.1934C86.3479 40.1114 86.6597 40.1089 86.9562 40.1863C87.5452 40.354 88.1101 40.5964 88.6373 40.9075C89.3728 41.278 90.1433 41.5748 90.9374 41.7937C91.6042 41.9754 92.3775 42.4115 92.6045 41.5142C92.9603 40.1946 92.6269 38.2042 91.862 37.1503Z" fill="#865A61"/>
<path opacity="0.1" d="M80.7309 62.9619L80.6188 67.2531C82.247 67.6947 83.927 67.9175 85.6142 67.9157C85.8944 67.9157 86.1886 67.9157 86.4743 67.8961C87.9706 67.8318 89.4538 67.5897 90.8926 67.1749H90.9206C91.1868 67.0966 91.4502 67.0155 91.7107 66.9261H91.7387L91.9769 66.8422C92.8837 66.5235 93.7643 66.1347 94.6105 65.6792L94.6637 65.6513C94.7561 65.601 94.8486 65.5506 94.9439 65.4975L94.5096 59.7135L95.2016 55.7466L91.4137 53.1718C91.2011 53.4782 90.9631 53.7662 90.7021 54.0329C90.3282 54.4226 89.8904 54.7459 89.4077 54.9889C86.6901 56.3252 83.597 54.2006 82.0589 52.8867L81.7087 52.5764C81.3108 52.2157 81.0839 51.9697 81.0839 51.9697L79.1899 54.8883L80.7309 62.9619Z" fill="black"/>
<path d="M80.7309 63.2415L80.6188 67.5327C82.247 67.9742 83.927 68.197 85.6142 68.1952C85.8944 68.1952 86.1886 68.1952 86.4743 68.1757C87.9706 68.1113 89.4538 67.8692 90.8926 67.4544H90.9206C91.1868 67.3761 91.4502 67.295 91.7107 67.2056H91.7387L91.9769 67.1217C92.8837 66.803 93.7643 66.4142 94.6105 65.9588L94.6637 65.9308C94.7561 65.8805 94.8486 65.8302 94.9439 65.777L94.5096 59.993L95.2016 56.0261L91.4137 53.4514C91.2011 53.7577 90.9631 54.0458 90.7021 54.3124C90.3282 54.7021 89.8904 55.0254 89.4077 55.2685C86.6901 56.6048 83.597 54.4801 82.0589 53.1662L81.7087 52.8559C81.3108 52.4953 81.0839 52.2493 81.0839 52.2493L79.1899 55.1678L80.7309 63.2415Z" fill="#53526B"/>
<path d="M91.2314 63.5853C91.2314 63.5853 91.4387 65.2319 91.7105 67.2H91.7385L91.9766 67.1162C92.8835 66.7975 93.764 66.4086 94.6102 65.9532L94.6635 65.9252C94.7559 65.8749 94.8484 65.8246 94.9436 65.7715C96.1857 65.0759 97.3454 64.2432 98.401 63.289L98.4934 63.2024C99.0723 62.6795 99.6161 62.1191 100.121 61.525L100.18 61.4551C99.1798 57.9914 97.0982 56.9011 97.0982 56.9011C97.0982 56.9011 95.2042 56.0401 94.6859 54.838C94.1676 53.6359 89.5924 51.0947 89.5924 51.0947V51.1143C89.5924 51.3296 89.5195 53.3004 89.4103 55.2825C89.3402 56.5713 89.2534 57.8656 89.1525 58.6875C89.1307 58.9545 89.0819 59.2186 89.0068 59.4759C88.651 60.3229 91.2314 63.5853 91.2314 63.5853Z" fill="#555388"/>
</g>
<defs>
<linearGradient id="paint0_linear" x1="144.086" y1="222.136" x2="144.086" y2="10.9839" gradientUnits="userSpaceOnUse">
<stop stop-color="#808080" stop-opacity="0.25"/>
<stop offset="0.54" stop-color="#808080" stop-opacity="0.12"/>
<stop offset="1" stop-color="#808080" stop-opacity="0.1"/>
</linearGradient>
<linearGradient id="paint1_linear" x1="10479.3" y1="17318.6" x2="10479.3" y2="13224.2" gradientUnits="userSpaceOnUse">
<stop stop-color="#808080" stop-opacity="0.25"/>
<stop offset="0.54" stop-color="#808080" stop-opacity="0.12"/>
<stop offset="1" stop-color="#808080" stop-opacity="0.1"/>
</linearGradient>
<linearGradient id="paint2_linear" x1="-48990.2" y1="131856" x2="-48990.2" y2="49422.7" gradientUnits="userSpaceOnUse">
<stop stop-color="#808080" stop-opacity="0.25"/>
<stop offset="0.54" stop-color="#808080" stop-opacity="0.12"/>
<stop offset="1" stop-color="#808080" stop-opacity="0.1"/>
</linearGradient>
<linearGradient id="paint3_linear" x1="75968.8" y1="81551.8" x2="75968.8" y2="7840.74" gradientUnits="userSpaceOnUse">
<stop stop-color="#808080" stop-opacity="0.25"/>
<stop offset="0.54" stop-color="#808080" stop-opacity="0.12"/>
<stop offset="1" stop-color="#808080" stop-opacity="0.1"/>
</linearGradient>
<clipPath id="clip0">
<rect width="312" height="235.985" fill="white"/>
</clipPath>
</defs>
</svg>
