<svg width="312" height="260" viewBox="0 0 312 260" fill="none" xmlns="http://www.w3.org/2000/svg">
<g clip-path="url(#clip0)">
<path d="M9.24015 154.444C9.24015 154.444 8.97456 153.755 8.54492 152.474" stroke="#69F0AE" stroke-width="9" stroke-miterlimit="10"/>
<path d="M7.28763 148.48C-2.20728 116.254 -31.809 -32.2715 264.935 60.4491" stroke="#69F0AE" stroke-width="9" stroke-miterlimit="10" stroke-dasharray="12.04 12.04"/>
<path d="M267.158 61.1379L269.365 61.8265" stroke="#69F0AE" stroke-width="9" stroke-miterlimit="10"/>
<path d="M233.018 175.684C233.02 168.72 230.074 162.007 224.757 156.857C219.44 151.707 212.134 148.491 204.269 147.839C196.404 147.187 188.546 149.146 182.233 153.332C175.92 157.518 171.606 163.629 170.135 170.471L72.6514 168.14L73.7215 182.904C73.7215 182.904 59.8209 211.178 132.878 218.711V247.289H217.336V199.775C222.106 197.313 226.062 193.795 228.813 189.569C231.564 185.343 233.013 180.556 233.018 175.684Z" fill="url(#paint0_linear)"/>
<path d="M77.0682 183.524C77.0682 183.524 63.7574 210.599 133.721 217.823V245.202H214.606V172.692L76.0293 169.383L77.0682 183.524Z" fill="#F6B9AD"/>
<path d="M117.493 70.5338C115.384 73.4675 112.044 75.5463 108.202 76.3159C104.36 77.0855 100.328 76.4835 96.988 74.6413L53.5599 49.4143C50.2318 47.5551 47.8737 44.6104 47.0006 41.2235C46.1276 37.8367 46.8105 34.2828 48.9003 31.3384C51.0092 28.4084 54.3467 26.3324 58.185 25.5629C62.0233 24.7935 66.0511 25.393 69.3899 27.2309L112.818 52.4579C116.149 54.3149 118.51 57.2585 119.386 60.6456C120.262 64.0326 119.582 67.5877 117.493 70.5338Z" fill="url(#paint1_linear)"/>
<path d="M115.088 69.1531C113.127 71.8801 110.022 73.8123 106.451 74.5278C102.88 75.2432 99.1323 74.6837 96.0275 72.9714L55.6458 49.521C52.5523 47.7928 50.3604 45.0557 49.5488 41.9076C48.7372 38.7594 49.3719 35.456 51.3143 32.719C53.2747 29.9921 56.3797 28.0598 59.951 27.3444C63.5223 26.6289 67.2696 27.1885 70.3744 28.9007L110.748 52.3546C113.842 54.0816 116.035 56.8176 116.848 59.965C117.661 63.1124 117.028 66.4156 115.088 69.1531Z" fill="#F6B9AD"/>
<path d="M199.249 203.383C216.025 203.383 229.624 191.395 229.624 176.606C229.624 161.818 216.025 149.83 199.249 149.83C182.473 149.83 168.874 161.818 168.874 176.606C168.874 191.395 182.473 203.383 199.249 203.383Z" fill="#F6B9AD"/>
<path d="M193.78 0H77.4193C74.7769 0 72.6348 1.88833 72.6348 4.21771V196.153C72.6348 198.482 74.7769 200.37 77.4193 200.37H193.78C196.422 200.37 198.564 198.482 198.564 196.153V4.21771C198.564 1.88833 196.422 0 193.78 0Z" fill="url(#paint2_linear)"/>
<path d="M191.535 2.70947H79.6658C76.7236 2.70947 74.3384 4.81207 74.3384 7.40576V192.971C74.3384 195.565 76.7236 197.667 79.6658 197.667H191.535C194.477 197.667 196.862 195.565 196.862 192.971V7.40576C196.862 4.81207 194.477 2.70947 191.535 2.70947Z" fill="white"/>
<path d="M166.382 7.59522C166.027 9.66275 164.845 11.5502 163.049 12.9161C161.253 14.2821 158.962 15.0364 156.59 15.0425H114.275C111.904 15.0355 109.614 14.2809 107.818 12.915C106.023 11.5492 104.842 9.66216 104.487 7.59522H82.0683C81.4571 7.59476 80.8517 7.7005 80.2869 7.90637C79.7221 8.11224 79.2088 8.41423 78.7764 8.79505C78.3441 9.17587 78.0011 9.62808 77.7671 10.1258C77.533 10.6236 77.4126 11.1571 77.4126 11.6959V188.667C77.4121 189.206 77.532 189.74 77.7656 190.238C77.9991 190.736 78.3417 191.188 78.7737 191.569C79.2057 191.95 79.7187 192.253 80.2833 192.459C80.8479 192.665 81.4532 192.771 82.0644 192.771H189.137C189.748 192.772 190.353 192.666 190.918 192.46C191.483 192.254 191.996 191.952 192.429 191.572C192.861 191.191 193.204 190.739 193.438 190.241C193.672 189.743 193.793 189.21 193.793 188.671V11.6993C193.793 11.1605 193.673 10.6269 193.44 10.129C193.206 9.63109 192.863 9.17863 192.431 8.79749C191.999 8.41634 191.486 8.11398 190.922 7.90769C190.357 7.7014 189.752 7.59522 189.141 7.59522H166.382Z" fill="#2D74DA"/>
<path d="M148.646 9.92969H122.903C122.471 9.92969 122.122 10.238 122.122 10.6183V10.7457C122.122 11.126 122.471 11.4343 122.903 11.4343H148.646C149.077 11.4343 149.427 11.126 149.427 10.7457V10.6183C149.427 10.238 149.077 9.92969 148.646 9.92969Z" fill="#DBDBDB"/>
<path d="M155.226 11.434C155.792 11.434 156.25 11.0302 156.25 10.532C156.25 10.0338 155.792 9.62988 155.226 9.62988C154.661 9.62988 154.203 10.0338 154.203 10.532C154.203 11.0302 154.661 11.434 155.226 11.434Z" fill="#DBDBDB"/>
<path d="M218.887 181.327C210.071 183.124 204.021 178.056 201.982 170.289L181.727 103.99C180.759 100.244 181.512 96.3127 183.82 93.0543C186.129 89.796 189.807 87.4753 194.05 86.599C198.299 85.7456 202.759 86.4089 206.455 88.4442C210.151 90.4795 212.784 93.7213 213.778 97.4618L230.307 165.462C232.346 173.243 227.698 179.53 218.887 181.327Z" fill="url(#paint3_linear)"/>
<path d="M211.505 99.0881C209.787 92.5313 202.364 88.4441 194.926 89.9591C187.488 91.474 182.851 98.0175 184.57 104.574L203.195 175.636C204.914 182.192 212.337 186.28 219.775 184.765C227.213 183.25 231.849 176.706 230.131 170.15L211.505 99.0881Z" fill="#F6B9AD"/>
<path d="M229.499 236.243H113.888V260H229.499V236.243Z" fill="url(#paint4_linear)"/>
<path d="M226.374 238.998H117.013V257.59H226.374V238.998Z" fill="#FF8976"/>
<path d="M161.393 62.7938L152.433 56.8477L156.339 52.3718L149.82 47.8614L145.747 52.4131L136.533 46.3017C136.182 46.0696 135.755 45.9441 135.316 45.9441C134.878 45.9441 134.451 46.0696 134.1 46.3017L109.677 62.329C108.751 63.0176 107.884 63.8061 107.876 65.6102H107.849L107.787 90.3036V91.4019C107.786 91.7555 107.864 92.1058 108.016 92.4328C108.169 92.7598 108.393 93.0571 108.676 93.3078C108.959 93.5584 109.295 93.7575 109.665 93.8937C110.035 94.0298 110.432 94.1003 110.833 94.1012H112.036L135.193 94.146L159.558 94.1942C159.959 94.1951 160.356 94.1264 160.727 93.9919C161.098 93.8574 161.435 93.6599 161.72 93.4105C162.004 93.1611 162.23 92.8648 162.384 92.5385C162.539 92.2122 162.619 91.8622 162.62 91.5086L162.686 65.7617H162.737C162.737 63.9541 162.319 63.4824 161.393 62.7938Z" fill="url(#paint5_linear)"/>
<path d="M160.331 66.1371C160.331 64.4914 159.941 64.0713 159.105 63.4344L136.424 48.3987C136.103 48.1866 135.713 48.072 135.313 48.072C134.912 48.072 134.522 48.1866 134.202 48.3987L111.919 63.0246C111.383 63.3622 110.952 63.8131 110.665 64.3359C110.379 64.8587 110.246 65.4367 110.279 66.0166H110.255L110.197 88.5478V89.5497C110.196 90.2011 110.488 90.8262 111.009 91.2878C111.531 91.7494 112.239 92.0097 112.978 92.0115H114.075L135.205 92.0528L157.433 92.0976C158.172 92.0985 158.881 91.8408 159.405 91.3812C159.928 90.9216 160.224 90.2975 160.226 89.6461L160.284 66.1544L160.331 66.1371Z" fill="url(#paint6_linear)"/>
<path d="M110.666 66.1069L159.812 66.2052L159.75 90.0412C159.75 90.2302 159.707 90.4173 159.625 90.5917C159.542 90.7662 159.421 90.9246 159.269 91.0579C159.118 91.1913 158.937 91.2969 158.739 91.3688C158.541 91.4408 158.328 91.4776 158.114 91.4771L112.417 91.3857C111.939 91.3848 111.482 91.2167 111.145 90.9183C110.808 90.62 110.619 90.2159 110.62 89.7949L110.681 66.107L110.666 66.1069Z" fill="#2D74DA"/>
<path opacity="0.2" d="M110.666 66.1069L159.812 66.2052L159.75 90.0412C159.75 90.2302 159.707 90.4173 159.625 90.5917C159.542 90.7662 159.421 90.9246 159.269 91.0579C159.118 91.1913 158.937 91.2969 158.739 91.3688C158.541 91.4408 158.328 91.4776 158.114 91.4771L112.417 91.3857C111.939 91.3848 111.482 91.2167 111.145 90.9183C110.808 90.62 110.619 90.2159 110.62 89.7949L110.681 66.107L110.666 66.1069Z" fill="white"/>
<path d="M110.669 66.0991L110.614 87.9933C110.613 88.4351 110.711 88.8727 110.902 89.2811C111.093 89.6896 111.373 90.0609 111.726 90.3739C112.08 90.6869 112.5 90.9355 112.963 91.1054C113.425 91.2752 113.921 91.3631 114.422 91.364L155.937 91.4467" fill="#F5F5F5"/>
<path d="M159.82 66.1958L159.765 88.1038C159.764 88.5455 159.664 88.9828 159.471 89.3905C159.279 89.7983 158.997 90.1686 158.642 90.4803C158.287 90.7921 157.865 91.0391 157.402 91.2073C156.939 91.3755 156.442 91.4616 155.941 91.4607L114.427 91.3781" fill="white"/>
<path d="M134.197 48.9702L112.325 63.1899C111.8 63.5155 111.376 63.9531 111.094 64.4617C110.812 64.9704 110.681 65.5337 110.712 66.0992L159.882 66.2369C159.882 64.6359 159.491 64.2159 158.679 63.6099L136.396 48.9771C136.08 48.7663 135.695 48.6516 135.298 48.6504C134.902 48.6492 134.515 48.7614 134.197 48.9702Z" fill="#2D74DA"/>
<path opacity="0.2" d="M134.197 48.9702L112.325 63.1899C111.8 63.5155 111.376 63.9531 111.094 64.4617C110.812 64.9704 110.681 65.5337 110.712 66.0992L159.882 66.2369C159.882 64.6359 159.491 64.2159 158.679 63.6099L136.396 48.9771C136.08 48.7663 135.695 48.6516 135.298 48.6504C134.902 48.6492 134.515 48.7614 134.197 48.9702Z" fill="black"/>
<path d="M154.496 53.9176L148.548 49.8066L134.171 65.858L126.445 60.5764L121.606 65.9992L132.851 73.5704L135.639 75.5433L154.496 53.9176Z" fill="url(#paint7_linear)"/>
<path d="M154.059 53.818L148.669 50.1753L134.386 66.5951L126.453 61.2343L122.317 65.9857L132.944 73.1609L135.671 74.9616L154.059 53.818Z" fill="white"/>
<path d="M108.166 106.668C106.073 109.58 102.757 111.643 98.9436 112.407C95.1301 113.17 91.1288 112.573 87.8134 110.745L50.904 89.5598C47.601 87.7141 45.2608 84.7913 44.3943 81.4297C43.5279 78.0681 44.2056 74.5408 46.2795 71.6182C48.3732 68.7066 51.6889 66.6436 55.5023 65.8798C59.3157 65.116 63.3171 65.7134 66.6325 67.5416L103.542 88.7266C106.845 90.5722 109.185 93.495 110.052 96.8567C110.918 100.218 110.24 103.746 108.166 106.668Z" fill="url(#paint8_linear)"/>
<path d="M106.205 105.553C104.245 108.28 101.14 110.212 97.5688 110.928C93.9975 111.643 90.2502 111.083 87.1454 109.371L52.5755 89.529C49.482 87.8009 47.2901 85.0638 46.4785 81.9156C45.6669 78.7674 46.3016 75.4641 48.244 72.7271C50.2044 70.0001 53.3094 68.0679 56.8807 67.3524C60.4519 66.637 64.1993 67.1965 67.3041 68.9088L101.874 88.7509C104.967 90.4791 107.159 93.2162 107.971 96.3644C108.783 99.5125 108.148 102.816 106.205 105.553Z" fill="#F6B9AD"/>
<path d="M100.635 141.656C98.5518 144.555 95.2516 146.609 91.4555 147.37C87.6595 148.131 83.6762 147.536 80.3761 145.716L51.2469 129.103C47.9584 127.267 45.6283 124.357 44.7654 121.011C43.9026 117.665 44.5772 114.153 46.642 111.244C48.7254 108.345 52.0257 106.291 55.8217 105.531C59.6178 104.77 63.601 105.365 66.9012 107.185L96.0264 123.801C99.3145 125.637 101.645 128.545 102.508 131.891C103.372 135.236 102.698 138.747 100.635 141.656Z" fill="url(#paint9_linear)"/>
<path d="M93.3243 176.823C91.2224 179.749 87.8923 181.822 84.0618 182.59C80.2313 183.357 76.2118 182.757 72.8816 180.921L54.8409 169.318C51.5223 167.465 49.1706 164.529 48.2997 161.153C47.4288 157.776 48.1095 154.233 50.193 151.297C52.2975 148.374 55.6287 146.303 59.459 145.538C63.2893 144.773 67.3075 145.375 70.6358 147.213L88.6765 158.813C91.9918 160.666 94.3412 163.599 95.212 166.974C96.0828 170.348 95.4042 173.889 93.3243 176.823Z" fill="url(#paint10_linear)"/>
<path d="M91.8669 175.959C89.9065 178.686 86.8015 180.619 83.2302 181.334C79.6589 182.049 75.9116 181.49 72.8068 179.778L55.9847 168.96C52.8912 167.232 50.6992 164.494 49.8877 161.346C49.0761 158.198 49.7108 154.895 51.6532 152.158C53.6136 149.431 56.7185 147.499 60.2898 146.783C63.8611 146.068 67.6085 146.627 70.7133 148.339L87.5354 159.157C90.6289 160.886 92.8208 163.623 93.6324 166.771C94.444 169.919 93.8093 173.222 91.8669 175.959Z" fill="#F6B9AD"/>
<path d="M175.439 111.406H95.7617V132.408H175.439V111.406Z" fill="url(#paint11_linear)"/>
<path d="M172.705 113.472H98.4956V128.621H172.705V113.472Z" fill="#69F0AE"/>
<path d="M310.598 73.8596L312 74.0524L311.781 73.8699H311.898L311.715 73.8148L286.292 52.561L280.121 61.1445L274.989 68.9739L277.367 69.301L276.313 73.5428L310.598 73.8596Z" fill="url(#paint12_linear)"/>
<path d="M281.188 61.5921L276.501 68.7571L310.872 73.6909L288.734 60.1013L281.188 61.5921Z" fill="#2D74DA"/>
<path opacity="0.2" d="M281.188 61.5921L276.501 68.7571L310.872 73.6909L288.734 60.1013L281.188 61.5921Z" fill="black"/>
<path d="M286.831 53.7422L310.871 73.6911L281.188 61.5923L286.831 53.7422Z" fill="#2D74DA"/>
<path d="M277.766 72.968L310.778 73.5224L279.961 63.875L277.766 72.968Z" fill="#2D74DA"/>
<path d="M99.0345 140.757C97.0741 143.484 93.9691 145.417 90.3978 146.132C86.8266 146.848 83.0792 146.288 79.9744 144.576L52.5716 128.944C49.4781 127.216 47.2862 124.479 46.4746 121.331C45.663 118.183 46.2977 114.879 48.2401 112.143C50.1974 109.413 53.3009 107.477 56.8724 106.758C60.444 106.039 64.193 106.596 67.3002 108.307L94.703 123.938C97.8019 125.667 99.9976 128.407 100.809 131.559C101.621 134.712 100.983 138.019 99.0345 140.757Z" fill="#F6B9AD"/>
</g>
<defs>
<linearGradient id="paint0_linear" x1="152.841" y1="247.302" x2="152.841" y2="147.72" gradientUnits="userSpaceOnUse">
<stop stop-color="#808080" stop-opacity="0.25"/>
<stop offset="0.54" stop-color="#808080" stop-opacity="0.12"/>
<stop offset="1" stop-color="#808080" stop-opacity="0.1"/>
</linearGradient>
<linearGradient id="paint1_linear" x1="30127.7" y1="15192.4" x2="30127.7" y2="7515.26" gradientUnits="userSpaceOnUse">
<stop stop-color="#808080" stop-opacity="0.25"/>
<stop offset="0.54" stop-color="#808080" stop-opacity="0.12"/>
<stop offset="1" stop-color="#808080" stop-opacity="0.1"/>
</linearGradient>
<linearGradient id="paint2_linear" x1="68692.3" y1="131095" x2="68692.3" y2="14487.9" gradientUnits="userSpaceOnUse">
<stop stop-color="#808080" stop-opacity="0.25"/>
<stop offset="0.54" stop-color="#808080" stop-opacity="0.12"/>
<stop offset="1" stop-color="#808080" stop-opacity="0.1"/>
</linearGradient>
<linearGradient id="paint3_linear" x1="36088.9" y1="57371.2" x2="36088.9" y2="30904.6" gradientUnits="userSpaceOnUse">
<stop stop-color="#808080" stop-opacity="0.25"/>
<stop offset="0.54" stop-color="#808080" stop-opacity="0.12"/>
<stop offset="1" stop-color="#808080" stop-opacity="0.1"/>
</linearGradient>
<linearGradient id="paint4_linear" x1="73789" y1="19871.8" x2="73789" y2="18232.5" gradientUnits="userSpaceOnUse">
<stop stop-color="#808080" stop-opacity="0.25"/>
<stop offset="0.54" stop-color="#808080" stop-opacity="0.12"/>
<stop offset="1" stop-color="#808080" stop-opacity="0.1"/>
</linearGradient>
<linearGradient id="paint5_linear" x1="135.26" y1="94.1908" x2="135.26" y2="45.9402" gradientUnits="userSpaceOnUse">
<stop stop-opacity="0.12"/>
<stop offset="0.55" stop-opacity="0.09"/>
<stop offset="1" stop-opacity="0.02"/>
</linearGradient>
<linearGradient id="paint6_linear" x1="27415.9" y1="15010.6" x2="27415.9" y2="9381.49" gradientUnits="userSpaceOnUse">
<stop stop-color="#808080" stop-opacity="0.25"/>
<stop offset="0.54" stop-color="#808080" stop-opacity="0.12"/>
<stop offset="1" stop-color="#808080" stop-opacity="0.1"/>
</linearGradient>
<linearGradient id="paint7_linear" x1="18158.8" y1="7574.71" x2="18162.7" y2="5648.84" gradientUnits="userSpaceOnUse">
<stop stop-opacity="0.12"/>
<stop offset="0.55" stop-opacity="0.09"/>
<stop offset="1" stop-opacity="0.02"/>
</linearGradient>
<linearGradient id="paint8_linear" x1="26339" y1="18929.2" x2="26339" y2="12464.7" gradientUnits="userSpaceOnUse">
<stop stop-color="#808080" stop-opacity="0.25"/>
<stop offset="0.54" stop-color="#808080" stop-opacity="0.12"/>
<stop offset="1" stop-color="#808080" stop-opacity="0.1"/>
</linearGradient>
<linearGradient id="paint9_linear" x1="22667.2" y1="21407.5" x2="22667.2" y2="16164.8" gradientUnits="userSpaceOnUse">
<stop stop-color="#808080" stop-opacity="0.25"/>
<stop offset="0.54" stop-color="#808080" stop-opacity="0.12"/>
<stop offset="1" stop-color="#808080" stop-opacity="0.1"/>
</linearGradient>
<linearGradient id="paint10_linear" x1="18254.6" y1="22905.2" x2="18254.6" y2="18775.8" gradientUnits="userSpaceOnUse">
<stop stop-color="#808080" stop-opacity="0.25"/>
<stop offset="0.54" stop-color="#808080" stop-opacity="0.12"/>
<stop offset="1" stop-color="#808080" stop-opacity="0.1"/>
</linearGradient>
<linearGradient id="paint11_linear" x1="27758.2" y1="8188.32" x2="27758.2" y2="6907.17" gradientUnits="userSpaceOnUse">
<stop stop-opacity="0.12"/>
<stop offset="0.55" stop-opacity="0.09"/>
<stop offset="1" stop-opacity="0.02"/>
</linearGradient>
<linearGradient id="paint12_linear" x1="25856" y1="22789.5" x2="26561.7" y2="21526.1" gradientUnits="userSpaceOnUse">
<stop stop-color="#808080" stop-opacity="0.25"/>
<stop offset="0.54" stop-color="#808080" stop-opacity="0.12"/>
<stop offset="1" stop-color="#808080" stop-opacity="0.1"/>
</linearGradient>
<clipPath id="clip0">
<rect width="312" height="260" fill="white"/>
</clipPath>
</defs>
</svg>
