<svg width="312" height="241" viewBox="0 0 312 241" fill="none" xmlns="http://www.w3.org/2000/svg">
<g clip-path="url(#clip0)">
<path opacity="0.1" d="M195.724 38.8081C182.734 47.0231 165.886 46.4886 151.124 42.2182C136.363 37.9478 122.799 30.3319 108.421 24.9217C96.3434 20.3837 83.7335 17.4142 70.9002 16.0861C52.5684 14.1905 32.0983 16.4978 19.3241 29.7789C5.09984 44.5715 6.19047 71.2535 21.576 84.8265C29.4009 91.7328 39.6498 95.1214 48.5868 100.513C57.5238 105.905 65.7911 114.86 65.0323 125.269C64.3287 134.903 56.1383 142.298 47.6621 146.937C41.1091 150.522 33.0384 154.436 32.2488 161.862C31.4869 169.048 38.2704 174.679 44.7496 177.88C65.8863 188.326 91.9263 188.224 112.98 177.616C120.492 173.831 127.398 168.799 135.275 165.85C155.96 158.105 178.75 165.902 200.651 168.753C219.249 171.161 238.137 169.918 256.258 165.094C267.103 162.2 277.991 157.776 285.61 149.533C291.103 143.588 294.519 136.068 297.742 128.642C301.169 120.72 304.462 112.743 307.622 104.71C309.521 99.8864 311.389 94.9709 311.877 89.8096C312.765 80.4609 309.026 71.2197 303.929 63.3273C291.825 44.5899 271.453 31.4164 249.395 28.0707C227.336 24.7251 203.991 31.2658 186.879 45.5608" fill="#2D74DA"/>
<path opacity="0.1" d="M41.702 240.716C64.7334 240.716 83.404 237.065 83.404 232.562C83.404 228.059 64.7334 224.409 41.702 224.409C18.6706 224.409 0 228.059 0 232.562C0 237.065 18.6706 240.716 41.702 240.716Z" fill="#2D74DA"/>
<path opacity="0.1" d="M165.588 223.687C213.867 223.687 253.004 220.036 253.004 215.533C253.004 211.03 213.867 207.379 165.588 207.379C117.309 207.379 78.1719 211.03 78.1719 215.533C78.1719 220.036 117.309 223.687 165.588 223.687Z" fill="#2D74DA"/>
<path d="M224.925 157.481C224.925 157.481 237.18 135.773 255.647 129.524C263.392 126.897 270.154 121.96 274.777 115.213C276.965 112.006 278.856 108.605 280.424 105.054" stroke="#535461" stroke-width="2" stroke-miterlimit="10"/>
<path d="M292.015 101.041C289.911 103.081 280.117 105.192 280.117 105.192C280.117 105.192 282.522 95.4684 284.624 93.4254C285.634 92.4452 286.992 91.9063 288.399 91.9274C289.806 91.9484 291.147 92.5276 292.127 93.5375C293.108 94.5475 293.647 95.9054 293.626 97.3127C293.604 98.7199 293.025 100.061 292.015 101.041Z" fill="#2D74DA"/>
<path d="M286.476 118.642C283.601 119.21 274.233 115.659 274.233 115.659C274.233 115.659 281.536 108.802 284.409 108.23C285.099 108.078 285.812 108.064 286.508 108.191C287.203 108.318 287.867 108.582 288.458 108.969C289.05 109.355 289.559 109.856 289.955 110.442C290.351 111.027 290.625 111.686 290.763 112.38C290.901 113.073 290.899 113.787 290.757 114.479C290.615 115.172 290.336 115.829 289.937 116.412C289.537 116.996 289.026 117.494 288.431 117.876C287.837 118.259 287.172 118.52 286.476 118.642Z" fill="#2D74DA"/>
<path d="M266.291 137.687C263.527 136.728 257.229 128.934 257.229 128.934C257.229 128.934 266.995 126.697 269.763 127.656C270.437 127.871 271.062 128.219 271.599 128.68C272.137 129.14 272.577 129.703 272.894 130.336C273.211 130.969 273.398 131.659 273.444 132.365C273.491 133.072 273.395 133.78 273.164 134.449C272.932 135.118 272.569 135.734 272.096 136.26C271.623 136.787 271.05 137.213 270.41 137.515C269.769 137.817 269.075 137.987 268.368 138.017C267.661 138.046 266.955 137.934 266.291 137.687Z" fill="#2D74DA"/>
<path d="M247.794 148.657C244.903 148.181 237.382 141.557 237.382 141.557C237.382 141.557 246.63 137.705 249.521 138.178C250.208 138.291 250.866 138.539 251.458 138.907C252.05 139.275 252.564 139.755 252.969 140.322C253.375 140.888 253.666 141.529 253.824 142.207C253.983 142.886 254.006 143.589 253.892 144.276C253.779 144.964 253.531 145.622 253.163 146.214C252.796 146.806 252.315 147.319 251.749 147.725C251.182 148.131 250.542 148.422 249.863 148.58C249.185 148.738 248.481 148.761 247.794 148.648V148.657Z" fill="#2D74DA"/>
<path d="M266.064 108.071C266.064 111.001 271.367 119.502 271.367 119.502C271.367 119.502 276.676 111.005 276.679 108.074C276.646 106.688 276.072 105.371 275.08 104.403C274.088 103.435 272.758 102.893 271.372 102.893C269.986 102.893 268.655 103.435 267.663 104.403C266.672 105.371 266.098 106.688 266.064 108.074V108.071Z" fill="#2D74DA"/>
<path d="M244.584 121.167C245.459 123.963 253.06 130.489 253.06 130.489C253.06 130.489 255.585 120.793 254.709 117.997C254.289 116.653 253.352 115.53 252.104 114.877C250.856 114.224 249.399 114.093 248.055 114.513C246.711 114.934 245.588 115.871 244.935 117.119C244.282 118.367 244.151 119.823 244.571 121.167H244.584Z" fill="#2D74DA"/>
<path d="M225.45 136.771C225.84 139.677 232.234 147.391 232.234 147.391C232.234 147.391 236.359 138.264 235.969 135.358C235.782 133.963 235.048 132.699 233.929 131.845C232.81 130.992 231.398 130.617 230.003 130.805C228.608 130.992 227.345 131.726 226.491 132.845C225.637 133.964 225.263 135.376 225.45 136.771Z" fill="#2D74DA"/>
<path opacity="0.25" d="M292.015 101.041C289.911 103.081 280.117 105.192 280.117 105.192C280.117 105.192 282.522 95.4684 284.624 93.4254C285.634 92.4452 286.992 91.9063 288.399 91.9274C289.806 91.9484 291.147 92.5276 292.127 93.5375C293.108 94.5475 293.647 95.9054 293.626 97.3127C293.604 98.7199 293.025 100.061 292.015 101.041Z" fill="black"/>
<path opacity="0.25" d="M286.476 118.642C283.601 119.21 274.233 115.659 274.233 115.659C274.233 115.659 281.536 108.802 284.409 108.23C285.099 108.078 285.812 108.064 286.508 108.191C287.203 108.318 287.867 108.582 288.458 108.969C289.05 109.355 289.559 109.856 289.955 110.442C290.351 111.027 290.625 111.686 290.763 112.38C290.901 113.073 290.899 113.787 290.757 114.479C290.615 115.172 290.336 115.829 289.937 116.412C289.537 116.996 289.026 117.494 288.431 117.876C287.837 118.259 287.172 118.52 286.476 118.642Z" fill="black"/>
<path opacity="0.25" d="M266.291 137.687C263.527 136.728 257.229 128.934 257.229 128.934C257.229 128.934 266.995 126.697 269.763 127.656C270.437 127.871 271.062 128.219 271.599 128.68C272.137 129.14 272.577 129.703 272.894 130.336C273.211 130.969 273.398 131.659 273.444 132.365C273.491 133.072 273.395 133.78 273.164 134.449C272.932 135.118 272.569 135.734 272.096 136.26C271.623 136.787 271.05 137.213 270.41 137.515C269.769 137.817 269.075 137.987 268.368 138.017C267.661 138.046 266.955 137.934 266.291 137.687Z" fill="black"/>
<path opacity="0.25" d="M247.794 148.657C244.903 148.181 237.382 141.557 237.382 141.557C237.382 141.557 246.63 137.705 249.521 138.178C250.208 138.291 250.866 138.539 251.458 138.907C252.05 139.275 252.564 139.755 252.969 140.322C253.375 140.888 253.666 141.529 253.824 142.207C253.983 142.886 254.006 143.589 253.892 144.276C253.779 144.964 253.531 145.622 253.163 146.214C252.796 146.806 252.315 147.319 251.749 147.725C251.182 148.131 250.542 148.422 249.863 148.58C249.185 148.738 248.481 148.761 247.794 148.648V148.657Z" fill="black"/>
<path opacity="0.25" d="M266.064 108.071C266.064 111.001 271.367 119.502 271.367 119.502C271.367 119.502 276.676 111.005 276.679 108.074C276.646 106.688 276.072 105.371 275.08 104.403C274.088 103.435 272.758 102.893 271.372 102.893C269.986 102.893 268.655 103.435 267.663 104.403C266.672 105.371 266.098 106.688 266.064 108.074V108.071Z" fill="black"/>
<path opacity="0.25" d="M244.584 121.167C245.459 123.963 253.06 130.489 253.06 130.489C253.06 130.489 255.585 120.793 254.709 117.997C254.289 116.653 253.352 115.53 252.104 114.877C250.856 114.224 249.399 114.093 248.055 114.513C246.711 114.934 245.588 115.871 244.935 117.119C244.282 118.367 244.151 119.823 244.571 121.167H244.584Z" fill="black"/>
<path opacity="0.25" d="M225.45 136.771C225.84 139.677 232.234 147.391 232.234 147.391C232.234 147.391 236.359 138.264 235.969 135.358C235.782 133.963 235.048 132.699 233.929 131.845C232.81 130.992 231.398 130.617 230.003 130.805C228.608 130.992 227.345 131.726 226.491 132.845C225.637 133.964 225.263 135.376 225.45 136.771Z" fill="black"/>
<path d="M225.631 157.047C225.631 157.047 228.037 132.236 242.372 119.041C248.42 113.543 252.523 106.233 254.065 98.2056C254.765 94.389 255.115 90.5162 255.109 86.6357" stroke="#535461" stroke-width="2" stroke-miterlimit="10"/>
<path d="M264.095 78.2702C262.998 80.9891 254.9 86.8724 254.9 86.8724C254.9 86.8724 253.155 77.0076 254.252 74.2764C254.819 73.0331 255.843 72.0564 257.112 71.5499C258.381 71.0433 259.797 71.046 261.064 71.5572C262.331 72.0684 263.353 73.0489 263.915 74.2943C264.477 75.5397 264.537 76.954 264.083 78.2426L264.095 78.2702Z" fill="#2D74DA"/>
<path d="M266.16 96.5994C263.763 98.286 253.76 98.8359 253.76 98.8359C253.76 98.8359 257.659 89.6194 260.055 87.9204C261.207 87.1285 262.624 86.8229 263.999 87.0699C265.375 87.3169 266.597 88.0966 267.401 89.2396C268.205 90.3827 268.526 91.7968 268.293 93.1748C268.061 94.5528 267.294 95.7834 266.16 96.5994Z" fill="#2D74DA"/>
<path d="M255.435 122.184C252.516 122.43 243.604 117.856 243.604 117.856C243.604 117.856 251.625 111.856 254.547 111.61C255.241 111.552 255.94 111.631 256.604 111.843C257.268 112.054 257.883 112.395 258.415 112.845C258.948 113.294 259.386 113.845 259.706 114.464C260.025 115.083 260.22 115.759 260.278 116.453C260.336 117.148 260.257 117.847 260.045 118.51C259.833 119.174 259.493 119.79 259.043 120.322C258.593 120.854 258.043 121.293 257.424 121.612C256.805 121.932 256.129 122.126 255.435 122.184Z" fill="#2D74DA"/>
<path d="M242.962 139.714C240.126 140.449 230.568 137.447 230.568 137.447C230.568 137.447 237.462 130.175 240.298 129.441C241.66 129.088 243.107 129.29 244.32 130.004C245.533 130.717 246.413 131.883 246.766 133.246C247.12 134.608 246.917 136.055 246.204 137.268C245.49 138.481 244.324 139.361 242.962 139.714Z" fill="#2D74DA"/>
<path d="M243.213 95.198C244.402 97.877 252.694 103.493 252.694 103.493C252.694 103.493 254.104 93.5759 252.919 90.8969C252.348 89.61 251.29 88.6023 249.977 88.0956C248.663 87.5888 247.202 87.6246 245.915 88.1949C244.629 88.7653 243.621 89.8235 243.114 91.1369C242.607 92.4502 242.643 93.911 243.213 95.198Z" fill="#2D74DA"/>
<path d="M228.885 115.887C230.82 118.086 240.415 120.971 240.415 120.971C240.415 120.971 238.792 111.085 236.86 108.882C235.931 107.823 234.62 107.176 233.214 107.084C231.808 106.991 230.423 107.462 229.364 108.39C228.305 109.319 227.658 110.631 227.566 112.037C227.473 113.442 227.943 114.827 228.872 115.887H228.885Z" fill="#2D74DA"/>
<path d="M217.717 137.905C219.253 140.402 228.221 144.866 228.221 144.866C228.221 144.866 228.295 134.848 226.762 132.35C226.025 131.151 224.842 130.293 223.474 129.966C222.105 129.639 220.662 129.868 219.462 130.605C218.263 131.342 217.405 132.524 217.078 133.893C216.751 135.262 216.981 136.705 217.717 137.905Z" fill="#2D74DA"/>
<path d="M86.5869 0V8.41167V216.731H242.47V8.41167V0H86.5869Z" fill="url(#paint0_linear)"/>
<path d="M241.103 1.90186H87.9541V10.163H241.103V1.90186Z" fill="#F6F7F9"/>
<g opacity="0.2">
<path opacity="0.2" d="M241.103 1.90186H87.9541V10.163H241.103V1.90186Z" fill="#2D74DA"/>
</g>
<path d="M241.103 10.1626H87.9541V214.829H241.103V10.1626Z" fill="#F6F7F9"/>
<path d="M91.9815 7.43173C92.7552 7.43173 93.3824 6.80451 93.3824 6.0308C93.3824 5.2571 92.7552 4.62988 91.9815 4.62988C91.2078 4.62988 90.5806 5.2571 90.5806 6.0308C90.5806 6.80451 91.2078 7.43173 91.9815 7.43173Z" fill="#F6F7F9"/>
<path d="M95.7789 7.43173C96.5526 7.43173 97.1798 6.80451 97.1798 6.0308C97.1798 5.2571 96.5526 4.62988 95.7789 4.62988C95.0051 4.62988 94.3779 5.2571 94.3779 6.0308C94.3779 6.80451 95.0051 7.43173 95.7789 7.43173Z" fill="#F6F7F9"/>
<path d="M99.5762 7.43173C100.35 7.43173 100.977 6.80451 100.977 6.0308C100.977 5.2571 100.35 4.62988 99.5762 4.62988C98.8025 4.62988 98.1753 5.2571 98.1753 6.0308C98.1753 6.80451 98.8025 7.43173 99.5762 7.43173Z" fill="#F6F7F9"/>
<g opacity="0.2">
<path opacity="0.2" d="M213.767 22.7803H115.288V26.6359H213.767V22.7803Z" fill="#2D74DA"/>
</g>
<path d="M213.767 22.7803H200.682V26.6359H213.767V22.7803Z" fill="#2D74DA"/>
<g opacity="0.2">
<path opacity="0.2" d="M163.146 101.573H101.174V145.963H163.146V101.573Z" fill="#2D74DA"/>
</g>
<g opacity="0.2">
<path opacity="0.2" d="M163.146 43.9907H101.174V88.3809H163.146V43.9907Z" fill="#2D74DA"/>
</g>
<g opacity="0.2">
<path opacity="0.2" d="M163.146 158.406H101.174V202.796H163.146V158.406Z" fill="#2D74DA"/>
</g>
<g opacity="0.2">
<path opacity="0.2" d="M227.883 101.573H165.911V145.963H227.883V101.573Z" fill="#2D74DA"/>
</g>
<g opacity="0.2">
<path opacity="0.2" d="M227.883 43.9907H165.911V88.3809H227.883V43.9907Z" fill="#2D74DA"/>
</g>
<g opacity="0.2">
<path opacity="0.2" d="M227.883 158.406H165.911V202.796H227.883V158.406Z" fill="#2D74DA"/>
</g>
<path d="M286.197 194.931C286.197 194.931 288.39 197.797 285.186 202.123C281.982 206.448 279.349 210.11 280.409 212.802C280.409 212.802 285.241 204.765 289.177 204.654C293.112 204.544 290.526 199.763 286.197 194.931Z" fill="#3ACC6C"/>
<path opacity="0.1" d="M286.197 194.931C286.388 195.207 286.539 195.509 286.645 195.828C290.486 200.338 292.529 204.547 288.839 204.654C285.404 204.752 281.278 210.897 280.292 212.448C280.324 212.568 280.363 212.686 280.409 212.802C280.409 212.802 285.241 204.765 289.177 204.654C293.112 204.544 290.526 199.763 286.197 194.931Z" fill="black"/>
<path d="M290.274 198.584C290.274 199.591 290.16 200.409 290.022 200.409C289.883 200.409 289.767 199.591 289.767 198.584C289.767 197.576 289.908 198.049 290.049 198.049C290.191 198.049 290.274 197.573 290.274 198.584Z" fill="#FFD037"/>
<path d="M291.671 199.788C290.786 200.271 290.012 200.562 289.948 200.439C289.883 200.317 290.544 199.825 291.428 199.343C292.313 198.86 291.966 199.214 292.043 199.343C292.12 199.472 292.556 199.315 291.671 199.788Z" fill="#FFD037"/>
<path d="M274.621 194.931C274.621 194.931 272.427 197.797 275.632 202.123C278.836 206.448 281.469 210.11 280.409 212.802C280.409 212.802 275.576 204.765 271.641 204.654C267.705 204.544 270.286 199.763 274.621 194.931Z" fill="#3ACC6C"/>
<path opacity="0.1" d="M274.621 194.931C274.429 195.207 274.278 195.509 274.172 195.828C270.332 200.338 268.289 204.547 271.979 204.654C275.416 204.752 279.539 210.897 280.526 212.448C280.495 212.569 280.456 212.687 280.409 212.802C280.409 212.802 275.576 204.765 271.641 204.654C267.705 204.544 270.286 199.763 274.621 194.931Z" fill="black"/>
<path d="M270.544 198.584C270.544 199.591 270.658 200.409 270.799 200.409C270.94 200.409 271.051 199.591 271.051 198.584C271.051 197.576 270.91 198.049 270.771 198.049C270.633 198.049 270.544 197.573 270.544 198.584Z" fill="#FFD037"/>
<path d="M269.146 199.788C270.034 200.271 270.805 200.562 270.873 200.439C270.94 200.317 270.273 199.825 269.389 199.343C268.504 198.86 268.851 199.214 268.774 199.343C268.697 199.472 268.261 199.315 269.146 199.788Z" fill="#FFD037"/>
<path opacity="0.1" d="M280.409 234.731C293.066 234.731 303.327 233.156 303.327 231.213C303.327 229.271 293.066 227.696 280.409 227.696C267.751 227.696 257.49 229.271 257.49 231.213C257.49 233.156 267.751 234.731 280.409 234.731Z" fill="#2D74DA"/>
<path d="M292.206 208.94L292.095 209.834L291.942 211.1L291.877 211.625L291.724 212.891L291.656 213.419L291.502 214.682L289.748 229.06C289.592 230.344 287.496 231.343 284.965 231.343H275.853C273.321 231.343 271.244 230.344 271.072 229.06L269.315 214.676L269.161 213.413L269.097 212.885L268.94 211.619L268.876 211.094L268.722 209.828L268.611 208.934C268.525 208.224 269.671 207.61 271.091 207.61H289.73C291.158 207.61 292.295 208.224 292.206 208.94Z" fill="#65617D"/>
<path d="M292.095 209.834L291.942 211.097H268.876L268.722 209.834H292.095Z" fill="#9D9CB5"/>
<path d="M291.877 211.625L291.724 212.891H269.097L268.94 211.625H291.877Z" fill="#9D9CB5"/>
<path d="M291.656 213.417L291.502 214.682H269.315L269.161 213.417H291.656Z" fill="#9D9CB5"/>
<path d="M181.754 52.5683C181.754 52.5683 181.192 51.1643 184.983 51.5146C188.774 51.8648 199.659 53.0752 204.366 52.0153C209.072 50.9554 211.877 50.6175 211.598 52.0153C211.318 53.4132 203.453 56.5714 203.453 56.5714L193.269 57.6252L185.757 56.4301L181.724 54.043L181.754 52.5683Z" fill="#2D74DA"/>
<path opacity="0.1" d="M211.607 52.0154C211.324 53.4132 203.462 56.5714 203.462 56.5714L193.278 57.6252L185.767 56.4332L181.736 54.0461L181.763 52.5714C181.724 52.4499 181.724 52.3193 181.763 52.1976C181.801 52.076 181.877 51.9693 181.979 51.8925C182.326 51.5853 183.137 51.3456 184.992 51.5177C188.786 51.8679 199.668 53.0753 204.375 52.0154C208.209 51.1521 210.783 50.7681 211.441 51.4009C211.522 51.4784 211.58 51.5767 211.61 51.685C211.639 51.7933 211.638 51.9076 211.607 52.0154Z" fill="black"/>
<path d="M217.659 73.2842C211.106 74.5457 204.926 77.2826 199.588 81.2873C199.318 80.5687 198.81 79.9646 198.148 79.576C197.695 79.2956 197.202 79.0883 196.685 78.9616C196.215 78.8418 195.764 79.1275 195.349 79.5392C194.872 80.0671 194.471 80.6598 194.16 81.2995C186.999 76.384 176.135 73.2473 176.135 73.2473V72.2642C176.135 72.0707 176.169 71.8372 176.206 71.573C176.243 71.3088 176.289 71.0753 176.347 70.7895C177.269 66.1014 180.913 55.3886 180.913 55.3886H182.04H185.032L193.02 57.0476L202.006 56.4977L211.057 54.6144L212.23 54.3687C214.187 55.9048 216.409 66.6574 217.281 71.235C217.392 71.8157 217.478 72.2949 217.542 72.6482C217.619 73.0476 217.659 73.2842 217.659 73.2842Z" fill="#2D74DA"/>
<path d="M177.622 71.2534C177.859 66.7527 181.435 56.9984 182.04 55.3794H180.913C180.913 55.3794 177.054 66.7465 176.271 71.1828C176.269 71.194 176.269 71.2054 176.271 71.2166C176.249 71.3364 176.228 71.4531 176.212 71.5637C176.175 71.8279 176.151 72.0614 176.142 72.255V73.2381C176.142 73.2381 187.005 76.3779 194.166 81.2903C194.478 80.6505 194.878 80.0579 195.355 79.5299C192.618 77.0415 182.237 72.9862 177.622 71.2534Z" fill="#2D74DA"/>
<path d="M217.542 72.636C217.514 72.4793 217.481 72.2981 217.444 72.0984C217.398 71.8403 217.342 71.5485 217.281 71.2228C216.408 66.6391 214.187 55.8833 212.23 54.3564L211.057 54.6022C211.769 56.5162 216.362 69.0139 215.972 71.4532C208.292 72.9893 200.507 77.9816 198.153 79.5761C198.815 79.9647 199.324 80.5687 199.594 81.2873C204.932 77.2826 211.112 74.5458 217.665 73.2842C217.665 73.2842 217.619 73.0477 217.542 72.636Z" fill="#2D74DA"/>
<path opacity="0.1" d="M177.905 70.9706C178.139 66.4698 181.718 56.7156 182.323 55.0996H181.192C181.192 55.0996 177.334 66.4667 176.55 70.8999C176.55 70.8999 176.55 70.9245 176.55 70.9337C176.528 71.0566 176.509 71.1733 176.495 71.2839C176.458 71.5481 176.434 71.7816 176.424 71.9752V72.9583C176.424 72.9583 187.285 76.095 194.449 81.0105C194.758 80.37 195.157 79.7772 195.635 79.2501C192.897 76.7678 182.52 72.7033 177.905 70.9706Z" fill="black"/>
<path d="M177.622 71.2534C177.859 66.7527 181.435 56.9984 182.04 55.3794H180.913C180.913 55.3794 177.054 66.7465 176.271 71.1828C176.269 71.194 176.269 71.2054 176.271 71.2166C176.249 71.3364 176.228 71.4531 176.212 71.5637C176.175 71.8279 176.151 72.0614 176.142 72.255V73.2381C176.142 73.2381 187.005 76.3779 194.166 81.2903C194.478 80.6505 194.878 80.0579 195.355 79.5299C192.618 77.0415 182.237 72.9862 177.622 71.2534Z" fill="#2D74DA"/>
<path opacity="0.1" d="M217.263 72.3533L217.165 71.8157C217.116 71.5576 217.063 71.2688 217.002 70.9401C216.132 66.3595 213.908 55.6037 211.951 54.0737L210.781 54.3226C211.493 56.2366 216.086 68.7343 215.696 71.1736C208.016 72.7097 200.228 77.702 197.877 79.2934C198.54 79.6831 199.048 80.2882 199.318 81.0077C204.654 77.0009 210.833 74.2629 217.386 73.0015C217.386 73.0015 217.34 72.7711 217.263 72.3533Z" fill="black"/>
<path d="M217.542 72.636C217.514 72.4793 217.481 72.2981 217.444 72.0984C217.398 71.8403 217.342 71.5485 217.281 71.2228C216.408 66.6391 214.187 55.8833 212.23 54.3564L211.057 54.6022C211.769 56.5162 216.362 69.0139 215.972 71.4532C208.292 72.9893 200.507 77.9816 198.153 79.5761C198.815 79.9647 199.324 80.5687 199.594 81.2873C204.932 77.2826 211.112 74.5458 217.665 73.2842C217.665 73.2842 217.619 73.0477 217.542 72.636Z" fill="#2D74DA"/>
<path opacity="0.1" d="M180.292 60.934C180.292 60.934 187.419 65.4194 189.085 58.8511L190.67 59.275C190.67 59.275 191.192 66.5531 179.819 62.3995L180.292 60.934Z" fill="black"/>
<path d="M180.292 60.3715C180.292 60.3715 187.419 64.8569 189.085 58.2886L190.67 58.7125C190.67 58.7125 191.192 65.9906 179.819 61.837L180.292 60.3715Z" fill="#2D74DA"/>
<path opacity="0.1" d="M202.719 59.0631C202.719 59.0631 203.64 64.4302 213.407 61.828L213.063 60.8142C213.063 60.8142 206.393 63.5792 203.975 58.7773L202.719 59.0631Z" fill="black"/>
<path d="M202.719 58.5006C202.719 58.5006 203.64 63.8677 213.407 61.2655L213.063 60.2517C213.063 60.2517 206.393 63.0167 203.975 58.2148L202.719 58.5006Z" fill="#2D74DA"/>
<path opacity="0.1" d="M196.218 58.9923V70.1936H197.951C197.951 70.1936 200.347 69.3303 200.292 64.295C200.237 59.2596 199.871 57.9048 199.871 57.9048L196.218 58.9923Z" fill="black"/>
<path d="M195.938 58.7126V69.9138H197.671C197.671 69.9138 200.068 69.0505 200.012 64.0152C199.957 58.9798 199.588 57.625 199.588 57.625L195.938 58.7126Z" fill="#2D74DA"/>
<path opacity="0.1" d="M212.221 54.9217C211.515 56.2366 205.1 58.3964 203.966 58.7681L203.794 58.8234C203.794 58.8234 203.389 58.9279 202.71 59.0692C200.645 59.4993 196.043 60.2981 192.571 59.5976C192.068 59.4993 191.545 59.3918 191.014 59.2904L189.785 59.0231C185.791 58.1353 181.659 56.974 180.925 55.9509C180.925 55.9509 181.124 52.6114 181.797 52.7005C182.47 52.7896 189.982 55.9509 189.982 55.9509L190.089 55.9663C190.283 55.9909 190.722 56.0462 191.34 56.1168C193.779 56.3841 198.919 56.8081 201.684 56.0677C201.816 56.0308 201.939 55.9939 202.058 55.9509C202.267 55.8803 202.485 55.8065 202.71 55.7236C206.267 54.464 211.595 52.209 211.595 52.209C211.595 52.209 213.002 53.4747 212.221 54.9217Z" fill="black"/>
<path opacity="0.1" d="M211.607 52.0152C211.324 53.4131 203.462 56.5713 203.462 56.5713L193.278 57.6251L185.767 56.4331L181.736 54.046L181.763 52.5713C181.724 52.4498 181.724 52.3192 181.763 52.1975C181.801 52.0758 181.877 51.9692 181.979 51.8923C183.315 52.2979 189.966 55.0966 189.966 55.0966L190.074 55.112C190.267 55.1366 190.707 55.1919 191.324 55.2625C193.763 55.5298 198.903 55.9538 201.668 55.2134C201.8 55.1765 201.923 55.1397 202.043 55.0966C202.252 55.0291 202.47 54.9523 202.694 54.8693C205.911 53.7295 210.578 51.7756 211.441 51.4131C211.52 51.4895 211.577 51.5856 211.606 51.6915C211.635 51.7974 211.635 51.9092 211.607 52.0152Z" fill="black"/>
<path d="M212.221 54.3564C211.515 55.6713 205.1 57.828 203.966 58.1998L203.794 58.2581C203.794 58.2581 203.389 58.3595 202.71 58.5008C200.645 58.9309 196.043 59.7297 192.571 59.0293C192.068 58.9309 191.545 58.8234 191.014 58.722L189.785 58.4548C185.791 57.5669 181.659 56.4056 180.925 55.3826C180.925 55.3826 181.124 52.0431 181.797 52.1352C182.47 52.2274 189.982 55.3826 189.982 55.3826L190.089 55.3979C190.283 55.4225 190.722 55.4809 191.34 55.5485C193.779 55.8157 198.919 56.2397 201.684 55.4993C201.816 55.4624 201.939 55.4256 202.058 55.3826C202.267 55.315 202.485 55.2382 202.71 55.1552C206.267 53.8956 211.595 51.6406 211.595 51.6406C211.595 51.6406 213.002 52.9156 212.221 54.3564Z" fill="#2D74DA"/>
<path opacity="0.1" d="M197.434 59.0291C198.055 59.0291 198.559 58.5257 198.559 57.9047C198.559 57.2837 198.055 56.7803 197.434 56.7803C196.813 56.7803 196.31 57.2837 196.31 57.9047C196.31 58.5257 196.813 59.0291 197.434 59.0291Z" fill="black"/>
<path d="M197.434 58.7464C198.055 58.7464 198.559 58.243 198.559 57.622C198.559 57.001 198.055 56.4976 197.434 56.4976C196.813 56.4976 196.31 57.001 196.31 57.622C196.31 58.243 196.813 58.7464 197.434 58.7464Z" fill="#2D74DA"/>
<path opacity="0.1" d="M191.607 55.5363L191.3 58.7068L190.071 58.4395L190.378 55.3857C190.55 55.4165 190.992 55.4748 191.607 55.5363Z" fill="black"/>
<path d="M191.33 55.5363L191.023 58.7068L189.794 58.4395L190.101 55.3857C190.27 55.4165 190.716 55.4748 191.33 55.5363Z" fill="#2D74DA"/>
<path opacity="0.1" d="M203.693 58.1996L203.521 58.258C203.521 58.258 203.118 58.3594 202.436 58.5007L201.389 55.493C201.521 55.4561 201.647 55.4193 201.767 55.3763C201.975 55.3087 202.194 55.2319 202.418 55.1489L203.693 58.1996Z" fill="black"/>
<path d="M203.976 58.1996L203.804 58.258C203.804 58.258 203.398 58.3594 202.719 58.5007L201.671 55.493C201.803 55.4561 201.926 55.4193 202.046 55.3763C202.255 55.3087 202.473 55.2319 202.698 55.1489L203.976 58.1996Z" fill="#2D74DA"/>
<g opacity="0.5">
<path opacity="0.5" d="M124.737 50.006C126.174 50.0154 127.583 50.4066 128.82 51.1396C128.82 51.1396 132.562 51.5943 134.602 51.1396C136.642 50.6849 137.674 49.0997 138.061 49.5513C138.448 50.0029 138.457 54.2579 138.457 54.2579L136.7 58.9645L132.731 61.9107L126.439 60.0981L124.356 54.774L124.737 50.006Z" fill="#2D74DA"/>
<path opacity="0.1" d="M138.457 54.264L136.7 58.9706L132.731 61.9168L126.439 60.1042L124.356 54.774L124.752 50.0121H124.844C126.25 50.0478 127.624 50.4389 128.838 51.1488C128.838 51.1488 132.58 51.6035 134.62 51.1488C136.559 50.7187 137.579 49.2624 138 49.5082C138.024 49.5198 138.046 49.5365 138.064 49.5574C138.457 50.0059 138.457 54.264 138.457 54.264Z" fill="black"/>
<path opacity="0.1" d="M138.457 54.2639L136.7 58.9705L132.731 61.9168L126.439 60.1042L124.356 54.7739L124.752 50.012H124.844C125.195 51.5143 126.688 56.2578 131.444 56.5926C136.334 56.9337 137.723 51.1149 138.012 49.5112C138.037 49.5228 138.059 49.5396 138.076 49.5604C138.457 50.0059 138.457 54.2639 138.457 54.2639Z" fill="black"/>
<path opacity="0.5" d="M124.737 50.006C124.737 50.006 125.757 56.6388 131.428 57.0351C137.1 57.4315 138.061 49.5513 138.061 49.5513C138.061 49.5513 146.282 52.2456 148.2 57.0505C150.117 61.8554 151.545 65.711 151.545 65.711C151.545 65.711 150.931 66.7863 150.239 66.9C149.548 67.0136 144.854 70.2456 144.854 70.2456C144.854 70.2456 144.799 79.4315 145.309 79.9968C145.819 80.562 145.65 83.0014 144.117 82.8877C142.584 82.774 131.985 80.3931 122.918 82.3777C122.918 82.3777 119.121 83.7387 119.232 81.5267C119.342 79.3147 119.514 70.6419 119.514 70.6419C119.514 70.6419 113.788 68.1473 113.45 68.1473C113.112 68.1473 112.258 67.6987 113.164 66.221C114.071 64.7433 115.207 59.7018 115.207 59.7018C115.207 59.7018 117.481 52.4637 124.737 50.006Z" fill="#2D74DA"/>
<path opacity="0.1" d="M142.369 61.917C142.369 61.917 144.071 63.1643 143.674 64.129C143.278 65.0936 142.369 61.917 142.369 61.917Z" fill="black"/>
<path opacity="0.1" d="M144.863 63.1152C144.705 63.6684 144.705 64.2549 144.863 64.808V63.1152Z" fill="black"/>
<path opacity="0.1" d="M145.997 66.2271C145.997 66.2271 146.224 67.7631 145.545 67.926L145.997 66.2271Z" fill="black"/>
<path opacity="0.1" d="M122.866 61.5205C122.866 61.5205 119.693 64.2855 120.768 65.3761L122.866 61.5205Z" fill="black"/>
<path opacity="0.1" d="M120.881 68.2119C120.881 68.2119 120.829 71.1029 121.705 71.3302L120.881 68.2119Z" fill="black"/>
<path opacity="0.1" d="M130.009 77.9046C130.009 77.9046 132.159 76.433 132.731 76.4883L130.009 77.9046Z" fill="black"/>
<path opacity="0.1" d="M132.16 79.4374C132.16 79.4374 134.488 77.7907 135.112 77.9013L132.16 79.4374Z" fill="black"/>
</g>
<g opacity="0.5">
<path opacity="0.5" d="M182.728 105.812C182.728 105.812 201.278 106.691 210.501 106.15L210.298 108.584L193.978 110.734L189.149 109.247L182.728 105.812Z" fill="#2D74DA"/>
<path opacity="0.1" d="M210.513 106.15L210.31 108.584L193.994 110.734L189.161 109.247L182.728 105.812C182.728 105.812 183.109 105.834 183.788 105.862C187.813 106.037 202.304 106.602 210.261 106.169L210.513 106.15Z" fill="black"/>
<path opacity="0.5" d="M216.934 140.75C213.352 142.9 200.919 140.817 200.919 140.817L197.472 128.528L193.619 141.029C188.148 142.989 176.86 140.15 176.86 140.15L181.254 113.115L182.012 109.389L182.728 105.812L189.69 107.908C189.69 107.908 191.782 109.327 200.501 108.922C209.22 108.516 210.501 106.157 210.501 106.157C210.885 106.267 211.251 107.622 211.619 109.306C212.154 111.763 212.698 114.915 213.34 115.957C214.433 117.708 216.934 140.75 216.934 140.75Z" fill="#2D74DA"/>
<path opacity="0.1" d="M211.631 109.57C203.859 113.837 197.167 113.72 197.167 113.72C195.511 113.923 182.012 109.656 182.012 109.656L182.728 106.083L189.69 108.178C189.69 108.178 191.782 109.598 200.501 109.192C209.22 108.787 210.501 106.427 210.501 106.427C210.897 106.535 211.263 107.886 211.631 109.57Z" fill="black"/>
<path opacity="0.1" d="M210.513 106.15L210.31 108.584L193.994 110.734L189.161 109.247L182.728 105.812C182.728 105.812 183.109 105.834 183.788 105.862L189.687 107.637C189.687 107.637 191.779 109.057 200.498 108.651C207.346 108.344 209.607 106.808 210.261 106.166L210.513 106.15Z" fill="black"/>
<path opacity="0.5" d="M211.631 109.299C203.859 113.567 197.167 113.45 197.167 113.45C195.511 113.653 182.012 109.385 182.012 109.385L182.728 105.812L189.69 107.908C189.69 107.908 191.782 109.327 200.501 108.922C209.22 108.516 210.501 106.157 210.501 106.157C210.897 106.261 211.263 107.616 211.631 109.299Z" fill="#2D74DA"/>
<path opacity="0.1" d="M198.486 112.805C198.877 112.805 199.195 112.487 199.195 112.095C199.195 111.703 198.877 111.385 198.486 111.385C198.094 111.385 197.776 111.703 197.776 112.095C197.776 112.487 198.094 112.805 198.486 112.805Z" fill="black"/>
<path opacity="0.5" d="M198.486 112.535C198.877 112.535 199.195 112.217 199.195 111.825C199.195 111.433 198.877 111.115 198.486 111.115C198.094 111.115 197.776 111.433 197.776 111.825C197.776 112.217 198.094 112.535 198.486 112.535Z" stroke="#2D74DA" stroke-miterlimit="10"/>
<path opacity="0.1" d="M180.341 124.531C180.341 124.531 181.591 128.249 182.47 128.181C183.349 128.113 180.341 124.531 180.341 124.531Z" fill="black"/>
<path opacity="0.1" d="M179.53 128.181C179.53 128.181 180.308 130.412 181.119 130.783L179.53 128.181Z" fill="black"/>
<path opacity="0.1" d="M179.53 130.513C179.53 130.513 180.759 132.068 181.487 132.439L179.53 130.513Z" fill="black"/>
<path opacity="0.1" d="M212.528 116.458C212.528 116.458 213.677 118.181 212.528 118.553V116.458Z" fill="black"/>
<path opacity="0.1" d="M213.051 119.259C211.718 117.677 212.541 121.41 212.541 121.41C212.541 121.41 213.392 119.665 213.051 119.259Z" fill="black"/>
<path opacity="0.1" d="M213.724 121.186C213.724 121.186 211.696 124.193 212.101 124.531L213.724 121.186Z" fill="black"/>
<path opacity="0.1" d="M186.9 116.522C184.415 116.522 181.822 115.398 181.677 115.33L181.788 115.082C181.837 115.106 186.799 117.26 189.484 115.644C190.498 115.029 191.066 113.948 191.176 112.418L191.447 112.439C191.33 114.062 190.716 115.204 189.622 115.874C188.79 116.334 187.849 116.558 186.9 116.522Z" fill="black"/>
<path opacity="0.5" d="M186.9 116.252C184.415 116.252 181.822 115.127 181.677 115.06L181.788 114.814C181.837 114.836 186.799 116.989 189.484 115.373C190.498 114.759 191.066 113.677 191.176 112.147L191.447 112.169C191.33 113.791 190.716 114.934 189.622 115.604C188.79 116.063 187.849 116.287 186.9 116.252Z" fill="#2D74DA"/>
<path opacity="0.1" d="M207.306 116.725C206.669 116.734 206.039 116.598 205.462 116.329C203.447 115.358 203.121 112.98 203.106 112.879L203.376 112.845C203.376 112.869 203.699 115.183 205.582 116.086C207.26 116.894 209.641 116.393 212.648 114.55L212.786 114.78C210.645 116.077 208.811 116.725 207.306 116.725Z" fill="black"/>
<path opacity="0.5" d="M207.306 116.454C206.669 116.463 206.039 116.328 205.462 116.058C203.447 115.087 203.121 112.709 203.106 112.608L203.376 112.574C203.376 112.599 203.699 114.912 205.582 115.815C207.26 116.623 209.641 116.123 212.648 114.279L212.786 114.51C210.645 115.806 208.811 116.454 207.306 116.454Z" fill="#2D74DA"/>
</g>
<path d="M126.304 106.228C126.304 106.228 129.791 111.097 132.16 110.624C134.528 110.151 134.762 109.632 136.866 106.228L138.593 110.2L136.559 115.115L134.151 118.234L129.045 117.432L127.392 111.853L126.304 106.228Z" fill="#2D74DA"/>
<path opacity="0.1" d="M138.593 110.197L136.559 115.112L134.151 118.231L129.045 117.429L127.392 111.85L126.304 106.227C126.304 106.227 126.611 106.651 127.091 107.235C128.261 108.633 130.489 110.956 132.16 110.615C134.495 110.148 134.756 109.635 136.783 106.357L136.866 106.218L138.593 110.197Z" fill="black"/>
<path opacity="0.1" d="M138.593 110.197L136.559 115.112L134.151 118.231L129.045 117.429L127.392 111.85L126.304 106.228C126.304 106.228 126.611 106.652 127.091 107.235C127.853 109.693 129.49 113.635 132.16 113.601C135.174 113.567 136.39 108.575 136.783 106.366L136.866 106.228L138.593 110.197Z" fill="black"/>
<path d="M124.461 106.083C124.461 106.083 123.278 105.942 123.892 107.407C124.507 108.873 125.64 113.693 125.075 114.685C124.51 115.678 124.792 118.372 122.335 118.894L123.041 121.681C123.041 121.681 123.183 127.825 122.9 128.725C122.617 129.625 122.568 134.584 122.663 135.103C122.759 135.622 122.713 139.026 122.335 139.171C121.957 139.315 121.72 140.965 122.949 141.247C124.178 141.53 129.422 141.675 130.368 141.957C131.315 142.24 138.024 141.957 138.024 141.957C138.024 141.957 140.86 141.579 141.57 141.343C142.279 141.106 142.421 140.541 142.184 139.453C141.948 138.366 140.86 130.473 141.097 129.481C141.333 128.489 141.382 118.799 141.382 118.799C141.382 118.799 139.539 118.185 139.539 116.387C139.539 114.59 138.829 109.77 140.295 106.747C140.295 106.747 139.112 105.936 138.925 106.08C138.737 106.224 136.952 105.705 136.952 105.705C136.952 105.705 136.031 113.93 132.175 113.976C128.319 114.022 126.602 105.705 126.602 105.705C126.602 105.705 126.636 104.95 124.461 106.083Z" fill="#2D74DA"/>
<path opacity="0.1" d="M130.037 132.458C130.037 132.458 130.832 134.397 132.16 134.679C133.487 134.962 130.037 132.458 130.037 132.458Z" fill="black"/>
<path opacity="0.1" d="M128.808 133.969C128.808 133.969 131.376 136.049 131.266 136.476L128.808 133.969Z" fill="black"/>
<path opacity="0.1" d="M123.656 121.681C123.656 121.681 125.69 123.051 125.69 124.043L123.656 121.681Z" fill="black"/>
<path opacity="0.1" d="M125.026 125.981C125.026 125.981 124.461 123.997 124.083 123.573L125.026 125.981Z" fill="black"/>
<path opacity="0.1" d="M124.083 126.737C124.083 126.737 124.934 128.439 125.026 128.912L124.083 126.737Z" fill="black"/>
<path opacity="0.1" d="M140.578 123.287C140.578 123.287 137.932 124.092 138.166 125.084L140.578 123.287Z" fill="black"/>
<path opacity="0.1" d="M138.154 132.458C138.154 132.458 141.619 128.439 140.578 128.534C139.536 128.63 138.154 132.458 138.154 132.458Z" fill="black"/>
<g opacity="0.1">
<path opacity="0.1" d="M139.536 116.387C139.536 115.558 139.386 114.083 139.367 112.439C139.349 114.326 139.536 116.071 139.536 117.002C139.536 118.759 141.297 119.383 141.38 119.41C141.38 119.026 141.38 118.796 141.38 118.796C141.38 118.796 139.536 118.184 139.536 116.387Z" fill="black"/>
<path opacity="0.1" d="M142.175 140.068C142.211 140.229 142.239 140.392 142.258 140.556C142.298 140.186 142.269 139.813 142.175 139.453C141.973 138.532 141.149 132.614 141.063 130.304C140.971 131.883 141.96 139.035 142.175 140.068Z" fill="black"/>
<path opacity="0.1" d="M122.621 133.939C122.621 132.252 122.716 129.926 122.9 129.33C123.051 128.851 123.082 126.891 123.079 125.158C123.079 126.713 123.033 128.292 122.9 128.716C122.691 129.386 122.612 132.267 122.621 133.939Z" fill="black"/>
<path opacity="0.1" d="M124.461 106.698C126.633 105.564 126.587 106.32 126.587 106.32C126.587 106.32 128.289 114.639 132.16 114.59C136.031 114.541 136.952 106.32 136.952 106.32C136.952 106.32 138.75 106.839 138.937 106.695C139.124 106.55 139.754 107.002 140.101 107.223C140.166 107.06 140.233 106.9 140.31 106.747C140.31 106.747 139.127 105.936 138.937 106.08C138.746 106.224 136.952 105.705 136.952 105.705C136.952 105.705 136.031 113.93 132.175 113.976C128.319 114.022 126.602 105.705 126.602 105.705C126.602 105.705 126.648 104.95 124.476 106.083C124.476 106.083 123.515 105.973 123.782 107.032C123.935 106.636 124.461 106.698 124.461 106.698Z" fill="black"/>
<path opacity="0.1" d="M122.332 139.785C122.639 139.672 122.722 137.567 122.704 136.406C122.688 137.573 122.581 139.076 122.332 139.171C122.083 139.266 121.963 139.785 122.059 140.286C122.108 140.022 122.206 139.828 122.332 139.785Z" fill="black"/>
<path opacity="0.1" d="M125.075 115.3C125.226 114.897 125.275 114.463 125.22 114.037C125.217 114.261 125.168 114.482 125.075 114.685C124.507 115.678 124.79 118.372 122.332 118.894L122.479 119.472C124.777 118.876 124.519 116.274 125.075 115.3Z" fill="black"/>
</g>
<path d="M138.728 163.874C137.567 165.988 125.779 163.874 125.779 163.874L125.81 163.662L126.043 162.024H138.464L138.7 163.659L138.728 163.874Z" fill="#2D74DA"/>
<path opacity="0.1" d="M138.728 163.874C137.567 165.988 125.779 163.874 125.779 163.874L125.81 163.662C126.375 163.662 134.903 163.459 138.713 163.662L138.728 163.874Z" fill="black"/>
<path d="M125.779 163.874C125.779 163.874 123.665 164.403 120.387 173.281C117.109 182.16 115.948 193.631 115.948 193.631C115.948 193.631 114.105 196.753 121.972 196.962C121.972 196.962 121.34 199.023 125.779 198.707C130.218 198.39 129.579 198.393 129.579 198.393C129.579 198.393 132.433 196.596 133.702 196.913C134.971 197.229 135.764 197.337 137.137 198.498C138.51 199.659 142.9 199.186 142.953 198.289C142.988 197.848 142.988 197.405 142.953 196.965C142.953 196.965 149.665 197.389 148.396 192.525C147.128 187.662 146.071 179.681 146.071 179.681C146.071 179.681 142.636 164.089 138.722 163.877C134.808 163.665 125.779 163.874 125.779 163.874Z" fill="#2D74DA"/>
<path opacity="0.1" d="M124.365 170.01L121.878 196.968L122.089 196.988L124.576 170.03L124.365 170.01Z" fill="black"/>
<path opacity="0.1" d="M129.575 169.99L129.466 198.374L129.678 198.375L129.787 169.991L129.575 169.99Z" fill="black"/>
<path opacity="0.1" d="M136.208 169.984L135.997 169.992L137.056 198.483L137.268 198.475L136.208 169.984Z" fill="black"/>
<path opacity="0.1" d="M142.851 196.965C142.482 180.728 139.717 169.613 139.684 169.515L139.889 169.462C139.917 169.573 142.697 180.71 143.063 196.974L142.851 196.965Z" fill="black"/>
<path opacity="0.1" d="M126.147 165.459C126.147 165.459 125.779 165.671 126.147 166.688V165.459Z" fill="black"/>
<path opacity="0.1" d="M127.208 165.459C127.208 165.459 126.203 166.092 127.208 167.152V165.459Z" fill="black"/>
<path opacity="0.1" d="M136.614 165.459C136.614 165.459 137.988 166.781 137.671 167.152L136.614 165.459Z" fill="black"/>
<path opacity="0.1" d="M137.721 165.143C137.721 165.143 137.936 166.728 138.728 167.152L137.721 165.143Z" fill="black"/>
<g opacity="0.5">
<path opacity="0.5" d="M193.825 162.608C193.825 162.608 199.011 160.544 201.254 163.063C203.496 165.582 199.717 168.648 199.717 168.648L198.132 171.813L194.403 171.404L193.524 167.029L193.825 162.608Z" fill="#2D74DA"/>
<path opacity="0.1" d="M199.717 168.633L198.132 171.797L194.403 171.401L193.524 167.029L193.831 162.608L193.914 162.578C194.572 162.335 199.011 160.787 201.134 162.919C201.178 162.959 201.22 163.002 201.26 163.048C203.496 165.555 199.717 168.633 199.717 168.633Z" fill="black"/>
<path opacity="0.1" d="M199.717 168.633L198.132 171.797L194.403 171.401L193.524 167.029L193.831 162.608L193.914 162.578C194.556 166.095 196.27 167.579 196.559 167.8L196.602 167.831L197.656 167.745C199.705 166.615 200.787 163.926 201.134 162.909C201.178 162.95 201.22 162.993 201.26 163.038C203.496 165.555 199.717 168.633 199.717 168.633Z" fill="black"/>
<path opacity="0.5" d="M208.774 180.682C208.774 180.682 207.631 195.238 207.942 196.996C208.252 198.753 207.281 198.885 207.281 198.885C207.281 198.885 203.146 199.807 202.366 199.192C201.585 198.578 200.255 198.458 200.255 198.458C200.255 198.458 197.183 199.161 195.813 198.636C194.443 198.111 192.163 198.329 192.163 198.329C192.163 198.329 190.406 199.386 189.92 199.165C189.435 198.943 188.82 199.032 187.413 198.639C186.006 198.246 185.214 197.89 185.96 195.472C186.707 193.054 186.052 185.401 186.006 184.476C185.96 183.552 185.524 181.312 184.906 178.639C184.289 175.966 185.96 176.529 185.96 176.529C189.877 174.507 188.249 170.547 187.635 168.79C187.02 167.032 187.985 166.946 188.467 166.946C188.949 166.946 190.799 165.364 190.799 165.364L191.549 164.691L193.834 162.639C194.403 166.482 196.246 168.095 196.553 168.335L196.596 168.369L197.65 168.28C200.2 166.876 201.254 163.057 201.254 163.057C201.561 163.579 202.246 164.175 203.011 164.728C204.012 165.436 205.055 166.083 206.135 166.664C207.979 167.764 206.621 168.863 206.621 168.863C204.378 176.513 207.542 176.851 207.542 176.851C209.874 177.195 208.774 180.682 208.774 180.682Z" fill="#2D74DA"/>
<path opacity="0.1" d="M191.493 166.962C191.493 166.962 190.833 167.315 190.833 167.708L191.493 166.962Z" fill="black"/>
<path opacity="0.1" d="M191.89 167.708C191.89 167.708 191.011 168.63 191.165 168.897L191.89 167.708Z" fill="black"/>
<path opacity="0.1" d="M191.889 168.9C191.889 168.9 191.229 169.604 191.493 170L191.889 168.9Z" fill="black"/>
<path opacity="0.1" d="M196.289 168.863L193.524 171.533C193.423 168.565 191.988 166.19 191.281 165.189L193.567 163.137C194.126 167.011 195.985 168.624 196.289 168.863Z" fill="black"/>
<path opacity="0.5" d="M196.553 168.335L193.788 171.008C193.69 168.037 192.252 165.665 191.548 164.661L193.834 162.608C194.402 166.482 196.246 168.095 196.553 168.335Z" fill="#2D74DA"/>
<path opacity="0.1" d="M203.275 165.247C202.169 166.974 200.114 171.533 200.114 171.533L197.914 168.808C200.464 167.401 201.518 163.585 201.518 163.585C201.825 164.095 202.51 164.691 203.275 165.247Z" fill="black"/>
<path opacity="0.5" d="M203.005 164.719C201.902 166.449 199.843 171.008 199.843 171.008L197.65 168.286C200.2 166.882 201.254 163.063 201.254 163.063C201.561 163.57 202.246 164.166 203.005 164.719Z" fill="#2D74DA"/>
<path opacity="0.1" d="M201.389 192.906C201.389 192.906 200.919 196.9 200.648 197.127L201.389 192.906Z" fill="black"/>
<path opacity="0.1" d="M205.257 193.61C205.257 193.61 205.785 196.467 205.564 197.128L205.257 193.61Z" fill="black"/>
<path opacity="0.1" d="M194 193.785C194 193.785 193.518 196.467 194 196.774V193.785Z" fill="black"/>
<path opacity="0.1" d="M191.146 193.389C191.146 193.389 190.747 196.556 190.839 197.128L191.146 193.389Z" fill="black"/>
<path opacity="0.1" d="M205.917 177.954C205.917 177.954 204.688 178.922 204.774 179.183L205.917 177.954Z" fill="black"/>
<path opacity="0.1" d="M206.796 178.571C206.796 178.571 204.442 180.55 205.619 180.329C206.796 180.107 206.796 178.571 206.796 178.571Z" fill="black"/>
</g>
<path d="M76.4302 121.895L76.4456 121.874L76.4179 121.852L76.2521 121.742L76.2858 121.766C76.1669 121.697 76.0265 121.676 75.8923 121.705C75.7581 121.735 75.6399 121.814 75.5608 121.926L75.4932 122.021L71.7605 127.391L71.1092 128.347C69.1399 127.754 65.9418 130.249 64.3227 131.68C64.2213 131.769 64.1261 131.852 64.0401 131.932C63.911 131.643 63.8342 131.459 63.8342 131.459C63.7544 132.338 60.6514 133.656 59.9264 134.135C59.597 134.334 59.2278 134.458 58.845 134.497C58.9494 131.158 56.3657 127.643 56.3657 127.643L50.0524 119.61C49.8201 118.157 50.0456 116.667 50.6975 115.348C50.7497 115.244 50.802 115.139 50.8603 115.041H50.8911C50.6522 115.716 50.5185 116.424 50.4948 117.139C50.5101 117.683 51.014 120.319 51.7236 120.212C51.794 120.219 51.865 120.207 51.9289 120.176C51.9928 120.146 52.0472 120.099 52.0862 120.04C52.6514 119.382 52.7006 118.264 52.6729 117.229C52.6632 117.533 52.6292 117.836 52.5716 118.135C52.6176 117.275 52.5193 116.365 52.5193 115.717C52.5193 115.459 52.5193 115.204 52.5378 114.946H52.6146C52.6146 115.044 52.6146 115.149 52.6146 115.253C52.6146 115.146 52.6146 115.041 52.6146 114.946H52.6944C54.1106 114.687 55.4374 114.071 56.5501 113.158C56.8248 113.147 57.0945 113.081 57.3435 112.964C57.5925 112.848 57.8157 112.683 58.0001 112.479C58.0675 112.704 58.0778 112.941 58.03 113.171C57.9823 113.401 57.878 113.615 57.7267 113.794C58.5716 113.754 59.2874 113.096 59.613 112.325C59.8921 111.538 59.9743 110.694 59.8527 109.868C59.7312 109.041 59.6706 108.206 59.6714 107.37C59.7296 106.919 59.7543 106.464 59.7451 106.009C59.7316 105.87 59.7069 105.732 59.6714 105.597H59.696C59.7769 105.599 59.8574 105.585 59.9328 105.555C60.0082 105.526 60.077 105.481 60.1353 105.425C60.4855 105.155 60.5992 104.626 60.6883 104.221C60.9308 103.288 61.0404 102.325 61.014 101.361C60.9955 101.653 60.9587 101.947 60.9156 102.239C60.9925 101.133 60.8388 100.058 60.1077 99.2562C59.6038 98.7063 58.9003 98.3837 58.2244 98.0611C57.9827 97.9747 57.7699 97.8226 57.61 97.6218C57.4905 97.3852 57.4254 97.1249 57.4195 96.8599C57.1829 95.2439 55.6622 94.1195 54.1476 93.4805C52.1998 92.6326 49.8465 92.27 47.9878 93.2777C47.0662 93.7662 46.3596 94.5312 45.5301 95.1548C44.4917 95.9444 43.2935 96.4974 42.1845 97.1856C41.0754 97.8737 40.0339 98.7462 39.4901 99.9321C38.676 101.775 39.2874 103.865 39.3888 105.865C39.5516 109.014 38.2551 112.316 35.6868 114.159C35.379 114.348 35.104 114.586 34.8726 114.863C34.7598 115.003 34.6928 115.175 34.6807 115.355C34.6686 115.534 34.712 115.713 34.805 115.868C34.9371 116.04 35.1461 116.138 35.2905 116.301C35.5823 116.633 35.5239 117.139 35.4103 117.563C35.0372 118.951 34.2938 120.21 33.2597 121.207C33.3058 121.533 33.7083 121.662 34.037 121.711C34.9067 121.839 35.7847 121.902 36.6637 121.901H37.0416C37.0017 122.003 36.9587 122.11 36.9156 122.224C36.4395 123.477 35.8219 125.407 36.0278 126.586C36.335 128.448 37.3181 136.961 36.8327 138.454C36.3473 139.947 37.613 150.774 37.613 150.774C37.613 150.774 37.782 151.61 38.0739 152.857C37.315 154.645 36.4487 156.629 36.0155 157.425C35.143 159.02 35.5731 167.161 38.5808 170.78C38.5808 170.78 39.8097 172.537 39.5024 173.173C39.1952 173.809 39.5577 174.931 39.5577 174.931L40.0339 185.465C40.0237 186.542 39.9499 187.617 39.8127 188.685C38.5285 190.273 36.5501 192.59 35.6192 192.967C34.1783 193.554 23.4318 206.59 23.4318 206.59C23.4318 206.59 23.5178 206.746 23.6868 207.001L23.3795 207.351L21.3181 209.742L21.1553 209.929C20.7682 209.855 18.1906 209.388 16.1476 209.241H15.9448V209.204C15.2288 209.122 14.5048 209.142 13.7943 209.262C13.6599 209.287 13.5359 209.351 13.4379 209.447C12.7405 210.301 12.3657 223.708 12.3657 223.708C12.3657 223.708 13.1092 230.421 15.4379 230.795C15.5566 230.837 15.681 230.859 15.8066 230.863H15.908C17.567 230.74 18.3289 229.791 18.6729 229.139C18.7747 228.945 18.8521 228.739 18.9034 228.525C18.9034 228.525 18.633 227.33 19.358 225.68C20.0831 224.03 21.4379 221.127 21.4379 221.127C21.4379 221.127 23.8957 218.543 23.4564 217.29C23.5239 217.189 23.6038 217.078 23.6898 216.952C24.6115 215.637 26.4794 213.041 27.9909 211.308C28.0892 211.192 28.1875 211.084 28.2981 210.977C28.848 211.209 29.4234 211.375 30.0124 211.471C30.0124 211.471 32.3227 210.568 33.1799 208.547C33.5454 207.686 34.9802 206.163 36.507 204.697L36.4579 205.087L36.4057 217.911C36.9022 218.252 37.4311 218.543 37.9848 218.78V219.087C37.9956 220.914 37.8847 222.74 37.653 224.553L37.6069 224.838C37.4164 224.703 37.2505 224.657 37.1461 224.762C36.6729 225.241 36.378 228.301 36.3504 229.711C36.3504 229.757 36.3504 229.803 36.3504 229.852C36.2736 231.259 35.4717 233.305 37.8865 233.41C39.6929 233.487 47.4809 233.603 51.6468 233.665C53.8912 233.707 56.0747 232.933 57.7912 231.487C59.1153 230.353 59.9172 229.004 58.1138 228.012C58.0032 227.951 57.8865 227.892 57.7574 227.834L53.7636 227.219L46.9402 223.735C46.9402 223.735 46.9003 221.628 46.08 221.978C45.8363 222.031 45.6029 222.124 45.3888 222.252C45.3488 222.175 45.3058 222.092 45.2659 222.006C44.7101 220.905 44.4217 219.688 44.4241 218.454C44.4241 218.344 44.4241 218.23 44.4395 218.116C44.6393 217.934 44.828 217.74 45.0047 217.536C45.0047 217.536 44.9525 212.746 45.4901 211.843C46.0278 210.94 47.6929 201.785 47.6929 201.785C47.6929 201.785 47.7451 200.083 48.8204 199.072C49.8957 198.061 49.5178 195.133 49.5178 195.133C49.5178 195.133 51.0232 194.335 51.5055 191.729C51.9878 189.124 53.5485 183.434 53.5485 183.434C53.5485 183.434 56.7713 175.026 56.5593 169.708C56.3473 164.39 56.8665 161.619 56.8665 161.619L57.5362 149.256V149.066C57.8035 149.269 57.9848 149.434 57.9848 149.434C57.9848 149.434 57.9848 149.385 57.9848 149.299C58.0831 149.382 58.1384 149.434 58.1384 149.434C58.1384 149.434 58.4825 143.825 58.3657 141.6C60.2459 140.961 63.1092 139.911 63.2812 139.376C63.5209 138.58 66.7467 136.064 66.7467 136.064C66.6769 136.053 66.6101 136.028 66.5501 135.99C66.6514 135.944 66.7559 135.889 66.8573 135.831C68.9709 134.7 72.8972 131.394 72.2367 129.379L76.5378 123.207C76.6725 123.009 76.7353 122.771 76.7157 122.532C76.6962 122.293 76.5954 122.069 76.4302 121.895Z" fill="url(#paint1_linear)"/>
<path d="M66.424 136.802C66.1101 136.999 65.7603 137.131 65.3948 137.192C64.0522 137.232 62.937 133.597 62.937 133.597C62.937 133.597 63.318 133.21 63.9263 132.676C65.7266 131.075 69.5023 128.12 71.2719 129.773C73.2688 131.619 68.7496 135.551 66.424 136.802Z" fill="#ECB4B6"/>
<path d="M46.0153 223.478L41.0598 228.827C41.0598 228.827 36.4761 228.879 37.3732 226.351C37.5524 225.802 37.68 225.239 37.7542 224.667C37.98 222.872 38.0877 221.063 38.0767 219.254C38.0767 218.068 38.0583 217.235 38.0583 217.235C38.0583 217.235 45.2749 214.074 44.5376 217.367C44.4458 217.779 44.3964 218.199 44.3901 218.621C44.3872 219.842 44.6691 221.046 45.2134 222.139C45.4362 222.61 45.7048 223.059 46.0153 223.478Z" fill="#ECB4B6"/>
<path opacity="0.1" d="M46.0153 223.478L41.0598 228.826C41.0598 228.826 36.4761 228.879 37.3732 226.35C37.5524 225.802 37.68 225.238 37.7542 224.667C38.4085 225.174 39.3486 226.667 39.3486 226.667C39.3486 226.667 42.5099 227.588 43.3794 224.823C43.8648 223.287 44.6328 222.51 45.2227 222.138C45.4425 222.609 45.708 223.058 46.0153 223.478Z" fill="black"/>
<path d="M57.5117 231.533C55.8316 232.965 53.6846 233.73 51.4779 233.684C47.3919 233.625 39.7575 233.505 37.9848 233.432C35.6131 233.327 36.3996 231.303 36.4764 229.908C36.4764 229.859 36.4764 229.816 36.4764 229.77C36.504 228.372 36.7836 225.343 37.2567 224.87C37.7298 224.396 39.3489 226.977 39.3489 226.977C39.3489 226.977 42.5102 227.899 43.3796 225.134C44.249 222.369 46.0155 222.101 46.0155 222.101C46.8174 221.754 46.8573 223.84 46.8573 223.84L53.5486 227.29L57.4748 227.905C57.6008 227.963 57.7145 228.022 57.822 228.08C59.5977 229.075 58.8112 230.409 57.5117 231.533Z" fill="#C17174"/>
<path opacity="0.25" d="M45.1491 226.215C45.3086 226.215 45.4379 226.086 45.4379 225.926C45.4379 225.767 45.3086 225.638 45.1491 225.638C44.9896 225.638 44.8604 225.767 44.8604 225.926C44.8604 226.086 44.9896 226.215 45.1491 226.215Z" fill="white"/>
<path opacity="0.25" d="M47.865 227.56C48.0245 227.56 48.1537 227.431 48.1537 227.272C48.1537 227.112 48.0245 226.983 47.865 226.983C47.7055 226.983 47.5762 227.112 47.5762 227.272C47.5762 227.431 47.7055 227.56 47.865 227.56Z" fill="white"/>
<path opacity="0.25" d="M49.2595 228.185C49.419 228.185 49.5483 228.055 49.5483 227.896C49.5483 227.736 49.419 227.607 49.2595 227.607C49.1 227.607 48.9707 227.736 48.9707 227.896C48.9707 228.055 49.1 228.185 49.2595 228.185Z" fill="white"/>
<path opacity="0.25" d="M52.1565 229.296C52.316 229.296 52.4452 229.167 52.4452 229.008C52.4452 228.848 52.316 228.719 52.1565 228.719C51.997 228.719 51.8677 228.848 51.8677 229.008C51.8677 229.167 51.997 229.296 52.1565 229.296Z" fill="white"/>
<path opacity="0.25" d="M50.6823 228.823C50.8418 228.823 50.9711 228.694 50.9711 228.534C50.9711 228.375 50.8418 228.246 50.6823 228.246C50.5228 228.246 50.3936 228.375 50.3936 228.534C50.3936 228.694 50.5228 228.823 50.6823 228.823Z" fill="white"/>
<path d="M57.5117 231.533C55.8316 232.965 53.6846 233.73 51.4779 233.684C47.3919 233.625 39.7575 233.506 37.9848 233.432C35.6131 233.327 36.3996 231.303 36.4764 229.908L51.3673 230.83C51.3673 230.83 57.4656 229.908 57.8189 228.089C59.5977 229.076 58.8112 230.409 57.5117 231.533Z" fill="#C17174"/>
<path opacity="0.25" d="M57.5117 231.533C55.8316 232.965 53.6846 233.73 51.4779 233.684C47.3919 233.625 39.7575 233.506 37.9848 233.432C35.6131 233.327 36.3996 231.303 36.4764 229.908L51.3673 230.83C51.3673 230.83 57.4656 229.908 57.8189 228.089C59.5977 229.076 58.8112 230.409 57.5117 231.533Z" fill="white"/>
<path d="M29.7909 210.043C29.243 210.49 28.7427 210.992 28.2978 211.542C26.8201 213.256 24.9922 215.843 24.0859 217.127C23.7356 217.631 23.5236 217.948 23.5236 217.948L21.5452 217.656C21.5452 217.656 19.413 214.39 19.4407 214.313C19.4683 214.236 21.1304 210.728 21.1304 210.728L21.7725 209.975L23.7971 207.61L24.7187 206.541C24.7187 206.541 31.5759 208.752 29.7909 210.043Z" fill="#ECB4B6"/>
<path opacity="0.1" d="M24.0859 217.134C23.7356 217.638 23.5236 217.954 23.5236 217.954L21.5452 217.662C21.5452 217.662 19.413 214.396 19.4407 214.32C19.4683 214.243 21.1304 210.728 21.1304 210.728L21.7725 209.976L21.9814 210.016H22.4852C20.7187 211.859 22.6143 215.914 22.6143 215.914C22.6143 215.914 23.4315 215.991 24.0859 217.134Z" fill="black"/>
<path d="M21.8769 221.262C21.8769 221.262 20.559 224.107 19.8462 225.742C19.1335 227.376 19.3977 228.559 19.3977 228.559C19.3475 228.772 19.2722 228.978 19.1734 229.173C18.9208 229.676 18.5364 230.1 18.0613 230.401C17.5861 230.702 17.0382 230.868 16.476 230.882H16.347C13.9445 230.82 13.1826 223.846 13.1826 223.846C13.1826 223.846 13.5513 210.571 14.2364 209.714C14.3306 209.619 14.4517 209.554 14.5835 209.53C15.2826 209.409 15.9956 209.389 16.7003 209.471C18.8723 209.628 21.665 210.163 21.665 210.163H22.1657C20.3992 212.006 22.2947 216.064 22.2947 216.064C22.2947 216.064 23.1396 216.141 23.7971 217.327C24.4545 218.513 21.8769 221.262 21.8769 221.262Z" fill="#C17174"/>
<path opacity="0.25" d="M18.9768 217.601C19.1363 217.601 19.2656 217.471 19.2656 217.312C19.2656 217.152 19.1363 217.023 18.9768 217.023C18.8173 217.023 18.688 217.152 18.688 217.312C18.688 217.471 18.8173 217.601 18.9768 217.601Z" fill="white"/>
<path opacity="0.25" d="M18.8327 219.902C18.9922 219.902 19.1215 219.772 19.1215 219.613C19.1215 219.454 18.9922 219.324 18.8327 219.324C18.6732 219.324 18.5439 219.454 18.5439 219.613C18.5439 219.772 18.6732 219.902 18.8327 219.902Z" fill="white"/>
<path d="M18.98 229.115C18.7274 229.618 18.343 230.042 17.8679 230.343C17.3928 230.644 16.8448 230.81 16.2827 230.823H16.1567C13.7542 230.762 12.9893 223.788 12.9893 223.788C12.9893 223.788 13.3579 210.513 14.043 209.656C14.1372 209.561 14.2584 209.496 14.3902 209.472C15.0893 209.35 15.8022 209.331 16.5069 209.413C16.467 211.8 16.3533 219.343 16.5069 220.092C16.6605 220.842 18.0215 227.115 18.98 229.115Z" fill="#C17174"/>
<path opacity="0.25" d="M18.98 229.115C18.7274 229.618 18.343 230.042 17.8679 230.343C17.3928 230.644 16.8448 230.81 16.2827 230.823H16.1567C13.7542 230.762 12.9893 223.788 12.9893 223.788C12.9893 223.788 13.3579 210.513 14.043 209.656C14.1372 209.561 14.2584 209.496 14.3902 209.472C15.0893 209.35 15.8022 209.331 16.5069 209.413C16.467 211.8 16.3533 219.343 16.5069 220.092C16.6605 220.842 18.0215 227.115 18.98 229.115Z" fill="white"/>
<path d="M16.1538 230.829C13.7513 230.768 12.9863 223.794 12.9863 223.794C12.9863 223.794 13.355 210.519 14.0401 209.662C14.1343 209.566 14.2554 209.502 14.3873 209.478C14.8911 210.227 15.3335 211.886 14.9341 215.536C14.1845 222.451 15.0877 222.888 15.0877 222.888C15.0877 222.888 16.2152 228.765 16.1538 230.829Z" fill="#C17174"/>
<path opacity="0.1" d="M16.1538 230.829C13.7513 230.768 12.9863 223.794 12.9863 223.794C12.9863 223.794 13.355 210.519 14.0401 209.662C14.1343 209.566 14.2554 209.502 14.3873 209.478C14.8911 210.227 15.3335 211.886 14.9341 215.536C14.1845 222.451 15.0877 222.888 15.0877 222.888C15.0877 222.888 16.2152 228.765 16.1538 230.829Z" fill="black"/>
<path opacity="0.1" d="M66.424 136.802C66.1101 136.999 65.7603 137.131 65.3948 137.192C64.0522 137.232 62.937 133.597 62.937 133.597C62.937 133.597 63.318 133.21 63.9263 132.676C64.3656 133.659 65.576 136.31 66.424 136.802Z" fill="black"/>
<path d="M57.8096 135.493C57.8096 135.493 58.9156 135.573 59.6252 135.1C60.3349 134.627 63.3795 133.321 63.4594 132.452C63.4594 132.452 65.275 136.876 66.3042 137.035C66.3042 137.035 63.1429 139.524 62.9064 140.313C62.6698 141.103 56.5039 143.042 56.5039 143.042L57.8096 135.493Z" fill="#FF748E"/>
<path opacity="0.1" d="M57.8096 135.493C57.8096 135.493 58.9156 135.573 59.6252 135.1C60.3349 134.627 63.3795 133.321 63.4594 132.452C63.4594 132.452 65.275 136.876 66.3042 137.035C66.3042 137.035 63.1429 139.524 62.9064 140.313C62.6698 141.103 56.5039 143.042 56.5039 143.042L57.8096 135.493Z" fill="black"/>
<path opacity="0.1" d="M29.7909 210.043C29.2429 210.49 28.7426 210.992 28.2978 211.542C25.9138 210.544 24.3777 208.504 23.7939 207.61L24.7156 206.541C24.7156 206.541 31.5758 208.752 29.7909 210.043Z" fill="black"/>
<path d="M41.0661 187.641C41.0661 187.641 37.2013 192.805 35.7881 193.386C34.3749 193.966 23.8403 206.873 23.8403 206.873C23.8403 206.873 26.1045 211.035 30.2674 211.717C30.2674 211.717 32.5316 210.823 33.3764 208.82C34.2213 206.817 40.8572 201.158 40.8572 201.158L41.0661 187.641Z" fill="#5E5A6B"/>
<path opacity="0.1" d="M41.0661 187.641C41.0661 187.641 37.2013 192.805 35.7881 193.386C34.3749 193.966 23.8403 206.873 23.8403 206.873C23.8403 206.873 26.1045 211.035 30.2674 211.717C30.2674 211.717 32.5316 210.823 33.3764 208.82C34.2213 206.817 40.8572 201.158 40.8572 201.158L41.0661 187.641Z" fill="black"/>
<path opacity="0.1" d="M29.3579 204.922C30.5273 205.044 31.7062 205.044 32.8756 204.922C34.9554 204.722 33.3886 205.988 29.3579 204.922Z" fill="black"/>
<path opacity="0.1" d="M28.4087 206.264C28.4087 206.264 31.1737 207.843 32.2428 207.054C33.3119 206.264 31.2136 207.816 28.4087 206.264Z" fill="black"/>
<path opacity="0.1" d="M44.5437 217.367C44.452 217.779 44.4026 218.199 44.3962 218.621C42.2611 220.559 39.6896 219.96 38.0829 219.253C38.0829 218.068 38.0645 217.235 38.0645 217.235C38.0645 217.235 45.281 214.061 44.5437 217.367Z" fill="black"/>
<path d="M57.3455 148.639L57.2687 150.095L56.6112 162.338C56.6112 162.338 56.0828 165.078 56.304 170.344C56.5252 175.61 53.3424 183.954 53.3424 183.954C53.3424 183.954 51.8063 189.591 51.3394 192.172C50.8724 194.753 49.3916 195.551 49.3916 195.551C49.3916 195.551 49.7603 198.448 48.7065 199.45C47.6527 200.452 47.6005 202.135 47.6005 202.135C47.6005 202.135 45.9661 211.198 45.45 212.095C44.9338 212.992 44.9738 217.733 44.9738 217.733C41.5513 221.788 36.5467 218.101 36.5467 218.101L36.599 205.404C36.599 205.404 38.0214 193.708 39.0752 192.074C40.1289 190.439 40.1289 185.963 40.1289 185.963L39.6589 175.518C39.6589 175.518 39.2841 174.412 39.6066 173.779C39.9292 173.146 38.7065 171.41 38.7065 171.41C35.7541 167.825 35.3271 159.763 36.1904 158.2C37.0537 156.636 39.6066 150.298 39.6066 150.298L43.1305 148.243L49.4991 148.43L57.3455 148.639Z" fill="#5E5A6B"/>
<path opacity="0.1" d="M42.3594 210.728C42.3594 210.728 43.1919 213.613 43.8617 213.929C44.5314 214.246 42.3594 210.728 42.3594 210.728Z" fill="black"/>
<path opacity="0.1" d="M43.5054 201.127C43.5054 201.127 45.6559 202.829 46.5776 202.826C47.4992 202.823 43.5054 201.127 43.5054 201.127Z" fill="black"/>
<path d="M56.5034 129.803V133.281L54.2085 132.292L51.9197 131.306L46.9366 126.406C46.9366 126.406 42.995 123.846 40.8875 121.515C39.6832 120.184 39.0779 118.928 40.1379 118.264C40.6515 117.928 41.1158 117.521 41.5173 117.057C42.5765 115.808 43.4974 114.449 44.2638 113.002C44.2976 112.943 44.3314 112.885 44.3621 112.826C45.3882 110.943 46.0672 109.336 46.0672 109.336C46.0672 109.336 48.9551 110.258 50.8107 111.573C50.9612 111.677 51.1025 111.785 51.2377 111.896C52.273 112.743 52.7892 113.739 51.8337 114.71C51.5883 114.963 51.3614 115.235 51.1548 115.521C51.0005 115.733 50.8589 115.955 50.7308 116.184C50.6755 116.289 50.6202 116.39 50.571 116.492C49.9318 117.799 49.7108 119.272 49.9382 120.71L56.5034 129.803Z" fill="#ECB4B6"/>
<path d="M56.0829 104.998C56.2027 105.207 56.3686 105.385 56.4792 105.597C56.6656 106.065 56.7259 106.574 56.6543 107.072C56.5944 107.86 56.6462 108.652 56.8079 109.425C56.9708 110.12 57.2749 110.789 57.2995 111.502C57.3333 112.507 56.811 113.438 56.3072 114.307C56.5809 114.299 56.8501 114.235 57.0983 114.119C57.3466 114.003 57.5687 113.838 57.7511 113.634C57.8178 113.856 57.8286 114.09 57.7825 114.317C57.7364 114.544 57.6348 114.756 57.4869 114.934C58.3133 114.894 59.023 114.242 59.3302 113.481C59.6106 112.693 59.6918 111.849 59.5668 111.023C59.4464 110.204 59.3869 109.377 59.3886 108.55C59.4457 108.103 59.4693 107.652 59.4592 107.201C59.3824 106.307 58.8448 105.53 58.3041 104.805L57.235 103.336C57.1607 103.216 57.0543 103.119 56.9278 103.057C55.917 102.627 55.8003 104.488 56.0829 104.998Z" fill="#464353"/>
<path opacity="0.1" d="M51.8526 114.709C51.6072 114.963 51.3803 115.234 51.1737 115.521C51.0194 115.733 50.8778 115.955 50.7497 116.184C50.6944 116.289 50.6391 116.39 50.5899 116.491C49.372 116.423 48.1841 116.087 47.1109 115.507C46.0377 114.927 45.1056 114.118 44.381 113.137C44.3472 113.09 44.3134 113.044 44.2827 112.995C44.3165 112.937 44.3503 112.878 44.381 112.82C45.4071 110.937 46.0861 109.33 46.0861 109.33C46.0861 109.33 48.974 110.252 50.8296 111.567C50.9801 111.671 51.1214 111.779 51.2566 111.889C52.2796 112.743 52.7958 113.726 51.8526 114.709Z" fill="black"/>
<path d="M59.3424 107.899C59.3429 109.838 58.6636 111.717 57.4226 113.208C56.1816 114.698 54.4574 115.707 52.5498 116.058C52.0531 116.149 51.5493 116.194 51.0444 116.194H51.0076C50.9185 116.194 50.8263 116.194 50.7372 116.194C49.1111 116.133 47.5386 115.596 46.2155 114.649C44.8924 113.701 43.8772 112.386 43.2962 110.866C42.7152 109.346 42.5942 107.689 42.9481 106.1C43.302 104.512 44.1153 103.063 45.2866 101.933C46.458 100.804 47.9357 100.044 49.5359 99.7477C51.136 99.4518 52.7878 99.633 54.2857 100.269C55.7836 100.905 57.0613 101.967 57.9599 103.324C58.8585 104.68 59.3383 106.271 59.3394 107.899H59.3424Z" fill="#ECB4B6"/>
<path opacity="0.1" d="M52.1324 128.409C52.1324 128.409 56.3106 130.765 55.2415 128.777L49.7884 120.716L55.9788 128.67C55.9788 128.67 59.9297 134.098 57.7699 137.837C57.7699 137.837 57.4627 140.946 57.8221 141.684C58.1816 142.421 57.7177 150.286 57.7177 150.286C57.7177 150.286 56.24 148.916 55.4504 149.177C54.6608 149.438 49.0879 149.905 49.0879 149.905L52.1324 128.409Z" fill="black"/>
<path opacity="0.1" d="M57.346 148.639L57.2691 150.095C56.7684 149.732 56.071 149.327 55.6071 149.481C54.8175 149.745 49.2354 150.221 49.2354 150.221L49.4903 148.405L57.346 148.639Z" fill="black"/>
<path d="M52.2891 128.409C52.2891 128.409 56.4704 130.765 55.3982 128.777L49.945 120.716L56.1355 128.67C56.1355 128.67 60.0863 134.098 57.9266 137.837C57.9266 137.837 57.6194 140.946 57.9788 141.684C58.3383 142.421 57.8744 150.286 57.8744 150.286C57.8744 150.286 56.3997 148.916 55.6102 149.177C54.8206 149.438 49.2354 149.917 49.2354 149.917L52.2891 128.409Z" fill="#464353"/>
<path opacity="0.1" d="M54.5225 132.449C54.2798 134.983 53.2383 137.997 53.2383 137.997C53.2383 137.997 52.501 145.478 51.5455 147.702C50.5901 149.926 51.0171 152.971 50.4918 158.608C50.3013 160.639 49.6469 162.034 48.7652 162.974C47.3151 164.51 45.2444 164.845 43.61 164.75L43.2229 164.719C40.587 164.458 38.0586 151.761 38.0586 151.761C38.0586 151.761 36.8481 140.959 37.3212 139.472C37.7944 137.985 36.8543 129.576 36.5378 127.733C36.3351 126.562 36.9403 124.661 37.4073 123.413C37.6807 122.694 37.905 122.184 37.905 122.184C37.905 122.184 38.802 119.34 40.2767 117.865C40.48 117.656 40.7232 117.49 40.9918 117.378C41.2605 117.265 41.549 117.207 41.8404 117.208C42.5337 117.236 43.207 117.448 43.7913 117.822C43.8149 117.836 43.8375 117.851 43.8589 117.868C43.8589 117.868 53.4503 127.668 54.3443 129.933C54.5931 130.569 54.6177 131.472 54.5225 132.449Z" fill="black"/>
<path d="M54.2087 132.292C53.9629 134.823 52.9214 137.837 52.9214 137.837C52.9214 137.837 52.1841 145.321 51.2348 147.533C50.2854 149.745 50.7094 152.802 50.181 158.439C49.9905 160.467 49.3361 161.862 48.4544 162.805C47.0043 164.341 44.9337 164.673 43.2993 164.581L42.9122 164.55C40.2762 164.286 37.7478 151.588 37.7478 151.588C37.7478 151.588 36.5374 140.789 37.0105 139.315C37.4836 137.84 36.5374 129.41 36.2209 127.564C36.0182 126.396 36.6234 124.491 37.0904 123.244C37.3638 122.525 37.5881 122.031 37.5881 122.031C37.5881 122.031 38.4851 119.186 39.9598 117.711C40.1625 117.502 40.4057 117.336 40.6745 117.223C40.9433 117.111 41.2322 117.054 41.5236 117.057C42.2174 117.082 42.8915 117.294 43.4744 117.671L43.542 117.714C43.542 117.714 53.1334 127.514 54.0274 129.779C54.2762 130.408 54.31 131.315 54.2087 132.292Z" fill="#FF748E"/>
<path opacity="0.1" d="M43.4655 170.86C43.4655 170.86 41.2904 172.796 40.5408 172.704C39.7912 172.612 43.4655 170.86 43.4655 170.86Z" fill="black"/>
<path opacity="0.1" d="M44.043 172.719C44.043 172.719 41.7512 173.782 41.0661 173.948C40.381 174.114 43.1582 172.445 44.043 172.719Z" fill="black"/>
<path opacity="0.1" d="M52.9092 143.635C52.9092 143.635 56.307 143.675 56.8201 144.741C57.3331 145.807 54.0029 143.198 52.9092 143.635Z" fill="black"/>
<path opacity="0.1" d="M52.4331 145.49C52.4331 145.49 55.0414 146.043 55.831 146.676C56.6205 147.308 52.4331 145.49 52.4331 145.49Z" fill="black"/>
<path opacity="0.1" d="M48.0488 139.051C48.0488 139.051 47.7416 149.757 46.568 151.143C45.3944 152.529 48.0488 139.051 48.0488 139.051Z" fill="black"/>
<path opacity="0.1" d="M45.1243 169.318C45.1243 169.318 42.9431 178.762 47.3179 179.345C51.6927 179.929 50.3409 168.593 50.3409 168.593L45.1243 169.318Z" fill="black"/>
<path d="M44.9646 169.161C44.9646 169.161 42.7956 178.605 47.1612 179.195C51.5268 179.785 50.1812 168.442 50.1812 168.442L44.9646 169.161Z" fill="#ECB4B6"/>
<path opacity="0.1" d="M59.2902 106.983C59.1685 106.802 59.0656 106.61 58.983 106.408C58.4024 105.198 56.9093 105.794 55.8156 106.368L55.2319 107.121C54.9655 107.434 54.7414 107.78 54.5652 108.15C54.4531 108.452 54.3597 108.759 54.2856 109.072C54.1351 109.607 53.9139 110.117 53.7142 110.639C53.0519 112.375 52.6592 114.203 52.5498 116.058C52.0531 116.148 51.5493 116.194 51.0444 116.193H51.0076V116.157C51.0629 115.948 51.109 115.736 51.152 115.524C51.3807 114.328 51.4087 113.103 51.2349 111.898C51.2349 111.871 51.2349 111.846 51.2349 111.819C51.195 111.551 51.1428 111.281 51.1213 111.014C51.0199 111.198 50.9216 111.385 50.814 111.576C50.1535 112.805 49.4592 114.034 48.2119 114.571C47.7057 114.77 47.1722 114.89 46.6297 114.928C45.96 114.963 45.2964 115.074 44.6512 115.256C44.4312 115.317 44.2323 115.437 44.0767 115.604C43.903 115.86 43.8032 116.16 43.7879 116.47C43.7213 116.879 43.6185 117.281 43.4807 117.671C42.9166 119.129 42.0351 120.443 40.9001 121.517L40.6143 121.794C40.1277 122.296 39.5474 122.698 38.9062 122.977C38.3236 123.173 37.7111 123.264 37.0967 123.247C37.3701 122.528 37.5944 122.034 37.5944 122.034C37.5944 122.034 38.4915 119.189 39.9661 117.714C40.1688 117.505 40.412 117.339 40.6808 117.226C40.9496 117.114 41.2385 117.057 41.5299 117.06C42.6306 115.758 43.5847 114.34 44.3747 112.829C43.6197 111.805 43.1105 110.62 42.8866 109.368C42.6627 108.115 42.7301 106.827 43.0835 105.605C43.4369 104.382 44.0669 103.257 44.9247 102.317C45.7825 101.377 46.8451 100.647 48.0303 100.183C49.2155 99.7197 50.4914 99.535 51.7594 99.6435C53.0274 99.752 54.2535 100.151 55.3427 100.809C56.4318 101.467 57.3549 102.367 58.0405 103.44C58.7261 104.512 59.1558 105.727 59.2964 106.992L59.2902 106.983Z" fill="black"/>
<path d="M59.8184 100.51C59.3269 99.9631 58.6357 99.6436 57.9751 99.3272C57.74 99.2381 57.5331 99.0874 57.3761 98.8909C57.2614 98.6561 57.1986 98.3995 57.1917 98.1383C56.9613 96.5346 55.4682 95.4255 53.9843 94.7742C52.0734 93.9355 49.7785 93.576 47.9444 94.5714C47.0535 95.0568 46.3499 95.8157 45.545 96.4332C44.5251 97.2135 43.3515 97.7604 42.2639 98.4424C41.1764 99.1244 40.138 99.9785 39.6218 101.164C38.8231 102.977 39.4221 105.057 39.5235 107.035C39.6802 110.157 38.4114 113.416 35.8922 115.263C35.5887 115.449 35.3186 115.684 35.0934 115.96C34.9833 116.099 34.9181 116.269 34.9066 116.446C34.8951 116.623 34.9377 116.8 35.0289 116.952C35.1549 117.124 35.3638 117.223 35.502 117.382C35.7908 117.711 35.7324 118.212 35.6188 118.636C35.2548 120.006 34.5265 121.251 33.5112 122.24C33.5542 122.565 33.9475 122.691 34.2701 122.74C35.1234 122.867 35.985 122.93 36.8476 122.928C37.52 122.983 38.1959 122.88 38.8216 122.628C39.4472 122.376 40.0053 121.981 40.4513 121.475C41.9874 120.031 43.287 118.227 43.6341 116.151C43.6522 115.841 43.7518 115.542 43.9229 115.284C44.0807 115.12 44.2788 115 44.4974 114.937C45.6433 114.544 46.9552 114.737 48.0581 114.252C49.4959 113.637 50.2086 112.101 50.9613 110.694C50.9859 110.962 51.035 111.232 51.0781 111.502C51.2974 112.948 51.2243 114.423 50.863 115.84C50.6572 116.642 50.3592 117.441 50.3807 118.267C50.396 118.882 51.0197 122.092 51.84 121.131C52.6602 120.169 52.3592 118.043 52.3592 116.851C52.3601 114.619 52.7693 112.407 53.5665 110.323C53.7631 109.803 53.9874 109.29 54.138 108.756C54.2124 108.444 54.3047 108.136 54.4145 107.834C54.5929 107.464 54.8179 107.118 55.0842 106.805L55.671 106.052C56.7647 105.472 58.2578 104.882 58.8384 106.092C59.0596 106.556 59.1794 107.069 59.7601 106.618C60.1011 106.35 60.2117 105.825 60.3008 105.426C60.6664 103.751 60.9674 101.782 59.8184 100.51Z" fill="#464353"/>
<path opacity="0.1" d="M48.7001 129.515C48.4758 123.84 40.5342 122.667 38.6817 128.034C38.6666 128.07 38.6543 128.107 38.6448 128.144C37.4313 131.779 37.9597 140.983 37.9597 140.983C37.9597 140.983 38.1164 147.164 38.697 149.22C39.2777 151.275 40.909 157.174 40.909 158.129C40.909 159.084 42.4236 162.713 43.0596 162.977C43.6955 163.241 44.0181 165.293 44.1748 165.662C44.3315 166.031 44.7892 170.826 44.7892 170.826C44.7892 170.826 50.7431 170.458 50.8476 169.508C50.952 168.559 49.5296 163.923 49.5296 163.923C49.5296 163.923 48.482 162.028 48.3468 160.501C48.2116 158.974 47.3883 158.28 47.5511 157.226C47.7139 156.172 47.0749 155.647 47.0749 154.962C47.0749 154.276 46.6018 152.433 46.6018 152.433C46.6018 152.433 45.6003 151.641 45.76 150.694C45.9198 149.748 44.3376 147.849 44.7585 147.164C45.1794 146.479 45.2838 144.793 45.2838 144.793C45.2838 144.793 45.8122 137.207 46.1809 135.152C46.5496 133.097 48.7093 129.779 48.7093 129.779C48.7093 129.779 48.7063 129.684 48.7001 129.515Z" fill="black"/>
<path opacity="0.1" d="M48.4547 162.805C47.0047 164.341 44.934 164.673 43.2996 164.581C43.1091 163.862 42.8326 162.977 42.4302 162.811C41.7911 162.547 40.2796 158.912 40.2796 157.966C40.2796 157.02 38.6483 151.115 38.0676 149.057C37.487 146.998 37.3303 140.823 37.3303 140.823C37.3303 140.823 36.8019 131.607 38.0154 127.981C38.0154 127.948 38.0369 127.911 38.0523 127.874C39.8956 122.504 47.8464 123.68 48.0707 129.355C48.0707 129.524 48.0707 129.616 48.0707 129.616C48.0707 129.616 45.9202 132.934 45.5423 134.989C45.1644 137.044 44.6514 144.63 44.6514 144.63C44.6514 144.63 44.5438 146.316 44.1229 147.001C43.7021 147.687 45.2812 149.585 45.1245 150.531C44.9678 151.478 45.9663 152.27 45.9663 152.27C45.9663 152.27 46.4394 154.114 46.4394 154.802C46.4394 155.49 47.0723 156.012 46.9156 157.066C46.7589 158.12 47.6007 158.805 47.7358 160.332C47.8487 161.188 48.0911 162.022 48.4547 162.805Z" fill="black"/>
<path d="M48.3842 129.358C48.1599 123.683 40.2183 122.51 38.3658 127.877L38.3289 127.985C37.1154 131.622 37.6438 140.826 37.6438 140.826C37.6438 140.826 37.8005 147.005 38.3811 149.06C38.9618 151.115 40.5931 157.017 40.5931 157.969C40.5931 158.922 42.1077 162.553 42.7436 162.817C43.3796 163.081 43.7022 165.137 43.8589 165.505C44.0155 165.874 44.4733 170.667 44.4733 170.667C44.4733 170.667 50.4272 170.298 50.5317 169.352C50.6361 168.405 49.2168 163.766 49.2168 163.766C49.2168 163.766 48.1661 161.868 48.0309 160.341C47.8957 158.814 47.0539 158.129 47.2137 157.075C47.3734 156.021 46.7375 155.493 46.7375 154.808C46.7375 154.123 46.2644 152.279 46.2644 152.279C46.2644 152.279 45.2629 151.49 45.4226 150.541C45.5824 149.591 44.0002 147.696 44.4211 147.011C44.842 146.326 44.9464 144.642 44.9464 144.642C44.9464 144.642 45.4748 137.054 45.8435 134.998C46.2122 132.943 48.3719 129.625 48.3719 129.625C48.3719 129.625 48.3903 129.527 48.3842 129.358Z" fill="#FF748E"/>
<path opacity="0.1" d="M38.605 143.951C38.7617 143.791 41.7663 140.473 42.7125 141.659C43.6587 142.845 38.605 143.951 38.605 143.951Z" fill="black"/>
<path opacity="0.1" d="M38.8818 146.519C38.9986 146.4 41.8834 146.283 42.5961 144.676C43.3089 143.069 38.8818 146.519 38.8818 146.519Z" fill="black"/>
<g opacity="0.1">
<path opacity="0.1" d="M35.5946 117.382C35.6655 117.466 35.7188 117.563 35.7513 117.668C35.8093 117.489 35.8254 117.299 35.7982 117.112C35.7711 116.926 35.7014 116.748 35.5946 116.593C35.4533 116.43 35.2474 116.335 35.1184 116.163C35.1184 116.163 35.103 116.135 35.0938 116.12C35.0226 116.248 34.9872 116.393 34.9916 116.539C34.9959 116.686 35.0397 116.828 35.1184 116.952C35.2628 117.124 35.4533 117.223 35.5946 117.382Z" fill="black"/>
<path opacity="0.1" d="M39.6157 107.149C39.6157 106.842 39.6157 106.534 39.6157 106.252C39.5604 105.176 39.3607 104.073 39.3085 102.995C39.244 104.316 39.5389 105.702 39.6157 107.041C39.6157 107.072 39.6126 107.106 39.6157 107.149Z" fill="black"/>
<path opacity="0.1" d="M51.9292 120.341C51.198 121.198 50.6235 118.731 50.4975 117.757C50.4776 117.927 50.4684 118.097 50.4699 118.267C50.4883 118.882 51.1089 122.092 51.9292 121.131C52.4853 120.479 52.5436 119.37 52.5068 118.347C52.4668 119.131 52.3439 119.856 51.9292 120.341Z" fill="black"/>
<path opacity="0.1" d="M51.1674 111.502C51.2299 111.915 51.2679 112.332 51.2811 112.749C51.3078 112.067 51.2697 111.384 51.1674 110.709C51.1275 110.442 51.0753 110.172 51.0507 109.901C50.2918 111.321 49.5883 112.838 48.1505 113.462C47.0353 113.944 45.7358 113.754 44.5898 114.147C44.3698 114.207 44.1709 114.328 44.0153 114.494C43.8425 114.752 43.7427 115.051 43.7266 115.361C43.3763 117.437 42.0737 119.241 40.5407 120.685C40.0946 121.191 39.5366 121.586 38.9109 121.838C38.2853 122.09 37.6093 122.193 36.937 122.138C36.0754 122.139 35.2149 122.076 34.3625 121.951C34.2303 121.93 34.1006 121.896 33.9754 121.849C33.8556 121.984 33.7296 122.113 33.6006 122.239C33.6436 122.565 34.0399 122.691 34.3625 122.74C35.2148 122.867 36.0753 122.93 36.937 122.927C37.6093 122.983 38.2853 122.88 38.9109 122.628C39.5366 122.375 40.0946 121.98 40.5407 121.474C42.0768 120.03 43.3763 118.227 43.7266 116.15C43.7432 115.841 43.8429 115.541 44.0153 115.284C44.1721 115.119 44.3706 114.999 44.5898 114.937C45.7358 114.543 47.0476 114.737 48.1505 114.252C49.5883 113.637 50.3011 112.101 51.0507 110.694C51.0753 110.961 51.1275 111.232 51.1674 111.502Z" fill="black"/>
<path opacity="0.1" d="M60.3899 104.636C60.3008 105.035 60.1871 105.557 59.8461 105.828C59.2685 106.276 59.1518 105.766 58.9244 105.302C58.3438 104.092 56.8507 104.688 55.757 105.263L55.1702 106.015C54.9039 106.328 54.6797 106.674 54.5035 107.044C54.391 107.345 54.2987 107.653 54.227 107.966C54.0734 108.501 53.8522 109.011 53.6525 109.53C52.8583 111.615 52.4503 113.827 52.4482 116.058C52.4482 116.16 52.4482 116.27 52.4482 116.384C52.503 114.31 52.9091 112.26 53.6495 110.322C53.8492 109.803 54.0704 109.29 54.224 108.756C54.2956 108.443 54.388 108.135 54.5005 107.834C54.6766 107.463 54.9008 107.117 55.1671 106.805L55.7539 106.052C56.8476 105.471 58.3407 104.882 58.9214 106.092C59.1456 106.556 59.2624 107.069 59.843 106.617C60.184 106.35 60.2977 105.825 60.3868 105.425C60.6184 104.5 60.7218 103.547 60.694 102.593C60.6448 103.281 60.5431 103.964 60.3899 104.636Z" fill="black"/>
</g>
<path d="M67.5762 134.547L67.739 134.657C67.6662 134.609 67.6039 134.546 67.5557 134.473C67.5076 134.4 67.4747 134.318 67.4589 134.232C67.4432 134.146 67.4449 134.058 67.464 133.973C67.483 133.887 67.5191 133.807 67.57 133.736L74.8942 123.124C74.9425 123.054 75.0044 122.993 75.0762 122.946C75.148 122.9 75.2284 122.868 75.3127 122.852C75.397 122.837 75.4835 122.838 75.5672 122.857C75.6509 122.875 75.7302 122.909 75.8005 122.958L75.6376 122.845C75.866 123.003 76.0225 123.245 76.0726 123.518C76.1227 123.791 76.0624 124.072 75.9049 124.301L69.0324 134.276C68.8746 134.505 68.6329 134.661 68.36 134.712C68.0872 134.763 67.8054 134.703 67.5762 134.547Z" fill="#464353"/>
<path d="M75.7161 122.885L75.8401 122.97L67.7781 134.674L67.6541 134.589C67.5373 134.508 67.4573 134.385 67.4316 134.245C67.4059 134.106 67.4367 133.962 67.5171 133.845L74.9709 123.024C75.0513 122.908 75.1748 122.828 75.3143 122.802C75.4537 122.776 75.5976 122.807 75.7144 122.887L75.7161 122.885Z" fill="#9F9EFF"/>
<path d="M74.8104 124.484L74.7876 124.469C74.7639 124.452 74.7314 124.458 74.715 124.482L74.1172 125.35C74.1009 125.374 74.1069 125.406 74.1306 125.422L74.1534 125.438C74.1771 125.454 74.2097 125.448 74.226 125.425L74.8238 124.557C74.8402 124.533 74.8342 124.501 74.8104 124.484Z" fill="#464353"/>
<path d="M230.23 86.6357C230.233 87.6856 229.924 88.7126 229.342 89.5867C228.761 90.4609 227.933 91.1428 226.964 91.5463C225.994 91.9497 224.927 92.0566 223.897 91.8532C222.867 91.6499 221.921 91.1455 221.177 90.404C220.434 89.6625 219.928 88.7171 219.722 87.6876C219.516 86.6581 219.621 85.5906 220.022 84.6204C220.423 83.6502 221.103 82.8209 221.976 82.2373C222.849 81.6538 223.875 81.3423 224.925 81.3423C226.33 81.3423 227.677 81.8996 228.672 82.8919C229.667 83.8843 230.227 85.2307 230.23 86.6357ZM224.31 89.4437L228.249 85.5082C228.312 85.4438 228.348 85.3572 228.348 85.267C228.348 85.1768 228.312 85.0902 228.249 85.0259L227.764 84.5405C227.732 84.5084 227.695 84.4829 227.653 84.4656C227.612 84.4482 227.567 84.4392 227.522 84.4392C227.477 84.4392 227.433 84.4482 227.392 84.4656C227.35 84.4829 227.313 84.5084 227.281 84.5405L224.071 87.7509L222.572 86.2578C222.507 86.1944 222.42 86.1589 222.329 86.1589C222.238 86.1589 222.151 86.1944 222.086 86.2578L221.604 86.7432C221.572 86.7747 221.546 86.8122 221.529 86.8536C221.512 86.895 221.503 86.9395 221.503 86.9844C221.503 87.0293 221.512 87.0738 221.529 87.1152C221.546 87.1566 221.572 87.1941 221.604 87.2256L223.828 89.4498C223.86 89.4819 223.897 89.5073 223.938 89.5247C223.98 89.5421 224.024 89.551 224.069 89.551C224.114 89.551 224.159 89.5421 224.2 89.5247C224.241 89.5073 224.279 89.4819 224.31 89.4498V89.4437Z" fill="#3ACC6C"/>
<path d="M165.957 144.866C165.957 145.916 165.646 146.941 165.063 147.814C164.48 148.686 163.651 149.366 162.682 149.768C161.712 150.17 160.646 150.275 159.616 150.07C158.587 149.865 157.642 149.36 156.9 148.618C156.158 147.876 155.652 146.931 155.448 145.901C155.243 144.872 155.348 143.805 155.75 142.836C156.151 141.866 156.831 141.038 157.704 140.455C158.576 139.872 159.602 139.561 160.651 139.561C162.059 139.561 163.408 140.12 164.403 141.115C165.398 142.11 165.957 143.459 165.957 144.866ZM160.037 147.674L163.988 143.739C164.02 143.707 164.045 143.669 164.063 143.628C164.08 143.586 164.089 143.541 164.089 143.496C164.089 143.451 164.08 143.406 164.063 143.365C164.045 143.323 164.02 143.285 163.988 143.253L163.49 142.786C163.458 142.754 163.421 142.729 163.379 142.711C163.337 142.694 163.293 142.685 163.247 142.685C163.202 142.685 163.158 142.694 163.116 142.711C163.074 142.729 163.036 142.754 163.005 142.786L159.794 145.981L158.295 144.482C158.264 144.45 158.226 144.425 158.185 144.407C158.143 144.39 158.099 144.381 158.054 144.381C158.009 144.381 157.964 144.39 157.923 144.407C157.882 144.425 157.844 144.45 157.813 144.482L157.327 144.965C157.264 145.029 157.228 145.117 157.228 145.207C157.228 145.298 157.264 145.385 157.327 145.45L159.552 147.674C159.583 147.706 159.621 147.732 159.663 147.749C159.704 147.767 159.749 147.776 159.794 147.776C159.839 147.776 159.884 147.767 159.926 147.749C159.967 147.732 160.005 147.706 160.037 147.674Z" fill="#3ACC6C"/>
<path d="M165.957 202.827C165.957 203.876 165.646 204.902 165.063 205.774C164.48 206.647 163.651 207.327 162.682 207.728C161.712 208.13 160.646 208.235 159.616 208.03C158.587 207.826 157.642 207.32 156.9 206.578C156.158 205.836 155.652 204.891 155.448 203.862C155.243 202.833 155.348 201.766 155.75 200.796C156.151 199.827 156.831 198.998 157.704 198.415C158.576 197.832 159.602 197.521 160.651 197.521C162.059 197.521 163.408 198.08 164.403 199.075C165.398 200.07 165.957 201.42 165.957 202.827ZM160.037 205.635L163.988 201.699C164.02 201.667 164.045 201.63 164.063 201.588C164.08 201.546 164.089 201.502 164.089 201.456C164.089 201.411 164.08 201.367 164.063 201.325C164.045 201.283 164.02 201.245 163.988 201.214L163.505 200.731C163.474 200.699 163.436 200.674 163.394 200.656C163.353 200.639 163.308 200.63 163.263 200.63C163.218 200.63 163.173 200.639 163.131 200.656C163.09 200.674 163.052 200.699 163.02 200.731L159.81 203.942L158.31 202.443C158.279 202.411 158.241 202.385 158.2 202.368C158.159 202.35 158.114 202.341 158.069 202.341C158.024 202.341 157.98 202.35 157.938 202.368C157.897 202.385 157.86 202.411 157.828 202.443L157.343 202.925C157.279 202.99 157.244 203.077 157.244 203.168C157.244 203.258 157.279 203.346 157.343 203.41L159.567 205.635C159.599 205.667 159.636 205.692 159.678 205.71C159.72 205.727 159.764 205.736 159.81 205.736C159.855 205.736 159.899 205.727 159.941 205.71C159.983 205.692 160.021 205.667 160.052 205.635H160.037Z" fill="#3ACC6C"/>
</g>
<defs>
<linearGradient id="paint0_linear" x1="164.529" y1="216.731" x2="164.529" y2="0" gradientUnits="userSpaceOnUse">
<stop stop-color="#808080" stop-opacity="0.25"/>
<stop offset="0.54" stop-color="#808080" stop-opacity="0.12"/>
<stop offset="1" stop-color="#808080" stop-opacity="0.1"/>
</linearGradient>
<linearGradient id="paint1_linear" x1="15276.4" y1="115555" x2="15276.4" y2="50793.1" gradientUnits="userSpaceOnUse">
<stop stop-color="#808080" stop-opacity="0.25"/>
<stop offset="0.54" stop-color="#808080" stop-opacity="0.12"/>
<stop offset="1" stop-color="#808080" stop-opacity="0.1"/>
</linearGradient>
<clipPath id="clip0">
<rect width="312" height="240.716" fill="white"/>
</clipPath>
</defs>
</svg>
