<svg width="15" height="15" viewBox="0 0 15 15" fill="none" xmlns="http://www.w3.org/2000/svg">
<path fill-rule="evenodd" clip-rule="evenodd" d="M7.44216 2.77641C8.75216 2.77641 9.63585 3.35882 10.1397 3.84549L12.1086 1.8669C10.8994 0.710062 9.32578 0 7.44216 0C4.71364 0 2.35719 1.6116 1.20996 3.95718L3.46565 5.76026C4.03151 4.02899 5.59732 2.77641 7.44216 2.77641Z" fill="#EA4335"/>
<path fill-rule="evenodd" clip-rule="evenodd" d="M14.1392 7.33994C14.1392 6.74955 14.0927 6.31873 13.9919 5.87195H7.44189V8.53666H11.2866C11.2091 9.19885 10.7905 10.1961 9.86037 10.8663L12.0618 12.6215C13.3795 11.3689 14.1392 9.52596 14.1392 7.33994Z" fill="#4285F4"/>
<path fill-rule="evenodd" clip-rule="evenodd" d="M3.47292 8.60046C3.32564 8.15368 3.24037 7.67499 3.24037 7.18035C3.24037 6.68569 3.32564 6.207 3.46517 5.76022L1.20948 3.95715C0.736635 4.93049 0.465332 6.0235 0.465332 7.18035C0.465332 8.33718 0.736635 9.43019 1.20948 10.4035L3.47292 8.60046Z" fill="#FBBC05"/>
<path fill-rule="evenodd" clip-rule="evenodd" d="M7.44224 14.3608C9.32586 14.3608 10.9072 13.7226 12.0622 12.6216L9.86073 10.8664C9.27161 11.2892 8.48092 11.5844 7.44224 11.5844C5.59738 11.5844 4.03157 10.3319 3.47346 8.60059L1.21777 10.4037C2.365 12.7492 4.7137 14.3608 7.44224 14.3608Z" fill="#34A853"/>
</svg>
