<svg width="78" height="79" viewBox="0 0 78 79" fill="none" xmlns="http://www.w3.org/2000/svg">
<path d="M39.0004 78.6105C60.4675 78.6105 77.87 61.2154 77.87 39.7575C77.87 18.2996 60.4675 0.904541 39.0004 0.904541C17.5334 0.904541 0.130859 18.2996 0.130859 39.7575C0.130859 61.2154 17.5334 78.6105 39.0004 78.6105Z" fill="white"/>
<path d="M77.4521 39.7575C77.4521 60.9845 60.2369 78.1927 39.0004 78.1927C17.764 78.1927 0.548723 60.9845 0.548723 39.7575C0.548723 18.5306 17.764 1.3224 39.0004 1.3224C60.2369 1.3224 77.4521 18.5306 77.4521 39.7575Z" stroke="#8CA0B3" stroke-opacity="0.2" stroke-width="0.835726"/>
<path d="M63.8782 28.0682H14.1206V61.3604H63.8782V28.0682Z" fill="#FFDA00"/>
<path d="M14.5385 60.9425V28.4861H63.4603V60.9425H14.5385Z" stroke="#8CA0B3" stroke-opacity="0.2" stroke-width="0.835726"/>
<path d="M63.8801 28.0682H39.0264V61.3604H63.8801V28.0682Z" fill="#FFB600"/>
<path d="M39.4442 60.9425V28.4861H63.4622V60.9425H39.4442Z" stroke="#8CA0B3" stroke-opacity="0.2" stroke-width="0.835726"/>
<path d="M63.879 61.3593L45.306 43.992C41.7574 40.6737 36.2426 40.6737 32.6939 43.992L14.1211 61.3593H63.879Z" fill="#FFF04A"/>
<path d="M45.0206 44.2972L62.8203 60.9414H15.1798L32.9793 44.2972C36.3674 41.1291 41.6326 41.1291 45.0206 44.2972Z" stroke="#8CA0B3" stroke-opacity="0.2" stroke-width="0.835726"/>
<path d="M45.306 43.992C43.5383 42.3391 41.2827 41.5101 39 41.5039V61.3595H63.879L45.306 43.992Z" fill="#FFDA00"/>
<path d="M39.4179 41.9326C41.4546 42.0324 43.4415 42.8206 45.0206 44.2972L62.8203 60.9416H39.4179V41.9326Z" stroke="#8CA0B3" stroke-opacity="0.2" stroke-width="0.835726"/>
<path d="M63.879 28.0681V28.0678H63.8787L45.9067 11.2623C42.02 7.62805 35.9801 7.62805 32.0934 11.2623L14.1212 28.0678H14.1211L14.1212 28.0679L14.1211 28.0681H14.1214L32.0936 44.8735C35.9802 48.5078 42.0202 48.5078 45.9068 44.8735L63.879 28.0681Z" fill="white"/>
<path d="M32.379 44.5683L14.733 28.0678L32.3788 11.5675C36.1048 8.08346 41.8953 8.08346 45.6213 11.5675L63.2672 28.068L45.6214 44.5683C41.8954 48.0524 36.105 48.0524 32.379 44.5683Z" stroke="#8CA0B3" stroke-opacity="0.2" stroke-width="0.835726"/>
<path d="M63.8789 28.068H63.8786L45.9066 11.2624C43.9698 9.45149 41.4986 8.54345 39 8.53723V47.5988C41.4986 47.5925 43.97 46.6847 45.9066 44.8736L63.8789 28.068L63.8791 28.0681V28.068H63.8789Z" fill="#EBEBF0"/>
<path d="M39.4179 47.171V8.96496C41.6709 9.06554 43.8731 9.93308 45.6212 11.5676C45.6212 11.5676 45.6212 11.5676 45.6212 11.5676L63.267 28.0681L45.6212 44.5684L45.9066 44.8736L45.6212 44.5684C43.8732 46.203 41.6709 47.0705 39.4179 47.171Z" stroke="#8CA0B3" stroke-opacity="0.2" stroke-width="0.835726"/>
<path d="M47.1989 19.6902V27.2509C47.1989 27.2509 47.1989 35.0712 38.9239 39.7575C38.6166 39.5863 38.321 39.4034 38.0373 39.2204C30.6489 34.4987 30.6489 27.2509 30.6489 27.2509V19.6902C30.6509 19.0391 31.179 18.5117 31.8311 18.5098H46.0167C46.6688 18.5118 47.1969 19.0391 47.1989 19.6902Z" fill="#5FC77E"/>
<path d="M46.781 27.2506V27.2509L46.781 27.2531L46.7808 27.2664C46.7807 27.2722 46.7806 27.2795 46.7803 27.2883C46.7801 27.2986 46.7797 27.311 46.7792 27.3254C46.7774 27.3788 46.7736 27.4598 46.7659 27.5658C46.7506 27.7779 46.7195 28.0897 46.657 28.4799C46.5318 29.2607 46.2807 30.3532 45.7775 31.5893C44.79 34.015 42.8297 37.0003 38.9231 39.2761C38.6983 39.145 38.4787 39.0079 38.2637 38.8692L38.2623 38.8683C34.6558 36.5635 32.8598 33.6489 31.9625 31.315C31.5132 30.1465 31.2891 29.1227 31.1774 28.3938C31.1216 28.0295 31.0939 27.7395 31.0802 27.5425C31.0734 27.4441 31.07 27.3689 31.0684 27.3195C31.0675 27.2948 31.0671 27.2766 31.067 27.265L31.0668 27.2528L31.0668 27.2505L31.0668 27.2505V19.6909C31.0683 19.2706 31.4094 18.9292 31.8318 18.9276H46.016C46.4384 18.9292 46.7794 19.2706 46.781 19.6909C46.781 19.6911 46.781 19.6913 46.781 19.6915V27.2504L46.781 27.2505V27.2506Z" stroke="#8CA0B3" stroke-opacity="0.2" stroke-width="0.835726"/>
<path d="M45.4257 19.6902V27.2509C45.4257 27.2509 45.4257 34.4987 38.0373 39.2204C30.6489 34.4987 30.6489 27.2509 30.6489 27.2509V19.6902C30.6509 19.0391 31.179 18.5117 31.8311 18.5098H44.2435C44.8956 18.5118 45.4237 19.0391 45.4257 19.6902Z" fill="#4FBA6F"/>
<path d="M45.0078 27.2505V27.2509L45.0078 27.2528L45.0076 27.265C45.0074 27.2766 45.007 27.2948 45.0062 27.3195C45.0046 27.3689 45.0012 27.4441 44.9944 27.5425C44.9807 27.7395 44.953 28.0295 44.8972 28.3938C44.7855 29.1227 44.5613 30.1465 44.1121 31.315C43.2336 33.5999 41.4939 36.4412 38.0373 38.7222C34.5807 36.4412 32.8409 33.5999 31.9625 31.315C31.5132 30.1465 31.2891 29.1227 31.1774 28.3938C31.1216 28.0295 31.0939 27.7395 31.0802 27.5425C31.0734 27.4441 31.07 27.3689 31.0684 27.3195C31.0675 27.2948 31.0671 27.2766 31.067 27.265L31.0668 27.2528L31.0668 27.2505L31.0668 27.2505V19.6909C31.0683 19.2706 31.4094 18.9292 31.8318 18.9276H44.2428C44.6652 18.9292 45.0062 19.2706 45.0078 19.6909V27.2504V27.2505Z" stroke="#8CA0B3" stroke-opacity="0.2" stroke-width="0.835726"/>
<path d="M44.835 20.8706V27.2508C44.8291 27.4869 44.6754 33.0644 38.9243 36.9775C38.6091 36.765 38.3135 36.5467 38.0377 36.3224C33.0786 32.4151 33.0137 27.3098 33.0137 27.2508V20.8706H44.835Z" fill="#FDD834"/>
<path d="M38.3014 35.9982L38.3014 35.9981L38.2963 35.9942C35.889 34.0974 34.674 31.9146 34.0593 30.2023C33.4509 28.5073 33.4319 27.2756 33.4315 27.2512C33.4315 27.2508 33.4315 27.2507 33.4315 27.2508V21.2885H44.4171V27.2455C44.4103 27.5043 44.2367 32.7089 38.9237 36.4694C38.7052 36.315 38.4978 36.158 38.3014 35.9982Z" stroke="#8CA0B3" stroke-opacity="0.2" stroke-width="0.835726"/>
<path d="M42.4707 20.8706C42.7972 20.8706 43.0618 21.1349 43.0618 21.4608V27.2508C43.0559 27.4751 42.9199 32.4742 38.0377 36.3224C33.0786 32.4151 33.0137 27.3098 33.0137 27.2508V20.8706H42.4707Z" fill="#FFEB3A"/>
<path d="M42.4707 21.2885C42.5669 21.2885 42.6439 21.3662 42.6439 21.4608V27.2452C42.6371 27.4933 42.4825 32.114 38.0377 35.7855C35.8011 33.9388 34.6516 31.8521 34.0593 30.2023C33.4509 28.5073 33.4319 27.2756 33.4315 27.2512C33.4315 27.2508 33.4315 27.2507 33.4315 27.2508V21.2885H42.4707Z" stroke="#8CA0B3" stroke-opacity="0.2" stroke-width="0.835726"/>
<path d="M44.2434 20.2804C43.9169 20.2804 43.6523 20.5447 43.6523 20.8706C43.6523 21.1965 43.917 21.4608 44.2434 21.4608V27.2449C44.2399 27.4674 44.0927 32.7469 38.591 36.4918C38.4101 36.6078 38.3065 36.8128 38.3206 37.0271C38.3347 37.2414 38.4642 37.4311 38.6588 37.5225C38.8533 37.614 39.0823 37.5926 39.2566 37.4668C45.2589 33.3832 45.4215 27.5105 45.4255 27.2532V21.4608C45.4255 20.8089 44.8963 20.2804 44.2434 20.2804Z" fill="#31393C"/>
<path d="M44.6613 21.4608V21.0429H44.2434C44.1472 21.0429 44.0702 20.9651 44.0702 20.8706C44.0702 20.776 44.1472 20.6983 44.2434 20.6983C44.6661 20.6983 45.0077 21.0402 45.0077 21.4608V27.2497C45.003 27.5025 44.8305 33.1692 39.0216 37.1214L39.0215 37.1212L39.0121 37.128C38.9609 37.1649 38.8936 37.1712 38.8365 37.1443C38.7793 37.1175 38.7417 37.062 38.7376 36.9997L38.7376 36.9996C38.7335 36.9374 38.7635 36.8776 38.8166 36.8436L38.8166 36.8437L38.8262 36.8372C44.493 32.9799 44.6568 27.5302 44.6612 27.2515L44.6613 27.2515V27.2449V21.4608Z" stroke="#8CA0B3" stroke-opacity="0.2" stroke-width="0.835726"/>
<path d="M33.604 27.2531V21.4608H40.1058C40.4322 21.4608 40.6968 21.1966 40.6968 20.8706C40.6968 20.5446 40.4322 20.2804 40.1058 20.2804H33.604C32.9511 20.2804 32.4219 20.8089 32.4219 21.4608V27.2532C32.5878 29.6679 33.4477 31.9836 34.8985 33.9227C35.0901 34.1867 35.4598 34.2456 35.7242 34.0543C35.9886 33.863 36.0476 33.4938 35.856 33.2298C34.555 31.49 33.7742 29.4177 33.604 27.2531Z" fill="#31393C"/>
<path d="M33.1862 27.2531V27.2695L33.1875 27.2859C33.3637 29.528 34.1721 31.6745 35.519 33.4769C35.5734 33.5537 35.556 33.6602 35.4792 33.7157C35.4015 33.772 35.2927 33.7545 35.2367 33.6772L35.2367 33.6772L35.2331 33.6723C33.8333 31.8015 33.0026 29.568 32.8397 27.2387V21.4608C32.8397 21.0402 33.1813 20.6983 33.604 20.6983H40.1058C40.202 20.6983 40.279 20.776 40.279 20.8706C40.279 20.9652 40.202 21.0429 40.1058 21.0429H33.604H33.1862V21.4608V27.2531Z" stroke="#8CA0B3" stroke-opacity="0.2" stroke-width="0.835726"/>
<path d="M42.8879 24.5109C42.6571 24.2805 42.283 24.2805 42.0522 24.5109L37.6676 28.8891L36.9773 28.1997C36.7454 27.9761 36.3767 27.9792 36.1487 28.2069C35.9207 28.4346 35.9175 28.8027 36.1415 29.0343L37.2498 30.141C37.4806 30.3713 37.8547 30.3713 38.0855 30.141L42.8879 25.3455C43.1187 25.115 43.1187 24.7415 42.8879 24.5109Z" fill="#31393C"/>
<path d="M37.6676 29.4796L37.3724 29.1848L36.6853 28.4987C36.6172 28.4349 36.5102 28.4365 36.444 28.5026L36.444 28.5026C36.378 28.5685 36.3765 28.6743 36.4401 28.7419L37.545 29.8452C37.545 29.8452 37.545 29.8453 37.545 29.8453C37.6127 29.9128 37.7226 29.9128 37.7903 29.8453C37.7903 29.8453 37.7903 29.8452 37.7903 29.8452L42.5927 25.0498C42.6599 24.9826 42.66 24.874 42.5927 24.8067L37.6676 29.4796ZM37.6676 29.4796L37.9629 29.1848L42.3474 24.8067C42.3474 24.8066 42.3474 24.8066 42.3474 24.8066C42.4151 24.7391 42.525 24.7391 42.5926 24.8066L37.6676 29.4796Z" stroke="#8CA0B3" stroke-opacity="0.2" stroke-width="0.835726"/>
</svg>
