<svg width="322" height="322" viewBox="0 0 322 322" fill="none" xmlns="http://www.w3.org/2000/svg">
<path d="M247.628 121.031L243.659 95.6925L220.308 111.337L226.958 113.698L160.213 237.343L152.843 223.686L209.651 118.46L216.892 121.031L212.93 95.6925L189.571 111.337L195.797 113.541L144.587 208.396L137.217 194.739L178.187 118.841L184.352 121.031L180.383 95.6925L157.032 111.337L164.333 113.928L128.969 179.449L91.9607 110.897H75.2139L121.251 195.953H121.417L136.982 224.703H137.149L152.707 253.459H168.022L240.819 118.611L247.628 121.031Z" fill="#2D74DA" fill-opacity="0.5"/>
<path d="M321 240.995V80.9984L161 1L1 80.9984V240.995L161 321L321 240.995Z" stroke="#2D74DA" stroke-opacity="0.5" stroke-width="1.70768" stroke-miterlimit="10"/>
</svg>
