<svg width="72" height="57" viewBox="0 0 72 57" fill="none" xmlns="http://www.w3.org/2000/svg">
<path d="M7.48143 44.9819L4.46536 51.7718L1.47961 44.9819H0.358059L3.88943 52.954H4.99583L8.54235 44.9819H7.48143ZM19.9753 48.9679C19.9753 46.5733 18.3536 44.9212 16.1105 44.9212C13.8674 44.9212 12.2153 46.6036 12.2153 48.9679C12.2153 51.3323 13.9128 53.0298 16.3984 53.0298C17.6564 53.0298 18.7628 52.5751 19.4751 51.7263L18.8689 51.0292C18.2626 51.7263 17.3987 52.0749 16.4287 52.0749C14.6858 52.0749 13.4127 50.9685 13.2914 49.3014H19.9601C19.9601 49.1801 19.9753 49.0589 19.9753 48.9679ZM16.1105 45.8458C17.6715 45.8458 18.8082 46.937 18.9446 48.4981H13.2914C13.4278 46.937 14.5645 45.8458 16.1105 45.8458ZM29.4102 44.9212C28.031 44.9212 26.9549 45.482 26.379 46.452V44.9819H25.3483V52.954H26.4244V48.7709C26.4244 46.9522 27.5005 45.8912 29.2131 45.8912C30.7288 45.8912 31.6078 46.7551 31.6078 48.4375V52.954H32.6839V48.3314C32.6839 46.0428 31.3502 44.9212 29.4102 44.9212Z" fill="#2D74DA"/>
<path d="M42.0922 53.0298C43.4411 53.0298 44.5778 52.4841 45.2143 51.4535L44.411 50.9079C43.8654 51.7112 43.0167 52.0749 42.0922 52.0749C40.3492 52.0749 39.0761 50.8473 39.0761 48.9679C39.0761 47.1037 40.3492 45.8609 42.0922 45.8609C43.0167 45.8609 43.8654 46.2398 44.411 47.0431L45.2143 46.4975C44.5778 45.4517 43.4411 44.9212 42.0922 44.9212C39.7127 44.9212 37.9849 46.5884 37.9849 48.9679C37.9849 51.3474 39.7127 53.0298 42.0922 53.0298ZM51.5416 46.5429V44.9819H50.511V52.954H51.5871V48.8921C51.5871 47.0128 52.6026 45.9519 54.2697 45.9519C54.3455 45.9519 54.4365 45.967 54.5274 45.967V44.9212C53.0572 44.9212 52.0418 45.482 51.5416 46.5429ZM65.8849 44.9819V49.165C65.8849 50.9837 64.8391 52.0598 63.1719 52.0598C61.6563 52.0598 60.7773 51.1959 60.7773 49.4984V44.9819H59.7012V49.6045C59.7012 51.8931 61.0349 53.0298 63.0658 53.0298C64.3389 53.0298 65.3696 52.469 65.9303 51.499V52.954H66.961V44.9819H65.8849Z" fill="#4D4D4D"/>
<path d="M41.9958 13.5568L44.1867 11.8542L44.5591 14.6119L43.9503 14.3609L43.9174 14.3473L43.9023 14.3796L36.7646 29.7167H35.3084L33.7908 26.463L33.7808 26.4415H33.7644L32.2461 23.1885L32.2361 23.167H32.2197L27.7343 13.5541H29.2963L32.9201 21.3403L32.9538 21.4129L32.9876 21.3403L36.46 13.8777L36.4764 13.8423L36.4404 13.8275L35.7829 13.5568L37.9738 11.8542L38.3462 14.6119L37.8006 14.3871L37.7677 14.3735L37.7526 14.4058L33.7299 23.0504L33.7226 23.0661L33.7299 23.0818L34.4536 24.6372L34.4874 24.7099L34.5211 24.6372L39.5493 13.8336L39.5658 13.7982L39.5297 13.7834L38.9779 13.5568L41.1695 11.8542L41.5412 14.612L40.89 14.3437L40.857 14.3301L40.842 14.3625L35.2642 26.3473L35.2569 26.363L35.2642 26.3787L35.9878 27.9341L36.0216 28.0068L36.0554 27.9341L42.6089 13.8515L42.6254 13.8162L42.5893 13.8013L41.9958 13.5568Z" fill="#2D74DA" stroke="#2D74DA" stroke-width="0.0745394"/>
<path d="M52.1094 28.3345V10.1115L36.3994 1L20.6895 10.1115V28.3345L36.3994 37.4467L52.1094 28.3345Z" stroke="#2D74DA" stroke-width="1.54148" stroke-miterlimit="10"/>
</svg>
