<svg width="160" height="57" viewBox="0 0 160 57" fill="none" xmlns="http://www.w3.org/2000/svg">
<path d="M49.673 28.0385C49.673 32.5635 49.673 37.0722 49.673 41.5972C49.673 41.9566 49.5914 42.1526 49.2647 42.3323C41.3254 46.841 33.3862 51.366 25.4634 55.8911C25.1203 56.0871 24.8916 56.0871 24.5486 55.8911C16.593 51.3334 8.62113 46.792 0.632912 42.267C0.420546 42.1526 0.338867 42.022 0.338867 41.7606C0.338867 32.5962 0.338867 23.4318 0.338867 14.2837C0.338867 14.0387 0.420546 13.9243 0.632912 13.81C8.6538 9.25229 16.6584 4.67826 24.6792 0.104231C24.9243 -0.0427916 25.104 -0.0264558 25.3327 0.104231C33.3536 4.67826 41.3581 9.23596 49.379 13.81C49.624 13.957 49.6567 14.1204 49.6567 14.3654C49.673 18.9231 49.673 23.4808 49.673 28.0385ZM47.386 28.0058C47.386 23.9219 47.386 19.8379 47.386 15.7539C47.386 15.4272 47.288 15.2475 47.0103 15.0842C39.7899 10.9839 32.5694 6.86726 25.3653 2.75063C25.1203 2.60361 24.9406 2.58728 24.6629 2.7343C17.4261 6.8836 10.173 11.0166 2.91993 15.1332C2.7239 15.2475 2.62588 15.3619 2.62588 15.6069C2.62588 23.8892 2.62588 32.1878 2.62588 40.47C2.62588 40.6987 2.70756 40.8131 2.88726 40.9111C10.1567 45.0441 17.4098 49.177 24.6792 53.3263C24.957 53.4734 25.1366 53.4244 25.3817 53.2937C32.6021 49.177 39.8389 45.0604 47.0757 40.9438C47.337 40.7968 47.4024 40.6334 47.4024 40.372C47.386 36.2554 47.386 32.1224 47.386 28.0058Z" fill="#2D74DA"/>
<path d="M64.3915 33.805C64.8326 32.8249 65.2246 31.9427 65.6004 31.0769C67.0542 27.7934 68.4918 24.5263 69.9293 21.2428C70.0437 20.9977 70.1744 20.8997 70.4521 20.916C70.9585 20.9324 71.4649 20.9324 71.955 20.916C72.298 20.8997 72.298 21.0141 72.1837 21.2754C71.0565 23.8402 69.9293 26.3885 68.8022 28.9533C67.7403 31.371 66.6785 33.7723 65.633 36.19C65.486 36.5168 65.339 36.6801 64.9469 36.6474C64.5059 36.5984 64.0484 36.6148 63.6074 36.6474C63.2643 36.6801 63.1336 36.5331 63.0193 36.2554C60.8466 31.2893 58.6576 26.3069 56.4686 21.3408C56.2889 20.9324 56.3053 20.916 56.73 20.916C57.2527 20.916 57.7592 20.9324 58.2819 20.916C58.5923 20.8997 58.7556 20.9977 58.8863 21.2918C60.6179 25.2614 62.3495 29.231 64.0975 33.2006C64.1791 33.3639 64.2608 33.5273 64.3915 33.805Z" fill="#2D74DA"/>
<path d="M83.7493 31.4037C82.2464 31.4037 80.7598 31.4037 79.2569 31.4037C78.9955 31.4037 78.9139 31.4527 78.9629 31.7468C79.2896 33.364 80.5801 34.5729 82.2627 34.8179C83.8473 35.0466 85.3012 34.7852 86.4937 33.6417C86.6734 33.462 86.7551 33.5437 86.8694 33.6907C87.1308 34.0174 87.4085 34.3442 87.6862 34.6545C87.8496 34.8342 87.8005 34.9322 87.6535 35.0793C86.657 36.0758 85.4319 36.5822 84.0596 36.7455C82.4751 36.9252 80.9558 36.7292 79.5673 35.8961C77.705 34.7852 76.8065 33.0863 76.7412 30.9626C76.6759 28.7083 77.4273 26.797 79.4039 25.5718C81.4949 24.2813 83.7003 24.2323 85.8239 25.4901C87.9149 26.7317 88.6337 28.7246 88.601 31.077C88.601 31.371 88.4703 31.4364 88.2089 31.4364C86.7387 31.3874 85.2358 31.4037 83.7493 31.4037ZM82.7201 29.8518C83.8473 29.8518 84.9745 29.8355 86.1016 29.8681C86.4773 29.8845 86.559 29.7701 86.4773 29.4107C86.0689 27.6301 84.5334 26.4213 82.6874 26.4376C80.7761 26.454 79.3386 27.6465 78.9465 29.4924C78.8812 29.7865 78.9302 29.8681 79.2406 29.8681C80.4168 29.8355 81.5766 29.8518 82.7201 29.8518Z" fill="#2D74DA"/>
<path d="M98.4191 26.4866C99.1542 25.5718 100.004 25.0654 101 24.8204C102.519 24.461 104.006 24.4773 105.395 25.2451C106.979 26.1272 107.6 27.6138 107.633 29.3291C107.682 31.6651 107.649 34.0174 107.649 36.3535C107.649 36.6148 107.535 36.6475 107.338 36.6312C106.832 36.6148 106.326 36.6148 105.836 36.6312C105.525 36.6475 105.476 36.5168 105.476 36.2555C105.493 34.1808 105.476 32.1225 105.476 30.0478C105.476 29.6885 105.46 29.3127 105.395 28.9533C105.133 27.6138 104.382 26.8134 103.026 26.601C101.539 26.3723 100.167 26.6337 99.1869 27.9405C98.7132 28.5776 98.5171 29.3454 98.5008 30.1295C98.4845 32.1552 98.4845 34.1808 98.5008 36.2064C98.5008 36.5332 98.4191 36.6639 98.0761 36.6312C97.6023 36.5985 97.1286 36.6148 96.6548 36.6312C96.4098 36.6312 96.3281 36.5658 96.3281 36.3208C96.3281 32.5472 96.3281 28.7737 96.3281 25.0164C96.3281 24.7877 96.3935 24.706 96.6222 24.706C97.1286 24.7224 97.635 24.7224 98.1251 24.706C98.3374 24.706 98.4028 24.7877 98.4028 25.0001C98.4191 25.4575 98.4191 25.8985 98.4191 26.4866Z" fill="#2D74DA"/>
<path d="M156.934 34.9159C155.284 36.7945 153.275 37.1049 151.069 36.5332C149.158 36.0431 148.145 34.7036 147.851 32.7923C147.786 32.3512 147.77 31.8938 147.77 31.4527C147.77 29.3291 147.77 27.2054 147.77 25.0818C147.77 24.8041 147.819 24.6897 148.129 24.706C148.603 24.7387 149.076 24.7387 149.55 24.706C149.861 24.6897 149.942 24.7877 149.942 25.0981C149.926 27.1401 149.942 29.1821 149.942 31.224C149.942 31.6651 149.975 32.0898 150.073 32.5146C150.351 33.7398 151.069 34.5239 152.311 34.7526C154.369 35.112 156.084 34.2952 156.656 32.4002C156.803 31.8938 156.852 31.3874 156.852 30.8646C156.852 28.9534 156.869 27.0584 156.836 25.1471C156.836 24.7714 156.95 24.6897 157.293 24.706C157.734 24.7387 158.159 24.7387 158.6 24.706C158.927 24.6897 158.992 24.8041 158.992 25.1144C158.976 28.5776 158.992 32.0245 158.976 35.4877C158.976 35.8471 159.123 36.3208 158.911 36.5495C158.698 36.7782 158.224 36.6149 157.849 36.6149C156.934 36.6312 156.934 36.6149 156.934 35.6837C156.934 35.4713 156.934 35.2426 156.934 34.9159Z" fill="#2D74DA"/>
<path d="M121.551 36.7782C119.165 36.7292 117.205 35.8634 116.029 33.7234C114.15 30.3255 115.67 25.3267 120.587 24.6896C122.318 24.4609 123.952 24.755 125.357 25.8658C125.716 26.1599 126.01 26.5193 126.272 26.895C126.402 27.0747 126.419 27.189 126.19 27.3034C125.798 27.5321 125.422 27.7771 125.063 28.0385C124.85 28.1855 124.736 28.1528 124.589 27.9568C123.576 26.6826 122.237 26.3069 120.685 26.5846C119.198 26.846 118.136 27.7118 117.695 29.1657C117.205 30.7502 117.352 32.2858 118.463 33.6253C119.901 35.3406 123.037 35.3406 124.442 33.609C124.736 33.2496 124.932 33.2333 125.259 33.4947C125.536 33.707 125.847 33.8867 126.157 34.0501C126.37 34.1644 126.402 34.2788 126.255 34.4911C125.406 35.7653 124.181 36.4514 122.694 36.6965C122.318 36.7618 121.943 36.7945 121.551 36.7782Z" fill="#2D74DA"/>
<path d="M136.008 26.6989C137.021 25.1307 138.475 24.6896 140.108 24.608C140.321 24.5916 140.353 24.6896 140.353 24.8693C140.337 25.3594 140.337 25.8495 140.353 26.3396C140.37 26.6173 140.321 26.6989 139.994 26.6826C138.556 26.6499 137.331 27.091 136.596 28.4142C136.22 29.084 136.106 29.8191 136.106 30.5705C136.106 32.4492 136.09 34.3278 136.106 36.2064C136.106 36.5331 136.041 36.6638 135.681 36.6311C135.24 36.5985 134.783 36.5985 134.342 36.6311C133.999 36.6475 133.95 36.5331 133.95 36.2227C133.966 32.8739 133.95 29.525 133.95 26.1762C133.95 25.7841 133.966 25.3921 133.95 25C133.95 24.7877 134.015 24.706 134.227 24.7223C134.734 24.7386 135.24 24.7386 135.73 24.7223C135.943 24.7223 136.024 24.7877 136.008 25C135.992 25.5228 136.008 26.0455 136.008 26.6989Z" fill="#2D74DA"/>
<path d="M33.7296 19.7235C34.8731 18.8414 35.9839 18.0083 37.1601 17.1098C37.3562 18.5474 37.5522 19.9196 37.7482 21.3571C37.4705 21.2428 37.2418 21.1611 37.0131 21.0467C36.8171 20.9487 36.7027 20.9977 36.6047 21.2101C35.7389 23.056 34.8568 24.902 33.991 26.7316C32.0797 30.7665 30.1684 34.8178 28.2571 38.8528C27.571 40.2903 26.8849 41.7279 26.2151 43.1654C26.0844 43.4431 25.9374 43.5412 25.627 43.5248C25.1043 43.4921 24.5979 43.5085 24.0751 43.5248C23.8464 43.5248 23.7321 43.4431 23.6341 43.2471C20.5466 36.7618 17.4428 30.2765 14.3553 23.7748C13.7672 22.5333 13.1628 21.2918 12.5747 20.0666C12.5094 19.9522 12.4767 19.8215 12.395 19.6255C13.2118 19.6255 13.9796 19.6255 14.7474 19.6255C14.9107 19.6255 14.9434 19.8052 14.9924 19.9196C15.9236 21.8635 16.8384 23.8238 17.7695 25.7678C18.5536 27.4177 19.3214 29.0676 20.1055 30.7012C20.1545 30.8156 20.1872 30.9299 20.3179 31.0116C20.9223 29.7537 21.5267 28.4795 22.1148 27.2217C23.1603 25.0163 24.2058 22.7947 25.2513 20.5893C25.48 20.1156 25.48 20.1156 24.9899 19.9196C24.8102 19.8542 24.6469 19.7725 24.4182 19.6745C25.578 18.7924 26.6725 17.9593 27.8487 17.0608C28.0447 18.4983 28.2408 19.8706 28.4368 21.2918C28.1918 21.1938 27.9631 21.1284 27.767 21.0304C27.571 20.9324 27.4893 20.9977 27.4076 21.1774C25.8067 24.5753 24.1895 27.9731 22.5722 31.3873C22.2619 32.0571 21.9515 32.7105 21.6248 33.3803C21.5431 33.5273 21.5104 33.6743 21.5921 33.8377C21.9188 34.5074 22.2455 35.1772 22.5886 35.9123C23.0786 34.8832 23.5524 33.903 24.0261 32.9065C25.9701 28.8062 27.9141 24.706 29.858 20.6057C30.1194 20.0339 30.1357 20.0502 29.5476 19.8052C29.466 19.7725 29.3843 19.7235 29.2863 19.6909C29.2863 19.5438 29.4006 19.5112 29.4823 19.4458C30.4298 18.7107 31.3936 17.9919 32.3247 17.2568C32.5534 17.0771 32.6351 17.0608 32.6841 17.4038C32.8148 18.531 32.9945 19.6419 33.1415 20.7527C33.1579 20.8997 33.2069 21.0467 33.1415 21.1938C33.0435 21.2264 32.9618 21.1774 32.8638 21.1447C32.145 20.8834 32.145 20.8834 31.8183 21.5531C29.76 25.8658 27.718 30.1948 25.676 34.5238C25.1043 35.7163 24.5489 36.9088 23.9771 38.085C23.8464 38.3464 23.8301 38.5751 23.9771 38.8364C24.2875 39.4409 24.5652 40.0616 24.8919 40.7477C25.284 39.9309 25.6434 39.1632 26.0028 38.4117C28.0774 34.0337 30.1521 29.672 32.2104 25.294C32.9782 23.6768 33.7459 22.0432 34.5301 20.4423C34.6771 20.1319 34.6281 19.9849 34.3014 19.9032C34.1217 19.9032 33.9583 19.8215 33.7296 19.7235Z" fill="#2D74DA"/>
</svg>
