<svg width="127" height="45" viewBox="0 0 127 45" fill="none" xmlns="http://www.w3.org/2000/svg">
<path d="M28.74 17.3789L28.2936 14.1323L25.6671 16.1367L26.4151 16.4393L18.908 32.2812L18.079 30.5315L24.4685 17.0494L25.2829 17.3789L24.8374 14.1323L22.21 16.1367L22.9103 16.4191L17.1504 28.5725L16.3215 26.8227L20.9296 17.0982L21.623 17.3789L21.1766 14.1323L18.5502 16.1367L19.3714 16.4687L15.3938 24.8637L11.2313 16.0804H9.34766L14.5257 26.9782H14.5444L16.2951 30.6618H16.3138L18.0637 34.3462H19.7863L27.9742 17.0688L28.74 17.3789Z" fill="#2D74DA"/>
<path d="M55.2175 17.0417L49.9356 29.0851H48.2323L42.9332 17.0417H44.7913L49.127 26.9345L53.497 17.0417H55.2175ZM67.6777 24.5774C67.6777 24.7036 67.6662 24.8699 67.6433 25.0764H60.2452C60.3484 25.8792 60.6982 26.5273 61.2947 27.0205C61.9026 27.5022 62.6539 27.7431 63.5485 27.7431C64.6382 27.7431 65.5156 27.3761 66.1809 26.642L67.0927 27.7087C66.6798 28.1904 66.1637 28.5575 65.5443 28.8098C64.9364 29.0621 64.2539 29.1883 63.4969 29.1883C62.5334 29.1883 61.6789 28.9933 60.9334 28.6033C60.1878 28.2019 59.6086 27.6456 59.1957 26.9345C58.7942 26.2233 58.5935 25.4204 58.5935 24.5258C58.5935 23.6426 58.7885 22.8455 59.1785 22.1343C59.5799 21.4232 60.1248 20.8726 60.8129 20.4827C61.5126 20.0812 62.2983 19.8805 63.17 19.8805C64.0417 19.8805 64.8159 20.0812 65.4927 20.4827C66.1809 20.8726 66.7142 21.4232 67.0927 22.1343C67.4827 22.8455 67.6777 23.6598 67.6777 24.5774ZM63.17 21.2741C62.3786 21.2741 61.7133 21.5149 61.1742 21.9967C60.6466 22.4784 60.3369 23.1093 60.2452 23.8892H66.0948C66.0031 23.1207 65.6877 22.4956 65.1486 22.0139C64.621 21.5207 63.9614 21.2741 63.17 21.2741ZM78.4532 19.8805C79.6116 19.8805 80.5292 20.2188 81.2059 20.8956C81.8941 21.5608 82.2382 22.5415 82.2382 23.8376V29.0851H80.5866V24.0269C80.5866 23.1437 80.3744 22.4784 79.95 22.0311C79.5256 21.5838 78.9177 21.3601 78.1263 21.3601C77.2316 21.3601 76.5262 21.6239 76.0101 22.1515C75.4939 22.6677 75.2359 23.4132 75.2359 24.3882V29.0851H73.5842V19.9665H75.167V21.3429C75.4997 20.8726 75.947 20.5113 76.509 20.259C77.0825 20.0067 77.7306 19.8805 78.4532 19.8805Z" fill="#2D74DA"/>
<path d="M92.8823 29.1883C91.9532 29.1883 91.1216 28.9876 90.3876 28.5861C89.6649 28.1847 89.0972 27.6341 88.6843 26.9345C88.2714 26.2233 88.0649 25.4204 88.0649 24.5258C88.0649 23.6311 88.2714 22.834 88.6843 22.1343C89.0972 21.4232 89.6649 20.8726 90.3876 20.4827C91.1216 20.0812 91.9532 19.8805 92.8823 19.8805C93.7081 19.8805 94.4422 20.0468 95.0845 20.3794C95.7383 20.7121 96.2429 21.1938 96.5985 21.8246L95.3426 22.6333C95.0558 22.1974 94.7002 21.8705 94.2758 21.6526C93.8515 21.4347 93.3812 21.3257 92.8651 21.3257C92.2686 21.3257 91.7295 21.4576 91.2478 21.7214C90.7775 21.9852 90.4048 22.3637 90.1295 22.8569C89.8657 23.3387 89.7338 23.895 89.7338 24.5258C89.7338 25.1681 89.8657 25.7359 90.1295 26.2291C90.4048 26.7108 90.7775 27.0836 91.2478 27.3474C91.7295 27.6112 92.2686 27.7431 92.8651 27.7431C93.3812 27.7431 93.8515 27.6341 94.2758 27.4162C94.7002 27.1983 95.0558 26.8714 95.3426 26.4355L96.5985 27.227C96.2429 27.8578 95.7383 28.3453 95.0845 28.6894C94.4422 29.022 93.7081 29.1883 92.8823 29.1883ZM103.933 21.4977C104.219 20.9701 104.644 20.5687 105.206 20.2934C105.768 20.0181 106.45 19.8805 107.253 19.8805V21.4805C107.162 21.4691 107.035 21.4633 106.875 21.4633C105.98 21.4633 105.275 21.7329 104.759 22.272C104.254 22.7996 104.002 23.5566 104.002 24.543V29.0851H102.35V19.9665H103.933V21.4977ZM121.519 19.9665V29.0851H119.953V27.7087C119.621 28.179 119.179 28.546 118.628 28.8098C118.089 29.0621 117.499 29.1883 116.856 29.1883C115.64 29.1883 114.683 28.8557 113.983 28.1904C113.283 27.5137 112.934 26.5216 112.934 25.214V19.9665H114.585V25.0247C114.585 25.9079 114.797 26.5789 115.222 27.0377C115.646 27.485 116.254 27.7087 117.046 27.7087C117.917 27.7087 118.605 27.4449 119.11 26.9173C119.615 26.3897 119.867 25.6441 119.867 24.6806V19.9665H121.519Z" fill="#4D4D4D"/>
<path d="M36.9921 32.7494V12.2498L18.9961 2L1 12.2498V32.7494L18.9961 43L36.9921 32.7494Z" stroke="#2D74DA" stroke-width="1.74985" stroke-miterlimit="10"/>
</svg>
